<?xml version="1.0" encoding="UTF-8" standalone="no"?>
<!-- Created with Inkscape (http://www.inkscape.org/) -->

<svg
   xmlns:dc="http://purl.org/dc/elements/1.1/"
   xmlns:cc="http://creativecommons.org/ns#"
   xmlns:rdf="http://www.w3.org/1999/02/22-rdf-syntax-ns#"
   xmlns:svg="http://www.w3.org/2000/svg"
   xmlns="http://www.w3.org/2000/svg"
   xmlns:xlink="http://www.w3.org/1999/xlink"
   xmlns:sodipodi="http://sodipodi.sourceforge.net/DTD/sodipodi-0.dtd"
   xmlns:inkscape="http://www.inkscape.org/namespaces/inkscape"
   width="200.33739"
   height="200.33752"
   id="svg138266"
   version="1.1"
   inkscape:version="0.48.1 "
   sodipodi:docname="New document 203">
  <defs
     id="defs138268">
    <linearGradient
       y2="264.70465"
       x2="567.80676"
       y1="269.51297"
       x1="569.92804"
       gradientUnits="userSpaceOnUse"
       id="linearGradient134871"
       xlink:href="#linearGradient134776"
       inkscape:collect="always" />
    <linearGradient
       id="linearGradient134776"
       inkscape:collect="always">
      <stop
         id="stop134778"
         offset="0"
         style="stop-color:#eaeaea;stop-opacity:1" />
      <stop
         id="stop134780"
         offset="1"
         style="stop-color:#ffffff;stop-opacity:0;" />
    </linearGradient>
    <linearGradient
       y2="264.70465"
       x2="567.80676"
       y1="269.51297"
       x1="569.92804"
       gradientUnits="userSpaceOnUse"
       id="linearGradient134869"
       xlink:href="#linearGradient134776"
       inkscape:collect="always" />
    <linearGradient
       y2="264.70465"
       x2="567.80676"
       y1="269.51297"
       x1="569.92804"
       gradientUnits="userSpaceOnUse"
       id="linearGradient134867"
       xlink:href="#linearGradient134776"
       inkscape:collect="always" />
    <linearGradient
       y2="309.22568"
       x2="715.23859"
       y1="294.37643"
       x1="705.86932"
       gradientUnits="userSpaceOnUse"
       id="linearGradient134873"
       xlink:href="#linearGradient134758"
       inkscape:collect="always" />
    <linearGradient
       id="linearGradient134758">
      <stop
         id="stop134760"
         offset="0"
         style="stop-color:#cbcbc9;stop-opacity:1" />
      <stop
         style="stop-color:#e5e5e4;stop-opacity:1;"
         offset="0.7605989"
         id="stop134766" />
      <stop
         id="stop134762"
         offset="1"
         style="stop-color:#ffffff;stop-opacity:1" />
    </linearGradient>
    <linearGradient
       y2="22.401928"
       x2="106.24998"
       y1="22.901928"
       x1="143.49998"
       gradientTransform="matrix(0.93280072,0,0,0.93280064,1222.7963,501.83523)"
       gradientUnits="userSpaceOnUse"
       id="linearGradient133197"
       xlink:href="#linearGradient5507-3-3-6-1"
       inkscape:collect="always" />
    <linearGradient
       id="linearGradient5507-3-3-6-1">
      <stop
         style="stop-color:#ff0000;stop-opacity:1;"
         offset="0"
         id="stop5509-1-5-0-3" />
      <stop
         style="stop-color:#ff6600;stop-opacity:1"
         offset="1"
         id="stop5511-9-8-9-8" />
    </linearGradient>
    <linearGradient
       y2="22.401928"
       x2="106.24998"
       y1="22.901928"
       x1="143.49998"
       gradientTransform="matrix(0.93280072,0,0,0.93280064,1222.7963,501.83523)"
       gradientUnits="userSpaceOnUse"
       id="linearGradient138509"
       xlink:href="#linearGradient5507-3-3-6-1"
       inkscape:collect="always" />
    <linearGradient
       id="linearGradient138511">
      <stop
         style="stop-color:#ff0000;stop-opacity:1;"
         offset="0"
         id="stop138513" />
      <stop
         style="stop-color:#ff6600;stop-opacity:1"
         offset="1"
         id="stop138515" />
    </linearGradient>
    <linearGradient
       y2="22.401928"
       x2="106.24998"
       y1="22.901928"
       x1="143.49998"
       gradientTransform="matrix(1.1660009,0,0,1.1660008,190.01106,402.71094)"
       gradientUnits="userSpaceOnUse"
       id="linearGradient138519"
       xlink:href="#linearGradient5507-3-3-6-1"
       inkscape:collect="always" />
    <linearGradient
       y2="22.401928"
       x2="106.24998"
       y1="22.901928"
       x1="143.49998"
       gradientTransform="matrix(1.1660009,0,0,1.1660008,190.01106,402.71094)"
       gradientUnits="userSpaceOnUse"
       id="linearGradient138519-9"
       xlink:href="#linearGradient5507-3-3-6-1-9"
       inkscape:collect="always" />
    <linearGradient
       id="linearGradient5507-3-3-6-1-9">
      <stop
         style="stop-color:#ff0000;stop-opacity:1;"
         offset="0"
         id="stop5509-1-5-0-3-7" />
      <stop
         style="stop-color:#ff6600;stop-opacity:1"
         offset="1"
         id="stop5511-9-8-9-8-8" />
    </linearGradient>
    <linearGradient
       y2="22.401928"
       x2="106.24998"
       y1="22.901928"
       x1="143.49998"
       gradientTransform="matrix(1.1660009,0,0,1.1660008,190.01106,402.71094)"
       gradientUnits="userSpaceOnUse"
       id="linearGradient138562"
       xlink:href="#linearGradient5507-3-3-6-1-9"
       inkscape:collect="always" />
    <linearGradient
       id="linearGradient138564">
      <stop
         style="stop-color:#ff0000;stop-opacity:1;"
         offset="0"
         id="stop138566" />
      <stop
         style="stop-color:#ff6600;stop-opacity:1"
         offset="1"
         id="stop138568" />
    </linearGradient>
    <linearGradient
       y2="22.401928"
       x2="106.24998"
       y1="22.901928"
       x1="143.49998"
       gradientTransform="matrix(1.1660009,0,0,1.1660008,205.6048,456.86719)"
       gradientUnits="userSpaceOnUse"
       id="linearGradient138572"
       xlink:href="#linearGradient5507-3-3-6-1-9"
       inkscape:collect="always" />
  </defs>
  <sodipodi:namedview
     id="base"
     pagecolor="#ffffff"
     bordercolor="#666666"
     borderopacity="1.0"
     inkscape:pageopacity="0.0"
     inkscape:pageshadow="2"
     inkscape:zoom="2.8284271"
     inkscape:cx="157.04429"
     inkscape:cy="80.255152"
     inkscape:document-units="px"
     inkscape:current-layer="layer1"
     showgrid="false"
     fit-margin-left="0.2"
     fit-margin-top="0.2"
     fit-margin-bottom="0.2"
     fit-margin-right="0.2"
     inkscape:window-width="1280"
     inkscape:window-height="780"
     inkscape:window-x="-8"
     inkscape:window-y="-8"
     inkscape:window-maximized="1" />
  <metadata
     id="metadata138271">
    <rdf:RDF>
      <cc:Work
         rdf:about="">
        <dc:format>image/svg+xml</dc:format>
        <dc:type
           rdf:resource="http://purl.org/dc/dcmitype/StillImage" />
        <dc:title></dc:title>
      </cc:Work>
    </rdf:RDF>
  </metadata>
  <g
     inkscape:label="Layer 1"
     inkscape:groupmode="layer"
     id="layer1"
     transform="translate(-288.42918,-409.33628)">
    <g
       id="g138601">
      <text
         sodipodi:linespacing="125%"
         id="text5503-8"
         y="485.02832"
         x="316.08347"
         style="font-size:46.64002228px;font-style:normal;font-weight:normal;line-height:125%;letter-spacing:0px;word-spacing:0px;fill:url(#linearGradient138572);fill-opacity:1;stroke:none;font-family:StoneSerITCStd Medium;-inkscape-font-specification:StoneSerITCStd Medium"
         xml:space="preserve"><tspan
           style="font-size:6.99600458px;fill:url(#linearGradient138572);fill-opacity:1"
           y="485.02832"
           x="316.08347"
           id="tspan5505-1"
           sodipodi:role="line">Created by Falzar FZ</tspan></text>
      <path
         style="fill:#dfca76;fill-opacity:1"
         d="m 326.16031,409.53628 -37.53113,37.53125 0,124.87503 37.53113,37.53124 124.875,0 37.53125,-37.53124 0,-124.87503 -37.53125,-37.5 z"
         id="path1978-1-9-0-9"
         inkscape:connector-curvature="0"
         sodipodi:nodetypes="ccccccccc" />
      <g
         id="g134784"
         transform="matrix(1.25,0,0,1.25,-364.79036,202.37259)">
        <path
           style="fill:#5d3b03;fill-opacity:1"
           d="m 612.73554,165.75597 c -10.1001,2.40033 -15.02292,6.48751 -19.95,10.05 -4.92708,3.56249 -5.06456,6.44274 -10,10 -4.93544,3.55726 -13.33333,6.66667 -20,10 -6.66667,3.33333 -13.15582,5.08002 -20,10 -6.84418,4.91998 -16.91561,12.47993 -20,19.9 0.11561,9.12007 -0.0863,9.71146 0,16.25233 2.18628,5.24087 4.18184,10.2534 10,13.64767 20.95024,2.97001 54.53915,-21.88674 54.53915,-21.88674 0,0 -15.07479,21.78327 -44.58915,31.98674 -6.249,8.48561 -12.27231,20.28473 -9.975,30 2.29731,9.71527 7.94964,15.00858 20,20 12.05036,4.99142 49.975,0 49.975,0 l 0,9.95 49.925,0.025 30.025,-30.025 0,-99.9 c 0,0 -17.31569,-24.74599 -30,-30 -17.35121,-0.0214 -22.77883,0.71094 -39.95,0 z"
           id="path1952-8-3"
           inkscape:connector-curvature="0"
           sodipodi:nodetypes="czzzzccccczzccccccc" />
        <g
           transform="translate(6.6384776,-39.19447)"
           id="g47076">
          <path
             inkscape:connector-curvature="0"
             style="fill:#603d03;fill-opacity:1"
             d="m 607.66652,207.74512 c -9.51412,2.22982 -14.24829,6.04528 -18.9811,9.39784 -4.6626,3.32819 -4.902,6.03485 -9.56721,9.37299 -4.7285,3.36966 -12.64546,6.34221 -18.95262,9.53106 -6.3141,3.19392 -12.4515,4.93375 -18.89914,9.60565 -0.50605,0.36733 -1.03012,0.74956 -1.56772,1.14547 -6.04954,4.69733 -14.02847,11.3103 -16.54913,17.82423 -2.76558,7.00585 -1.86909,13.94348 0.20276,18.94882 2.05592,4.95563 3.929,6.24332 9.32397,9.49812 19.43911,3.24276 50.43163,-19.17522 50.31493,-18.67354 -0.10863,0.46696 -14.22262,21.01986 -41.74838,30.82127 -3.86892,5.25376 -7.66218,11.79634 -9.31256,18.24724 -0.71772,3.38016 -0.81867,6.74092 0.0128,9.8716 2.37419,8.98386 7.84461,13.91205 19.21106,18.59027 11.53997,4.72873 46.93495,0.32685 47.24765,0.6296 0.0263,0.0254 0.052,1.93327 0.0771,4.02006 0.0496,2.49212 0.0978,5.23681 0.14431,5.22312 0.27535,-0.0811 18.78489,-0.38537 32.41221,-0.61815 7.93651,-0.12781 14.23462,-0.25689 14.22781,-0.38952 -0.0186,-0.36187 27.69171,-28.442 27.69278,-28.80818 0.002,-0.82065 0.0357,-72.85795 0.017,-90.94451 -0.003,-2.41681 -0.006,-3.80714 -0.007,-3.84216 -0.0156,-0.36109 -15.92772,-23.59918 -27.7,-28.7925 -1.90878,-0.84395 -3.93009,-1.48975 -6.01958,-1.97066 -10.88105,-2.41421 -23.45714,-0.55482 -31.57987,1.31188 0,0 0,0 0,0"
             id="path47078" />
          <path
             inkscape:connector-curvature="0"
             style="fill:#633f04;fill-opacity:1"
             d="m 609.23597,210.5398 c -8.92814,2.05931 -13.47365,5.60305 -18.01219,8.74567 -4.39812,3.0939 -4.73944,5.62698 -9.13442,8.74599 -4.52156,3.18206 -11.95758,6.01774 -17.90524,9.06213 -5.96152,3.0545 -11.74719,4.78747 -17.79827,9.21129 -0.4774,0.35029 -0.97115,0.71427 -1.47711,1.0908 -5.38222,4.49443 -12.5587,10.76112 -14.7566,16.94859 -2.44678,6.59163 -1.55191,13.12785 0.40553,17.89766 1.92555,4.67038 3.67615,5.9809 8.64794,9.09622 17.92797,3.51552 46.3241,-16.46368 46.09069,-15.46033 -0.21725,0.93392 -13.37044,20.25645 -38.90761,29.6558 -3.6663,4.97872 -7.27709,11.12844 -8.93694,17.18102 -0.55788,3.09736 -0.55001,6.18057 0.31251,9.05667 2.45108,8.25244 7.73959,12.8155 18.42212,17.18053 11.02957,4.46605 43.8949,0.65369 44.5203,1.25921 0.0525,0.0508 0.10395,1.82797 0.15429,3.76989 0.0993,2.28554 0.19567,4.79384 0.28862,4.76646 0.55072,-0.16226 17.7504,-0.78066 30.34132,-1.25357 7.26343,-0.25993 13.02735,-0.52152 13.01372,-0.78678 -0.0372,-0.72374 25.35843,-26.85899 25.36057,-27.59134 0.005,-1.64131 0.0714,-68.57233 0.0341,-86.03869 -0.007,-2.25257 -0.0114,-3.56462 -0.0144,-3.63466 -0.0312,-0.72218 -14.53976,-22.45236 -25.4,-27.585 -1.76132,-0.83618 -3.62992,-1.48912 -5.56631,-1.98887 -10.1709,-2.44017 -21.89992,-1.05088 -29.6826,0.67131 0,0 0,0 0,0"
             id="path47080" />
          <path
             inkscape:connector-curvature="0"
             style="fill:#674205;fill-opacity:1"
             d="m 610.80543,213.33447 c -8.34216,1.88881 -12.69902,5.16083 -17.0433,8.09352 -4.13363,2.8596 -4.57687,5.21909 -8.70163,8.11898 -4.31461,2.99446 -11.2697,5.69328 -16.85785,8.59319 -5.60895,2.91509 -11.04287,4.64119 -16.69741,8.81694 -0.44875,0.33325 -0.91217,0.67897 -1.3865,1.03613 -4.71489,4.29153 -11.08893,10.21193 -12.96406,16.07296 -2.12797,6.17741 -1.23472,12.3122 0.60829,16.84648 1.79518,4.38514 3.4233,5.71848 7.97191,8.69434 16.41683,3.78827 42.21658,-13.75216 41.86647,-12.24713 -0.32588,1.40088 -12.51827,19.49304 -36.06684,28.49033 -3.46369,4.70368 -6.89201,10.46054 -8.56133,16.11481 -0.39804,2.81456 -0.28135,5.62022 0.61218,8.24172 2.52796,7.52102 7.63456,11.71897 17.63319,15.77079 10.51917,4.20337 40.85484,0.98055 41.79294,1.88882 0.0788,0.0763 0.15593,1.72268 0.23144,3.51973 0.14889,2.07896 0.2935,4.35087 0.43293,4.30979 0.82607,-0.24339 16.71591,-1.17594 28.27042,-1.88898 6.59035,-0.39204 11.82008,-0.78614 11.79964,-1.18403 -0.0558,-1.08561 23.02514,-25.27599 23.02836,-26.37452 0.007,-2.46196 0.10708,-64.2867 0.0511,-81.13287 -0.0101,-2.08831 -0.0171,-3.32208 -0.0216,-3.42714 -0.0468,-1.08328 -13.15179,-21.30556 -23.1,-26.37752 -1.61385,-0.8284 -3.32975,-1.48848 -5.11305,-2.00707 -9.46075,-2.46612 -20.34268,-1.54693 -27.78531,0.0307 0,0 0,0 0,0"
             id="path47082" />
          <path
             inkscape:connector-curvature="0"
             style="fill:#6a4406;fill-opacity:1"
             d="m 612.37489,216.12915 c -7.75618,1.7183 -11.92439,4.71861 -16.0744,7.44136 -3.86916,2.62529 -4.41431,4.81121 -8.26884,7.49196 -4.10767,2.80687 -10.58182,5.36883 -15.81047,8.12426 -5.25638,2.77568 -10.33855,4.49492 -15.59654,8.42259 -0.42011,0.31621 -0.8532,0.64368 -1.2959,0.98146 -4.04757,4.08863 -9.61915,9.66275 -11.17152,15.19733 -1.80916,5.76318 -0.91753,11.49655 0.81106,15.79531 1.66481,4.0999 3.17045,5.45606 7.29588,8.29244 14.90569,4.06103 38.10905,-11.04063 37.64224,-9.03392 -0.43451,1.86784 -11.6661,18.72963 -33.22607,27.32486 -3.26108,4.42864 -6.50692,9.79263 -8.18571,15.04859 -0.23821,2.53176 -0.0127,5.05988 0.91184,7.42678 2.60484,6.78961 7.52954,10.62244 16.84425,14.36106 10.00877,3.94068 37.81479,1.3074 39.06559,2.51842 0.10501,0.10167 0.20791,1.61739 0.30859,3.26957 0.19852,1.87238 0.39133,3.9079 0.57723,3.85313 1.10143,-0.32452 15.68143,-1.57123 26.19953,-2.5244 5.91727,-0.52416 10.61281,-1.05077 10.58556,-1.58128 -0.0744,-1.44748 20.69186,-23.693 20.69614,-25.1577 0.01,-3.28261 0.14277,-60.00107 0.0681,-76.22704 -0.0134,-1.92406 -0.0227,-3.07956 -0.0288,-3.21964 -0.0624,-1.44438 -11.76383,-20.15874 -20.80001,-25.17002 -1.46637,-0.82063 -3.02958,-1.48785 -4.65977,-2.02527 -8.75061,-2.49209 -18.78545,-2.043 -25.88803,-0.60985 0,0 0,0 0,0"
             id="path47084" />
          <path
             inkscape:connector-curvature="0"
             style="fill:#6e4706;fill-opacity:1"
             d="m 613.94434,218.92383 c -7.17019,1.54779 -11.14975,4.27638 -15.10549,6.78919 -3.60468,2.391 -4.25175,4.40333 -7.83605,6.86496 -3.90074,2.61927 -9.89395,5.04437 -14.76309,7.65532 -4.90381,2.63627 -9.63424,4.34865 -14.49568,8.02824 -0.39145,0.29917 -0.79422,0.60838 -1.20529,0.92679 -3.38024,3.88574 -8.14937,9.11356 -9.37898,14.3217 -1.49035,5.34896 -0.60034,10.68091 1.01382,14.74413 1.53445,3.81466 2.91761,5.19365 6.61985,7.89056 13.39456,4.33378 34.00153,-8.32911 33.41802,-5.82072 -0.54314,2.3348 -10.81393,17.96622 -30.38531,26.15939 -3.05845,4.1536 -6.12183,9.12473 -7.81009,13.98237 -0.0784,2.24896 0.25596,4.49954 1.21151,6.61184 2.68173,6.0582 7.42451,9.52591 16.05531,12.95133 9.49838,3.678 34.77474,1.63424 36.33824,3.14802 0.13126,0.12709 0.25989,1.51211 0.38573,3.01942 0.24815,1.66579 0.48917,3.46492 0.72155,3.39646 1.37679,-0.40565 14.64693,-1.96652 24.12864,-3.15982 5.24418,-0.65628 9.40553,-1.31539 9.37146,-1.97854 -0.0929,-1.80934 18.35858,-22.10999 18.36393,-23.94086 0.012,-4.10327 0.17847,-55.71545 0.0852,-71.32122 -0.0168,-1.75981 -0.0284,-2.83704 -0.036,-3.01214 -0.0779,-1.80547 -10.37586,-19.01193 -18.50001,-23.96252 -1.31891,-0.81286 -2.72941,-1.48722 -4.2065,-2.04348 -8.04046,-2.51804 -17.22823,-2.53905 -23.99076,-1.25042 0,0 0,0 0,0"
             id="path47086" />
          <path
             inkscape:connector-curvature="0"
             style="fill:#714907;fill-opacity:1"
             d="m 615.5138,221.71851 c -6.58422,1.37729 -10.37512,3.83415 -14.13659,6.13703 -3.3402,2.1567 -4.08919,3.99544 -7.40326,6.23795 -3.6938,2.43167 -9.20607,4.7199 -13.71571,7.18639 -4.55123,2.49685 -8.92992,4.20237 -13.39481,7.63388 -0.36281,0.28213 -0.73525,0.57309 -1.11469,0.87213 -2.71291,3.68283 -6.6796,8.56437 -7.58644,13.44605 -1.17155,4.93474 -0.28316,9.86527 1.21658,13.69297 1.40409,3.52941 2.66477,4.93123 5.94383,7.48866 11.88342,4.60654 29.894,-5.61757 29.19378,-2.60751 -0.65176,2.80176 -9.96175,17.20281 -27.54453,24.99392 -2.85584,3.87856 -5.73675,8.45683 -7.43448,12.91616 0.0815,1.96615 0.52462,3.93919 1.51119,5.7969 2.7586,5.32678 7.31948,8.42936 15.26636,11.54159 8.98798,3.41531 31.73469,1.96109 33.61089,3.77763 0.15751,0.15251 0.31186,1.40681 0.46288,2.76925 0.29778,1.45921 0.587,3.02195 0.86585,2.9398 1.65215,-0.48678 13.61245,-2.36181 22.05775,-3.79524 4.5711,-0.78839 8.19826,-1.58001 8.15738,-2.37579 -0.11154,-2.17122 16.02529,-20.52699 16.03171,-22.72404 0.0144,-4.92392 0.21416,-51.42982 0.10222,-66.4154 -0.0201,-1.59555 -0.0341,-2.59451 -0.0432,-2.80463 -0.0935,-2.16656 -8.9879,-17.86511 -16.20002,-22.75502 -1.17144,-0.80508 -2.42924,-1.48659 -3.75324,-2.06169 -7.33031,-2.544 -15.67099,-3.03511 -22.09347,-1.89099 0,0 0,0 0,0"
             id="path47088" />
          <path
             inkscape:connector-curvature="0"
             style="fill:#754c08;fill-opacity:1"
             d="m 617.08326,224.51318 c -5.99824,1.20679 -9.60049,3.39193 -13.1677,5.48488 -3.07571,1.9224 -3.92662,3.58756 -6.97046,5.61094 -3.48686,2.24407 -8.5182,4.39544 -12.66833,6.71745 -4.19866,2.35744 -8.2256,4.05609 -12.29395,7.23953 -0.33416,0.26509 -0.67628,0.53779 -1.02408,0.81746 -2.04558,3.47993 -5.20982,8.01519 -5.7939,12.57042 -0.85274,4.52052 0.034,9.04962 1.41935,12.64179 1.27371,3.24417 2.41191,4.66882 5.26779,7.08678 10.37229,4.87929 25.78648,-2.90605 24.96956,0.60569 -0.76039,3.26872 -9.10958,16.4394 -24.70376,23.82845 -2.65323,3.60352 -5.35167,7.78892 -7.05887,11.84994 0.24131,1.68335 0.79328,3.37885 1.81086,4.98196 2.83548,4.59537 7.21445,7.33283 14.47742,10.13185 8.47759,3.15264 28.69464,2.28795 30.88354,4.40724 0.18377,0.17793 0.36384,1.30152 0.54003,2.51909 0.34741,1.25264 0.68483,2.57899 1.01016,2.48313 1.92751,-0.5679 12.57796,-2.7571 19.98685,-4.43065 3.89802,-0.92051 6.99099,-1.84464 6.9433,-2.77305 -0.13013,-2.53308 13.692,-18.94398 13.6995,-21.50721 0.0168,-5.74457 0.24985,-47.14419 0.11925,-61.50957 -0.0235,-1.4313 -0.0398,-2.35198 -0.0504,-2.59712 -0.10912,-2.52766 -7.59994,-16.71831 -13.90002,-21.54754 -1.02398,-0.7973 -2.12907,-1.48595 -3.29997,-2.07989 -6.62017,-2.56995 -14.11376,-3.53116 -20.19619,-2.53157 0,0 0,0 0,0"
             id="path47090" />
          <path
             inkscape:connector-curvature="0"
             style="fill:#784e09;fill-opacity:1"
             d="m 618.65272,227.30786 c -5.41226,1.03628 -8.82586,2.9497 -12.1988,4.83271 -2.81123,1.68811 -3.76406,3.17968 -6.53767,4.98394 -3.27992,2.05647 -7.83032,4.07098 -11.62095,6.24851 -3.84609,2.21803 -7.52129,3.90982 -11.19309,6.84519 -0.3055,0.24803 -0.6173,0.50248 -0.93347,0.76278 -1.37826,3.27703 -3.74004,7.466 -4.00136,11.69479 -0.53393,4.10629 0.35122,8.23398 1.62211,11.59062 1.14335,2.95892 2.15907,4.4064 4.59177,6.68489 8.86115,5.15205 21.67895,-0.19453 20.74533,3.81889 -0.86902,3.73567 -8.25741,15.67599 -21.863,22.66298 -2.4506,3.32848 -4.96657,7.12102 -6.68325,10.78372 0.40115,1.40056 1.06194,2.81851 2.11053,4.16702 2.91237,3.86396 7.10943,6.2363 13.68849,8.72212 7.96718,2.88995 25.65458,2.61479 28.15617,5.03684 0.21003,0.20335 0.41583,1.19623 0.61719,2.26893 0.39704,1.04606 0.78266,2.13602 1.15447,2.02647 2.20286,-0.64904 11.54346,-3.15239 17.91595,-5.06606 3.22494,-1.05264 5.78372,-2.10927 5.72921,-3.17031 -0.14872,-2.89495 11.35872,-17.36098 11.36729,-20.29038 0.0192,-6.56523 0.28554,-42.85857 0.13629,-56.60376 -0.0268,-1.26705 -0.0455,-2.10945 -0.0576,-2.38961 -0.1247,-2.88875 -6.21197,-15.57149 -11.60002,-20.34004 -0.87651,-0.78953 -1.8289,-1.48532 -2.84671,-2.0981 -5.91001,-2.59591 -12.55652,-4.02722 -18.2989,-3.17214 0,0 0,0 0,0"
             id="path47092" />
          <path
             inkscape:connector-curvature="0"
             style="fill:#7c5109;fill-opacity:1"
             d="m 620.22217,230.10254 c -4.82628,0.86577 -8.05122,2.50747 -11.22989,4.18055 -2.54675,1.45381 -3.6015,2.7718 -6.10489,4.35693 -3.07297,1.86887 -7.14244,3.74651 -10.57356,5.77957 -3.49352,2.07862 -6.81697,3.76355 -10.09222,6.45084 -0.27686,0.23099 -0.55833,0.46719 -0.84287,0.70811 -0.71093,3.07413 -2.27026,6.91682 -2.20881,10.81916 -0.21513,3.69207 0.66839,7.41833 1.82487,10.53944 1.01298,2.67368 1.90622,4.14398 3.91573,6.283 7.35001,5.42481 17.57144,2.51701 16.52111,7.0321 -0.97765,4.20263 -7.40524,14.91258 -19.02223,21.49751 -2.24799,3.05344 -4.58149,6.45311 -6.30764,9.71751 0.56099,1.11775 1.3306,2.25816 2.4102,3.35207 2.98925,3.13254 7.0044,5.13977 12.89955,7.31239 7.45679,2.62726 22.61453,2.94164 25.42882,5.66644 0.23628,0.22877 0.46781,1.09095 0.69433,2.01877 0.44667,0.83948 0.8805,1.69305 1.29878,1.56981 2.47822,-0.73017 10.50898,-3.54768 15.84506,-5.70148 2.55186,-1.18475 4.57645,-2.37389 4.51513,-3.56756 -0.16731,-3.25683 9.02543,-15.77798 9.03507,-19.07356 0.0216,-7.38588 0.32124,-38.57294 0.15333,-51.69793 -0.0302,-1.1028 -0.0512,-1.86693 -0.0648,-2.18211 -0.14029,-3.24984 -4.82401,-14.42468 -9.30002,-19.13254 -0.72905,-0.78176 -1.52874,-1.48469 -2.39344,-2.11631 -5.19987,-2.62186 -10.9993,-4.52328 -16.40163,-3.81271 0,0 0,0 0,0"
             id="path47094" />
          <path
             inkscape:connector-curvature="0"
             style="fill:#7f530a;fill-opacity:1"
             d="m 621.79163,232.89722 c -4.2403,0.69526 -7.27659,2.06525 -10.26099,3.52839 -2.28228,1.21951 -3.43893,2.36391 -5.6721,3.72991 -2.86603,1.68128 -6.45457,3.42206 -9.52618,5.31065 -3.14094,1.9392 -6.11266,3.61727 -8.99136,6.05648 -0.24821,0.21395 -0.49935,0.43189 -0.75225,0.65344 -0.0436,2.87123 -0.8005,6.36763 -0.41628,9.94352 0.10367,3.27785 0.98558,6.60269 2.02763,9.48828 0.88262,2.38843 1.65338,3.88156 3.23971,5.88111 5.83887,5.69756 13.46391,5.22853 12.29687,10.24529 -1.08627,4.6696 -6.55306,14.14919 -16.18145,20.33205 -2.04538,2.7784 -4.19641,5.78521 -5.93202,8.65129 0.72082,0.83495 1.59924,1.69781 2.70986,2.53714 3.06613,2.40112 6.89938,4.04322 12.11061,5.90265 6.94639,2.36458 19.57448,3.26849 22.70147,6.29605 0.26253,0.25418 0.51978,0.98565 0.77148,1.7686 0.4963,0.6329 0.97833,1.25008 1.44309,1.11315 2.75358,-0.8113 9.47449,-3.94297 13.77416,-6.3369 1.87878,-1.31687 3.36918,-2.63852 3.30105,-3.96482 -0.1859,-3.61869 6.69214,-14.19497 6.70285,-17.85673 0.024,-8.20653 0.35694,-34.28732 0.17036,-46.79211 -0.0335,-0.93854 -0.0568,-1.6244 -0.072,-1.9746 -0.15588,-3.61093 -3.43604,-13.27786 -7.00002,-17.92504 -0.58158,-0.77399 -1.22857,-1.48406 -1.94018,-2.13452 -4.48972,-2.64782 -9.44206,-5.01933 -14.50434,-4.45328 0,0 0,0 0,0"
             id="path47096" />
          <path
             inkscape:connector-curvature="0"
             style="fill:#83560b;fill-opacity:1"
             d="m 623.36109,235.69189 c -3.65432,0.52476 -6.50196,1.62303 -9.2921,2.87623 -2.01779,0.98521 -3.27636,1.95603 -5.2393,3.10291 -2.65909,1.49368 -5.76669,3.0976 -8.4788,4.84171 -2.78837,1.79978 -5.40834,3.471 -7.89049,5.66213 -0.21956,0.19691 -0.44038,0.3966 -0.66165,0.59878 0.62371,2.66833 0.66928,5.81844 1.37626,9.06788 0.42248,2.86363 1.30277,5.78705 2.23039,8.4371 0.75226,2.1032 1.40053,3.61915 2.56368,5.47922 4.32774,5.97032 9.35639,7.94006 8.07265,13.4585 -1.1949,5.13656 -5.70089,13.38578 -13.34069,19.16657 -1.84276,2.50337 -3.81132,5.11732 -5.5564,7.58508 0.88066,0.55215 1.8679,1.13747 3.00953,1.7222 3.14301,1.66971 6.79435,2.94669 11.32167,4.49291 6.436,2.1019 16.53443,3.59535 19.97412,6.92566 0.28879,0.2796 0.57176,0.88036 0.84863,1.51845 0.54593,0.42631 1.07616,0.8071 1.58739,0.65647 3.02894,-0.89242 8.44001,-4.33825 11.70328,-6.97231 1.20569,-1.44899 2.1619,-2.90314 2.08695,-4.36207 -0.20449,-3.98056 4.35887,-12.61197 4.37064,-16.6399 0.0264,-9.02719 0.39263,-30.0017 0.1874,-41.88629 -0.0369,-0.77429 -0.0625,-1.38187 -0.0792,-1.76709 -0.17146,-3.97204 -2.04808,-12.13106 -4.70002,-16.71756 -0.43412,-0.76621 -0.9284,-1.48342 -1.48691,-2.15272 -3.77958,-2.67377 -7.88483,-5.51539 -12.60706,-5.09386 0,0 0,0 0,0"
             id="path47098" />
          <path
             inkscape:connector-curvature="0"
             style="fill:#86580c;fill-opacity:1"
             d="m 624.93054,238.48657 c -3.06833,0.35425 -5.72732,1.1808 -8.32319,2.22407 -1.75331,0.75091 -3.1138,1.54815 -4.80651,2.4759 -2.45215,1.30608 -5.07882,2.77314 -7.43142,4.37277 -2.4358,1.66037 -4.70402,3.32472 -6.78963,5.26778 -0.19091,0.17987 -0.3814,0.3613 -0.57104,0.54411 1.29104,2.46543 2.13906,5.26926 3.1688,8.19225 0.74129,2.4494 1.61995,4.9714 2.43316,7.38593 0.62188,1.81795 1.14768,3.35673 1.88765,5.07733 2.8166,6.24307 5.24886,10.65159 3.84842,16.6717 -1.30353,5.60352 -4.84872,12.62237 -10.49992,18.0011 -1.64014,2.22832 -3.42623,4.44941 -5.18079,6.51887 1.0405,0.26935 2.13656,0.57712 3.3092,0.90725 3.2199,0.9383 6.68933,1.85016 10.53274,3.08318 5.92559,1.83921 13.49437,3.92219 17.24676,7.55526 0.31504,0.30502 0.62374,0.77507 0.92577,1.26829 0.59556,0.21973 1.174,0.36413 1.73171,0.19981 3.30429,-0.97355 7.40551,-4.73354 9.63238,-7.60773 0.53261,-1.58111 0.95463,-3.16777 0.87287,-4.75932 -0.22308,-4.34243 2.02558,-11.02898 2.03843,-15.42308 0.0288,-9.84783 0.42832,-25.71607 0.20443,-36.98047 -0.0403,-0.61003 -0.0682,-1.13934 -0.0864,-1.55958 -0.18705,-4.33313 -0.66011,-10.98424 -2.40003,-15.51006 -0.28664,-0.75844 -0.62822,-1.48279 -1.03364,-2.17093 -3.06942,-2.69973 -6.3276,-6.01144 -10.70978,-5.73443 0,0 0,0 0,0"
             id="path47100" />
        </g>
        <path
           inkscape:connector-curvature="0"
           style="fill:#a76b16;fill-opacity:1"
           d="m 624.26348,215.30553 c -19.43552,1.39684 -32.18162,18.91988 -42.28125,33.78125 -10.30445,12.50247 -31.77677,9.13017 -39.59375,24.53125 -3.82485,7.69966 2.15777,17.32787 10.625,17.8125 12.26293,0.62685 22.23877,-8.36367 31.6875,-15.0625 14.12431,-11.54175 26.70513,-27.04052 45.3125,-30.9375 10.45978,-2.97566 14.75041,-17.41811 7.09375,-25.1875 -3.16323,-3.54722 -8.13842,-5.11227 -12.84375,-4.9375 z"
           id="path22902" />
        <path
           id="path26181"
           d="m 634.80045,210.78082 c -22.401,1.62513 -41.90023,7.86981 -53.54087,25.15997 -11.8767,14.54574 -31.81694,24.76444 -40.82664,42.68252 -4.40844,8.95801 2.487,20.15975 12.24616,20.72359 14.13402,0.72929 25.63197,-9.73055 36.5224,-17.52416 16.27939,-13.42802 30.77979,-31.45974 52.22628,-35.9936 12.05573,-3.46197 17.00104,-20.26474 8.17612,-29.30388 -3.64588,-4.12693 -9.38018,-5.94776 -14.80345,-5.74444 z"
           style="fill:#8a5b0d;fill-opacity:1"
           inkscape:connector-curvature="0"
           sodipodi:nodetypes="cccccccc" />
        <g
           transform="translate(1.8384776,-10.39447)"
           id="g120538">
          <path
             inkscape:connector-curvature="0"
             style="fill:#a86c16;fill-opacity:1"
             d="m 621.53879,226.78763 c -18.59586,1.61699 -31.17261,19.23604 -41.17649,33.55045 -0.14024,0.16874 -0.28229,0.33466 -0.42611,0.49782 -0.62105,0.69661 -1.27646,1.33998 -1.96144,1.9362 -8.12952,7.03767 -20.20568,7.79537 -28.75821,13.23206 -3.15607,2.01146 -5.91984,4.54703 -7.83084,8.12644 -0.22921,0.43315 -0.42639,0.87325 -0.59237,1.31858 -0.49195,1.30614 -0.69582,2.6529 -0.62434,3.99822 0.21975,4.25966 2.82635,7.93431 6.65564,9.89851 1.53039,0.81803 3.23403,1.32454 5.05551,1.40493 0.0945,0.005 0.18926,0.008 0.28432,0.011 6.39153,0.17167 12.16608,-2.37496 17.81014,-5.88882 4.50693,-2.78944 8.8211,-6.24214 13.05946,-9.28721 0.022,-0.0179 0.0439,-0.0358 0.0659,-0.0537 10.86344,-8.91061 20.99995,-20.19499 33.27899,-26.38217 3.5034,-1.77607 7.14808,-3.11536 11.01166,-3.93225 0.36704,-0.10229 0.72685,-0.21679 1.07923,-0.34282 3.24909,-1.16393 5.80058,-3.32296 7.50287,-6.10784 2.07186,-3.36191 2.94562,-7.25127 2.08951,-11.00157 -0.54618,-2.52464 -1.77828,-4.86005 -3.82733,-6.70179 -0.13877,-0.13809 -0.28092,-0.27257 -0.42633,-0.40346 -3.12394,-2.96172 -7.77029,-4.18871 -12.2698,-3.87251 0,0 0,0 0,0"
             id="path120540" />
          <path
             inkscape:connector-curvature="0"
             style="fill:#aa6d16;fill-opacity:1"
             d="m 620.65258,227.87527 c -17.75621,1.83714 -30.16361,19.55218 -40.07174,33.31963 -0.13801,0.16465 -0.27753,0.32668 -0.41851,0.48614 -0.61442,0.67905 -1.25966,1.30553 -1.93128,1.88442 -8.21019,7.00369 -19.9625,7.65412 -28.18926,12.88027 -3.12191,1.99372 -5.91393,4.41815 -7.82039,7.80297 -0.23525,0.41703 -0.43981,0.84138 -0.61392,1.27185 -0.52181,1.26507 -0.74114,2.57399 -0.64696,3.89776 0.28595,4.21685 2.99552,7.43966 6.9386,9.13853 1.52893,0.71686 3.19836,1.1331 4.97726,1.14017 0.0923,0.002 0.18479,0.002 0.27754,0.002 6.09099,0.001 11.62913,-2.56999 17.30138,-6.147 4.33887,-2.70632 8.56602,-6.0956 12.75031,-9.14256 0.0216,-0.0175 0.0431,-0.035 0.0646,-0.0525 10.67014,-8.77321 20.82554,-19.88255 32.56994,-25.85759 3.48344,-1.79252 7.04556,-3.09407 10.7661,-3.88872 0.35996,-0.0982 0.71337,-0.20605 1.06006,-0.32318 3.25772,-1.10667 5.78826,-3.07012 7.48436,-5.76704 2.13156,-3.34029 3.06535,-7.01663 2.05793,-10.701 -0.6129,-2.45334 -1.89499,-4.66063 -4.00755,-6.32932 -0.142,-0.12419 -0.28745,-0.24481 -0.43625,-0.36185 -3.07522,-2.69037 -7.61696,-3.7177 -12.11226,-3.25258 0,0 0,0 0,0"
             id="path120542" />
          <path
             inkscape:connector-curvature="0"
             style="fill:#ac6e16;fill-opacity:1"
             d="m 619.76637,228.9629 c -16.91655,2.05729 -29.1546,19.86834 -38.96698,33.08883 -0.13579,0.16055 -0.27278,0.31869 -0.41093,0.47445 -0.60778,0.66149 -1.24286,1.27107 -1.90111,1.83263 -8.29086,6.96972 -19.71932,7.51288 -27.62031,12.52849 -3.08775,1.97597 -5.90801,4.28927 -7.80994,7.47951 -0.24128,0.4009 -0.45323,0.80951 -0.63547,1.22511 -0.55167,1.224 -0.78646,2.49507 -0.66958,3.7973 0.35214,4.17404 3.16469,6.94501 7.22155,8.37854 1.52748,0.61569 3.1627,0.94167 4.89902,0.87542 0.0901,-0.002 0.18032,-0.004 0.27076,-0.008 5.79045,-0.16916 11.09219,-2.76501 16.79261,-6.40517 4.17082,-2.62321 8.31094,-5.94907 12.44118,-8.99792 0.0211,-0.0171 0.0422,-0.0342 0.0633,-0.0512 10.47684,-8.63582 20.65114,-19.57012 31.8609,-25.33303 3.46347,-1.80895 6.94305,-3.07276 10.52053,-3.84518 0.35288,-0.094 0.69989,-0.19531 1.04091,-0.30354 3.26634,-1.04942 5.77592,-2.81729 7.46584,-5.42623 2.19126,-3.31868 3.18507,-6.782 2.02636,-10.40043 -0.67964,-2.38204 -2.01171,-4.46122 -4.18778,-5.95686 -0.14523,-0.1103 -0.29398,-0.21705 -0.44616,-0.32024 -3.0265,-2.41902 -7.46365,-3.2467 -11.95473,-2.63266 0,0 0,0 0,0"
             id="path120544" />
          <path
             inkscape:connector-curvature="0"
             style="fill:#ae7017;fill-opacity:1"
             d="m 618.88016,230.05053 c -16.0769,2.27744 -28.1456,20.1845 -37.86222,32.85802 -0.13357,0.15647 -0.26803,0.31072 -0.40334,0.46277 -0.60115,0.64392 -1.22606,1.23661 -1.87095,1.78085 -8.37154,6.93574 -19.47614,7.37163 -27.05136,12.1767 -3.05359,1.95822 -5.9021,4.16039 -7.79949,7.15604 -0.24732,0.38478 -0.46665,0.77764 -0.65702,1.17837 -0.58153,1.18295 -0.83178,2.41616 -0.6922,3.69685 0.41834,4.13123 3.33386,6.45036 7.5045,7.61856 1.52603,0.51452 3.12704,0.75024 4.82078,0.61066 0.0879,-0.005 0.17585,-0.0106 0.26398,-0.0172 5.48992,-0.33956 10.55524,-2.96003 16.28385,-6.66334 4.00276,-2.54009 8.05585,-5.80252 12.13204,-8.85326 0.0207,-0.0167 0.0413,-0.0333 0.062,-0.05 10.28353,-8.49843 20.47674,-19.2577 31.15186,-24.80846 3.44349,-1.8254 6.84052,-3.05147 10.27495,-3.80165 0.34581,-0.0899 0.68642,-0.18457 1.02175,-0.2839 3.27497,-0.99216 5.7636,-2.56446 7.44733,-5.08542 2.25097,-3.29707 3.3048,-6.54736 1.99479,-10.09987 -0.74637,-2.31074 -2.12844,-4.26179 -4.36801,-5.5844 -0.14846,-0.0964 -0.3005,-0.18928 -0.45608,-0.27863 -2.97778,-2.14766 -7.31032,-2.77569 -11.79719,-2.01273 0,0 0,0 0,0"
             id="path120546" />
          <path
             inkscape:connector-curvature="0"
             style="fill:#b07117;fill-opacity:1"
             d="m 617.99395,231.13816 c -15.23724,2.4976 -27.13659,20.50065 -36.75746,32.62722 -0.13136,0.15237 -0.26328,0.30273 -0.39575,0.45108 -0.59452,0.62636 -1.20926,1.20216 -1.84079,1.72906 -8.45221,6.90177 -19.23296,7.23039 -26.48241,11.82492 -3.01943,1.94047 -5.89619,4.03152 -7.78903,6.83257 -0.25336,0.36866 -0.48008,0.74578 -0.67858,1.13164 -0.61139,1.14188 -0.8771,2.33724 -0.71482,3.59639 0.48453,4.08843 3.50303,5.95571 7.78746,6.85858 1.52457,0.41334 3.09137,0.5588 4.74253,0.3459 0.0856,-0.008 0.17138,-0.0169 0.2572,-0.0265 5.18938,-0.50997 10.01829,-3.15505 15.77508,-6.92152 3.83471,-2.45697 7.80078,-5.65598 11.82291,-8.70861 0.0202,-0.0162 0.0405,-0.0325 0.0607,-0.0488 10.09022,-8.36102 20.30233,-18.94526 30.44281,-24.28388 3.42352,-1.84184 6.73801,-3.03017 10.02939,-3.75812 0.33873,-0.0858 0.67293,-0.17383 1.00258,-0.26426 3.2836,-0.93491 5.75128,-2.31162 7.42882,-4.74462 2.31067,-3.27544 3.42453,-6.31272 1.96322,-9.7993 -0.81311,-2.23943 -2.24516,-4.06237 -4.54823,-5.21193 -0.1517,-0.0825 -0.30704,-0.16151 -0.466,-0.23702 -2.92906,-1.87631 -7.157,-2.30468 -11.63966,-1.39281 0,0 0,0 0,0"
             id="path120548" />
          <path
             inkscape:connector-curvature="0"
             style="fill:#b27217;fill-opacity:1"
             d="m 617.10774,232.22579 c -14.39759,2.71775 -26.12759,20.81681 -35.65271,32.39641 -0.12913,0.14828 -0.25852,0.29475 -0.38815,0.4394 -0.58789,0.6088 -1.19246,1.1677 -1.81064,1.67728 -8.53287,6.86779 -18.98977,7.08914 -25.91346,11.47313 -2.98526,1.92272 -5.89027,3.90264 -7.77857,6.5091 -0.25939,0.35254 -0.4935,0.71392 -0.70014,1.08491 -0.64124,1.10081 -0.92242,2.25833 -0.73744,3.49593 0.55074,4.04562 3.6722,5.46107 8.07042,6.0986 1.52311,0.31217 3.05572,0.36736 4.66429,0.0811 0.0834,-0.0112 0.16691,-0.0232 0.25041,-0.0359 4.88885,-0.68039 9.48135,-3.35008 15.26632,-7.1797 3.66666,-2.37385 7.5457,-5.50944 11.51377,-8.56396 0.0198,-0.0158 0.0396,-0.0317 0.0594,-0.0475 9.89692,-8.22363 20.12792,-18.63283 29.73376,-23.75931 3.40356,-1.85829 6.6355,-3.00887 9.78382,-3.71459 0.33166,-0.0816 0.65946,-0.16309 0.98342,-0.24461 3.29223,-0.87766 5.73896,-2.0588 7.41032,-4.40382 2.37036,-3.25383 3.54425,-6.07809 1.93163,-9.49874 -0.87983,-2.16813 -2.36188,-3.86294 -4.72845,-4.83946 -0.15494,-0.0686 -0.31357,-0.13375 -0.47592,-0.19541 -2.88034,-1.60496 -7.00367,-1.83368 -11.48212,-0.77289 0,0 0,0 0,0"
             id="path120550" />
          <path
             inkscape:connector-curvature="0"
             style="fill:#b47317;fill-opacity:1"
             d="m 616.22153,233.31343 c -13.55793,2.9379 -25.11858,21.13296 -34.54795,32.1656 -0.12691,0.14418 -0.25377,0.28676 -0.38057,0.42771 -0.58125,0.59124 -1.17565,1.13325 -1.78047,1.62549 -8.61355,6.83382 -18.74659,6.9479 -25.34451,11.12135 -2.9511,1.90497 -5.88435,3.77376 -7.76812,6.18563 -0.26543,0.33642 -0.50692,0.68205 -0.72169,1.03817 -0.6711,1.05976 -0.96774,2.17942 -0.76006,3.39548 0.61693,4.00281 3.84137,4.96642 8.35338,5.33861 1.52165,0.211 3.02005,0.17594 4.58604,-0.18361 0.0812,-0.0144 0.16243,-0.0295 0.24363,-0.0453 4.58831,-0.8508 8.9444,-3.5451 14.75756,-7.43787 3.4986,-2.29074 7.29062,-5.36291 11.20463,-8.41932 0.0194,-0.0154 0.0388,-0.0308 0.0581,-0.0463 9.70362,-8.08623 19.95352,-18.3204 29.02473,-23.23473 3.38358,-1.87473 6.53297,-2.98758 9.53824,-3.67106 0.32459,-0.0775 0.64598,-0.15235 0.96426,-0.22497 3.30086,-0.82041 5.72663,-1.80596 7.39181,-4.06302 2.43007,-3.23221 3.66397,-5.84344 1.90006,-9.19816 -0.94657,-2.09683 -2.4786,-3.66353 -4.90868,-4.467 -0.15817,-0.0547 -0.32009,-0.10599 -0.48583,-0.15381 -2.83162,-1.3336 -6.85036,-1.36266 -11.32459,-0.15295 0,0 0,0 0,0"
             id="path120552" />
        </g>
        <path
           style="fill:#6e4706;fill-opacity:1"
           d="m 677.11973,206.63678 c -12.68919,1.39163 -28.69461,0.73346 -36.65625,12.65625 -8.30512,10.61955 -0.95929,25.75242 -8.21875,36.71875 -21.65861,8.13033 -41.93465,20.72775 -64.1875,26.625 -7.67489,2.17593 -15.53997,0.63072 -22.84375,-2.0625 -3.90365,-0.89828 -8.01257,-0.9123 -12.03125,-0.40625 1.5367,16.09672 14.23211,32.88678 31.28125,33.34375 4.34099,-0.66365 4.53759,-7.29083 9.30158,-6.5061 23.41679,-7.21255 45.50864,-19.37628 69.72967,-23.33765 7.60365,-3.77117 12.6968,-10.97857 20.11082,-15.00849 9.38678,-6.6306 19.54944,-16.3058 18.01418,-28.99151 -0.006,-11.11931 -1.20838,-22.19563 -2.5625,-33.21875 l -0.99535,0.0963 -0.94215,0.0912 z"
           id="path128978"
           inkscape:connector-curvature="0" />
        <g
           transform="translate(1.8384776,-10.39447)"
           id="g130668">
          <path
             inkscape:connector-curvature="0"
             style="fill:#674305;fill-opacity:1"
             d="m 674.58763,218.1034 c -9.6324,1.11178 -21.35563,0.86023 -29.44054,6.61233 -2.3592,1.68259 -4.39815,3.79011 -6.03459,6.46755 -4.89796,6.92805 -3.66592,15.5773 -4.31665,23.7775 -0.34615,4.49542 -1.24618,8.6669 -3.79947,12.27496 -3.45212,1.41798 -6.95227,2.84447 -10.49567,4.29714 -17.22738,7.51074 -34.36493,16.9915 -52.57541,22.01098 -7.56812,2.21361 -15.27825,1.09951 -22.42891,-1.15251 -0.0831,-0.0157 -0.16626,-0.0311 -0.2495,-0.0461 -3.8323,-0.65682 -7.74442,-0.75733 -11.56819,-0.44933 -0.0688,2.76009 0.27867,5.52372 0.93888,8.27239 2.90537,7.99995 8.9449,15.47568 16.22808,19.51847 2.95945,1.59745 5.6443,2.4128 7.96642,2.45278 1.20796,0.16469 2.44512,0.25015 3.70765,0.25069 4.1956,-0.66511 4.79547,-6.57979 9.39209,-6.0244 9.1409,-2.81377 18.10886,-6.39806 26.44996,-9.74151 13.76573,-5.56017 27.55614,-10.79892 42.10035,-13.29204 2.849,-1.32634 5.38637,-3.0799 7.8411,-4.9496 3.78263,-3.35791 7.48946,-6.97094 12.03438,-9.52491 8.71925,-6.15972 18.21989,-14.77837 18.54151,-26.26678 -0.0134,-0.60065 -0.0508,-1.2077 -0.11362,-1.82114 0.0552,-10.93392 -1.10236,-21.83225 -2.41469,-32.6751 -0.004,-0.036 -0.87862,0.0123 -0.88249,-0.0237 -0.002,-0.0171 -0.21139,-0.0141 -0.42013,-0.0112 -0.20529,0.0199 -0.46056,0.0436 -0.46056,0.0436 0,0 0,1e-5 0,1e-5 0,0 0,0 0,0"
             id="path130670" />
          <path
             inkscape:connector-curvature="0"
             style="fill:#614005;fill-opacity:1"
             d="m 673.89401,219.17555 c -9.4474,1.14687 -21.09143,0.79409 -28.73475,6.89985 -2.22422,1.78603 -4.08825,3.94713 -5.55926,6.60366 -4.38775,6.94082 -3.15216,15.4102 -3.96413,23.46443 -0.43009,4.52008 -1.47499,8.53085 -4.04935,11.92173 -3.3099,1.4867 -6.75394,2.86739 -10.30719,4.22846 -16.69606,7.26032 -33.78641,16.6424 -51.64748,21.76279 -7.46134,2.25128 -15.01654,1.5683 -22.01407,-0.24252 -0.0818,-0.012 -0.16374,-0.0237 -0.24569,-0.0352 -3.83675,-0.47199 -7.64276,-0.67028 -11.35845,-0.54941 -0.45091,2.23777 -0.53339,4.45378 -0.39664,6.75542 2.74803,7.73119 9.04422,15.18751 16.1071,19.05244 3.17211,1.64985 5.56446,2.17432 7.04979,1.70952 1.18431,0.11699 2.39942,0.16087 3.64056,0.12755 4.05021,-0.66658 5.05336,-5.86877 9.48262,-5.54272 9.18107,-2.82444 18.21637,-6.44207 25.99532,-9.60234 13.52606,-5.5727 27.09493,-10.56267 41.37562,-13.1271 2.82249,-1.22652 5.38077,-2.81605 7.87151,-4.50413 3.58819,-3.34284 7.28903,-6.83437 11.76863,-9.4364 8.51378,-6.01524 17.88897,-14.19609 18.92567,-25.39352 -0.006,-0.59145 -0.0341,-1.18839 -0.0841,-1.79082 0.11634,-10.74853 -0.99636,-21.46887 -2.2669,-32.13145 -0.008,-0.072 -0.76188,-0.0718 -0.76962,-0.14378 -0.004,-0.0342 -0.1854,-0.0512 -0.36643,-0.0683 -0.17596,0.017 -0.4528,0.0418 -0.4528,0.0418 0,0 0,1e-5 0,1e-5 0,0 0,0 0,0"
             id="path130672" />
          <path
             inkscape:connector-curvature="0"
             style="fill:#5a3c04;fill-opacity:1"
             d="m 673.20039,220.2477 c -9.2624,1.18197 -20.82723,0.72794 -28.02896,7.18738 -2.08923,1.88946 -3.77835,4.10414 -5.08393,6.73976 -3.87754,6.95359 -2.6384,15.24311 -3.6116,23.15135 -0.51404,4.54474 -1.70381,8.39481 -4.29925,11.56852 -3.16767,1.55542 -6.55559,2.8903 -10.11871,4.15976 -16.16473,7.0099 -33.20787,16.29331 -50.71954,21.51461 -7.35457,2.28896 -14.75482,2.0371 -21.59922,0.66747 -0.0806,-0.008 -0.16123,-0.0164 -0.24189,-0.0243 -3.8412,-0.28716 -7.54109,-0.58324 -11.1487,-0.64948 -0.83305,1.71544 -1.34545,3.38383 -1.73217,5.23843 2.5907,7.46244 9.14355,14.89934 15.98613,18.58641 3.38476,1.70226 5.48461,1.93584 6.13316,0.96627 1.16065,0.0693 2.35371,0.0716 3.57347,0.004 3.90482,-0.66804 5.31124,-5.15773 9.57313,-5.06102 9.22124,-2.83511 18.32389,-6.4861 25.54069,-9.46317 13.28639,-5.58525 26.63372,-10.32643 40.65088,-12.96218 2.796,-1.12668 5.37519,-2.55219 7.90194,-4.05864 3.39374,-3.32779 7.08859,-6.69781 11.50287,-9.3479 8.30831,-5.87075 17.55804,-13.61381 19.30983,-24.52026 5.2e-4,-0.58224 -0.0174,-1.16908 -0.0545,-1.76049 0.17752,-10.56314 -0.89034,-21.10549 -2.11909,-31.5878 -0.0115,-0.10803 -0.64515,-0.15585 -0.65676,-0.26383 -0.006,-0.0513 -0.15941,-0.0883 -0.31273,-0.12535 -0.14664,0.0142 -0.44504,0.04 -0.44504,0.04 0,0 0,2e-5 0,2e-5 0,0 0,0 0,0"
             id="path130674" />
          <path
             inkscape:connector-curvature="0"
             style="fill:#543904;fill-opacity:1"
             d="m 672.50676,221.31985 c -9.07739,1.21707 -20.56302,0.6618 -27.32316,7.4749 -1.95425,1.9929 -3.46845,4.26117 -4.6086,6.87588 -3.36734,6.96635 -2.12464,15.076 -3.25907,22.83826 -0.59799,4.56941 -1.93264,8.25878 -4.54915,11.21531 -3.02544,1.62413 -6.35725,2.91321 -9.93022,4.09107 -15.63342,6.75947 -32.62935,15.94422 -49.79161,21.26642 -7.24779,2.32663 -14.4931,2.50589 -21.18438,1.57746 -0.0794,-0.005 -0.15871,-0.009 -0.23808,-0.0134 -3.84565,-0.10233 -7.43943,-0.49619 -10.93895,-0.74956 -1.21519,1.19312 -2.15752,2.31389 -3.06769,3.72146 2.43336,7.19368 9.24286,14.61116 15.86515,18.12038 3.59742,1.75466 5.40476,1.69736 5.21652,0.22301 1.13699,0.0216 2.30801,-0.0177 3.50638,-0.11874 3.75943,-0.66951 5.56913,-4.4467 9.66365,-4.57934 9.26141,-2.84578 18.43141,-6.53012 25.08605,-9.324 13.04672,-5.59778 26.17253,-10.09019 39.92616,-12.79724 2.7695,-1.02686 5.36959,-2.28834 7.93235,-3.61317 3.1993,-3.31273 6.88815,-6.56124 11.23712,-9.25939 8.10285,-5.72627 17.22712,-13.03153 19.694,-23.647 0.007,-0.57304 -6.3e-4,-1.14976 -0.025,-1.73016 0.2387,-10.37776 -0.78432,-20.74212 -1.97128,-31.04416 -0.0153,-0.14404 -0.52842,-0.23989 -0.5439,-0.38387 -0.007,-0.0685 -0.13342,-0.12542 -0.25903,-0.18242 -0.11731,0.0113 -0.43729,0.0383 -0.43729,0.0383 0,0 0,3e-5 0,3e-5 0,0 0,0 0,0"
             id="path130676" />
          <path
             inkscape:connector-curvature="0"
             style="fill:#4d3503;fill-opacity:1"
             d="m 671.81314,222.392 c -8.89239,1.25217 -20.29882,0.59565 -26.61737,7.76243 -1.81926,2.09633 -3.15855,4.41818 -4.13328,7.01198 -2.85712,6.97912 -1.61087,14.90891 -2.90654,22.52518 -0.68193,4.59407 -2.16145,8.12274 -4.79904,10.86209 -2.88321,1.69285 -6.1589,2.93613 -9.74173,4.02238 -15.1021,6.50905 -32.05083,15.59513 -48.86369,21.01825 -7.14101,2.3643 -14.23137,2.97467 -20.76953,2.48744 -0.0781,-8.8e-4 -0.15619,-0.002 -0.23427,-0.002 -3.85009,0.0825 -7.33776,-0.40915 -10.72921,-0.84964 -1.59733,0.67079 -2.96957,1.24393 -4.40321,2.20448 2.27602,6.92492 9.34219,14.32298 15.74417,17.65434 3.81008,1.80708 5.32492,1.45888 4.2999,-0.52023 1.11333,-0.0261 2.26229,-0.10699 3.43929,-0.2419 3.61404,-0.67098 5.827,-3.73567 9.75417,-4.09764 9.30157,-2.85645 18.53892,-6.57415 24.63141,-9.18484 12.80705,-5.61031 25.71132,-9.85394 39.20143,-12.6323 2.74299,-0.92704 5.36399,-2.02449 7.96276,-3.16769 3.00487,-3.29767 6.68772,-6.42469 10.97137,-9.17089 7.89738,-5.58178 16.8962,-12.44925 20.07816,-22.77373 0.0144,-0.56384 0.0161,-1.13046 0.005,-1.69984 0.29986,-10.19237 -0.67832,-20.37874 -1.82349,-30.50051 -0.0192,-0.18005 -0.41168,-0.32395 -0.43103,-0.50392 -0.009,-0.0856 -0.10743,-0.16252 -0.20533,-0.23949 -0.088,0.009 -0.42953,0.0365 -0.42953,0.0365 0,0 0,3e-5 0,3e-5 0,0 0,0 0,0"
             id="path130678" />
          <path
             inkscape:connector-curvature="0"
             style="fill:#473203;fill-opacity:1"
             d="m 671.11952,223.46415 c -8.7074,1.28726 -20.03463,0.5295 -25.91158,8.04995 -1.68428,2.19978 -2.84864,4.5752 -3.65795,7.14809 -2.34691,6.99188 -1.09711,14.74181 -2.55401,22.21211 -0.76588,4.61873 -2.39027,7.98669 -5.04893,10.50887 -2.74099,1.76157 -5.96057,2.95903 -9.55325,3.95369 -14.57078,6.25863 -31.47231,15.24603 -47.93576,20.77006 -7.03423,2.40197 -13.96966,3.44346 -20.35469,3.39744 -0.0768,0.003 -0.15367,0.006 -0.23045,0.008 -3.85455,0.26733 -7.23611,-0.32211 -10.51947,-0.94971 -1.97947,0.14846 -3.78163,0.17398 -5.73874,0.6875 2.11869,6.65616 9.44151,14.03481 15.6232,17.18831 4.02273,1.85948 5.24507,1.2204 3.38326,-1.26349 1.08968,-0.0738 2.21659,-0.19627 3.3722,-0.36504 3.46866,-0.67245 6.08489,-3.02464 9.84469,-3.61596 9.34174,-2.86711 18.64644,-6.61817 24.17678,-9.04567 12.56737,-5.62285 25.25011,-9.6177 38.4767,-12.46736 2.71649,-0.82722 5.3584,-1.76064 7.99317,-2.72222 2.81043,-3.28261 6.48729,-6.28812 10.70562,-9.08238 7.69191,-5.4373 16.56528,-11.86696 20.46232,-21.90047 0.0214,-0.55464 0.0328,-1.11115 0.0341,-1.66952 0.36104,-10.00697 -0.5723,-20.01536 -1.67568,-29.95686 -0.023,-0.21606 -0.29495,-0.40799 -0.31817,-0.62395 -0.011,-0.10269 -0.0814,-0.19963 -0.15163,-0.29657 -0.0587,0.006 -0.42177,0.0347 -0.42177,0.0347 0,0 0,4e-5 0,4e-5 0,0 0,0 0,0"
             id="path130680" />
          <path
             inkscape:connector-curvature="0"
             style="fill:#402e02;fill-opacity:1"
             d="m 670.4259,224.5363 c -8.5224,1.32236 -19.77043,0.46336 -25.20579,8.33748 -1.54929,2.30321 -2.53874,4.73221 -3.18262,7.28419 -1.83671,7.00465 -0.58334,14.57472 -2.20149,21.89903 -0.84982,4.6434 -2.61909,7.85065 -5.29882,10.15566 -2.59877,1.83028 -5.76223,2.98194 -9.36477,3.88499 -14.03945,6.00821 -30.89377,14.89695 -47.00782,20.52188 -6.92746,2.43965 -13.70794,3.91226 -19.93985,4.30743 -0.0756,0.007 -0.15115,0.013 -0.22664,0.0193 -3.859,0.45216 -7.13444,-0.23506 -10.30973,-1.04979 -2.3616,-0.37387 -4.59369,-0.89596 -7.07426,-0.82948 1.96135,6.38741 9.54084,13.74664 15.50222,16.72228 4.2354,1.91189 5.16523,0.98192 2.46664,-2.00674 1.06602,-0.12151 2.17088,-0.28555 3.30511,-0.48819 3.32326,-0.67391 6.34277,-2.3136 9.93521,-3.13426 9.38191,-2.87779 18.75395,-6.6622 23.72213,-8.90651 12.32771,-5.63538 24.78892,-9.38145 37.75197,-12.30242 2.69,-0.7274 5.35281,-1.49679 8.0236,-2.27674 2.61598,-3.26756 6.28684,-6.15156 10.43986,-8.99388 7.48644,-5.29281 16.23436,-11.28468 20.84648,-21.02721 0.0284,-0.54543 0.0496,-1.09183 0.0637,-1.63919 0.42222,-9.82159 -0.46628,-19.65198 -1.52788,-29.41321 -0.0268,-0.25207 -0.17821,-0.49205 -0.2053,-0.744 -0.0129,-0.1198 -0.0555,-0.23672 -0.0979,-0.35364 -0.0293,0.003 -0.41401,0.033 -0.41401,0.033 0,0 0,4e-5 0,4e-5 0,0 0,0 0,0"
             id="path130682" />
        </g>
        <path
           style="fill:#603d03;fill-opacity:1"
           d="m 655.23125,277.81301 c -17.05373,5.76191 -28.9519,12.18414 -41.10999,28.12467 -2.16446,4.83234 -8.53219,9.90143 -2.05799,13.42411 12.55987,7.27941 25.64868,-1.86843 34.71899,-13.83782 6.37588,-8.61317 13.39088,-11.20695 13.05722,-23.80356 -1.04088,-1.91513 -2.51242,-4.95447 -4.60823,-3.9074 z"
           id="path2182-1-3-7"
           inkscape:connector-curvature="0" />
        <g
           id="g136607">
          <path
             style="fill:#473304;fill-opacity:1"
             d="m 652.64934,280.01129 c -16.21951,5.21925 -28.21459,11.30396 -39.45478,26.50048 -0.5583,1.23817 -1.3718,2.49704 -2.15513,3.74714 -2.02918,3.43756 -3.73145,6.68202 0.67325,9.10814 7.93199,4.64449 16.46017,2.37636 23.30517,-3.38639 3.51598,-2.77344 6.90967,-6.15098 9.90373,-9.80915 4.64168,-5.84935 9.56574,-8.81771 11.56712,-14.92163 0.6423,-2.12283 0.90346,-4.61791 0.67867,-7.62441 -1.03557,-1.81062 -2.48809,-4.5549 -4.51803,-3.61418 0,0 0,0 0,0"
             id="path136609"
             inkscape:connector-curvature="0" />
          <path
             style="fill:#553b07;fill-opacity:1"
             d="m 650.06743,282.20958 c -15.3853,4.67658 -27.47727,10.42376 -37.79958,24.87627 -0.53821,1.1851 -1.28673,2.39466 -1.99998,3.60383 -1.71805,3.33462 -2.97095,6.41178 1.09421,8.68264 7.46749,4.42255 15.89095,2.36147 22.07033,-3.41221 3.30783,-2.69487 6.647,-5.79237 9.62849,-9.14107 4.5532,-5.30873 9.3194,-8.1685 11.15009,-14.07014 0.52888,-2.05158 0.64772,-4.45678 0.28426,-7.21836 -1.03025,-1.70611 -2.46376,-4.15534 -4.42782,-3.32096 0,0 0,0 0,0"
             id="path136611"
             inkscape:connector-curvature="0" />
          <path
             style="fill:#624309;fill-opacity:1"
             d="m 647.48552,284.40786 c -14.55108,4.13392 -26.73996,9.54358 -36.14437,23.25208 -0.51814,1.13201 -1.20167,2.29228 -1.84485,3.46051 -1.40691,3.23168 -2.21045,6.14153 1.51519,8.25713 7.00298,4.20062 15.32173,2.3466 20.83547,-3.43803 3.09968,-2.6163 6.38435,-5.43374 9.35325,-8.47297 4.46474,-4.76812 9.07308,-7.5193 10.73307,-13.21866 0.41546,-1.98033 0.39198,-4.29565 -0.11014,-6.81232 -1.02494,-1.6016 -2.43943,-3.75577 -4.33762,-3.02774 0,0 0,0 0,0"
             id="path136613"
             inkscape:connector-curvature="0" />
          <path
             style="fill:#704b0c;fill-opacity:1"
             d="m 644.90361,286.60615 c -13.71686,3.59124 -26.00265,8.66339 -34.48917,21.62788 -0.49805,1.07893 -1.1166,2.1899 -1.6897,3.31718 -1.09578,3.12874 -1.44996,5.87129 1.93616,7.83163 6.53848,3.97869 14.75251,2.33173 19.60061,-3.46384 2.89154,-2.53774 6.1217,-5.07512 9.07802,-7.80489 4.37627,-4.2275 8.82675,-6.87009 10.31604,-12.36717 0.30205,-1.90909 0.13624,-4.13452 -0.50455,-6.40627 -1.01961,-1.4971 -2.4151,-3.35621 -4.24741,-2.73452 0,0 0,0 0,0"
             id="path136615"
             inkscape:connector-curvature="0" />
          <path
             style="fill:#7e530e;fill-opacity:1"
             d="m 642.32171,288.80443 c -12.88266,3.04858 -25.26535,7.7832 -32.83397,20.00368 -0.47798,1.02585 -1.03153,2.08752 -1.53457,3.17387 -0.78464,3.0258 -0.68946,5.60104 2.35713,7.40612 6.07398,3.75676 14.18329,2.31686 18.36577,-3.48966 2.68339,-2.45916 5.85904,-4.71649 8.80278,-7.13679 4.28779,-3.68689 8.58041,-6.2209 9.89901,-11.51568 0.18863,-1.83785 -0.1195,-3.9734 -0.89895,-6.00024 -1.0143,-1.39258 -2.39077,-2.95664 -4.1572,-2.4413 0,0 0,0 0,0"
             id="path136617"
             inkscape:connector-curvature="0" />
          <path
             style="fill:#8b5b11;fill-opacity:1"
             d="m 639.7398,291.00271 c -12.04844,2.50592 -24.52803,6.90302 -31.17876,18.37949 -0.45791,0.97277 -0.94647,1.98514 -1.37943,3.03055 -0.4735,2.92286 0.071,5.3308 2.7781,6.98062 5.60947,3.53483 13.61407,2.30198 17.13091,-3.51548 2.47525,-2.3806 5.59639,-4.35787 8.52755,-6.46871 4.19932,-3.14627 8.33408,-5.57169 9.48198,-10.66419 0.0752,-1.76661 -0.37524,-3.81226 -1.29336,-5.59419 -1.00898,-1.28808 -2.36644,-2.55708 -4.06699,-2.14809 0,0 0,0 0,0"
             id="path136619"
             inkscape:connector-curvature="0" />
          <path
             style="fill:#996313;fill-opacity:1"
             d="m 637.15789,293.201 c -11.21422,1.96325 -23.79072,6.02283 -29.52356,16.75529 -0.43782,0.91968 -0.8614,1.88275 -1.22429,2.88722 -0.16236,2.81993 0.83153,5.06056 3.19908,6.55512 5.14496,3.3129 13.04485,2.28711 15.89606,-3.5413 2.2671,-2.30203 5.33373,-3.99924 8.2523,-5.80061 4.11086,-2.60566 8.08776,-4.92249 9.06496,-9.81271 -0.0382,-1.69536 -0.63097,-3.65113 -1.68776,-5.18815 -1.00367,-1.18357 -2.34211,-2.15751 -3.97679,-1.85486 0,0 0,0 0,0"
             id="path136621"
             inkscape:connector-curvature="0" />
        </g>
        <path
           inkscape:connector-curvature="0"
           style="fill:#a76b16;fill-opacity:1"
           d="m 634.57598,295.39928 c -11.28058,1.54384 -25.26977,5.80582 -28.9375,17.875 0.49211,8.98749 15.14867,10.93201 18.28125,2.5625 4.9089,-5.30111 15.23583,-6.01898 16.625,-14.09375 -0.27825,-2.98046 -2.52142,-6.77511 -5.96875,-6.34375 z"
           id="path22904" />
        <g
           transform="translate(1.8384776,-10.39447)"
           id="g63963">
          <path
             inkscape:connector-curvature="0"
             id="path63965"
             d="m 631.76334,306.5375 c -6.00537,0.90803 -13.20164,2.71114 -18.51072,6.08463 -3.08413,2.02581 -5.75112,4.4146 -7.2993,7.47731 -0.62361,1.27391 -1.0763,2.60619 -1.34538,4.00378 0.25366,1.99718 1.30453,3.56777 2.80117,4.66599 4.00043,3.1115 11.22502,2.50855 14.30335,-2.13388 0.27826,-0.41987 0.52869,-0.87285 0.74431,-1.35993 3.73464,-3.8448 10.71608,-5.22616 13.78367,-9.13035 0.92371,-1.25741 1.49932,-2.61968 1.60565,-4.27895 -0.49918,-2.60158 -2.78967,-5.79448 -6.08275,-5.3286 0,0 0,0 0,0"
             style="fill:#ae7622;fill-opacity:1" />
          <path
             inkscape:connector-curvature="0"
             id="path63967"
             d="m 630.78919,307.28125 c -5.68607,0.95047 -12.9025,2.83666 -17.78958,6.11224 -2.97999,2.12043 -5.57292,4.4248 -6.77083,7.38055 -0.47165,1.25294 -0.7421,2.50637 -0.81289,3.76365 0.38575,1.77437 1.50172,3.12527 3.03213,4.01044 3.91163,2.55752 10.5436,1.42926 13.61184,-2.95803 0.27696,-0.3964 0.53698,-0.81951 0.77243,-1.27054 3.7163,-3.63676 10.75935,-5.02557 13.22298,-8.80327 0.71659,-1.27337 1.0451,-2.50444 0.93067,-3.92159 -0.72011,-2.2227 -3.05793,-4.81384 -6.19675,-4.31345 0,0 0,0 0,0"
             style="fill:#b5822e;fill-opacity:1" />
          <path
             inkscape:connector-curvature="0"
             id="path63969"
             d="m 629.81503,308.025 c -5.36677,0.99292 -12.60334,2.96218 -17.06844,6.13986 -2.87584,2.21505 -5.3947,4.435 -6.24236,7.28379 -0.31968,1.23196 -0.40789,2.40654 -0.2804,3.52351 0.51786,1.55156 1.69891,2.68278 3.26311,3.3549 3.82281,2.00353 9.86217,0.34995 12.92032,-3.78219 0.27565,-0.37293 0.54528,-0.76618 0.80055,-1.18116 3.69796,-3.42872 10.80262,-4.82496 12.66229,-8.47618 0.50946,-1.28933 0.59089,-2.3892 0.25568,-3.56423 -0.94104,-1.84382 -3.32618,-3.83321 -6.31075,-3.2983 0,0 0,0 0,0"
             style="fill:#bc8e3a;fill-opacity:1" />
          <path
             inkscape:connector-curvature="0"
             id="path63971"
             d="m 628.84088,308.76875 c -5.04747,1.03537 -12.3042,3.08771 -16.3473,6.16747 -2.77171,2.30967 -5.2165,4.4452 -5.71389,7.18704 -0.16771,1.21098 -0.0737,2.30671 0.25209,3.28337 0.64995,1.32874 1.8961,2.24028 3.49408,2.69935 3.734,1.44955 9.18074,-0.72934 12.2288,-4.60633 0.27435,-0.34946 0.55357,-0.71286 0.82867,-1.09178 3.67962,-3.22069 10.8459,-4.62436 12.1016,-8.14909 0.30234,-1.30531 0.13668,-2.27397 -0.41931,-3.20688 -1.16197,-1.46494 -3.59443,-2.85257 -6.42474,-2.28315 0,0 0,0 0,0"
             style="fill:#c39a46;fill-opacity:1" />
          <path
             inkscape:connector-curvature="0"
             id="path63973"
             d="m 627.86672,309.51249 c -4.72817,1.07782 -12.00505,3.21324 -15.62616,6.1951 -2.66756,2.40429 -5.03828,4.45539 -5.18541,7.09027 -0.0158,1.19001 0.26052,2.20689 0.78457,3.04324 0.78205,1.10593 2.09329,1.79778 3.72505,2.04381 3.64519,0.89556 8.49931,-1.80865 11.53729,-5.43049 0.27304,-0.32599 0.56187,-0.65952 0.85678,-1.0024 3.66129,-3.01265 10.88918,-4.42375 11.54093,-7.822 0.0952,-1.32127 -0.31754,-2.15873 -1.0943,-2.84952 -1.3829,-1.08606 -3.86269,-1.87194 -6.53875,-1.26801 0,0 0,0 0,0"
             style="fill:#caa652;fill-opacity:1" />
          <path
             inkscape:connector-curvature="0"
             id="path63975"
             d="m 626.89257,310.25624 c -4.40887,1.12027 -11.70591,3.33876 -14.90502,6.22271 -2.56342,2.49891 -4.86008,4.46559 -4.65694,6.99352 0.13621,1.16903 0.59472,2.10705 1.31706,2.8031 0.91415,0.88312 2.29048,1.35528 3.95602,1.38826 3.55638,0.34159 7.81788,-2.88794 10.84577,-6.25464 0.27173,-0.30252 0.57016,-0.60619 0.8849,-0.91301 3.64295,-2.80462 10.93245,-4.22315 10.98024,-7.49492 -0.11192,-1.33723 -0.77175,-2.04349 -1.76929,-2.49216 -1.60383,-0.70718 -4.13094,-0.8913 -6.65274,-0.25286 0,0 0,0 0,0"
             style="fill:#d1b25e;fill-opacity:1" />
          <path
             inkscape:connector-curvature="0"
             id="path63977"
             d="m 625.91841,310.99999 c -4.08957,1.16271 -11.40675,3.46429 -14.18388,6.25033 -2.45927,2.59353 -4.68186,4.47579 -4.12847,6.89675 0.28818,1.14805 0.92894,2.00723 1.84955,2.56297 1.04625,0.66031 2.48768,0.91278 4.18699,0.73272 3.46757,-0.2124 7.13646,-3.96725 10.15426,-7.07879 0.27043,-0.27905 0.57846,-0.55286 0.91302,-0.82364 3.62461,-2.59657 10.97572,-4.02255 10.41955,-7.16783 -0.31905,-1.35319 -1.22596,-1.92825 -2.44428,-2.1348 -1.82476,-0.3283 -4.39919,0.0893 -6.76674,0.76229 0,0 0,0 0,0"
             style="fill:#d8be6a;fill-opacity:1" />
        </g>
        <path
           inkscape:connector-curvature="0"
           id="path22840"
           d="m 626.11973,170.38678 c -16.39675,0.55807 -26.86988,14.95243 -38.07582,24.86959 -8.19158,8.54507 -17.55185,18.67454 -30.48668,18.13041 -12.14442,1.30621 -24.86079,13.32408 -20.28125,26.1875 4.29889,10.67526 18.52884,12.21704 27.625,6.96875 17.15202,-7.53198 29.71421,-22.03343 44.14441,-33.57626 7.66333,-6.78031 17.11697,-10.83193 26.60559,-14.17374 7.69159,-4.06725 11.81099,-15.55177 5.03125,-22.25 -3.48472,-4.30509 -9.07874,-6.48484 -14.5625,-6.15625 z"
           style="fill:#845511;fill-opacity:1" />
        <path
           inkscape:connector-curvature="0"
           style="fill:#8e5e17;fill-opacity:1"
           d="m 622.89181,177.35305 c -4.57305,1.09197 -4.93304,2.65485 -11.91659,8.80666 -2.98003,2.44935 -6.67109,6.13288 -10.82625,10.09725 -8.26282,7.68898 -17.33951,17.70468 -26.03255,22.28141 -1.57047,0.73614 -3.08082,1.40395 -4.48606,1.96388 -9.64594,4.35647 -14.70269,2.136 -18.71712,6.18081 -1.50905,1.40961 -2.8731,2.84321 -3.82093,4.34225 -1.45798,2.0157 -2.03904,3.98604 -0.96606,6.05081 1.87122,3.54927 5.35151,3.47183 11.47756,2.3338 1.58765,-0.24394 3.18526,-0.8492 4.77868,-1.75313 6.44025,-3.12785 12.72239,-9.57048 20.08509,-15.23955 3.98518,-3.08993 8.29803,-6.91826 12.71235,-10.65049 6.67653,-6.04494 13.54459,-12.25268 19.58615,-15.49344 1.53782,-0.85298 3.07491,-1.50822 4.59734,-2.01112 6.39991,-2.44231 11.72163,-3.00463 13.65337,-6.43925 2.04413,-3.08656 2.6947,-5.90585 0.93585,-8.50028 -0.13264,-0.20432 -0.28045,-0.40594 -0.44386,-0.60488 -2.22504,-2.69497 -6.65126,-2.55998 -10.61697,-1.36473 0,0 0,0 0,0"
           id="path57293" />
        <g
           transform="translate(1.8384776,-10.39447)"
           id="g123890">
          <path
             inkscape:connector-curvature="0"
             id="path123892"
             d="m 623.87776,181.65203 c -6.3196,0.33213 -11.28063,2.66636 -16.6122,6.48699 -4.71079,3.27546 -9.07741,7.56938 -13.41402,11.81333 -2.28212,2.22915 -4.54386,4.44816 -6.83715,6.49887 -7.28533,7.54187 -15.44086,16.25248 -25.93267,17.84862 -1.18677,0.18316 -2.39978,0.28102 -3.63986,0.28189 -0.7334,0.10257 -1.46703,0.23952 -2.19678,0.40848 -8.13772,2.02793 -15.50144,6.99269 -18.19669,14.10432 -0.84168,2.14296 -1.26296,4.40981 -1.11549,6.7425 0.0473,1.11827 0.22923,2.24831 0.5655,3.38486 0.46537,1.39915 1.13732,2.65442 2.00199,3.77403 3.13587,4.02344 8.16923,5.70128 13.62883,5.6033 2.04478,-0.0131 4.10559,-0.32557 6.08322,-0.91449 1.76615,-0.5083 3.46437,-1.22784 5.02467,-2.14327 7.57307,-3.47333 14.29656,-8.4452 20.80582,-13.80065 5.09663,-4.20042 10.04405,-8.77521 15.09511,-13.1879 2.31945,-2.04102 4.66032,-4.0515 7.04761,-5.97966 5.35506,-4.734 11.49147,-8.22117 17.81485,-10.94714 1.86658,-0.81192 3.7532,-1.55127 5.64482,-2.23901 0.79304,-0.29248 1.5858,-0.57673 2.37699,-0.85454 4.89112,-2.45761 8.43112,-7.30719 8.8513,-12.37543 0.34447,-3.15178 -0.44781,-6.25329 -2.79952,-8.74243 -0.28977,-0.37851 -0.59906,-0.74182 -0.92681,-1.08973 -0.20652,-0.21955 -0.42029,-0.43273 -0.64099,-0.63949 -3.30753,-3.0881 -8.03204,-4.42857 -12.62853,-4.03345 0,0 0,0 0,0"
             style="fill:#855611;fill-opacity:1" />
          <path
             inkscape:connector-curvature="0"
             id="path123894"
             d="m 623.47427,182.52282 c -6.07009,0.44068 -10.37383,2.66471 -15.9414,6.81837 -4.46353,3.15744 -8.73365,7.36416 -13.04434,11.56817 -2.21921,2.15554 -4.42674,4.31891 -6.66519,6.34224 -7.19552,7.39036 -15.18413,15.83389 -25.14216,17.7101 -1.15296,0.22061 -2.32527,0.36455 -3.51622,0.42051 -0.71221,0.12398 -1.42268,0.27537 -2.12748,0.45179 -8.35318,2.36058 -15.38733,6.29887 -18.27104,12.97239 -0.93701,2.0382 -1.49298,4.186 -1.50198,6.3996 -0.0486,1.08176 0.0412,2.17242 0.29483,3.26903 0.35272,1.36292 0.93904,2.60317 1.76787,3.73157 2.9552,3.9557 7.7667,5.38278 13.32151,5.13622 1.97947,-0.046 3.97411,-0.40037 5.89685,-1.03429 1.70073,-0.52645 3.3423,-1.2535 4.86619,-2.1631 7.22287,-3.46731 13.726,-8.44444 20.14353,-13.6802 4.93785,-4.04178 9.79462,-8.50993 14.75471,-12.82541 2.25822,-1.99401 4.53699,-3.9637 6.85445,-5.85455 5.27647,-4.66046 11.21557,-8.19909 17.25426,-10.86749 1.81961,-0.81778 3.6563,-1.54511 5.49518,-2.20645 0.77517,-0.28711 1.54842,-0.56424 2.31827,-0.8337 4.97922,-2.37542 8.64914,-6.64251 9.25646,-11.42616 0.54878,-3.08434 -0.0268,-6.09681 -2.18413,-8.55957 -0.26987,-0.37442 -0.56213,-0.73526 -0.87617,-1.08232 -0.19597,-0.21738 -0.40032,-0.42891 -0.61284,-0.63455 -3.15288,-3.03194 -7.83479,-4.16163 -12.34116,-3.6522 0,0 0,0 0,0"
             style="fill:#865712;fill-opacity:1" />
          <path
             inkscape:connector-curvature="0"
             id="path123896"
             d="m 623.07078,183.3936 c -5.82059,0.54923 -9.46703,2.66307 -15.2706,7.14975 -4.21628,3.03943 -8.38989,7.15895 -12.67465,11.32302 -2.15631,2.08193 -4.30962,4.18965 -6.49323,6.1856 -7.10573,7.23886 -14.9274,15.41532 -24.35166,17.57159 -1.11915,0.25806 -2.25076,0.44807 -3.39257,0.55914 -0.69103,0.14538 -1.37834,0.3112 -2.05819,0.49508 -8.56864,2.69323 -15.27322,5.60507 -18.34539,11.84046 -1.03235,1.93344 -1.723,3.96221 -1.88847,6.05672 -0.14452,1.04524 -0.14693,2.09651 0.0242,3.1532 0.24006,1.32667 0.74076,2.55191 1.53374,3.6891 2.77454,3.88796 7.36417,5.06429 13.01418,4.66915 1.91417,-0.079 3.84264,-0.47518 5.71049,-1.1541 1.6353,-0.5446 3.22022,-1.27916 4.70772,-2.18293 6.87266,-3.46129 13.15543,-8.44369 19.48123,-13.55974 4.77907,-3.88314 9.54519,-8.24466 14.41432,-12.46293 2.19699,-1.947 4.41366,-3.87591 6.66127,-5.72945 5.19789,-4.5869 10.93967,-8.17699 16.69368,-10.78782 1.77264,-0.82365 3.5594,-1.53897 5.34553,-2.1739 0.75731,-0.28174 1.51105,-0.55175 2.25957,-0.81286 5.06732,-2.29323 8.86715,-5.97783 9.66161,-10.4769 0.75309,-3.01688 0.39411,-5.94031 -1.56875,-8.37669 -0.24997,-0.37035 -0.52518,-0.7287 -0.82553,-1.07493 -0.18542,-0.2152 -0.38034,-0.42508 -0.58467,-0.6296 -2.99825,-2.97578 -7.63754,-3.89469 -12.0538,-3.27096 0,0 0,0 0,0"
             style="fill:#875813;fill-opacity:1" />
          <path
             inkscape:connector-curvature="0"
             id="path123898"
             d="m 622.66729,184.26438 c -5.57108,0.65778 -8.56023,2.66143 -14.59979,7.48114 -3.96904,2.92141 -8.04614,6.95373 -12.30498,11.07787 -2.09341,2.00831 -4.1925,4.06038 -6.32126,6.02896 -7.01594,7.08735 -14.67068,14.99673 -23.56116,17.43306 -1.08534,0.29553 -2.17625,0.5316 -3.26892,0.69777 -0.66986,0.16678 -1.334,0.34705 -1.9889,0.53839 -8.7841,3.02588 -15.15912,4.91125 -18.41973,10.70853 -1.12769,1.82867 -1.95302,3.73841 -2.27497,5.71382 -0.24041,1.00873 -0.33501,2.02062 -0.2465,3.03738 0.12741,1.29043 0.54248,2.50066 1.29961,3.64662 2.59388,3.82023 6.96164,4.7458 12.70686,4.20209 1.84887,-0.11202 3.71117,-0.54999 5.52413,-1.27391 1.56988,-0.56275 3.09814,-1.30482 4.54924,-2.20276 6.52245,-3.45526 12.58487,-8.44294 18.81894,-13.43929 4.62029,-3.7245 9.29576,-7.97937 14.07393,-12.10044 2.13575,-1.89998 4.29032,-3.78812 6.46809,-5.60434 5.1193,-4.51335 10.66377,-8.15491 16.13309,-10.70816 1.72569,-0.82952 3.46251,-1.53282 5.1959,-2.14134 0.73944,-0.27638 1.47368,-0.53927 2.20086,-0.79203 5.15542,-2.21105 9.08516,-5.31315 10.06675,-9.52763 0.9574,-2.94944 0.81508,-5.78382 -0.95336,-8.19383 -0.23006,-0.36626 -0.48823,-0.72213 -0.77489,-1.06753 -0.17486,-0.21302 -0.36036,-0.42125 -0.55651,-0.62465 -2.8436,-2.91962 -7.44028,-3.62775 -11.76643,-2.88972 0,0 0,0 0,0"
             style="fill:#895914;fill-opacity:1" />
          <path
             inkscape:connector-curvature="0"
             id="path123900"
             d="m 622.2638,185.13517 c -5.32157,0.76632 -7.65343,2.65978 -13.92899,7.81251 -3.72179,2.8034 -7.70237,6.74852 -11.9353,10.83272 -2.0305,1.9347 -4.07537,3.93113 -6.1493,5.87233 -6.92613,6.93584 -14.41395,14.57815 -22.77065,17.29454 -1.05153,0.33298 -2.10174,0.61512 -3.14528,0.83639 -0.64867,0.18819 -1.28965,0.3829 -1.9196,0.5817 -8.99956,3.35852 -15.04501,4.21744 -18.49408,9.5766 -1.22303,1.7239 -2.18304,3.51461 -2.66146,5.37093 -0.3363,0.97222 -0.52309,1.94472 -0.51716,2.92154 0.0147,1.25419 0.34419,2.44941 1.06548,3.60416 2.41322,3.75248 6.55911,4.42731 12.39954,3.73501 1.78356,-0.145 3.57968,-0.62478 5.33777,-1.39371 1.50445,-0.5809 2.97606,-1.33048 4.39076,-2.22258 6.17224,-3.44925 12.0143,-8.4422 18.15664,-13.31884 4.46151,-3.56586 9.04633,-7.7141 13.73353,-11.73796 2.07452,-1.85297 4.16699,-3.70032 6.27492,-5.47923 5.04072,-4.43981 10.38788,-8.13282 15.57251,-10.6285 1.67872,-0.83538 3.3656,-1.52667 5.04626,-2.10879 0.72156,-0.27101 1.4363,-0.52678 2.14214,-0.77119 5.24353,-2.12886 9.30319,-4.64847 10.47191,-8.57837 1.16171,-2.88198 1.23605,-5.62732 -0.33797,-8.01095 -0.21017,-0.36219 -0.45129,-0.71558 -0.72426,-1.06013 -0.1643,-0.21085 -0.34038,-0.41742 -0.52834,-0.61971 -2.68897,-2.86346 -7.24303,-3.36081 -11.47907,-2.50847 0,0 0,0 0,0"
             style="fill:#8a5a14;fill-opacity:1" />
          <path
             inkscape:connector-curvature="0"
             id="path123902"
             d="m 621.86031,186.00595 c -5.07206,0.87488 -6.74664,2.65814 -13.25819,8.1439 -3.47453,2.68538 -7.35861,6.54331 -11.56562,10.58756 -1.96759,1.86109 -3.95825,3.80187 -5.97733,5.7157 -6.83634,6.78433 -14.15723,14.15956 -21.98015,17.15602 -1.01772,0.37043 -2.02723,0.69864 -3.02163,0.97501 -0.62749,0.2096 -1.24531,0.41874 -1.85031,0.62501 -9.21502,3.69117 -14.9309,3.52362 -18.56843,8.44467 -1.31837,1.61914 -2.41306,3.2908 -3.04794,5.02803 -0.4322,0.93571 -0.71118,1.86883 -0.78784,2.80572 -0.0979,1.21794 0.14591,2.39816 0.83136,3.56169 2.23255,3.68474 6.15658,4.10881 12.09221,3.26794 1.71826,-0.17798 3.44821,-0.69959 5.15141,-1.51352 1.43902,-0.59904 2.85398,-1.35614 4.23229,-2.24241 5.82203,-3.44323 11.44373,-8.44144 17.49434,-13.19839 4.30274,-3.40721 8.79689,-7.44882 13.39314,-11.37546 2.01328,-1.80597 4.04365,-3.61254 6.08175,-5.35413 4.96212,-4.36626 10.11197,-8.11073 15.01192,-10.54885 1.63175,-0.84124 3.2687,-1.52051 4.89662,-2.07623 0.70369,-0.26564 1.39892,-0.5143 2.08343,-0.75035 5.33162,-2.04667 9.5212,-3.98378 10.87706,-7.6291 1.36602,-2.81454 1.65701,-5.47083 0.27741,-7.82808 -0.19026,-0.35811 -0.41435,-0.70902 -0.67361,-1.05274 -0.15375,-0.20867 -0.32041,-0.41359 -0.50019,-0.61477 -2.53432,-2.80729 -7.04577,-3.09386 -11.1917,-2.12722 0,0 0,0 0,0"
             style="fill:#8b5b15;fill-opacity:1" />
          <path
             inkscape:connector-curvature="0"
             id="path123904"
             d="m 621.45682,186.87674 c -4.82256,0.98342 -5.83984,2.65649 -12.58739,8.47527 -3.22728,2.56737 -7.01485,6.3381 -11.19593,10.34241 -1.90469,1.78749 -3.84113,3.67261 -5.80537,5.55907 -6.74655,6.63282 -13.90051,13.74098 -21.18965,17.01749 -0.98391,0.4079 -1.95271,0.78217 -2.89798,1.11364 -0.60631,0.23101 -1.20097,0.45459 -1.78102,0.66831 -9.43048,4.02382 -14.8168,2.82982 -18.64277,7.31274 -1.41371,1.51438 -2.64308,3.06701 -3.43444,4.68515 -0.52809,0.89919 -0.89926,1.79293 -1.0585,2.68989 -0.21056,1.1817 -0.0524,2.3469 0.59723,3.51921 2.05189,3.61701 5.75404,3.79033 11.78489,2.80087 1.65295,-0.21096 3.31673,-0.77439 4.96504,-1.63332 1.3736,-0.61719 2.7319,-1.3818 4.07381,-2.26224 5.47183,-3.4372 10.87317,-8.44069 16.83205,-13.07793 4.14396,-3.24858 8.54746,-7.18354 13.05274,-11.01298 1.95205,-1.75896 3.92033,-3.52474 5.88858,-5.22903 4.88354,-4.29271 9.83607,-8.08864 14.45133,-10.46918 1.58479,-0.84711 3.17181,-1.51437 4.74698,-2.04367 0.68583,-0.26027 1.36155,-0.50182 2.02473,-0.72952 5.41972,-1.96448 9.73921,-3.3191 11.2822,-6.67984 1.57033,-2.74708 2.07798,-5.31433 0.8928,-7.64521 -0.17035,-0.35403 -0.3774,-0.70246 -0.62297,-1.04533 -0.1432,-0.2065 -0.30043,-0.40977 -0.47202,-0.60983 -2.37969,-2.75113 -6.84852,-2.82692 -10.90434,-1.74597 0,0 0,0 0,0"
             style="fill:#8c5c16;fill-opacity:1" />
        </g>
        <g
           transform="translate(1.8384776,-10.39447)"
           id="g107223">
          <path
             inkscape:connector-curvature="0"
             style="fill:#97651d;fill-opacity:1"
             d="m 620.85685,188.03492 c -4.46403,1.14675 -4.61017,2.68174 -11.66567,8.94218 -0.0337,0.0281 -0.0675,0.0563 -0.10135,0.0847 -2.88655,2.41604 -6.52325,6.04043 -10.62113,9.96091 -8.18717,7.66154 -17.31881,17.56096 -25.79694,22.17322 -1.39886,0.69213 -2.74428,1.31794 -4.00402,1.84757 -0.1381,0.0582 -0.27523,0.11526 -0.41136,0.17126 -9.62351,4.4207 -14.54301,1.95696 -18.57797,5.77804 -0.0204,0.0193 -0.0407,0.0387 -0.0611,0.0582 -1.5224,1.36806 -2.912,2.75235 -3.89707,4.19593 -1.51503,1.96647 -2.16753,3.89807 -1.1527,5.94184 0.0697,0.1388 0.14271,0.27285 0.21907,0.40229 1.86277,3.15561 5.22659,2.94933 11.14061,1.80342 0.1496,-0.0246 0.29948,-0.0521 0.44965,-0.0825 1.42191,-0.28742 2.85106,-0.86723 4.2808,-1.68897 6.28649,-3.1476 12.48844,-9.61498 19.83625,-15.25271 0.0498,-0.0385 0.0998,-0.0771 0.14972,-0.11575 3.89889,-3.01919 8.13632,-6.77328 12.46521,-10.45662 6.53574,-5.90573 13.24477,-11.97599 19.07087,-15.23366 0.11289,-0.0632 0.22552,-0.12536 0.33787,-0.18645 1.52748,-0.85545 3.05124,-1.50937 4.55618,-2.01074 6.28713,-2.37876 11.53975,-2.77955 13.56753,-5.99587 0.0299,-0.0473 0.0592,-0.0952 0.0878,-0.14349 2.09838,-3.06656 2.80952,-5.84663 1.10435,-8.39905 -0.12637,-0.19687 -0.26737,-0.39131 -0.42341,-0.58334 -0.005,-0.006 -0.0101,-0.0124 -0.0151,-0.0186 -2.18803,-2.65966 -6.60477,-2.42933 -10.53809,-1.19191 0,0 0,0 0,0"
             id="path107225" />
          <path
             inkscape:connector-curvature="0"
             style="fill:#a16d23;fill-opacity:1"
             d="m 620.66038,188.32231 c -4.35502,1.20154 -4.28731,2.70865 -11.41476,9.07771 -0.0332,0.0281 -0.0665,0.0563 -0.0998,0.0846 -2.81118,2.38296 -6.43059,5.98729 -10.51888,9.90937 -8.11151,7.6341 -17.2981,17.41723 -25.56133,22.06504 -1.38138,0.72037 -2.70479,1.36367 -3.93873,1.89919 -0.1363,0.0593 -0.27163,0.11754 -0.40597,0.17459 -9.64936,4.50672 -14.43405,1.75585 -18.49916,5.43552 -0.0206,0.0186 -0.0412,0.0374 -0.0618,0.0562 -1.53575,1.32652 -2.95089,2.66148 -3.97321,4.04961 -1.57208,1.91723 -2.29601,3.81009 -1.33933,5.83287 0.0659,0.1381 0.13583,0.27229 0.20996,0.4027 1.80481,3.17156 5.08904,2.87344 11.03184,1.67492 0.14801,-0.026 0.29652,-0.0545 0.44552,-0.0856 1.40575,-0.29239 2.81891,-0.87865 4.23668,-1.70426 6.13273,-3.16736 12.25451,-9.6595 19.58742,-15.26587 0.0496,-0.0381 0.0992,-0.0763 0.14896,-0.1146 3.85462,-2.96912 8.06958,-6.69828 12.36855,-10.37965 6.52046,-5.88017 13.20311,-11.93265 18.89718,-15.15978 0.11163,-0.0634 0.22302,-0.12575 0.33416,-0.18701 1.51714,-0.85792 3.02755,-1.51052 4.51501,-2.01036 6.26653,-2.35038 11.51141,-2.57106 13.56727,-5.69914 0.0306,-0.0463 0.0606,-0.0931 0.09,-0.14033 2.15263,-3.04656 2.92433,-5.78742 1.27285,-8.29781 -0.12425,-0.19581 -0.26352,-0.38929 -0.41825,-0.58047 -0.005,-0.006 -0.01,-0.0123 -0.015,-0.0184 -2.15101,-2.62436 -6.55828,-2.29869 -10.4592,-1.01911 0,0 0,0 0,0"
             id="path107227" />
          <path
             inkscape:connector-curvature="0"
             style="fill:#aa7529;fill-opacity:1"
             d="m 620.4639,188.60971 c -4.246,1.25633 -3.96444,2.73554 -11.16384,9.21322 -0.0327,0.0281 -0.0654,0.0562 -0.0983,0.0846 -2.7358,2.34988 -6.33793,5.93415 -10.41662,9.85782 -8.03586,7.60667 -17.2774,17.27352 -25.32571,21.95686 -1.36391,0.74861 -2.66531,1.4094 -3.87345,1.95081 -0.13449,0.0605 -0.26803,0.11983 -0.40058,0.17792 -9.67521,4.59275 -14.3251,1.55475 -18.42036,5.09302 -0.0209,0.018 -0.0417,0.036 -0.0625,0.0542 -1.54911,1.28497 -2.9898,2.57062 -4.04936,3.90329 -1.62914,1.868 -2.4245,3.72212 -1.52597,5.7239 0.062,0.13739 0.12895,0.27172 0.20086,0.40311 1.74684,3.18751 4.95149,2.79755 10.92306,1.54642 0.14644,-0.0274 0.29357,-0.0569 0.4414,-0.0886 1.38958,-0.29734 2.78676,-0.89006 4.19257,-1.71955 5.97897,-3.1871 12.02056,-9.704 19.33858,-15.27903 0.0493,-0.0378 0.0987,-0.0756 0.1482,-0.11345 3.81034,-2.91903 8.00284,-6.62327 12.27189,-10.30268 6.50518,-5.8546 13.16144,-11.88929 18.72349,-15.0859 0.11037,-0.0636 0.22052,-0.12613 0.33044,-0.18756 1.5068,-0.86039 3.00388,-1.51167 4.47385,-2.00998 6.24593,-2.32201 11.48307,-2.36257 13.56701,-5.4024 0.0313,-0.0454 0.062,-0.0911 0.0923,-0.13718 2.20688,-3.02656 3.03914,-5.7282 1.44135,-8.19658 -0.12213,-0.19475 -0.25965,-0.38726 -0.41308,-0.57758 -0.005,-0.006 -0.01,-0.0122 -0.0148,-0.0183 -2.11399,-2.58906 -6.51177,-2.16805 -10.38031,-0.84629 0,0 0,0 0,0"
             id="path107229" />
          <path
             inkscape:connector-curvature="0"
             style="fill:#b47d2f;fill-opacity:1"
             d="m 620.26742,188.8971 c -4.13697,1.31112 -3.64157,2.76244 -10.91291,9.34875 -0.0322,0.028 -0.0644,0.0562 -0.0968,0.0845 -2.66042,2.3168 -6.24527,5.881 -10.31437,9.80628 -7.96021,7.57922 -17.25669,17.12979 -25.0901,21.84868 -1.34643,0.77684 -2.62581,1.45512 -3.80816,2.00243 -0.13269,0.0617 -0.26442,0.12211 -0.39519,0.18125 -9.70105,4.67877 -14.21615,1.35364 -18.34156,4.7505 -0.0211,0.0173 -0.0422,0.0347 -0.0632,0.0522 -1.56247,1.24342 -3.02869,2.47975 -4.1255,3.75697 -1.68619,1.81877 -2.55299,3.63414 -1.71261,5.61493 0.0582,0.13669 0.12207,0.27116 0.19175,0.40353 1.68889,3.20345 4.81395,2.72165 10.81429,1.41791 0.14487,-0.0288 0.29063,-0.0593 0.43729,-0.0917 1.37341,-0.3023 2.7546,-0.90147 4.14844,-1.73483 5.82522,-3.20686 11.78662,-9.74851 19.08975,-15.2922 0.0491,-0.0374 0.0982,-0.0748 0.14744,-0.11229 3.76607,-2.86895 7.93611,-6.54827 12.17523,-10.22572 6.4899,-5.82903 13.11978,-11.84594 18.5498,-15.01201 0.10912,-0.0638 0.21803,-0.12651 0.32673,-0.18811 1.49646,-0.86287 2.9802,-1.51282 4.43269,-2.00961 6.22532,-2.29364 11.45472,-2.15407 13.56674,-5.10567 0.032,-0.0444 0.0635,-0.0891 0.0945,-0.13403 2.26113,-3.00654 3.15396,-5.66897 1.60985,-8.09533 -0.12,-0.19369 -0.25579,-0.38524 -0.4079,-0.57471 -0.005,-0.006 -0.01,-0.0122 -0.0147,-0.0182 -2.07698,-2.55375 -6.46528,-2.0374 -10.30143,-0.67348 0,0 0,0 0,0"
             id="path107231" />
          <path
             inkscape:connector-curvature="0"
             style="fill:#be8535;fill-opacity:1"
             d="m 620.07095,189.1845 c -4.02796,1.3659 -3.31871,2.78933 -10.662,9.48427 -0.0316,0.028 -0.0634,0.0562 -0.0953,0.0844 -2.58504,2.28373 -6.15261,5.82787 -10.2121,9.75475 -7.88456,7.55178 -17.236,16.98607 -24.8545,21.74049 -1.32895,0.80508 -2.58632,1.50086 -3.74287,2.05406 -0.13088,0.0629 -0.26082,0.12439 -0.3898,0.18457 -9.7269,4.7648 -14.1072,1.15254 -18.26276,4.40799 -0.0213,0.0167 -0.0426,0.0334 -0.0639,0.0502 -1.57582,1.20187 -3.06759,2.38889 -4.20164,3.61065 -1.74324,1.76953 -2.68148,3.54617 -1.89924,5.50596 0.0544,0.13598 0.11519,0.27059 0.18264,0.40394 1.63092,3.2194 4.6764,2.64576 10.70552,1.28941 0.14328,-0.0302 0.28767,-0.0617 0.43316,-0.0947 1.35724,-0.30727 2.72245,-0.91289 4.10433,-1.75013 5.67146,-3.22661 11.55268,-9.79302 18.84091,-15.30535 0.0488,-0.037 0.0977,-0.0741 0.14668,-0.11115 3.72179,-2.81886 7.86937,-6.47327 12.07857,-10.14875 6.47462,-5.80346 13.07811,-11.80259 18.37612,-14.93812 0.10785,-0.064 0.21552,-0.1269 0.323,-0.18867 1.48612,-0.86534 2.95652,-1.51397 4.39153,-2.00923 6.20472,-2.26526 11.42638,-1.94558 13.56647,-4.80893 0.0327,-0.0435 0.0649,-0.0871 0.0967,-0.13088 2.31538,-2.98654 3.26878,-5.60976 1.77836,-7.9941 -0.11788,-0.19262 -0.25194,-0.38321 -0.40274,-0.57183 -0.005,-0.006 -0.01,-0.0121 -0.0145,-0.0181 -2.03997,-2.51845 -6.41879,-1.90676 -10.22254,-0.50067 0,0 0,0 0,0"
             id="path107233" />
          <path
             inkscape:connector-curvature="0"
             style="fill:#c78d3b;fill-opacity:1"
             d="m 619.87447,189.4719 c -3.91894,1.42068 -2.99584,2.81623 -10.41108,9.61979 -0.0311,0.028 -0.0624,0.0561 -0.0938,0.0843 -2.50967,2.25066 -6.05996,5.77473 -10.10985,9.70321 -7.80891,7.52434 -17.21529,16.84234 -24.61889,21.63231 -1.31147,0.83331 -2.54683,1.54658 -3.67757,2.10568 -0.12909,0.064 -0.25723,0.12666 -0.38442,0.1879 -9.75275,4.85082 -13.99825,0.95144 -18.18396,4.06547 -0.0216,0.016 -0.0431,0.032 -0.0647,0.0481 -1.58917,1.16033 -3.10649,2.29802 -4.27778,3.46433 -1.80029,1.7203 -2.80996,3.45819 -2.08588,5.39699 0.0506,0.13528 0.10831,0.27003 0.17354,0.40435 1.57296,3.23535 4.53885,2.56987 10.59674,1.16092 0.14171,-0.0315 0.28472,-0.0642 0.42904,-0.0978 1.34108,-0.31223 2.6903,-0.9243 4.06022,-1.76541 5.51769,-3.24637 11.31873,-9.83753 18.59207,-15.31852 0.0486,-0.0367 0.0972,-0.0733 0.14593,-0.11 3.67751,-2.76877 7.80262,-6.39826 11.9819,-10.07177 6.45934,-5.7779 13.03645,-11.75925 18.20243,-14.86424 0.10659,-0.0642 0.21302,-0.12729 0.31929,-0.18923 1.47577,-0.86781 2.93284,-1.51512 4.35036,-2.00885 6.18412,-2.23689 11.39804,-1.73709 13.56621,-4.5122 0.0333,-0.0425 0.0663,-0.0851 0.0989,-0.12772 2.36963,-2.96654 3.38359,-5.55054 1.94685,-7.89287 -0.11576,-0.19156 -0.24808,-0.38118 -0.39757,-0.56895 -0.005,-0.006 -0.01,-0.012 -0.0144,-0.018 -2.00295,-2.48314 -6.3723,-1.77611 -10.14366,-0.32785 0,0 0,0 0,0"
             id="path107235" />
          <path
             inkscape:connector-curvature="0"
             style="fill:#d19541;fill-opacity:1"
             d="m 619.678,189.75929 c -3.80993,1.47547 -2.67298,2.84313 -10.16017,9.75532 -0.0306,0.028 -0.0614,0.0561 -0.0923,0.0842 -2.43428,2.21758 -5.96729,5.72159 -10.00759,9.65166 -7.73325,7.49691 -17.19459,16.69863 -24.38327,21.52413 -1.294,0.86156 -2.50734,1.59232 -3.61229,2.15731 -0.12729,0.0652 -0.25363,0.12894 -0.37903,0.19122 -9.7786,4.93685 -13.8893,0.75034 -18.10516,3.72297 -0.0218,0.0154 -0.0436,0.0307 -0.0654,0.0461 -1.60252,1.11879 -3.14538,2.20717 -4.35392,3.31802 -1.85734,1.67107 -2.93845,3.37022 -2.27252,5.28803 0.0467,0.13456 0.10143,0.26945 0.16443,0.40476 1.515,3.25129 4.40131,2.49397 10.48797,1.03241 0.14014,-0.0329 0.28178,-0.0666 0.42493,-0.10085 1.3249,-0.3172 2.65814,-0.93572 4.01609,-1.78071 5.36394,-3.26612 11.08479,-9.88203 18.34324,-15.33168 0.0483,-0.0363 0.0967,-0.0726 0.14517,-0.10884 3.63323,-2.71869 7.73589,-6.32326 11.88524,-9.99481 6.44406,-5.75233 12.99479,-11.7159 18.02874,-14.79036 0.10533,-0.0644 0.21052,-0.12767 0.31557,-0.18978 1.46544,-0.87028 2.90916,-1.51627 4.3092,-2.00847 6.16353,-2.20852 11.3697,-1.5286 13.56595,-4.21546 0.034,-0.0415 0.0677,-0.0831 0.10115,-0.12457 2.42388,-2.94654 3.49841,-5.49132 2.11535,-7.79163 -0.11363,-0.1905 -0.24422,-0.37916 -0.39239,-0.56607 -0.005,-0.006 -0.01,-0.0119 -0.0143,-0.0179 -1.96593,-2.44784 -6.32579,-1.64547 -10.06476,-0.15504 0,0 0,0 0,0"
             id="path107237" />
        </g>
        <path
           inkscape:connector-curvature="0"
           id="path55632"
           d="m 621.32,179.65222 c -3.71565,1.53635 -2.33927,2.88069 -10,9.975 -7.66073,7.09431 -27.52213,27.89361 -37.6,33.225 -10.07787,5.33139 -14.10045,0.70808 -18.4,3.575 -4.29955,2.86692 -8.29005,5.45873 -6.8,8.8 1.49005,3.34127 4.39164,2.37749 10.8,0.8 6.40836,-1.57749 13.02091,-10.41531 22.21079,-17.24853 9.18988,-6.83322 21.60065,-19.6399 29.64363,-24.63431 8.04298,-4.99441 15.38491,-2.89195 18.14558,-6.11716 2.76067,-3.22521 3.92174,-5.9403 2,-8.375 -1.92174,-2.4347 -6.28435,-1.53635 -10,0 z"
           style="fill:#db9d47;fill-opacity:1" />
        <path
           inkscape:connector-curvature="0"
           id="path60591"
           d="m 617.1738,224.00659 c -12.88819,3.20024 -24.41371,21.94054 -33.81617,32.35082 -0.57462,0.57368 -1.15885,1.09879 -1.75031,1.57371 -8.69422,6.79984 -18.50341,6.80665 -24.77556,10.76956 -3.3383,2.15984 -6.73497,4.14998 -8.50091,6.8536 -0.70096,1.01869 -1.01306,2.1005 -0.78268,3.29502 0.68313,3.96 4.01054,4.47177 8.63633,4.57863 1.5202,0.10983 2.98439,-0.0155 4.5078,-0.44837 4.37361,-0.97622 8.53683,-3.72198 14.48564,-7.75069 3.34689,-2.21845 7.07191,-5.24591 10.95233,-8.31969 9.51031,-7.94884 19.77911,-18.00797 28.31568,-22.71016 3.73674,-2.10097 7.10722,-3.19476 10.23777,-3.83286 3.30949,-0.76315 5.71431,-1.55313 7.3733,-3.72221 2.48977,-3.2106 3.7837,-5.60881 1.86849,-8.8976 -1.07889,-2.15663 -2.8025,-3.64787 -5.58466,-4.20673 -2.7829,-1.06225 -6.69703,-0.89166 -11.16705,0.46697 0,0 0,0 0,0"
           style="fill:#b67518;fill-opacity:1" />
        <g
           transform="translate(1.8384776,-10.39447)"
           id="g110545">
          <path
             inkscape:connector-curvature="0"
             id="path110547"
             d="m 614.8036,235.05364 c -12.41342,3.34327 -23.87037,22.2382 -33.23009,32.28476 -0.42527,0.41544 -0.85459,0.80415 -1.28709,1.16521 -0.15275,0.1275 -0.30595,0.2518 -0.45955,0.3729 -8.37426,6.43659 -17.52494,6.65365 -23.59486,10.04902 -0.31732,0.17818 -0.62808,0.36289 -0.93162,0.55532 -3.35304,2.17087 -6.78526,4.10498 -8.43778,6.73212 -0.41823,0.63797 -0.67177,1.30362 -0.71778,2.01156 -0.0272,0.41151 0.007,0.82433 0.11037,1.24196 0.80858,3.70594 4.14434,3.93374 8.72882,3.88188 0.0117,4e-4 0.0234,7.8e-4 0.0351,0.001 1.49362,0.0451 2.91452,-0.13153 4.38677,-0.59514 4.19916,-1.07264 8.21625,-3.83064 14.19104,-7.90318 0.05,-0.0334 0.10011,-0.067 0.15031,-0.10078 3.21942,-2.16363 6.85326,-5.12102 10.65811,-8.1616 9.1948,-7.70052 19.23727,-17.39798 27.36072,-22.09046 0.21925,-0.1267 0.43726,-0.24991 0.654,-0.36954 3.75642,-2.11123 7.09016,-3.1557 10.13397,-3.76835 2.86886,-0.6431 5.0328,-1.25955 6.61746,-2.86222 0.23943,-0.24221 0.46634,-0.50106 0.68086,-0.77944 2.23542,-2.86336 3.47114,-4.99177 2.13452,-7.78864 -0.14359,-0.30837 -0.31566,-0.62033 -0.51832,-0.93739 -1.13555,-2.03335 -2.89145,-3.38204 -5.68091,-3.80099 -2.74574,-0.86817 -6.56349,-0.57037 -10.98406,0.86185 0,0 0,0 0,0"
             style="fill:#ba7a1d;fill-opacity:1" />
          <path
             inkscape:connector-curvature="0"
             id="path110549"
             d="m 614.27187,235.70621 c -11.93864,3.48631 -23.32702,22.53587 -32.64401,32.21871 -0.42574,0.40677 -0.85434,0.78665 -1.285,1.13842 -0.15231,0.12436 -0.30498,0.24573 -0.45796,0.36409 -8.47989,6.4062 -17.50412,6.51758 -23.3601,9.88327 -0.31121,0.18007 -0.61725,0.36498 -0.91729,0.55586 -3.3678,2.1819 -6.83556,4.05998 -8.37466,6.61062 -0.39357,0.63231 -0.61299,1.29476 -0.61135,2.00408 1.6e-4,0.41134 0.0582,0.81246 0.1792,1.20794 0.93404,3.45188 4.27814,3.39572 8.82131,3.18515 0.0115,-7e-5 0.0231,-1.4e-4 0.0346,-2.3e-4 1.47978,-0.0152 2.86838,-0.24163 4.30137,-0.7394 4.02471,-1.16905 7.89568,-3.93929 13.89644,-8.05566 0.0494,-0.0333 0.0988,-0.0667 0.14838,-0.10027 3.13139,-2.11844 6.72811,-5.0509 10.51613,-8.10481 9.12365,-7.65644 19.22265,-17.30355 27.06722,-21.84372 0.21688,-0.12561 0.4324,-0.24766 0.64653,-0.3661 3.77611,-2.1215 7.07311,-3.11665 10.03017,-3.70384 2.86212,-0.62312 4.9974,-1.17265 6.55295,-2.78729 0.23535,-0.24441 0.45886,-0.50145 0.6704,-0.77382 2.23393,-2.84221 3.43375,-4.87026 1.91421,-7.65597 -0.15676,-0.29931 -0.3395,-0.5984 -0.55029,-0.8985 -1.19222,-1.91007 -2.98041,-3.11621 -5.77718,-3.39524 -2.70857,-0.67409 -6.42993,-0.24909 -10.80107,1.25671 0,0 0,0 0,0"
             style="fill:#bf7f23;fill-opacity:1" />
          <path
             inkscape:connector-curvature="0"
             id="path110551"
             d="m 613.74015,236.35879 c -11.46386,3.62934 -22.78368,22.83353 -32.05793,32.15265 -0.42621,0.39811 -0.8541,0.76916 -1.28291,1.11162 -0.15189,0.12124 -0.30402,0.23967 -0.45638,0.35529 -8.58551,6.37581 -17.4833,6.38152 -23.12534,9.71751 -0.30511,0.18196 -0.60641,0.36708 -0.90296,0.5564 -3.38255,2.19294 -6.88586,4.01499 -8.31155,6.48914 -0.36891,0.62664 -0.55419,1.28589 -0.50491,1.9966 0.0275,0.41115 0.10886,0.80059 0.24804,1.17391 1.05949,3.19783 4.41193,2.85771 8.91379,2.48842 0.0114,-5.3e-4 0.0227,-10e-4 0.0341,-0.002 1.46593,-0.0755 2.82223,-0.35173 4.21596,-0.88364 3.85025,-1.26546 7.5751,-4.04795 13.60184,-8.20816 0.0487,-0.0331 0.0975,-0.0663 0.14644,-0.0998 3.04337,-2.07324 6.60298,-4.98077 10.37416,-8.04801 9.05251,-7.61238 19.20804,-17.20913 26.77371,-21.59698 0.21453,-0.12454 0.42756,-0.24543 0.63908,-0.36267 3.79579,-2.13177 7.05605,-3.0776 9.92636,-3.63934 2.85538,-0.60312 4.96201,-1.08575 6.48843,-2.71235 0.23129,-0.24661 0.45139,-0.50183 0.65996,-0.7682 2.23243,-2.82105 3.39634,-4.74875 1.69389,-7.52329 -0.16994,-0.29025 -0.36334,-0.57648 -0.58227,-0.85961 -1.24888,-1.7868 -3.06936,-2.85039 -5.87343,-2.9895 -2.67141,-0.48001 -6.29639,0.0722 -10.61808,1.65158 0,0 0,0 0,0"
             style="fill:#c38429;fill-opacity:1" />
          <path
             inkscape:connector-curvature="0"
             id="path110553"
             d="m 613.20842,237.01137 c -10.98908,3.77237 -22.24033,23.13119 -31.47184,32.08659 -0.42669,0.38945 -0.85386,0.75166 -1.28083,1.08483 -0.15145,0.11811 -0.30305,0.2336 -0.45479,0.34648 -8.69114,6.34542 -17.46248,6.24546 -22.89059,9.55176 -0.299,0.18385 -0.59556,0.36917 -0.88863,0.55693 -3.3973,2.20397 -6.93614,3.96999 -8.24842,6.36766 -0.34425,0.62096 -0.49541,1.27702 -0.39848,1.98912 0.0549,0.41096 0.15958,0.78871 0.31687,1.13988 1.18495,2.94377 4.54574,2.31969 9.00629,1.79168 0.0112,-9.9e-4 0.0224,-0.002 0.0336,-0.003 1.45209,-0.13573 2.77609,-0.46183 4.13056,-1.0279 3.6758,-1.36187 7.25452,-4.15661 13.30723,-8.36064 0.048,-0.0329 0.0962,-0.066 0.14452,-0.0992 2.95533,-2.02805 6.47783,-4.91065 10.23218,-7.99121 8.98137,-7.56831 19.19342,-17.11471 26.4802,-21.35025 0.21217,-0.12345 0.42272,-0.24319 0.63163,-0.35924 3.81547,-2.14204 7.039,-3.03854 9.82255,-3.57483 2.84864,-0.58313 4.92661,-0.99885 6.42392,-2.63742 0.22721,-0.24881 0.44391,-0.50221 0.6495,-0.76257 2.23094,-2.7999 3.35895,-4.62724 1.47358,-7.39062 -0.18311,-0.28119 -0.38718,-0.55454 -0.61425,-0.82072 -1.30553,-1.66352 -3.1583,-2.58455 -5.96968,-2.58376 -2.63425,-0.28592 -6.16285,0.39347 -10.4351,2.04646 0,0 0,0 0,0"
             style="fill:#c8892f;fill-opacity:1" />
          <path
             inkscape:connector-curvature="0"
             id="path110555"
             d="m 612.6767,237.66395 c -10.5143,3.9154 -21.69699,23.42885 -30.88576,32.02053 -0.42716,0.38078 -0.85362,0.73416 -1.27875,1.05803 -0.15101,0.11498 -0.30208,0.22754 -0.4532,0.33768 -8.79677,6.31503 -17.44166,6.10939 -22.65583,9.386 -0.29289,0.18574 -0.58473,0.37127 -0.8743,0.55748 -3.41205,2.215 -6.98644,3.92499 -8.18531,6.24616 -0.31958,0.6153 -0.43662,1.26816 -0.29204,1.98164 0.0823,0.41079 0.2103,0.77684 0.38571,1.10586 1.3104,2.68972 4.67953,1.78167 9.09877,1.09495 0.011,-10e-4 0.0221,-0.003 0.0331,-0.004 1.43824,-0.19599 2.72994,-0.57192 4.04514,-1.17214 3.50136,-1.45829 6.93396,-4.26527 13.01264,-8.51313 0.0474,-0.0328 0.0949,-0.0657 0.14259,-0.0987 2.8673,-1.98286 6.35268,-4.84052 10.09021,-7.93441 8.91021,-7.52425 19.17879,-17.02029 26.18668,-21.10351 0.20982,-0.12238 0.41787,-0.24096 0.62417,-0.35581 3.83516,-2.15231 7.02195,-2.99949 9.71875,-3.51033 2.8419,-0.56313 4.89122,-0.91195 6.35941,-2.56248 0.22314,-0.25101 0.43643,-0.50259 0.63905,-0.75696 2.22944,-2.77873 3.32155,-4.50572 1.25326,-7.25793 -0.19628,-0.27214 -0.41102,-0.53262 -0.64623,-0.78184 -1.36219,-1.54024 -3.24725,-2.31872 -6.06594,-2.17801 -2.59708,-0.0918 -6.0293,0.71474 -10.2521,2.44133 0,0 0,0 0,0"
             style="fill:#cd8e35;fill-opacity:1" />
          <path
             inkscape:connector-curvature="0"
             id="path110557"
             d="m 612.14497,238.31653 c -10.03952,4.05843 -21.15363,23.72651 -30.29967,31.95447 -0.42764,0.37212 -0.85338,0.71666 -1.27667,1.03124 -0.15057,0.11185 -0.30111,0.22147 -0.45161,0.32887 -8.90239,6.28464 -17.42084,5.97333 -22.42107,9.22025 -0.28679,0.18763 -0.57389,0.37336 -0.85997,0.55801 -3.4268,2.22604 -7.03674,3.87999 -8.12219,6.12468 -0.29492,0.60963 -0.37784,1.25929 -0.18561,1.97416 0.10963,0.4106 0.26101,0.76497 0.45454,1.07184 1.43586,2.43566 4.81333,1.24364 9.19126,0.39821 0.0109,-0.002 0.0217,-0.004 0.0326,-0.006 1.4244,-0.25625 2.6838,-0.68202 3.95974,-1.31638 3.3269,-1.5547 6.61338,-4.37393 12.71804,-8.66563 0.0467,-0.0326 0.0936,-0.0654 0.14066,-0.0982 2.77927,-1.93766 6.22754,-4.77039 9.94823,-7.87761 8.83907,-7.48018 19.16418,-16.92587 25.89318,-20.85678 0.20745,-0.12129 0.41302,-0.23872 0.61671,-0.35237 3.85484,-2.16258 7.00489,-2.96045 9.61494,-3.44583 2.83517,-0.54314 4.85582,-0.82504 6.2949,-2.48754 0.21906,-0.25321 0.42895,-0.50298 0.62859,-0.75134 2.22796,-2.75758 3.28415,-4.38421 1.03294,-7.12526 -0.20945,-0.26308 -0.43484,-0.51069 -0.6782,-0.74294 -1.41885,-1.41696 -3.3362,-2.0529 -6.16219,-1.77227 -2.55993,0.10224 -5.89576,1.03602 -10.06912,2.8362 0,0 0,0 0,0"
             style="fill:#d1933b;fill-opacity:1" />
          <path
             inkscape:connector-curvature="0"
             id="path110559"
             d="m 611.61325,238.96911 c -9.56475,4.20146 -20.61029,24.02417 -29.71359,31.88841 -0.42812,0.36345 -0.85313,0.69916 -1.27458,1.00444 -0.15014,0.10873 -0.30015,0.2154 -0.45003,0.32007 -9.00802,6.25425 -17.40002,5.83727 -22.18632,9.05449 -0.28067,0.18952 -0.56304,0.37546 -0.84564,0.55856 -3.44155,2.23706 -7.08703,3.83499 -8.05907,6.00318 -0.27025,0.60396 -0.31905,1.25043 -0.0792,1.96668 0.137,0.41043 0.31173,0.7531 0.52338,1.03782 1.56131,2.1816 4.94713,0.70562 9.28374,-0.29853 0.0107,-0.002 0.0214,-0.005 0.0321,-0.007 1.41055,-0.31652 2.63765,-0.79212 3.87433,-1.46064 3.15245,-1.65111 6.2928,-4.48258 12.42344,-8.81811 0.0461,-0.0325 0.0923,-0.065 0.13872,-0.0977 2.69125,-1.89247 6.1024,-4.70027 9.80626,-7.82082 8.76793,-7.4361 19.14956,-16.83144 25.59967,-20.61003 0.20509,-0.12022 0.40818,-0.23649 0.60925,-0.34895 3.87452,-2.17284 6.98784,-2.92139 9.51115,-3.38132 2.82842,-0.52314 4.82042,-0.73814 6.23037,-2.41261 0.215,-0.2554 0.42149,-0.50335 0.61814,-0.74571 2.22647,-2.73643 3.24676,-4.26269 0.81263,-6.99258 -0.22262,-0.25402 -0.45868,-0.48876 -0.71018,-0.70406 -1.47551,-1.29368 -3.42515,-1.78707 -6.25844,-1.36653 -2.52277,0.29633 -5.76221,1.35731 -9.88613,3.23108 0,0 0,0 0,0"
             style="fill:#d69841;fill-opacity:1" />
        </g>
        <path
           inkscape:connector-curvature="0"
           id="path55630"
           d="m 612.92,229.22722 c -9.51994,4.54999 -21.10964,26.24677 -30.4,32.8 -9.29036,6.55323 -17.75276,5.96026 -22.4,9.2 -4.64724,3.23974 -10.17396,4.97075 -8.8,8.39999 1.37396,3.42926 5.10407,1.32076 10,0 4.89594,-1.32074 7.31099,-4.46812 16.05456,-10.67267 8.74357,-6.20455 26.18292,-22.96366 34.97044,-28.12732 8.78752,-5.16366 13.54102,-2.78309 16.175,-6 2.63399,-3.21691 4.04486,-4.64461 1.2,-7.6 -2.84485,-2.95539 -7.28006,-2.54999 -16.8,2 z"
           style="fill:#db9d47;fill-opacity:1" />
        <path
           inkscape:connector-curvature="0"
           id="path1992-9-3-7-2"
           d="m 626.78274,301.34927 c -3.77027,1.20516 -11.10761,3.58981 -13.46274,6.27794 -2.35513,2.68815 -4.50366,4.48599 -3.6,6.8 0.90366,2.31403 3.42124,3.1664 6.8,2.4 3.37876,-0.76638 6.45503,-5.04654 9.46274,-7.90294 3.00771,-2.85638 12.07414,-4.25954 10.8,-7.575 -1.27413,-3.31544 -6.22973,-1.20516 -10,0 z"
           style="fill:#dfca76;fill-opacity:1" />
        <path
           style="fill:#111801;fill-opacity:1"
           d="m 565.527,246.51038 c -7.26564,3.6721 -10.98616,2.84823 -16.3377,4.26815 -5.35154,1.41992 -13.16408,-2.76039 -17.62206,-6.61617 -4.45798,-3.85578 -8.82801,-18.29324 -8.82801,-18.29324 0,0 -0.10461,9.11449 0.002,16.12682 1.42326,4.4756 5.42729,11.36983 8.901,13.66642 3.47371,2.29659 10.75637,7.0946 10.75637,7.0946 0,0 -5.74219,-0.84537 -8.51863,5.93383 -2.77644,6.7792 -5.99499,18.11081 -2.28774,27.07157 3.70729,8.96076 11.28958,16.39202 20,20 12.3107,5.09926 26.77879,1.84819 39.975,0 24.03247,-3.36586 38.04169,-14.20591 58.94903,-26.52548 4.05633,-2.39018 8.18418,-5.64573 9.975,-10 2.52628,-6.1425 1.925,-17.925 1.925,-17.925 0,0 -11.94426,14.98986 -19.975,19.85 -18.99204,11.49386 -32.50945,21.21505 -54.44903,24.60048 -8.7053,1.34329 -18.00087,3.48939 -26.425,0 -8.42413,-3.48939 -17.55821,-14.10499 -20,-20 -2.44179,-5.89501 -0.67438,-6.59661 0,-10 0.67438,-3.40339 5.90689,-8.2575 9.78185,-10 3.87496,-1.7425 12.77867,-2.80825 19.52645,-5.44952 6.74778,-2.64127 8.13325,-4.3873 13.975,-11.925 5.84175,-7.5377 7.72433,-21.29082 7.72433,-21.29082 0,0 -19.78227,15.74126 -27.04791,19.41336 z"
           id="path2520-3-2-3"
           inkscape:connector-curvature="0"
           sodipodi:nodetypes="czzcczczzsssscsszzzzzzczc" />
        <path
           inkscape:connector-curvature="0"
           style="fill:#3a2b02;fill-opacity:1"
           d="m 614.30826,197.46398 c -8.37849,-0.32134 -12.29652,3.91595 -16.8625,12.025 -0.93675,5.97157 -2.87653,11.80992 3.20625,14.94375 9.96094,-0.0232 14.10244,-1.34637 22.98125,-5.6875 4.83929,-2.09555 6.82515,-7.73598 5.8,-12.53125 -3.29896,-7.49995 -7.76462,-7.70971 -15.125,-8.75 z"
           id="path125602" />
        <path
           inkscape:connector-curvature="0"
           style="fill:#3a2b02;fill-opacity:1"
           d="m 671.57076,215.21398 c -8.3374,1.35746 -19.50623,0.39721 -24.5,8.625 -5.33549,9.0791 -2.13508,19.23881 -4.55625,29.00625 -1.78309,8.91393 -7.141,11.91517 -14.725,13.61875 -19.42402,8.2794 -45.66934,22.82866 -65.82773,25.52132 -7.31946,1.20681 -12.14755,-2.69035 -18.50977,-3.49632 1.80402,6.11865 9.64016,13.45846 15.38125,16.25625 4.44805,1.96429 5.08538,0.74344 1.55,-2.75 12.20734,-1.98158 29.96269,-8.9585 36.53125,-12.03125 14.62328,-6.83246 29.46847,-10.51759 45.08125,-13.96875 6.73476,-9.04581 23.08674,-14.30146 31.40475,-29.05932 0.69816,-10.59777 -0.28699,-21.22105 -1.4235,-31.75318 l -0.40625,0.0312 z"
           id="path125600" />
        <path
           sodipodi:nodetypes="czzzzc"
           style="fill:#fefe01"
           inkscape:connector-curvature="0"
           id="path2302-2-1-8"
           d="m 605.79382,207.36575 c 1.74786,-1.74786 6.01753,-2.67025 7.80803,-0.9552 1.7905,1.71505 -0.43183,5.26293 -2.1253,6.82296 -1.69347,1.56003 -4.76694,3.01811 -6.50803,1.4552 -1.74109,-1.56291 -0.92254,-5.57511 0.8253,-7.32297 z" />
        <g
           style="fill:url(#linearGradient134871);fill-opacity:1"
           transform="translate(1.8384776,-10.39447)"
           id="g132843">
          <g
             style="fill:url(#linearGradient134869);fill-opacity:1"
             id="g132617">
            <path
               id="path2754-3-8-6"
               transform="matrix(0.8,0,0,0.8,-1.8384776,10.39447)"
               d="m 730.25,307.46875 c -0.68637,2.0689 0.093,3.34281 0.375,3.59375 0.25116,-0.31851 0.56462,-0.70686 0.9375,-1.25 -0.47056,-0.44469 -0.98806,-1.3822 -1.3125,-2.34375 z m -3.65625,1.625 c -0.1125,4.1 0.57635,4.12002 1.21875,5.53125 0.34507,-0.43453 0.83401,-1.01839 1.6875,-2.125 -0.84621,-0.59384 -1.941,-1.35643 -2.90625,-3.40625 z m -3.75,1.21875 c -0.11141,4.06016 0.9568,5.59535 1.875,7.875 -4.04281,-1.68192 -3.269,-2.03343 -5.8125,-5.4375 -0.0981,3.57396 1.21473,4.92565 1.84375,7.65625 -3.00286,-1.41317 -3.46651,-2.5064 -5.75,-5.5625 -0.0964,3.51208 1.21306,4.89322 1.875,7.53125 -2.80312,-1.40158 -4.09896,-2.87117 -6.25,-5.75 -0.10255,3.7374 1.42903,5.06692 2.03125,8.0625 -3.61928,-1.43174 -4.39983,-3.00082 -6.6875,-6.0625 -0.10222,3.72525 1.18426,4.79257 1.75,7.71875 -3.5695,-1.54184 -4.34959,-3.64223 -6.625,-6.6875 -0.1029,3.75017 0.81599,5.07515 1.3125,8.09375 -3.56668,-1.56236 -4.4487,-3.7744 -6.71875,-6.8125 -0.1029,3.75017 0.79478,5.07905 1.28125,8.09375 -3.78244,-1.5899 -5.63738,-3.90099 -7.90625,-6.9375 -0.1125,4.1 1.71875,5.625 2.15625,9.3125 1.75541,-0.41359 4.7849,-1.20732 7.28125,-1.78125 -0.0332,-0.0108 -0.0608,-0.0204 -0.0937,-0.0312 1.23427,-0.29035 2.61525,-0.61874 4.125,-0.96875 0.37199,-0.0876 0.88347,-0.20931 1.3125,-0.3125 0.0102,0.003 0.021,-0.003 0.0312,0 1.22231,-0.29419 2.55911,-0.65399 4,-1.0625 10e-4,0.0109 -10e-4,0.0203 0,0.0312 1.68132,-0.39613 3.70152,-1.07802 5.90625,-1.96875 1.16647,-0.39715 2.41455,-1.02474 3.75,-1.65625 1.17592,-0.47595 2.47951,-1.24075 3.4375,-1.9375 1.46065,-0.78136 2.97012,-2.61613 3.78125,-3.46875 0.44274,-0.49312 1.58401,-1.73712 2.4375,-2.84375 -1.40871,-1.15634 -1.78475,-1.66893 -4.34375,-5.09375 z"
               style="fill:url(#linearGradient134867);fill-opacity:1"
               inkscape:connector-curvature="0" />
          </g>
        </g>
        <path
           id="path134389-4"
           transform="scale(0.8,0.8)"
           d="m 740.71875,283.875 c -2.07403,1.57902 -18.79727,14.39397 -23.3125,17.5625 -0.0523,0.0367 -0.20103,0.12218 -0.25,0.15625 -8.89593,5.53356 -13.52916,9.45238 -24.375,10.71875 l -0.0625,0 c -0.14821,0.0171 -0.28693,0.0464 -0.4375,0.0625 0.005,0.007 -0.005,0.0242 0,0.0312 l -3.5625,0.5625 c 0,0 1.33819,7.34433 4.46875,8.59375 -1.26773,-1.66359 -0.68891,-7.05873 -0.5,-8.59375 1.73907,2.65881 2.74238,5.69028 5.875,7.0625 -0.49659,-3.01752 -0.97787,-3.46921 -0.875,-7.21875 2.28284,3.0552 1.8067,3.67554 5.40625,5.21875 -0.56265,-2.94904 -0.57125,-2.57456 -0.46875,-6.3125 2.28308,3.05553 1.43071,2.82054 5.03125,4.25 -0.60221,-2.99557 -0.63375,-2.98135 -0.53125,-6.71875 2.15105,2.87883 2.19689,2.47343 5,3.875 -0.66194,-2.63802 -1.03387,-2.95668 -0.9375,-6.46875 1.13445,1.46511 2.54265,3.10106 4.75,3.71875 -0.80579,-2.0235 -1.47849,-3.93936 -1.46875,-6.1875 1.7483,1.63673 1.93855,3.20588 5.01072,3.65089 C 718.82641,306.00045 718,302.96875 718,302.96875 L 717.71875,302.25 c 1.81571,2.11435 2.62716,2.62857 5.78125,3.6875 -0.84322,-3.22778 -1.16131,-2.30186 -1.5,-6.40625 2.60702,3.03669 2.55472,2.78416 6.28125,4 -0.90027,-3.14446 -1.38105,-2.72081 -1.71875,-6.8125 2.60733,3.03702 2.16087,3.06465 5.875,4.15625 -0.94469,-3.19011 -1.31864,-2.94017 -1.65625,-7.03125 2.45653,2.86138 2.35581,2.64765 5.28125,3.8125 -0.96155,-2.79224 -0.96404,-3.56181 -1.28125,-7.40625 2.5247,2.89934 3.90625,3.21875 3.90625,3.21875 l 0.46875,-1.78125 c 0,0 -1.18083,-2.73984 -1.09375,-4.375 0.7001,0.57004 1.78125,1.40625 1.78125,1.40625 0,0 0.58131,-2.67053 0.875,-4.84375 z"
           style="fill:url(#linearGradient134873);fill-opacity:1"
           inkscape:connector-curvature="0"
           sodipodi:nodetypes="cccccccccccccccccccccccccccccccccccc" />
      </g>
    </g>
  </g>
</svg>
