<?xml version="1.0" encoding="UTF-8" standalone="no"?>
<!-- Created with Inkscape (http://www.inkscape.org/) -->

<svg
   width="200.76622"
   height="200.48302"
   id="svg3280"
   version="1.1"
   xmlns:xlink="http://www.w3.org/1999/xlink"
   xmlns="http://www.w3.org/2000/svg"
   xmlns:svg="http://www.w3.org/2000/svg"
   xmlns:rdf="http://www.w3.org/1999/02/22-rdf-syntax-ns#"
   xmlns:cc="http://creativecommons.org/ns#"
   xmlns:dc="http://purl.org/dc/elements/1.1/">
  <defs
     id="defs3282">
    <linearGradient
       id="linearGradient5507-3-3">
      <stop
         style="stop-color:#ff0000;stop-opacity:1;"
         offset="0"
         id="stop5509-1-5" />
      <stop
         style="stop-color:#ff6600;stop-opacity:1"
         offset="1"
         id="stop5511-9-8" />
    </linearGradient>
    <linearGradient
       id="linearGradient10626-2">
      <stop
         style="stop-color:#d0e4fa;stop-opacity:1"
         offset="0"
         id="stop10628-6" />
      <stop
         id="stop10634-0"
         offset="0.38316298"
         style="stop-color:#9fa7c2;stop-opacity:1" />
      <stop
         style="stop-color:#30456b;stop-opacity:1"
         offset="1"
         id="stop10630-2" />
    </linearGradient>
    <linearGradient
       id="linearGradient10636-1">
      <stop
         style="stop-color:#ddbb33;stop-opacity:1"
         offset="0"
         id="stop10638-6" />
      <stop
         id="stop10646-5"
         offset="0.69118273"
         style="stop-color:#f0e430;stop-opacity:1" />
      <stop
         id="stop10644-0"
         offset="0.87579077"
         style="stop-color:#ffffff;stop-opacity:1" />
      <stop
         style="stop-color:#ddbb33;stop-opacity:1"
         offset="1"
         id="stop10640-1" />
    </linearGradient>
    <linearGradient
       id="linearGradient5681-7">
      <stop
         style="stop-color:#04fd06;stop-opacity:1"
         offset="0"
         id="stop5683-3" />
      <stop
         style="stop-color:#058f18;stop-opacity:1"
         offset="1"
         id="stop5685-8" />
    </linearGradient>
    <linearGradient
       xlink:href="#linearGradient5507-3-3"
       id="linearGradient3390"
       gradientUnits="userSpaceOnUse"
       gradientTransform="matrix(0.36046643,0,0,0.36046638,329.74998,506.18887)"
       x1="143.49998"
       y1="22.901928"
       x2="106.24998"
       y2="22.401928" />
    <radialGradient
       xlink:href="#linearGradient10626-2"
       id="radialGradient3392"
       gradientUnits="userSpaceOnUse"
       gradientTransform="matrix(1.0015525,1.3355567,-1.8727157,1.4043755,-178.05375,-2118.9488)"
       cx="1480.5947"
       cy="508.98538"
       fx="1480.5947"
       fy="508.98538"
       r="25.957397" />
    <linearGradient
       xlink:href="#linearGradient5681-7"
       id="linearGradient3396"
       gradientUnits="userSpaceOnUse"
       gradientTransform="matrix(1.0451728,0,0,1.0451728,-1374.7066,62.480878)"
       x1="1623.6282"
       y1="400.82758"
       x2="1647.8057"
       y2="396.34103" />
    <radialGradient
       xlink:href="#linearGradient10636-1"
       id="radialGradient3816"
       cx="526.65399"
       cy="681.55725"
       fx="526.65399"
       fy="681.55725"
       r="98.43103"
       gradientTransform="matrix(1.8512858,-2.6286631,2.3181608,1.6326085,-2046.6737,968.78447)"
       gradientUnits="userSpaceOnUse" />
  </defs>
  <metadata
     id="metadata3285">
    <rdf:RDF>
      <cc:Work
         rdf:about="">
        <dc:format>image/svg+xml</dc:format>
        <dc:type
           rdf:resource="http://purl.org/dc/dcmitype/StillImage" />
        <dc:title />
      </cc:Work>
    </rdf:RDF>
  </metadata>
  <g
     id="layer1"
     transform="translate(-274.61689,-432.12068)">
    <g
       id="g3375">
      <text
         id="text5503"
         y="514.89484"
         x="363.90411"
         style="font-style:normal;font-weight:normal;line-height:0%;font-family:'StoneSerITCStd Medium';-inkscape-font-specification:'StoneSerITCStd Medium';letter-spacing:0px;word-spacing:0px;fill:url(#linearGradient3390);fill-opacity:1;stroke:none"
         xml:space="preserve"><tspan
           style="font-size:2.1628px;line-height:1.25;fill:url(#linearGradient3390);fill-opacity:1"
           y="514.89484"
           x="363.90411"
           id="tspan5505">Created by Falzar FZ</tspan></text>
      <path
         style="fill:#a2dcff;fill-opacity:1"
         d="M 475.00507,486.63495 V 469.7912 l -37.53125,-37.5 -124.87499,-0.0312 -37.53125,37.53125 -0.42682,125.2847 38.11543,37.47561 124.71763,-0.35407 37.53125,-37.53125 v -54.59375 c -5.29237,1.38244 -10.5845,2.68245 -15.21875,3.6875 1.172,-1.01912 2.37125,-2.24116 3.53125,-3.59375 1.16,-1.35256 2.2815,-2.82466 3.40625,-4.375 2.2495,-3.10064 4.40725,-6.4849 6.375,-9.56249 -2.43575,0.62689 -4.92112,1.6814 -7.34375,2.6875 -2.42262,1.0061 -4.76287,1.97264 -6.90625,2.4375 1.42525,-1.23931 2.7985,-2.6009 4.125,-4.0625 1.3265,-1.46161 2.59538,-3.03195 3.84375,-4.6875 2.49663,-3.3111 4.84913,-6.9584 7.15625,-10.875 -7.07062,1.9553 -13.79312,3.58043 -19.90625,4.90625 1.3985,-1.21609 2.76725,-2.56026 4.09375,-4 1.3265,-1.43975 2.61625,-2.99447 3.875,-4.625 2.51763,-3.26106 4.91488,-6.86057 7.1875,-10.6875 2.02338,-3.40732 3.9265,-7.02869 5.78125,-10.6875 z"
         id="path11806" />
      <path
         id="path5141"
         d="m 316.43873,553.9017 c 5.26201,-8.77224 -1.62884,-5.60305 69.9346,-23.48035 7.54104,74.72267 -0.0874,85.77101 -0.0874,85.77101 l -4.1827,1.93251 -6.69523,-3.34975 c 0,0 -5.74079,-1.22776 -9.40689,-3.97237 -3.1036,-2.18211 -5.26464,-4.67474 -7.84192,-5.91219 -2.57728,-1.23745 -3.30385,-1.3254 -5.10655,-2.27407 -1.8027,-0.94867 -5.13948,-4.03968 -5.13948,-4.03968 l -2.33386,0.47459 -3.13739,-3.33481 -14.90826,9.66334 -3.49596,-23.35801 c 0,0 -7.90857,-19.67102 -7.59896,-28.12022 z"
         style="fill:#1e2b43;fill-opacity:1;stroke:none" />
      <path
         style="fill:#1e2b43;fill-opacity:1"
         d="m 474.56757,487.4162 v -54.84375 h -87.46875 c 0,0 -17.59537,15.13275 -24.99999,24.90625 -33.01,7.37885 -67.91488,41.85709 -87.4375,62.53125 0,0 -0.1,49.99999 0,74.99999 33.375,-34.41144 71.125,-41.875 71.125,-41.875 l 27.75,24.1875 1.17715,55.26409 c 0,0 26.91421,0.20177 100.65809,0.0115 l 0.0125,-92.71696 c -5.13025,1.33307 -17.02516,4.50742 -21.52541,5.48343 1.172,-1.01912 3.784,-4.5539 4.94412,-5.90647 1.16,-1.35258 6.24113,-2.67291 7.366,-4.22323 2.2495,-3.10065 4.9635,-5.8973 6.93138,-8.97489 -2.43588,0.62689 -4.52775,3.14512 -6.95038,4.15122 -2.42262,1.0061 -7.86275,1.81527 -10.00612,2.28014 1.42525,-1.23932 2.7985,-5.98423 4.125,-7.44584 1.32662,-1.4616 3.57087,-3.3941 4.81912,-5.04965 2.49675,-3.3111 6.58025,-4.55052 8.88738,-8.46712 -7.07063,1.95532 -17.80588,6.25562 -23.91913,7.58144 1.3985,-1.21607 2.29525,-7.67459 3.62175,-9.11432 1.3265,-1.43975 3.167,-3.35664 4.42575,-4.98717 2.51763,-3.26106 8.81775,-4.05927 11.09025,-7.8862 1.87688,-3.16043 3.64413,-6.52366 5.375,-9.90625 z"
         id="path11778" />
      <path
         style="fill:url(#radialGradient3392);fill-opacity:1;stroke:none"
         d="m 322.80119,554.74478 c 4.4495,-7.41771 -1.60949,-5.20221 58.90376,-20.31906 6.37662,63.18466 -0.88649,72.29485 -0.88649,72.29485 l -3.53684,1.63411 -5.45002,-1.13602 -7.69918,-5.19589 -4.64393,-3.35097 -6.11492,-2.5443 -4.13449,-4.24867 -2.50198,0.29561 -3.51931,-4.07788 -11.17171,7.47471 -2.23887,-16.93226 c 0,0 -7.26782,-16.74968 -7.00602,-23.89423 z"
         id="path10552" />
      <g
         style="stroke-width:1;stroke-miterlimit:4;stroke-dasharray:none"
         id="g4316"
         transform="matrix(1.3689765,-0.20875936,0.20875936,1.3689765,98.92907,-190.62823)">
        <g
           id="g4296">
          <path
             style="fill:none;stroke:#666666;stroke-width:0.722125;stroke-linecap:butt;stroke-linejoin:miter;stroke-miterlimit:4;stroke-dasharray:none;stroke-opacity:1"
             d="m 98.033032,564.19631 9.531598,9.06199 c 2.37128,2.25445 4.71671,4.55763 6.677,7.17733 1.96028,2.61969 3.5407,5.52791 4.61827,8.6173"
             id="path4064-2-2" />
          <path
             id="path4080-8-4"
             d="m 99.053471,562.52258 9.463969,8.85495 c 2.02394,1.89369 4.02622,3.82917 5.70215,6.0368 1.67594,2.20763 3.02975,4.66348 3.95568,7.27596"
             style="fill:none;stroke:#666666;stroke-width:0.722125;stroke-linecap:butt;stroke-linejoin:miter;stroke-miterlimit:4;stroke-dasharray:none;stroke-opacity:1" />
          <path
             style="fill:none;stroke:#333333;stroke-width:1;stroke-linecap:butt;stroke-linejoin:miter;stroke-miterlimit:4;stroke-dasharray:none;stroke-opacity:1"
             d="m 80.938137,574.481 -0.20083,12.41513 10.54726,-5.25827"
             id="path3064-7-5" />
          <path
             style="fill:none;stroke:#333333;stroke-width:1;stroke-linecap:butt;stroke-linejoin:miter;stroke-miterlimit:4;stroke-dasharray:none;stroke-opacity:1"
             id="path3088-2-5"
             d="m 89.715067,582.69448 1.84348,3.06889 c 1.650629,0.17099 3.35237,-0.19207 4.78949,-1.02183 0.76027,-0.43896 1.446945,-1.00504 2.02288,-1.66761" />
          <path
             style="fill:none;stroke:#333333;stroke-width:1;stroke-linecap:butt;stroke-linejoin:miter;stroke-miterlimit:4;stroke-dasharray:none;stroke-opacity:1"
             id="path3099-6-1"
             d="m 93.538517,586.08569 2.58814,3.34328 c 1.888564,0.84617 3.637311,2.00345 5.154363,3.41101 1.19555,1.10927 2.24233,2.36661 3.34686,3.56654 1.34053,1.45631 2.81576,2.86256 4.64097,3.62838 1.61921,0.67939 3.46349,0.80877 5.1617,0.36209" />
          <path
             style="fill:none;stroke:#000000;stroke-width:1;stroke-linecap:butt;stroke-linejoin:miter;stroke-miterlimit:4;stroke-dasharray:none;stroke-opacity:1"
             id="path3117-2-7"
             d="m 86.32336,577.88873 c -0.355303,-1.21394 -0.376503,-2.52386 -0.06067,-3.74866 0.315834,-1.2248 0.967836,-2.36112 1.865864,-3.25187 1.201407,-1.19167 2.781548,-1.90936 4.329573,-2.59278 1.548025,-0.68342 3.134048,-1.37895 4.36513,-2.53993 1.732246,-1.63361 2.5853,-4.14943 2.2039,-6.49973" />
          <path
             style="fill:#000000;stroke-width:1;stroke-miterlimit:4;stroke-dasharray:none"
             d="m 97.391037,556.67592 c -0.4494,-0.0572 -3.25208,0.29822 -5.00424,2.01365 -0.92932,0.69363 -1.90055,1.53305 -2.83319,2.49489 -0.46999,0.48472 -0.90334,0.97042 -1.31901,1.46954 0.24737,-0.13235 0.49451,-0.27557 0.77156,-0.44441 1.17795,-0.71786 0.56316,0.0398 -1.3669,1.68607 -0.37769,0.32215 -0.73359,0.68218 -1.09013,1.05174 -1.50102,2.31393 -2.30563,4.51545 -2.17204,6.05627 0.3145,-1.59517 0.89939,-2.89625 1.70406,-3.60115 1.87146,-1.63927 3.0355,0.46836 1.42787,2.58358 -0.7298,0.96029 -0.9826,1.98208 -0.56603,2.33288 0.4079,0.34346 1.08638,-0.1658 1.50228,-1.11551 0.4159,-0.94972 1.85695,-1.94484 3.20677,-2.23007 1.34983,-0.28523 2.99166,-1.17768 3.62732,-1.98206 0.48627,-0.61535 0.86928,-0.89311 1.2496,-0.87806 1.53334,-1.96514 2.60749,-3.94414 3.08733,-5.61836 0.3201,-2.11878 -0.0462,-3.54179 -2.22525,-3.819 z m -4.32486,4.44583 c 0.81682,0.12401 -0.0984,2.4314 -1.5783,3.50357 -2.78603,2.01829 -4.21,0.72035 -1.50579,-1.37 1.3851,-1.07071 2.91905,-2.15888 3.08409,-2.13357 z"
             id="path3290-4-1-1" />
        </g>
        <path
           id="path4626-5-2"
           d="m 80.968108,574.66897 c 0,0 -4.321011,-17.0526 -1.777921,-20.57854"
           style="fill:none;stroke:#333333;stroke-width:1;stroke-linecap:butt;stroke-linejoin:miter;stroke-miterlimit:4;stroke-dasharray:none;stroke-opacity:1" />
      </g>
      <path
         style="fill:url(#radialGradient3816);fill-opacity:1"
         d="m 475.37442,432.12986 -80.7131,0.25509 c 0,0 -22.15787,21.38275 -29.56249,31.15625 -33.01,7.37885 -66.69613,40.01334 -86.21875,60.6875 0,0 -0.1,33.46874 0,58.46874 26.5545,-23.88049 65.311,-41.78129 102.15624,-44.46875 0,4.07502 0.0937,94.375 0.0937,94.375 0,0 20.49263,-8.53052 26.9375,-19.02484 6.44488,-10.4943 4.40625,-41.35022 4.40625,-41.35022 0,0 24.44025,34.80574 51.53125,49.5625 0,0 4.32175,-38.53849 7.59363,-80.875 -4.11938,1.03614 -7.94563,1.9398 -11.60938,2.73438 5.47013,-5.25239 10.23875,-11.90681 13.4845,-17.57813 -4.99012,1.49755 -10.49662,3.91035 -14.65637,5.3125 6.47662,-5.4707 12.0375,-13.07835 15.53137,-19.9375 -6.93275,1.90922 -14.27687,3.88524 -20.28137,5.1875 7.993,-6.95045 15.30705,-17.918 21.27855,-29.64252 0.702,-18.94293 0.1583,-36.16964 0.0286,-54.8625 z"
         id="path3548-8-9" />
      <path
         style="fill:#6c4930;fill-opacity:1;stroke:none"
         d="m 427.15245,507.56621 c 10.2995,-8.51618 19.112,-14.79973 47.01962,-33.74338 -4.73587,14.56275 -22.11112,29.83897 -38.47925,43.09621 -7.34637,5.95014 -35.09575,15.98371 -53.5315,18.94364 18.94363,-12.19475 34.69175,-19.78028 44.99113,-28.29647 z"
         id="path10658" />
      <path
         style="fill:#8f5522;fill-opacity:1;stroke:none"
         d="m 394.5802,537.98738 c 45.7015,-13.01097 41.31675,-20.6797 55.51487,-24.50505 6.13725,13.75657 0.204,27.83201 -6.54012,36.33225 -25.06475,10.43346 0.10125,6.95419 0.0437,19.80702 -8.71088,2.50998 -12.75288,19.14792 -18.382,18.97195 -10.01288,-0.39855 -13.75325,-20.92173 -16.178,-24.39912 -0.261,8.70627 -2.37138,35.30299 -10.791,35.3514 h -3.66775 c 0,-20.51947 0,-41.03895 0,-61.55845 z"
         id="path10700" />
      <path
         style="fill:#c48d28;fill-opacity:1;stroke:none"
         d="m 384.62395,480.87673 c 12.42937,-13.69833 56.73575,-48.64068 75.2995,-48.75605 9.31475,0 12.89737,1.34346 12.89737,4.83649 -23.573,13.70438 -60.05375,28.87411 -88.19687,43.91957 z"
         id="path10714" />
      <path
         style="fill:#8f5522;fill-opacity:1;stroke:none"
         d="m 374.9972,481.40678 c -2.06275,28.90327 -44.04475,23.98466 -75.23987,24.02952 5.52587,-15.9338 65.86862,-23.88167 75.23987,-24.02952 z"
         id="path11490" />
      <circle
         style="fill:#ffffff;fill-opacity:1;fill-rule:evenodd;stroke:#1e2b43;stroke-width:7.78869;stroke-linecap:butt;stroke-linejoin:miter;stroke-miterlimit:4;stroke-dasharray:none;stroke-opacity:1"
         id="path10716"
         transform="matrix(0.944061,0,0,0.944061,-1662.0488,-33.959842)"
         cx="2108.7092"
         cy="581.88037"
         r="14.912508" />
      <path
         style="fill:url(#linearGradient3396);fill-opacity:1;stroke:none"
         d="m 324.25708,485.16905 c -3.01325,-1.61139 -3.05663,-8.72377 0,-10.25117 6.11725,-3.0567 14.46412,-5.53033 20.51512,-2.3446 3.26413,1.71848 3.77188,9.38202 0.48475,11.05598 -6.30062,3.20855 -14.8075,4.85122 -20.99987,1.53979 z"
         id="path5661" />
      <g
         id="g4910"
         transform="translate(-47.376154,-7.7781746)" />
      <path
         style="fill:#ffffff;stroke:none"
         d="m 68.884707,125.94353 c -0.248509,0.0401 -0.412593,0.25896 -0.607232,0.40037 -1.158073,1.03536 -2.247476,2.14874 -3.31624,3.27573 -0.611281,0.65477 -1.193326,1.37958 -1.464512,2.24645 -0.094,0.34619 -0.102798,0.80412 0.224654,1.03208 0.383994,0.24938 0.880202,0.12788 1.280309,-0.019 0.933875,-0.37708 1.727731,-1.02893 2.442608,-1.72428 0.970256,-0.97427 1.625532,-2.2446 1.920861,-3.58167 0.06484,-0.39084 0.0863,-0.7981 0.01779,-1.18999 -0.05853,-0.21579 -0.257243,-0.44885 -0.498242,-0.43967 z"
         id="path5101"
         transform="translate(274.61689,432.12068)" />
      <path
         style="opacity:0.5;fill:#a0a0a0;stroke:none"
         d="m 352.23033,559.58335 c -0.21278,0.53176 -0.27727,1.14577 -0.52493,1.68453 2.07519,1.55445 4.29353,3.0052 6.42376,4.51977 4.75723,3.36788 9.63932,6.58579 14.23518,10.16089 3.0523,2.39323 5.83886,5.08786 8.28409,8.09907 0.12084,0.0957 0.41568,0.60845 0.50663,0.25803 0.27993,-1.08711 -0.55316,-1.94768 -1.1226,-2.76352 -3.0087,-4.32741 -7.1153,-7.72641 -11.39276,-10.74536 -5.42144,-3.78078 -10.88254,-7.50521 -16.35302,-11.21341 l -0.0504,-0.003 -0.006,0.003 z"
         id="path5121" />
    </g>
  </g>
</svg>
