<?xml version="1.0" encoding="UTF-8" standalone="no"?>
<!-- Created with Inkscape (http://www.inkscape.org/) -->

<svg
   xmlns:dc="http://purl.org/dc/elements/1.1/"
   xmlns:cc="http://creativecommons.org/ns#"
   xmlns:rdf="http://www.w3.org/1999/02/22-rdf-syntax-ns#"
   xmlns:svg="http://www.w3.org/2000/svg"
   xmlns="http://www.w3.org/2000/svg"
   xmlns:xlink="http://www.w3.org/1999/xlink"
   xmlns:sodipodi="http://sodipodi.sourceforge.net/DTD/sodipodi-0.dtd"
   xmlns:inkscape="http://www.inkscape.org/namespaces/inkscape"
   width="200.36874"
   height="200.33752"
   id="svg142460"
   version="1.1"
   inkscape:version="0.48.1 "
   sodipodi:docname="New document 217">
  <defs
     id="defs142462">
    <linearGradient
       y2="98.746696"
       x2="693.2486"
       y1="98.746696"
       x1="543.05798"
       gradientUnits="userSpaceOnUse"
       id="linearGradient142188"
       xlink:href="#linearGradient142151-9"
       inkscape:collect="always" />
    <linearGradient
       id="linearGradient142151-9">
      <stop
         style="stop-color:#090908;stop-opacity:1;"
         offset="0"
         id="stop142153-3" />
      <stop
         id="stop142165-2"
         offset="0.23387347"
         style="stop-color:#090908;stop-opacity:1;" />
      <stop
         id="stop142163-2"
         offset="0.38815629"
         style="stop-color:#090908;stop-opacity:1;" />
      <stop
         id="stop142161-6"
         offset="0.60599703"
         style="stop-color:#090908;stop-opacity:1;" />
      <stop
         id="stop142159-6"
         offset="0.77266848"
         style="stop-color:#090909;stop-opacity:1;" />
      <stop
         style="stop-color:#0a090a;stop-opacity:1"
         offset="1"
         id="stop142155-9" />
    </linearGradient>
    <linearGradient
       inkscape:collect="always"
       xlink:href="#linearGradient142217"
       id="linearGradient142215"
       gradientUnits="userSpaceOnUse"
       x1="543.05798"
       y1="98.746696"
       x2="693.2486"
       y2="98.746696" />
    <linearGradient
       id="linearGradient142217">
      <stop
         id="stop142219"
         offset="0"
         style="stop-color:#090908;stop-opacity:1;" />
      <stop
         style="stop-color:#090908;stop-opacity:1;"
         offset="0.1379953"
         id="stop142221" />
      <stop
         style="stop-color:#432d43;stop-opacity:1"
         offset="0.3402172"
         id="stop142223" />
      <stop
         style="stop-color:#432d43;stop-opacity:1"
         offset="0.6565994"
         id="stop142225" />
      <stop
         style="stop-color:#090909;stop-opacity:1;"
         offset="0.85789353"
         id="stop142227" />
      <stop
         id="stop142229"
         offset="1"
         style="stop-color:#0a090a;stop-opacity:1" />
    </linearGradient>
    <linearGradient
       inkscape:collect="always"
       xlink:href="#linearGradient5507-3-3-6-1"
       id="linearGradient133197"
       gradientUnits="userSpaceOnUse"
       gradientTransform="matrix(0.93280072,0,0,0.93280064,1222.7963,501.83523)"
       x1="143.49998"
       y1="22.901928"
       x2="106.24998"
       y2="22.401928" />
    <linearGradient
       id="linearGradient5507-3-3-6-1">
      <stop
         id="stop5509-1-5-0-3"
         offset="0"
         style="stop-color:#ff0000;stop-opacity:1;" />
      <stop
         id="stop5511-9-8-9-8"
         offset="1"
         style="stop-color:#ff6600;stop-opacity:1" />
    </linearGradient>
    <linearGradient
       inkscape:collect="always"
       xlink:href="#linearGradient5507-3-3-6-1"
       id="linearGradient142602"
       gradientUnits="userSpaceOnUse"
       gradientTransform="matrix(0.93280072,0,0,0.93280064,1222.7963,501.83523)"
       x1="143.49998"
       y1="22.901928"
       x2="106.24998"
       y2="22.401928" />
    <linearGradient
       id="linearGradient142604">
      <stop
         id="stop142606"
         offset="0"
         style="stop-color:#ff0000;stop-opacity:1;" />
      <stop
         id="stop142608"
         offset="1"
         style="stop-color:#ff6600;stop-opacity:1" />
    </linearGradient>
    <linearGradient
       y2="22.401928"
       x2="106.24998"
       y1="22.901928"
       x1="143.49998"
       gradientTransform="matrix(1.1660009,0,0,1.1660008,256.34902,396.27215)"
       gradientUnits="userSpaceOnUse"
       id="linearGradient142612"
       xlink:href="#linearGradient5507-3-3-6-1"
       inkscape:collect="always" />
  </defs>
  <sodipodi:namedview
     id="base"
     pagecolor="#ffffff"
     bordercolor="#666666"
     borderopacity="1.0"
     inkscape:pageopacity="0.0"
     inkscape:pageshadow="2"
     inkscape:zoom="2.2467213"
     inkscape:cx="174.99862"
     inkscape:cy="82.801972"
     inkscape:document-units="px"
     inkscape:current-layer="layer1"
     showgrid="false"
     fit-margin-left="0.2"
     fit-margin-top="0.2"
     fit-margin-bottom="0.2"
     fit-margin-right="0.2"
     inkscape:window-width="1280"
     inkscape:window-height="780"
     inkscape:window-x="-8"
     inkscape:window-y="-8"
     inkscape:window-maximized="1" />
  <metadata
     id="metadata142465">
    <rdf:RDF>
      <cc:Work
         rdf:about="">
        <dc:format>image/svg+xml</dc:format>
        <dc:type
           rdf:resource="http://purl.org/dc/dcmitype/StillImage" />
        <dc:title></dc:title>
      </cc:Work>
    </rdf:RDF>
  </metadata>
  <g
     inkscape:label="Layer 1"
     inkscape:groupmode="layer"
     id="layer1"
     transform="translate(-322.67277,-300.76485)">
    <g
       id="g142641">
      <text
         xml:space="preserve"
         style="font-size:46.64002228px;font-style:normal;font-weight:normal;line-height:125%;letter-spacing:0px;word-spacing:0px;fill:url(#linearGradient142612);fill-opacity:1;stroke:none;font-family:StoneSerITCStd Medium;-inkscape-font-specification:StoneSerITCStd Medium"
         x="366.82767"
         y="424.43329"
         id="text5503-8"
         sodipodi:linespacing="125%"><tspan
           sodipodi:role="line"
           id="tspan5505-1"
           x="366.82767"
           y="424.43329"
           style="font-size:6.99600458px;fill:url(#linearGradient142612);fill-opacity:1">Created by Falzar FZ</tspan></text>
      <g
         id="g142395"
         transform="matrix(1.25,0,0,1.25,-349.44096,274.4267)">
        <path
           style="fill:#9667ac;fill-opacity:1"
           d="m 572.41973,44.84303 c -2.46669,1.537681 3.30928,3.267949 4.28125,4.5 8.65272,4.980713 18.47026,6.790875 27.875,9.75 -2.39373,5.73083 2.42576,14.196599 -4.34375,17.90625 -6.34171,1.524961 -12.51687,-3.189582 -19.03125,-2.9375 -8.64214,-0.872721 -18.49712,-4.341359 -25.125,-8.0625 2.02317,5.221545 3.13482,12.180695 6.92856,15.820912 15.11613,1.857778 30.31977,2.858426 45.47769,4.304088 -4.24901,6.51127 -9.16506,13.41957 -13,19.65625 4.65129,-1.98382 8.51058,1.98161 9.0625,6.375 3.92902,10.04861 11.98722,21.03895 8.40625,32.3125 -4.18347,5.6777 -12.02049,1.76034 -17.34375,0.1875 -15.88721,-6.37371 -23.84236,-25.71964 -41.53125,-28.375 -0.23036,0.95823 -1.51599,4.50718 1.3125,3.625 16.77156,6.07102 31.9427,18.10508 40.625,33.75 -0.7153,3.69595 5.13516,2.71623 6.96875,5.40625 2.90444,2.48129 4.74933,6.40623 9.28125,5.96875 6.79632,0.0771 15.69617,1.7567 19.6875,-5.21875 2.51879,-2.82758 7.5639,-3.86258 10.03125,-4.90625 -3.30387,-5.71878 4.19922,-9.29302 7.6875,-12.28125 10.24931,-8.01644 22.0516,-14.25382 32.21875,-22.25 0.76222,-2.47506 -0.27765,-4.10953 -3.125,-2.5 -18.16372,5.52925 -27.07485,27.33228 -46.96875,29.1875 -5.66498,2.46563 -11.87061,-3.24182 -10,-9.1875 0.97826,-11.147 8.409,-20.38612 11,-31.0625 1.6505,-2.98061 5.61703,-2.40632 8.09375,-0.90625 -4.40902,-6.65363 -9.253,-13.04262 -13.875,-19.5625 15.55212,-1.704348 31.11481,-3.308136 46.6875,-4.8125 2.00878,-5.077157 4.00784,-10.110436 5.40625,-15.375 -13.85733,8.380365 -30.8337,8.110535 -46.16916,12.159365 -4.50762,1.7176 0.25312,-4.151631 -0.95584,-6.628115 -1.09415,-5.787022 -0.4483,-14.539654 7.125,-15.09375 8.94126,-2.000233 17.89753,-4.913408 25.03125,-10.90625 -2.15416,-1.959917 -4.19352,2.433986 -6.53125,2.90625 -18.78494,10.918076 -41.96803,9.221075 -62.78125,6.59375 -8.16275,-1.697851 -15.9105,-5.586612 -22.40625,-10.34375 z m 104.375,102.78125 c -9.11151,0.76533 -17.72782,4.69021 -26.125,8.28125 5.05152,1.14604 8.08002,5.33005 10.59375,9.3125 3.47474,1.63391 2.22261,-3.23563 3.90625,-4.90625 2.54821,-5.4832 8.48161,-10.29871 12.625,-12.78125 l -0.99563,0.0933 -0.004,4.1e-4 z m -119.28125,0.28125 c 7.51707,3.0906 13.09066,10.42832 15.90625,17.65625 3.64397,-1.77869 4.55949,-7.1278 8.75,-8.46875 4.75565,-1.21677 -1.80722,-2.70752 -3.59375,-3.875 -6.90665,-2.94008 -14.30283,-4.77896 -21.8125,-5.53125 l 0.75,0.21875 z"
           id="path8077"
           inkscape:connector-curvature="0" />
        <g
           id="g140659">
          <path
             id="path140661"
             d="m 590.95387,22.553934 c 0,0 0.78218,3.544375 1.54143,5.771533 0.71604,2.100375 0.56805,4.140967 0.26693,4.140967 -0.0654,0 -0.24639,3.55e-4 -0.50793,10e-4 -1.47513,0.0037 -5.20906,1.588519 -9.68513,1.987085 -2.77494,0.394281 -4.95595,0.834192 -7.55498,0.840739 -2.07113,0.0052 -3.41032,0.662528 -3.41032,0.901049 0,0.0532 -0.0809,0.166641 -0.23171,0.317448 -1.11394,1.113947 -8.73073,5.516106 -14.09976,9.573226 -4.39341,3.519167 -8.49913,5.97608 -9.00323,5.477337 -0.25237,-0.249691 -0.41217,0.433115 -0.41217,1.846403 -0.16009,5.985367 0.78239,17.029881 1.25937,23.349281 0.27127,3.442295 0.6809,5.847658 1.13463,6.027393 0.34407,0.136296 -1.41881,0.248484 -3.2245,0.358754 -1.80807,0.126171 -3.66545,0.249786 -3.36282,0.406952 0.30739,0.15964 1.52655,1.42515 2.91993,3.21985 2.16004,2.871044 3.40697,7.753531 4.55456,9.92597 0.16725,0.316599 0.38454,0.565896 0.61319,0.756701 1.44558,3.047228 1.0463,5.708018 1.55879,5.451658 0.44037,-0.22028 -0.78348,-0.38915 -2.59865,-0.38008 -2.46024,0.0123 -5.09924,0.64572 -4.81742,1.32078 0.33804,0.80973 3.18704,3.98759 5.55045,6.80917 0.61424,0.73333 1.2208,2.25852 1.77418,3.03324 0.53822,1.32123 0.95173,2.571 1.0103,3.62458 0.4366,4.14849 -2.07963,13.43442 -3.07807,12.55989 -0.60761,-0.53221 -9.98968,-0.95559 -10.70951,-1.11454 -0.41298,-0.0912 0.45123,1.53714 1.87333,4.09778 1.11284,2.24363 2.42131,3.8796 3.79355,6.50268 0.8226,0.79211 1.65151,1.62192 2.47546,2.47391 5.01389,4.19323 12.36662,14.12337 16.52193,19.80744 2.96162,4.05122 4.45386,6.65233 3.08722,6.28389 -0.77389,-0.20864 3.67382,-0.67281 8.19296,-0.5361 1.61141,0.039 3.24404,0.94753 4.76965,1.49141 3.04899,0.26614 5.83729,0.86428 7.70286,1.80064 3.42446,1.62798 6.15825,4.32626 7.68768,6.66128 1.55043,1.40492 2.64386,2.51387 2.91592,2.51387 0.22654,0 0.39813,-0.61799 0.39813,-1.52174 0,-2.32157 0.66075,-7.77884 1.25,-8.24003 0.004,-0.0272 0.007,-0.0414 0.0109,-0.0414 0.57839,-7.9e-4 3.00042,-0.20993 6.09784,0.34528 1.83695,0.32808 3.28252,0.97826 4.64339,1.81987 1.96738,1.21002 3.78775,4.11278 5.50587,5.93533 0.57063,0.9913 0.94704,1.69855 1.09057,1.69083 1.70839,-0.0919 3.22467,-6.42711 6.29737,-8.30699 0.15415,-0.0943 0.31937,-0.18281 0.49546,-0.26547 1.93268,-0.89062 3.79841,-1.0889 6.03014,-1.19402 2.20054,-0.12399 4.10904,0.21499 4.33327,0.48443 0.28688,0.3447 0.49515,2.32849 0.49515,4.13801 0,1.8561 0.82875,3.94288 1.25,4.78072 0.003,0.20617 0.008,0.31022 0.0126,0.27768 0.14273,-0.94738 4.38869,-7.1424 10.54985,-9.62517 0.91154,-0.36458 2.02797,-0.63846 3.28001,-0.82123 1.39088,-0.66914 3.02505,-1.6709 4.74485,-1.7811 5.04474,-0.48236 11.58851,0.29401 10.71052,0.63122 -0.8286,0.31825 0.0244,-1.17634 1.97351,-3.84153 3.94318,-5.39186 15.24522,-17.63071 18.67695,-21.94779 0.1939,-0.34631 0.37615,-0.66647 0.5455,-0.96084 1.09562,-2.04335 2.18695,-3.50828 3.20816,-5.57313 2.18128,-4.06201 3.89758,-6.91101 3.2643,-6.56446 -0.66775,0.36542 -9.98347,0.89119 -10.54164,1.41503 -0.9789,0.91868 -3.49753,-8.5846 -3.35461,-13.1626 0.006,-0.09 0.0138,-0.18113 0.0236,-0.2732 0.31099,-0.8101 0.78074,-2.43092 1.34355,-3.3063 2.62787,-4.08735 8.098,-10.33888 8.41258,-11.08879 0.0754,-0.17983 -0.35425,-0.29369 -1.08453,-0.29735 -2.39533,-0.012 -6.49543,0.46151 -5.75175,0.82336 0.42273,0.2057 0.27807,-0.95415 0.29497,-2.79238 0.008,-0.908226 -0.11236,-2.200578 -0.0285,-3.605308 0.0441,-1.761946 1.05145,-4.460114 2.73667,-6.788709 2.31474,-3.274295 5.46337,-6.15646 6.72656,-6.919052 0.0621,-0.05941 0.0995,-0.09213 0.10924,-0.0953 0.73624,-0.240313 -7.18977,-0.51786 -6.71244,-1.040713 0.0331,-0.03624 0.0646,-0.272449 0.0945,-0.674126 0.46596,-2.993349 1.25937,-14.612356 1.25937,-23.260419 0,-4.011823 -0.6229,-6.351767 -1.35143,-5.800387 -0.37852,0.28648 -2.2509,-0.932999 -4.69654,-2.92994 -4.07533,-2.763042 -11.06992,-6.543333 -14.09915,-9.572565 -1.08371,-1.08371 -2.00398,-2.982176 -2.64316,-3.621353 -0.60633,-0.606336 -0.82796,-0.995854 -0.61818,-1.05654 0.51441,-0.14881 -2.37942,-0.445259 -6.54064,-0.718593 -3.04053,-0.384802 -6.07782,-1.956392 -9.69103,-1.956392 -1.98984,0 -4.93031,0 -6.04163,0 -0.89927,0 -1.42137,-0.163308 -1.42137,-0.371869 0,-0.368449 0.60833,-2.276594 1.3386,-3.955363 1.0964,-2.520461 2.10314,-5.102836 1.34455,-4.515884 -0.36608,0.283252 -2.80178,2.543805 -5.88159,4.913646 -2.69856,2.058418 -6.03317,4.173056 -8.95333,5.196496 -6.07865,2.190505 -16.70837,1.884021 -22.61607,-0.379949 -0.92877,-0.350319 -1.89411,-0.817436 -2.85693,-1.362273 -6.12682,-3.366463 -12.1721,-9.524874 -12.1721,-9.524874 0,0 0,0 0,0"
             style="fill:#100d0f;fill-opacity:1"
             inkscape:connector-curvature="0" />
          <path
             id="path140663"
             d="m 587.65676,23.789876 c 0,0 0.67044,4.466608 1.32123,6.375601 0.61375,1.800321 -0.47727,3.549399 -1.07952,3.549399 -0.13083,0 -0.33145,3.05e-4 -0.55563,8.7e-4 -1.2644,0.0032 -2.66988,3.157521 -5.44439,3.939092 -1.31641,0.777898 -1.39081,1.646921 -3.61856,1.652532 -1.77525,0.0045 -2.92313,1.315239 -2.92313,1.792281 0,0.106405 -0.0693,0.240821 -0.1986,0.370084 -0.95481,0.954812 -10.55646,4.127178 -16.37123,7.318099 -4.57392,2.825437 -9.09136,4.045246 -10.09957,3.04776 -0.50475,-0.499383 -0.82434,-0.120248 -0.82434,1.091142 -0.32018,7.242336 1.56478,19.214896 2.51874,25.324967 0.54255,3.344915 1.3618,5.670575 2.26926,6.030044 0.68814,0.272592 -0.40069,0.490875 -1.54422,0.705245 -1.0848,0.246014 -2.23568,0.486835 -1.63042,0.801166 0.61479,0.319282 1.91276,1.632625 3.18681,3.49578 2.00968,3.105542 1.32447,9.047618 2.30813,10.909712 0.14335,0.27137 0.42646,0.4366 0.78042,0.52112 1.61444,2.42414 1.9926,4.34445 3.01758,3.83174 0.88075,-0.44057 0.23556,-0.78732 -1.3203,-0.77954 -2.10878,0.0105 -4.07549,1.26082 -3.51185,2.61094 0.67608,1.61946 3.54295,5.36105 5.56873,7.77955 0.52649,0.62856 1.0464,2.79963 1.52072,3.46367 0.004,1.14039 -0.0675,2.1204 -0.41957,2.86233 -0.9369,3.03069 -4.15928,9.72227 -6.15616,7.9732 -1.21522,-1.06441 -9.97935,-1.93618 -11.41901,-2.25407 -0.82596,-0.18238 -0.5902,1.21681 0.0771,3.56586 0.95909,2.87431 2.07779,4.22363 3.2516,7.42318 0.989,0.72917 1.97797,1.51209 2.956,2.33127 7.09152,4.50811 15.48008,15.75624 19.04177,20.62829 2.53853,3.47248 2.93481,5.11967 0.20153,4.3828 -1.54778,-0.41727 1.16234,-1.00187 3.75291,-0.88469 1.38121,0.0335 2.78346,1.76503 4.08827,2.70693 3.20543,0.29068 6.20934,1.07953 8.31475,2.28965 3.60349,1.93324 6.42759,5.01267 7.73428,7.82056 1.59008,1.20422 2.9288,2.15474 3.47293,2.15474 0.45308,0 0.79626,-0.5297 0.79626,-1.30434 0,-1.98992 1.32149,-8.09615 2.5,-8.49146 0.007,-0.0233 0.0146,-0.0354 0.0219,-0.0355 1.15678,-0.002 3.24151,-0.25291 6.64279,0.53214 2.01257,0.46265 3.23027,1.39537 4.83967,2.39815 2.00281,1.23823 4.11664,3.87937 6.71684,5.44155 0.68653,0.84969 1.18898,1.45121 1.47604,1.43578 3.41678,-0.18374 4.43211,-6.30384 7.59474,-8.239 0.16776,-0.10265 0.34869,-0.19865 0.54356,-0.2877 2.40762,-1.07448 4.01134,-1.16911 6.59727,-1.25963 2.18144,-0.10647 4.12845,0.45834 4.57692,0.99721 0.57375,0.68941 0.99029,2.83886 0.99029,4.38988 0,1.59094 1.6575,3.38033 2.5,4.10133 0.007,0.13966 0.0153,0.1917 0.0251,0.12662 0.28547,-1.89476 4.77339,-8.32952 11.09971,-10.85034 1.03405,-0.40745 2.25522,-0.69437 3.59724,-0.84946 1.19361,-1.0507 2.5929,-2.86078 4.06701,-2.95524 2.56409,-0.48251 6.71247,0.56305 4.95651,1.23748 -1.65722,0.63651 -1.46587,-0.27616 0.2048,-2.5606 3.37987,-4.6216 18.55968,-18.96963 21.71954,-22.67365 0.1662,-0.39762 0.32242,-0.76156 0.46757,-1.09451 0.9391,-2.43176 1.87453,-3.73522 2.74986,-6.35549 0.84411,-3.57357 1.48661,-5.78435 0.22007,-5.09125 -1.3355,0.73083 -9.96696,1.78239 -11.08329,2.83005 -1.9578,1.83737 -5.20879,-5.26522 -6.73422,-9.15362 -0.0238,-0.0766 -0.0461,-0.15432 -0.0669,-0.23323 0.26656,-0.69437 0.6692,-2.94741 1.15161,-3.69774 2.25247,-3.50344 7.87053,-11.07736 8.4997,-12.57717 0.15088,-0.35966 -0.16399,-0.58466 -0.78994,-0.5878 -2.05314,-0.0103 -4.39498,0.96611 -2.90764,1.68982 0.84548,0.41139 1.10036,-0.39841 1.11485,-1.97404 0.007,-0.77847 -0.38136,-2.18095 -0.63184,-3.774768 -0.41588,-2.058742 -0.0801,-5.108122 1.45326,-7.472192 2.13606,-3.436258 5.64838,-6.18743 7.63973,-7.13794 0.0643,-0.05454 0.10749,-0.08622 0.12695,-0.09257 1.47248,-0.480624 -4.40455,-1.010718 -3.44987,-2.056424 0.0662,-0.07248 0.12922,-0.31783 0.18889,-0.706571 0.93192,-3.259906 2.51874,-15.659259 2.51874,-25.248799 0,-3.438705 -1.2458,-4.642256 -2.70286,-3.539495 -0.75705,0.57296 -2.82713,-0.191324 -5.33825,-1.805052 -4.70648,-2.081893 -13.77422,-4.721049 -16.3707,-7.317533 -0.9289,-0.928895 -1.7177,-3.67409 -2.26557,-4.221956 -0.51971,-0.519717 -0.5591,-0.894884 -0.13955,-1.016254 1.02883,-0.297621 -0.32751,-0.890518 -3.13944,-1.437188 -1.54353,-0.769602 -2.34885,-3.912784 -5.44589,-3.912784 -1.70557,0 -5.65812,0 -6.61068,0 -0.7708,0 -1.21832,-0.326615 -1.21832,-0.743736 0,-0.736899 0.52143,-2.954946 1.14737,-4.393891 0.93977,-2.160395 1.3861,-3.722508 -0.13108,-2.548604 -0.73216,0.566504 -3.34316,2.832367 -6.61494,5.12542 -2.91442,2.013454 -6.6372,3.997896 -10.10488,4.969864 -7.02488,2.05577 -18.30503,1.698252 -24.80716,-0.609857 -1.06171,-0.368152 -2.12986,-0.845718 -3.1641,-1.399201 -7.19365,-3.689268 -13.29395,-10.400055 -13.29395,-10.400055 0,0 0,0 0,0"
             style="fill:#171216;fill-opacity:1"
             inkscape:connector-curvature="0" />
          <path
             id="path140665"
             d="m 584.35966,25.025819 c 0,0 0.55869,5.38884 1.10102,6.979667 0.51146,1.500267 -1.52259,2.957833 -2.42596,2.957833 -0.19625,0 -0.41652,2.54e-4 -0.60333,7.24e-4 -1.05367,0.0027 -0.1307,4.726525 -1.20366,5.8911 0.14213,1.161515 2.17432,2.45965 0.31787,2.464326 -1.47938,0.0037 -2.43594,1.967949 -2.43594,2.683512 0,0.159608 -0.0578,0.315001 -0.16551,0.422719 -0.79567,0.795677 -12.38218,2.738251 -18.64269,5.062973 -4.75444,2.131707 -9.6836,2.114411 -11.19591,0.618182 -0.75712,-0.749074 -1.23652,-0.67361 -1.23652,0.335881 -0.48026,8.499306 2.34718,21.399911 3.77813,27.300653 0.81381,3.247537 2.0427,5.493492 3.40388,6.032696 1.03221,0.408888 0.61742,0.733267 0.13607,1.051737 -0.36154,0.365857 -0.80591,0.723883 0.10197,1.19538 0.92218,0.478922 2.29897,1.840098 3.45369,3.77171 1.85932,3.34004 -0.75802,10.341698 0.0617,11.893448 0.11946,0.22614 0.4684,0.3073 0.94766,0.28555 1.7833,1.80105 2.9389,2.98089 4.47637,2.21182 1.32112,-0.66085 1.25459,-1.18548 -0.0419,-1.179 -1.75732,0.009 -3.05173,1.87592 -2.20627,3.9011 1.01412,2.42919 3.89885,6.73451 5.587,8.74992 0.43875,0.52381 0.872,3.34074 1.26727,3.89411 -0.53119,0.95955 -1.08668,1.6698 -1.84946,2.10008 -2.3104,1.91289 -6.23891,6.01012 -9.23423,3.38652 -1.82283,-1.59662 -9.96903,-2.91677 -12.12852,-3.39361 -1.23894,-0.27357 -1.63163,0.89649 -1.71918,3.03395 0.80534,3.50498 1.73428,4.56766 2.70967,8.34368 1.15539,0.66621 2.30443,1.40225 3.43653,2.18862 9.16914,4.823 18.59354,17.3891 21.56161,21.44915 2.11545,2.89373 1.41575,3.58701 -2.68416,2.4817 -2.32167,-0.62591 -1.34914,-1.33093 -0.68714,-1.23328 1.15101,0.0279 2.32289,2.58253 3.40689,3.92244 3.36186,0.31522 6.58139,1.29478 8.92665,2.77868 3.78251,2.23848 6.69691,5.69907 7.78088,8.97983 1.62972,1.00352 3.21374,1.79562 4.02993,1.79562 0.67961,0 1.1944,-0.44142 1.1944,-1.08695 0,-1.65827 1.98223,-8.41346 3.75,-8.74288 0.011,-0.0194 0.0219,-0.0296 0.0328,-0.0296 1.73517,-0.002 3.4826,-0.29587 7.18774,0.71901 2.18819,0.59723 3.17803,1.81248 5.03594,2.97643 2.03825,1.26643 4.44555,3.64596 7.92782,4.94778 0.80242,0.70807 1.43092,1.20387 1.8615,1.18071 5.12517,-0.2756 5.63956,-6.18057 8.89212,-8.17099 0.18136,-0.11099 0.37801,-0.2145 0.59166,-0.30995 2.88255,-1.25833 4.22427,-1.24931 7.16439,-1.32523 2.16235,-0.089 4.14787,0.70169 4.82057,1.51 0.86063,1.03411 1.48545,3.34922 1.48545,4.64174 0,1.32578 2.48625,2.81777 3.75,3.42194 0.0104,0.0731 0.023,0.0732 0.0377,-0.0244 0.4282,-2.84214 5.15809,-9.51663 11.64956,-12.07551 1.15657,-0.45032 2.48249,-0.75029 3.91447,-0.8777 0.99635,-1.43225 2.16075,-4.05065 3.38918,-4.12936 0.0835,-0.48267 1.83644,0.83209 -0.79751,1.84373 -2.48582,0.95476 -2.95612,0.62403 -1.5639,-1.27967 2.81656,-3.85133 21.87413,-20.30854 24.76213,-23.39951 0.13851,-0.44894 0.26868,-0.85665 0.38965,-1.22817 0.78258,-2.82018 1.5621,-3.96216 2.29154,-7.13786 -0.49305,-3.08512 -0.92434,-4.65769 -2.82416,-3.61804 -2.00325,1.09625 -9.95043,2.67358 -11.62493,4.24508 -2.93671,2.75606 -6.92006,-1.94584 -10.11382,-5.14466 -0.0535,-0.0631 -0.10594,-0.12749 -0.15736,-0.19326 0.22214,-0.57864 0.55767,-3.46388 0.95968,-4.08916 1.87706,-2.91953 7.64306,-11.81585 8.58681,-14.06557 0.22632,-0.53949 0.0263,-0.87562 -0.49534,-0.87824 -1.71095,-0.009 -2.29454,1.47071 -0.0635,2.55627 1.26821,0.61709 1.92265,0.15734 1.93471,-1.15569 0.006,-0.64873 -0.65036,-2.16134 -1.2352,-3.94423 -0.87587,-2.35554 -1.21159,-5.756132 0.16986,-8.155676 1.95738,-3.598223 5.83337,-6.218401 8.55289,-7.356829 0.0665,-0.04968 0.11547,-0.08031 0.14466,-0.08983 2.20873,-0.720937 -1.61932,-1.503578 -0.18731,-3.072137 0.0993,-0.10872 0.19383,-0.363209 0.28333,-0.739015 1.39788,-3.526463 3.77813,-16.706163 3.77813,-27.237179 0,-2.865588 -1.8687,-2.932744 -4.0543,-1.278604 -1.13557,0.859441 -3.40336,0.550351 -5.97997,-0.680164 -5.33762,-1.400744 -16.47851,-2.898764 -18.64225,-5.062501 -0.77408,-0.774079 -1.43141,-4.366003 -1.88797,-4.822558 -0.43309,-0.433097 -0.29025,-0.793913 0.33909,-0.975969 1.54324,-0.446431 1.7244,-1.335777 0.26175,-2.155781 -0.0465,-1.154404 1.38012,-5.869176 -1.20074,-5.869176 -1.42132,0 -6.38594,0 -7.17974,0 -0.64234,0 -1.01526,-0.489924 -1.01526,-1.115605 0,-1.105348 0.43452,-3.633297 0.95614,-4.832418 0.78314,-1.800329 0.66906,-2.34218 -1.60671,-0.581323 -1.09824,0.849755 -3.88455,3.120928 -7.3483,5.337192 -3.13028,1.968492 -7.24123,3.822738 -11.25644,4.743233 -7.97109,1.921035 -19.90167,1.512483 -26.99823,-0.839766 -1.19466,-0.385985 -2.36562,-0.874 -3.47128,-1.436128 -8.26048,-4.012073 -14.41579,-11.275235 -14.41579,-11.275235 0,0 0,0 0,0"
             style="fill:#1e161e;fill-opacity:1"
             inkscape:connector-curvature="0" />
          <path
             id="path140667"
             d="m 581.06255,26.261761 c 0,0 0.44696,6.311072 0.88082,7.583734 0.40916,1.200214 -2.5679,2.366267 -3.77241,2.366267 -0.26166,0 -0.50157,2.03e-4 -0.65103,5.79e-4 -0.84293,0.0021 2.40848,6.295527 3.03708,7.843107 1.60066,1.545132 5.73945,3.272378 4.25429,3.276119 -1.1835,0.003 -1.94875,2.62066 -1.94875,3.574744 0,0.212811 -0.0462,0.38918 -0.13241,0.475355 -0.63653,0.636542 -14.2079,1.349323 -20.91415,2.807846 -4.93496,1.437977 -10.27583,0.183576 -12.29225,-1.811395 -1.0095,-0.998765 -1.64869,-1.226973 -1.64869,-0.41938 -0.64035,9.756275 3.12958,23.584926 5.0375,29.276338 1.08509,3.150159 2.7236,5.316409 4.53851,6.035349 1.37628,0.545183 1.63554,0.975657 1.81636,1.398227 0.36172,0.4857 0.62385,0.960932 1.83436,1.589594 1.22958,0.638563 2.68518,2.047573 3.72057,4.047641 1.70896,3.574538 -2.84052,11.635784 -2.18475,12.877184 0.0956,0.18091 0.51033,0.17801 1.1149,0.05 1.95216,1.17797 3.8852,1.61734 5.93516,0.59191 1.76149,-0.88114 2.27363,-1.58364 1.23639,-1.57846 -1.40585,0.007 -2.02796,2.49101 -0.90069,5.19126 1.35216,3.23892 4.25476,8.10797 5.60528,9.7203 0.351,0.41904 0.6976,3.88185 1.01382,4.32455 -1.0659,0.7787 -2.10589,1.21919 -3.27934,1.33782 -3.68391,0.79509 -8.31855,2.29798 -12.31231,-1.20017 -2.43044,-2.12882 -9.95871,-3.89735 -12.83803,-4.53314 -1.65192,-0.36476 -2.67306,0.57617 -3.51544,2.50204 0.6516,4.13565 1.39077,4.91169 2.16774,9.26418 1.32178,0.60326 2.63089,1.29241 3.91707,2.04598 11.24676,5.13788 21.70698,19.02196 24.08144,22.27 1.69236,2.31498 -0.1033,2.05435 -5.56985,0.5806 -3.09556,-0.83455 -3.86063,-1.65999 -5.12718,-1.58187 0.9208,0.0223 1.8623,3.40002 2.72551,5.13795 3.51829,0.33977 6.95344,1.51004 9.53854,3.26771 3.96153,2.54373 6.96624,6.38547 7.82748,10.1391 1.66936,0.80282 3.49867,1.4365 4.58693,1.4365 0.90615,0 1.59253,-0.35314 1.59253,-0.86956 0,-1.32662 2.64297,-8.73077 5,-8.99431 0.0147,-0.0155 0.0293,-0.0236 0.0438,-0.0237 2.31356,-0.003 3.72368,-0.33884 7.73269,0.90588 2.36381,0.73179 3.12579,2.22958 5.23222,3.5547 2.07368,1.29463 4.77445,3.41255 9.13879,4.454 0.91832,0.56646 1.67286,0.95653 2.24697,0.92565 6.83356,-0.36747 6.84699,-6.0573 10.18949,-8.10298 0.19497,-0.11933 0.40733,-0.23036 0.63977,-0.33219 3.35748,-1.44219 4.43719,-1.32952 7.73151,-1.39085 2.14325,-0.0714 4.16727,0.94505 5.06421,2.0228 1.14751,1.37881 1.9806,3.85958 1.9806,4.8936 0,1.06062 3.315,2.25521 5,2.74255 0.0139,0.007 0.0307,-0.0453 0.0503,-0.1755 0.57093,-3.78952 5.5428,-10.70374 12.19941,-13.30068 1.27908,-0.49319 2.70975,-0.8062 4.23171,-0.90594 0.79907,-1.8138 1.7286,-5.24052 2.71134,-5.30349 -2.3972,-0.48282 -3.0396,1.10114 -6.55152,2.45 -3.31443,1.273 -4.44638,1.52421 -3.33261,0.001 2.25325,-3.08106 25.18859,-21.64746 27.80472,-24.12537 0.11081,-0.50025 0.21495,-0.95174 0.31172,-1.36183 0.62607,-3.20859 1.24969,-4.18911 1.83323,-7.92023 -1.83022,-2.59668 -3.3353,-3.53102 -5.86839,-2.14483 -2.67099,1.46166 -9.9339,3.56478 -12.16657,5.6601 -3.91561,3.67475 -8.63133,1.37354 -13.49343,-1.13568 -0.0832,-0.0496 -0.1658,-0.10068 -0.24782,-0.15329 0.17771,-0.46292 0.44614,-3.98037 0.76774,-4.48059 1.50165,-2.33563 7.41559,-12.55434 8.67393,-15.55396 0.30175,-0.71932 0.21655,-1.16659 -0.20075,-1.16869 -1.36876,-0.007 -0.19409,1.9753 2.7806,3.42272 1.69095,0.82279 2.74493,0.71308 2.75458,-0.33734 0.005,-0.51898 -0.91936,-2.14172 -1.83857,-4.1137 -1.33586,-2.65233 -2.34311,-6.404134 -1.11355,-8.839153 1.7787,-3.760186 6.01838,-6.24937 9.46606,-7.575717 0.0687,-0.04482 0.12346,-0.07439 0.16237,-0.0871 2.94497,-0.961249 1.16591,-1.996437 3.07525,-4.087849 0.13234,-0.14496 0.25844,-0.408589 0.37778,-0.771459 1.86384,-3.79302 5.0375,-17.753066 5.0375,-29.225559 0,-2.29247 -2.4916,-1.223232 -5.40573,0.982288 -1.5141,1.145921 -3.97959,1.292025 -6.62168,0.444723 -5.96876,-0.719595 -19.18281,-1.076479 -20.9138,-2.807469 -0.61927,-0.619263 -1.14513,-5.057916 -1.51038,-5.42316 -0.34648,-0.346477 -0.0214,-0.692943 0.81773,-0.935684 2.05765,-0.595242 3.77631,-1.781035 3.66294,-2.874375 1.45048,-1.539205 5.10909,-7.825568 3.0444,-7.825568 -1.13705,0 -7.11375,0 -7.74879,0 -0.51387,0 -0.81221,-0.653231 -0.81221,-1.487472 0,-1.473798 0.34762,-4.311649 0.76491,-5.270946 0.62652,-1.440263 -0.048,-0.961852 -3.08233,1.385957 -1.46432,1.133007 -4.42594,3.409491 -8.08166,5.548966 -3.34614,1.923528 -7.84526,3.647578 -12.408,4.516602 -8.91731,1.7863 -21.49831,1.326713 -29.1893,-1.069675 -1.32761,-0.403818 -2.60138,-0.902282 -3.77846,-1.473056 -9.32731,-4.334878 -15.53764,-12.150416 -15.53764,-12.150416 0,0 0,0 0,0"
             style="fill:#261b25;fill-opacity:1"
             inkscape:connector-curvature="0" />
          <path
             id="path140669"
             d="m 577.76544,27.497704 c 0,0 0.33522,7.233304 0.66062,8.1878 0.30687,0.900161 -3.61322,1.7747 -5.11885,1.7747 -0.32708,0 -0.58664,1.53e-4 -0.69873,4.35e-4 -0.6322,0.0016 4.94766,7.864529 7.27781,9.795114 3.0592,1.928749 9.30459,4.085107 8.19072,4.087913 -0.88763,0.0022 -1.46157,3.273369 -1.46157,4.465975 0,0.266013 -0.0347,0.46336 -0.0993,0.527991 -0.47741,0.477406 -16.03363,-0.03961 -23.18562,0.552719 -5.11548,0.744248 -10.86807,-1.747258 -13.38859,-4.240973 -1.26187,-1.248456 -2.06086,-1.780335 -2.06086,-1.17464 -0.80044,11.013243 3.91197,25.76994 6.29687,31.252023 1.35636,3.052781 3.4045,5.139327 5.67314,6.038001 1.72036,0.681479 2.65366,1.218049 3.49665,1.744719 1.08498,0.605543 2.05361,1.19798 3.56675,1.983808 1.53697,0.798204 3.07139,2.255046 3.98745,4.32357 1.5586,3.809041 -4.92301,12.929871 -4.43119,13.860921 0.0717,0.13568 0.55226,0.0487 1.28215,-0.1856 2.12101,0.55488 4.83149,0.25378 7.39394,-1.02801 2.20187,-1.10142 3.29267,-1.98181 2.51474,-1.97792 -1.05439,0.005 -1.00421,3.10611 0.40489,6.48142 1.6902,4.04865 4.61066,9.48143 5.62355,10.69068 0.26325,0.31428 0.5232,4.42296 0.76036,4.75498 -1.6006,0.59786 -3.12508,0.76859 -4.70922,0.57557 -5.05741,-0.32271 -10.39819,-1.41417 -15.39039,-5.78685 -3.03804,-2.66103 -9.94838,-4.87795 -13.54753,-5.67268 -2.0649,-0.45595 -3.71449,0.25584 -5.31169,1.97012 0.49784,4.76633 1.04724,5.25573 1.6258,10.18468 1.48818,0.54032 2.95734,1.18258 4.3976,1.90334 13.32438,5.45277 24.82044,20.65482 26.60129,23.09085 1.26926,1.73624 -1.62236,0.52169 -8.45555,-1.32049 -3.86945,-1.04318 -6.37211,-1.98905 -9.56723,-1.93046 0.6906,0.0167 1.40173,4.21752 2.04413,6.35347 3.67473,0.36431 7.32549,1.72529 10.15043,3.75672 4.14056,2.84899 7.23558,7.07188 7.87409,11.29839 1.70901,0.6021 3.78361,1.07737 5.14393,1.07737 1.13269,0 1.99066,-0.26485 1.99066,-0.65217 0,-0.99496 3.30372,-9.04808 6.25,-9.24573 0.0183,-0.0117 0.0366,-0.0177 0.0547,-0.0178 2.89194,-0.004 3.96477,-0.3818 8.27764,1.09275 2.53942,0.86637 3.07354,2.64669 5.4285,4.13298 2.1091,1.32284 5.10335,3.17913 10.34976,3.96023 1.03422,0.42484 1.91481,0.70918 2.63244,0.67059 8.54195,-0.45934 8.05443,-5.93404 11.48686,-8.03498 0.20857,-0.12768 0.43665,-0.24621 0.68787,-0.35444 3.83241,-1.62604 4.65012,-1.40972 8.29863,-1.45645 2.12415,-0.0539 4.18669,1.18841 5.30787,2.53558 1.43438,1.72352 2.47574,4.36996 2.47574,5.14547 0,0.79547 4.14375,1.69266 6.25,2.06316 0.0173,-0.0599 0.0383,-0.16385 0.0628,-0.32656 0.71367,-4.7369 5.9275,-11.89085 12.74927,-14.52585 1.40159,-0.53607 2.93701,-0.86211 4.54893,-0.93418 0.60181,-2.19535 1.29645,-6.43039 2.03351,-6.47762 -4.87785,-0.48296 -7.91563,1.37018 -12.30554,3.05626 -4.14304,1.59126 -5.93664,2.4244 -5.1013,1.28218 1.68993,-2.3108 28.50303,-22.98637 30.8473,-24.85124 0.0831,-0.55156 0.16121,-1.04681 0.23379,-1.49549 0.46955,-3.597 0.93727,-4.41604 1.37493,-8.7026 -3.16739,-2.10823 -5.74626,-2.40435 -8.91263,-0.67161 -3.33874,1.82708 -9.91738,4.45597 -12.70821,7.07513 -4.89451,4.59343 -10.34259,4.69291 -16.87304,2.87329 -0.11292,-0.0361 -0.22566,-0.0739 -0.33828,-0.11333 0.13328,-0.34719 0.3346,-4.49685 0.5758,-4.87201 1.12624,-1.75172 7.18812,-13.29283 8.76104,-17.04236 0.3772,-0.89915 0.40682,-1.45756 0.0938,-1.45912 -1.02657,-0.005 1.90635,2.47989 5.62471,4.28917 2.11369,1.02847 3.56722,1.26882 3.57446,0.48101 0.004,-0.38924 -1.18836,-2.12211 -2.44194,-4.28317 -1.79585,-2.94913 -3.47462,-7.05215 -2.39696,-9.52264 1.60002,-3.922149 6.20338,-6.28034 10.37923,-7.794605 0.071,-0.03995 0.13144,-0.06848 0.18008,-0.08436 3.68121,-1.201561 3.95114,-2.489296 6.33781,-5.103561 0.16543,-0.1812 0.32305,-0.45397 0.47223,-0.803904 2.3298,-4.059577 6.29687,-18.79997 6.29687,-31.213939 0,-1.719353 -3.1145,0.486279 -6.75716,3.24318 -1.89262,1.432402 -4.55582,2.0337 -7.2634,1.56961 -6.5999,-0.03844 -21.8871,0.745806 -23.18535,-0.552436 -0.46444,-0.464447 -0.85885,-5.74983 -1.13278,-6.023763 -0.25986,-0.259858 0.24747,-0.591972 1.29636,-0.895398 2.57207,-0.744053 5.82823,-2.226295 7.06415,-3.592969 2.94748,-1.924006 8.83805,-9.78196 7.28953,-9.78196 -0.85279,0 -7.84156,0 -8.31784,0 -0.3854,0 -0.60916,-0.816539 -0.60916,-1.859341 0,-1.842247 0.26072,-4.99 0.57369,-5.709472 0.46988,-1.080198 -0.76502,0.418475 -4.55796,3.353236 -1.83041,1.416259 -4.96733,3.698053 -8.81502,5.760739 -3.562,1.878566 -8.44928,3.472419 -13.55956,4.289971 -9.86352,1.651565 -23.09496,1.140943 -31.38038,-1.299584 -1.46056,-0.42165 -2.83713,-0.930563 -4.08563,-1.509983 -10.39414,-4.657683 -16.65949,-13.025596 -16.65949,-13.025596 0,0 0,0 0,0"
             style="fill:#2d1f2c;fill-opacity:1"
             inkscape:connector-curvature="0" />
          <path
             id="path140671"
             d="m 574.46834,28.733647 c 0,0 0.22347,8.155536 0.4404,8.791867 0.20459,0.600107 -4.65853,1.183133 -6.46528,1.183133 -0.3925,0 -0.67171,1.01e-4 -0.74643,2.9e-4 -0.42147,0.0011 7.48683,9.433531 11.51853,11.747121 4.51774,2.312366 12.86973,4.897836 12.12715,4.899706 -0.59175,0.0015 -0.97438,3.92608 -0.97438,5.357208 0,0.319215 -0.0231,0.537539 -0.0662,0.580626 -0.31827,0.318271 -17.85935,-1.428533 -25.45707,-1.702407 -5.29601,0.05052 -11.46031,-3.678094 -14.48494,-6.670552 -1.51425,-1.498147 -2.47304,-2.333696 -2.47304,-1.9299 -0.96052,12.270212 4.69437,27.954955 7.55626,33.227709 1.62762,2.955402 4.08539,4.962243 6.80777,6.040652 2.06442,0.817776 3.67177,1.46044 5.17692,2.091211 1.80825,0.725385 3.48338,1.435027 5.29915,2.378022 1.84436,0.957844 3.45759,2.46252 4.25433,4.5995 1.40823,4.043537 -7.00551,14.223957 -6.67762,14.844657 0.0478,0.0905 0.59419,-0.0806 1.44938,-0.42118 2.28987,-0.0682 5.7778,-1.10978 8.85273,-2.64792 2.64224,-1.32171 4.31171,-2.37997 3.79309,-2.37738 -0.70293,0.004 0.0195,3.72121 1.71047,7.77158 2.02823,4.85838 4.96656,10.85489 5.64182,11.66106 0.1755,0.20952 0.3488,4.96407 0.50691,5.18541 -2.13531,0.41702 -4.14429,0.318 -6.1391,-0.18668 -6.43091,-1.44051 -12.47783,-5.12632 -18.46847,-10.37354 -3.64566,-3.19323 -9.93806,-5.85853 -14.25704,-6.81221 -2.47788,-0.54715 -4.75592,-0.0645 -7.10795,1.43821 0.3441,5.39701 0.70373,5.59975 1.08387,11.10518 1.65457,0.47737 3.2838,1.07274 4.87813,1.76069 15.40201,5.76765 27.9339,22.28769 29.12113,23.91171 0.84617,1.15749 -3.14141,-1.01097 -11.34124,-3.2216 -4.64334,-1.25181 -8.88359,-2.31809 -14.00728,-2.27903 0.4604,0.0111 0.94115,5.03501 1.36275,7.56897 3.83116,0.38885 7.69754,1.94055 10.76233,4.24575 4.31958,3.15424 7.50491,7.75829 7.92068,12.45766 1.74866,0.4014 4.06855,0.71824 5.70094,0.71824 1.35923,0 2.3888,-0.17656 2.3888,-0.43478 0,-0.6633 3.96446,-9.36538 7.5,-9.49715 0.022,-0.008 0.0439,-0.0118 0.0656,-0.0119 3.47033,-0.005 4.20586,-0.42478 8.8226,1.27961 2.71503,1.00094 3.02129,3.0638 5.62477,4.71125 2.14453,1.35105 5.43225,2.94573 11.56073,3.46646 1.15011,0.28323 2.15675,0.46184 3.01791,0.41553 10.25034,-0.5512 9.26187,-5.81076 12.78423,-7.96698 0.22218,-0.13601 0.46597,-0.26205 0.73597,-0.37667 4.30734,-1.8099 4.86305,-1.48992 8.86576,-1.52206 2.10505,-0.0364 4.2061,1.43176 5.55151,3.04837 1.72126,2.06822 2.9709,4.88032 2.9709,5.39732 0,0.53032 4.97249,1.13011 7.5,1.38378 0.0208,-0.12639 0.046,-0.28237 0.0754,-0.47762 0.8564,-5.68428 6.3122,-13.07797 13.29912,-15.75102 1.52411,-0.57894 3.16427,-0.91802 4.86617,-0.96242 0.40454,-2.5769 0.8643,-7.62026 1.35567,-7.65175 -7.35849,-0.48311 -12.79167,1.63923 -18.05955,3.66252 -4.97165,1.90951 -7.4269,3.32459 -6.87001,2.56311 1.12662,-1.54053 31.81749,-24.32529 33.8899,-25.5771 0.0554,-0.60287 0.10747,-1.1419 0.15585,-1.62915 0.31304,-3.98542 0.62485,-4.64299 0.91662,-9.48497 -4.50455,-1.61979 -8.15722,-1.27769 -11.95685,0.8016 -4.0065,2.19249 -9.90086,5.34717 -13.24986,8.49015 -5.87341,5.51212 -12.05386,8.01229 -20.25265,6.88227 -0.14262,-0.0226 -0.28552,-0.0471 -0.42874,-0.0734 0.0888,-0.23145 0.22306,-5.01333 0.38387,-5.26344 0.75082,-1.16781 6.96064,-14.03131 8.84815,-18.53075 0.45263,-1.07897 0.59708,-1.74852 0.38843,-1.74956 -0.68438,-0.003 4.00681,2.98449 8.46884,5.15562 2.53643,1.23417 4.3895,1.82457 4.39433,1.29936 0.002,-0.25949 -1.45736,-2.10249 -3.04531,-4.45264 -2.25584,-3.24592 -4.60614,-7.70015 -3.68037,-10.20612 1.42134,-4.084109 6.38839,-6.311307 11.2924,-8.01349 0.0732,-0.03509 0.13942,-0.06257 0.19779,-0.08163 4.41745,-1.441873 6.73636,-2.982155 9.60038,-6.119273 0.19851,-0.21744 0.38766,-0.499349 0.56667,-0.836349 2.79575,-4.326133 7.55624,-19.846872 7.55624,-33.202319 0,-1.146235 -3.7374,2.195792 -8.10859,5.504073 -2.27115,1.718882 -5.13205,2.775374 -7.90511,2.694497 -7.23105,0.642704 -24.59141,2.568091 -25.4569,1.702596 -0.30963,-0.309631 -0.57257,-6.441742 -0.75519,-6.624364 -0.17324,-0.173239 0.51633,-0.491003 1.775,-0.855114 3.08648,-0.892863 7.88014,-2.671554 10.46534,-4.311562 4.44448,-2.308808 12.56702,-11.738352 11.53467,-11.738352 -0.56852,0 -8.56937,0 -8.88689,0 -0.25693,0 -0.40611,-0.979847 -0.40611,-2.231209 0,-2.210697 0.17381,-5.668352 0.38246,-6.148 0.31326,-0.720132 -1.48205,1.798803 -6.03359,5.320516 -2.19648,1.699512 -5.5087,3.986615 -9.54836,5.972513 -3.77787,1.833602 -9.05332,3.29726 -14.71112,4.063339 -10.80975,1.51683 -24.69161,0.955174 -33.57146,-1.529492 -1.59351,-0.439484 -3.07288,-0.958845 -4.3928,-1.546912 -11.46098,-4.980488 -17.78134,-13.900775 -17.78134,-13.900775 0,0 0,0 0,0"
             style="fill:#342434;fill-opacity:1"
             inkscape:connector-curvature="0" />
          <path
             id="path140673"
             d="m 571.17123,29.969589 c 0,0 0.11174,9.077768 0.2202,9.395934 0.10229,0.300053 -5.70385,0.591566 -7.81173,0.591566 -0.45791,0 -0.75676,5.1e-5 -0.79413,1.45e-4 -0.21073,5.31e-4 10.02602,11.002534 15.75927,13.699129 5.97628,2.695983 16.43487,5.710564 16.06358,5.7115 -0.29588,7.45e-4 -0.48719,4.57879 -0.48719,6.248439 0,0.372417 -0.0116,0.611718 -0.0331,0.633262 -0.15914,0.159135 -19.68508,-2.817461 -27.72854,-3.957534 -5.47653,-0.643213 -12.05255,-5.608929 -15.58128,-9.100129 -1.76662,-1.747839 -2.88521,-2.887059 -2.88521,-2.685161 -1.12061,13.527181 5.47676,30.139969 8.81563,35.203394 1.8989,2.858023 4.7663,4.785161 7.9424,6.043304 2.40849,0.954072 4.68988,1.702831 6.85721,2.437702 2.53151,0.845229 4.91315,1.672076 7.03154,2.772236 2.15176,1.117485 3.8438,2.669994 4.52121,4.875434 1.25787,4.27803 -9.088,15.51804 -8.92406,15.82839 0.0239,0.0452 0.63612,-0.20988 1.61662,-0.65675 2.45874,-0.69129 6.7241,-2.47334 10.31152,-4.26785 3.08262,-1.54198 5.33074,-2.77813 5.07143,-2.77683 -0.35146,0.002 1.04332,4.33631 3.01605,9.06174 2.36628,5.66811 5.32247,12.22835 5.6601,12.63143 0.0877,0.10476 0.1744,5.50518 0.25345,5.61586 -2.67001,0.23617 -5.16349,-0.13261 -7.56898,-0.94894 -7.80441,-2.55831 -14.55746,-8.83847 -21.54654,-14.96022 -4.25327,-3.72544 -9.92774,-6.83912 -14.96655,-7.95175 -2.89086,-0.63834 -5.79735,-0.38481 -8.9042,0.90629 0.19034,6.02769 0.36021,5.94379 0.54193,12.02568 1.82096,0.41443 3.61025,0.96291 5.35866,1.61805 17.47963,6.08254 31.04735,23.92055 31.64097,24.73256 0.42309,0.57875 -4.66046,-2.54363 -14.22693,-5.12269 -5.41723,-1.46045 -11.39508,-2.64715 -18.44733,-2.62762 0.2302,0.006 0.48058,5.8525 0.68138,8.78449 3.98759,0.41339 8.06959,2.1558 11.37422,4.73477 4.4986,3.45949 7.77424,8.44469 7.96728,13.61693 1.7883,0.2007 4.35349,0.35912 6.25794,0.35912 1.58576,0 2.78693,-0.0883 2.78693,-0.21739 0,-0.33165 4.6252,-9.68269 8.75,-9.74857 0.0257,-0.004 0.0512,-0.006 0.0766,-0.006 4.04872,-0.006 4.44694,-0.46774 9.36755,1.46648 2.89065,1.13552 2.96905,3.48091 5.82104,5.28953 2.17997,1.37926 5.76116,2.71232 12.77171,2.97269 1.26601,0.14161 2.39869,0.21449 3.40338,0.16047 11.95872,-0.64308 10.46931,-5.6875 14.0816,-7.89898 0.23578,-0.14435 0.49529,-0.27791 0.78408,-0.39892 4.78227,-1.99375 5.07597,-1.57012 9.43287,-1.58767 2.08596,-0.0188 4.22552,1.67512 5.79516,3.56117 2.00814,2.41293 3.46605,5.39068 3.46605,5.64918 0,0.26516 5.80125,0.56756 8.75,0.70439 0.0243,-0.19291 0.0536,-0.40088 0.088,-0.62867 0.99914,-6.63167 6.6969,-14.26509 13.84898,-16.9762 1.64662,-0.62181 3.39153,-0.97393 5.18339,-0.99066 0.20727,-2.95845 0.43215,-8.81013 0.67784,-8.82587 -9.83914,-0.48327 -17.6677,1.90827 -23.81357,4.26877 -5.80025,2.22776 -8.91716,4.22478 -8.63871,3.84404 0.56331,-0.77027 35.13194,-25.6642 36.93249,-26.30296 0.0277,-0.65418 0.0537,-1.23699 0.0779,-1.76281 0.15651,-4.37384 0.31242,-4.86993 0.45831,-10.26734 -5.84173,-1.13134 -10.56818,-0.15103 -15.00109,2.27481 -4.67424,2.55791 -9.88433,6.23836 -13.79149,9.90518 -6.85233,6.43081 -13.76514,11.33166 -23.63227,10.89124 -0.17232,-0.009 -0.34538,-0.0203 -0.51921,-0.0334 0.0444,-0.11573 0.11154,-5.52981 0.19194,-5.65487 0.37541,-0.5839 6.73318,-14.76981 8.93526,-20.01914 0.52807,-1.25881 0.78736,-2.03949 0.68303,-2.04001 -0.34219,-0.002 6.10725,3.48909 11.31296,6.02207 2.95916,1.43987 5.21179,2.38031 5.2142,2.11771 10e-4,-0.12975 -1.72636,-2.08287 -3.64869,-4.6221 -2.71582,-3.54272 -5.73765,-8.34816 -4.96376,-10.8896 1.24266,-4.24608 6.57338,-6.342283 12.20556,-8.232385 0.0754,-0.03023 0.1474,-0.05666 0.2155,-0.07889 5.15369,-1.682185 9.52159,-3.475014 12.86294,-7.134986 0.2316,-0.25368 0.45227,-0.544729 0.66111,-0.868793 3.26172,-4.59269 8.81563,-20.893776 8.81563,-35.190699 0,-0.573117 -4.3603,3.905304 -9.46003,7.764964 -2.64967,2.005363 -5.70828,3.517049 -8.54683,3.819385 -7.86218,1.323854 -27.2957,4.390376 -27.72845,3.957629 -0.15481,-0.154816 -0.28628,-7.133656 -0.37759,-7.224967 -0.0866,-0.08662 0.78518,-0.390032 2.25364,-0.814829 3.60089,-1.041673 9.93205,-3.116812 13.86653,-5.030156 5.94149,-2.693608 16.29599,-13.694744 15.77982,-13.694744 -0.28427,0 -9.29719,0 -9.45595,0 -0.12847,0 -0.20305,-1.143154 -0.20305,-2.603077 0,-2.579146 0.0869,-6.346703 0.19123,-6.586527 0.15662,-0.360066 -2.19909,3.17913 -7.50922,7.287796 -2.56257,1.982764 -6.05009,4.275178 -10.28172,6.184286 -3.99373,1.78864 -9.65735,3.122101 -15.86268,3.836708 -11.75596,1.382095 -26.28825,0.769405 -35.76253,-1.759401 -1.72646,-0.457316 -3.30864,-0.987126 -4.69998,-1.583839 -12.52781,-5.303293 -18.90319,-14.775956 -18.90319,-14.775956 0,0 0,0 0,0"
             style="fill:#3b283b;fill-opacity:1"
             inkscape:connector-curvature="0" />
        </g>
        <path
           style="fill:#140423;fill-opacity:1"
           d="m 567.88843,21.230522 -30.0249,30.025 0,99.900018 30.0249,30.025 99.9,0 30.025,-30.025 0,-99.900018 -30.025,-30 z"
           id="path1978-1-9-0-9-8"
           inkscape:connector-curvature="0"
           sodipodi:nodetypes="ccccccccc" />
        <path
           sodipodi:nodetypes="cccccczcczcczczcczczcczczcczcczcccccczzc"
           inkscape:connector-curvature="0"
           id="path22-1-3-7"
           d="m 594.25098,21.317991 3.375,9.9 -29.775,0.075 -20,20.00008 0,30 -10,0.025 c 0,0 8.62328,9.20812 9.9,12.87843 1.27672,3.67031 0.1,7.071569 0.1,7.071569 l -10,0.05 c 0,0 8.1899,7.56213 10,12.82843 1.8101,5.26629 0,17.14657 0,17.14657 l -10,0.025 c 0,0 4.97096,6.18587 10,12.82843 5.02904,6.64256 19.975,27.17157 19.975,27.17157 0,0 19.1312,-1.06324 25.175,1.4 6.0438,2.46324 10,8.375 10,8.375 l 0,-9.775 c 0,0 7.01723,-0.42462 10,1.4 2.98277,1.82462 5,8.375 5,8.375 0,0 2.01723,-6.55038 5,-8.375 2.98277,-1.82462 10,-1.4 10,-1.4 l 0,9.775 c 0,0 4.00399,-5.95529 10,-8.4 5.99601,-2.44471 24.85,-1.375 24.85,-1.375 0,0 14.97306,-20.52753 20,-27.17157 5.02694,-6.64404 9.975,-12.82843 9.975,-12.82843 l -10,0 c 0,0 -1.78626,-11.90397 0.025,-17.17157 1.81126,-5.2676 9.975,-12.82843 9.975,-12.82843 l -9.975,-0.05 c 0,0 -1.21482,-3.370459 0.05,-7.046569 1.26482,-3.67611 9.925,-12.90343 9.925,-12.90343 l -9.975,-0.025 0,-29.974999 -20,-20 -30.975,0 4.35,-10 c 0,0 -7.81756,7.79976 -12.95,10.125 -5.13244,2.32524 -15.11173,2.06979 -20.425,-0.15004 -5.31327,-2.21983 -13.6,-9.97504 -13.6,-9.97504 z"
           style="fill:url(#linearGradient142188);fill-opacity:1" />
        <path
           sodipodi:nodetypes="cccccczcczcczczcczczcczczcczcczcccccczzc"
           inkscape:connector-curvature="0"
           id="path22-1-3"
           d="m 594.25098,21.317991 3.375,9.9 -29.775,0.075 -20,20.00008 0,30 -10,0.025 c 0,0 8.62328,9.208119 9.9,12.878429 1.27672,3.67031 0.1,7.07157 0.1,7.07157 l -10,0.05 c 0,0 8.1899,7.56214 10,12.82843 1.8101,5.26629 0,17.14657 0,17.14657 l -10,0.025 c 0,0 4.97096,6.18587 10,12.82843 5.02904,6.64256 19.975,27.17157 19.975,27.17157 0,0 19.1312,-1.06324 25.175,1.4 6.0438,2.46324 10,8.375 10,8.375 l 0,-9.775 c 0,0 7.01723,-0.42462 10,1.4 2.98277,1.82462 5,8.375 5,8.375 0,0 2.01723,-6.55038 5,-8.375 2.98277,-1.82462 10,-1.4 10,-1.4 l 0,9.775 c 0,0 4.00399,-5.95529 10,-8.4 5.99601,-2.44471 24.85,-1.375 24.85,-1.375 0,0 14.97306,-20.52753 20,-27.17157 5.02694,-6.64404 9.975,-12.82843 9.975,-12.82843 l -10,0 c 0,0 -1.78626,-11.90397 0.025,-17.17157 1.81126,-5.2676 9.975,-12.82843 9.975,-12.82843 l -9.975,-0.05 c 0,0 -1.21482,-3.37046 0.05,-7.04657 1.26482,-3.67611 9.925,-12.903429 9.925,-12.903429 l -9.975,-0.025 0,-29.975 -20,-20 -30.975,0 4.35,-10 c 0,0 -7.81756,7.79976 -12.95,10.125 -5.13244,2.32524 -15.11173,2.06979 -20.425,-0.15004 -5.31327,-2.21983 -13.6,-9.97504 -13.6,-9.97504 z"
           style="opacity:0.35;fill:url(#linearGradient142215);fill-opacity:1" />
        <path
           sodipodi:nodetypes="ccczcczczszccccccccccczzzzzccccccccccczszczcczccczzc"
           inkscape:connector-curvature="0"
           d="m 567.87412,31.205532 0,10 -10,0 c 0,0 12.56519,12.571536 20,15.651136 7.43481,3.0796 20,6.523293 20,6.523293 l 0,7.825569 c 0,0 -21.5108,-4.206389 -30,-6.212661 -8.4892,-2.006272 -19.975,-14.970128 -19.975,-14.970128 -1.2807,14.78415 6.25915,32.324984 10.075,37.179079 3.81585,4.85409 11.05374,6.88482 17.61453,8.83015 6.5608,1.94534 12.44452,3.80528 13.55202,8.31781 1.10751,4.51253 -11.1705,16.81213 -11.1705,16.81213 l 19.90395,-9.95638 10,23.95371 0,6.04629 c -23.6514,0.40837 -34.95311,-36.97671 -60,-29.975 0.0366,6.65836 0.0167,6.28782 0,12.94618 22.41706,3.96466 40,27.02882 40,27.02882 0,0 -15.15966,-10 -40,-10 0,0 0.02,6.67 0,10 9.61288,1.01588 20.05219,10.0773 20,20 3.35,0 10,0 10,0 0,0 5.28595,-10 10,-10 4.71405,0 4.7428,-0.52433 10,1.65328 5.2572,2.1776 1.06142,8.34672 20,8.34672 18.93858,0 14.7428,-6.16912 20,-8.34672 5.2572,-2.17761 5.2889,-1.65033 10,-1.65328 4.7111,-0.003 10,9.975 10,9.975 0,0 6.63,0.005 10,0.025 1.0314,-9.63788 10.06743,-20.05776 20,-20 0.01,-3.34 0,-10 0,-10 -23.94678,-0.93965 -39.975,10 -39.975,10 0,0 38.4464,-27.00312 39.97508,-27.02882 0,-6.65833 0,-6.28785 0,-12.94618 -28.25681,-2.53052 -35.15448,29.975 -60,29.975 l 0,-6.04629 10,-23.83799 20.19115,9.82458 c 0,0 -11.56321,-11.95661 -10.49923,-16.36465 1.06398,-4.40804 6.75839,-6.37325 13.11873,-8.45127 6.36034,-2.07802 13.38659,-4.26884 17.11427,-9.12809 3.72768,-4.859247 10.075,-21.940679 10.075,-37.179079 0,0 -11.50667,12.965125 -20,14.970128 -8.49333,2.005003 -30,6.212661 -30,6.212661 l 0,-7.825569 c 0,0 12.56151,-3.444883 20,-6.523293 7.43849,-3.07841 20.02496,-15.651136 20.02496,-15.651136 l -10.025,0 0,-10 c 0,0 -6.40978,10.021898 -19.99992,15.651136 -13.59014,5.62924 -46.38036,5.6261 -59.975,0 C 574.30452,41.23057 567.87412,31.205532 567.87412,31.205532 z"
           style="fill:#432d43"
           id="path120-5-3" />
        <path
           inkscape:connector-curvature="0"
           d="m 647.84848,113.00277 c 2.3582,-2.35349 7.63534,-2.34467 9.99001,0.01 2.35467,2.35467 2.36584,7.6318 0.01,9.99 -2.35584,2.3582 -7.65299,2.35938 -10.01001,0 -2.35702,-2.35938 -2.3482,-7.64651 0.01,-10 z m -70.01,0.01 c 2.35467,-2.35467 7.6318,-2.36349 9.99,-0.01 2.3582,2.35349 2.36702,7.64062 0.01,10 -2.35702,2.35938 -7.65416,2.3582 -10.01,0 -2.35584,-2.3582 -2.34467,-7.63533 0.01,-9.99 z"
           style="fill:#f60200"
           id="path1236-6" />
        <path
           sodipodi:nodetypes="cccccccccccccccccccccccccccccccccccccccccccccccccc"
           inkscape:connector-curvature="0"
           id="path8067"
           d="m 572.41973,44.84303 c -2.46669,1.537681 3.30928,3.267949 4.28125,4.5 8.65272,4.980713 18.47026,6.790875 27.875,9.75 -2.39373,5.73083 2.42576,14.196599 -4.34375,17.90625 -6.34171,1.524961 -12.51687,-3.189582 -19.03125,-2.9375 -8.64214,-0.872721 -18.49712,-4.341359 -25.125,-8.0625 2.02317,5.221545 3.13482,12.180695 6.92856,15.820912 15.11613,1.857778 30.31977,2.858426 45.47769,4.304088 -4.24901,6.51127 -9.16506,13.41957 -13,19.65625 4.65129,-1.98382 8.51058,1.98161 9.0625,6.375 3.92902,10.04861 11.98722,21.03895 8.40625,32.3125 -4.18347,5.6777 -12.02049,1.76034 -17.34375,0.1875 -15.88721,-6.37371 -23.84236,-25.71964 -41.53125,-28.375 -0.23036,0.95823 -1.51599,4.50718 1.3125,3.625 16.77156,6.07102 31.9427,18.10508 40.625,33.75 -0.7153,3.69595 5.13516,2.71623 6.96875,5.40625 2.90444,2.48129 4.74933,6.40623 9.28125,5.96875 6.79632,0.0771 15.69617,1.7567 19.6875,-5.21875 2.51879,-2.82758 7.5639,-3.86258 10.03125,-4.90625 -3.30387,-5.71878 2.50216,-9.85871 5.99044,-12.84694 10.24931,-8.01644 20.63739,-14.8195 33.91581,-21.68431 0.76222,-2.47506 -0.27765,-4.10953 -3.125,-2.5 -18.16372,5.52925 -27.07485,27.33228 -46.96875,29.1875 -5.66498,2.46563 -11.87061,-3.24182 -10,-9.1875 0.97826,-11.147 8.409,-20.38612 11,-31.0625 1.6505,-2.98061 5.61703,-2.40632 8.09375,-0.90625 -4.40902,-6.65363 -9.253,-13.04262 -13.875,-19.5625 15.55212,-1.704348 31.11481,-3.308136 46.6875,-4.8125 2.00878,-5.077157 4.00784,-10.110436 5.40625,-15.375 -13.85733,8.380365 -30.8337,8.110535 -46.16916,12.159365 -4.50762,1.7176 0.25312,-4.151631 -0.95584,-6.628115 -1.09415,-5.787022 -0.4483,-14.539654 7.125,-15.09375 8.94126,-2.000233 17.89753,-4.913408 25.03125,-10.90625 -2.15416,-1.959917 -4.19352,2.433986 -6.53125,2.90625 -18.78494,10.918076 -41.96803,9.221075 -62.78125,6.59375 -8.16275,-1.697851 -15.9105,-5.586612 -22.40625,-10.34375 z m 104.375,102.78125 c -9.11151,0.76533 -17.72782,4.69021 -26.125,8.28125 5.05152,1.14604 8.08002,5.33005 10.59375,9.3125 3.47474,1.63391 2.22261,-3.23563 3.90625,-4.90625 2.54821,-5.4832 8.48161,-10.29871 12.625,-12.78125 l -0.99563,0.0933 -0.004,4.1e-4 z m -119.28125,0.28125 c 7.51707,3.0906 13.09066,10.42832 15.90625,17.65625 3.64397,-1.77869 4.55949,-7.1278 8.75,-8.46875 4.75565,-1.21677 -1.80722,-2.70752 -3.59375,-3.875 -6.90665,-2.94008 -14.30283,-4.77896 -21.8125,-5.53125 z"
           style="fill:#9667ac;fill-opacity:1" />
        <path
           sodipodi:nodetypes="ccccccccccccccccccc"
           inkscape:connector-curvature="0"
           id="path18201"
           d="m 610.10723,63.53053 c -0.0736,5.549374 -0.225,17.9125 -0.225,17.9125 0,0 6.28555,-1.84897 6.58003,2.922126 -0.9961,4.493685 -5.07557,7.496584 -7.36578,11.366624 -2.0863,2.97523 -5.29913,6.52246 -1.2484,9.25139 3.82766,5.73429 4.76211,12.85261 8.53737,18.61501 0.20423,1.9755 2.33325,5.43371 2.6871,1.4261 3.32217,-8.24907 6.57734,-16.56543 10.94559,-24.33269 -4.5728,-6.00376 -8.78842,-12.266236 -13.25466,-18.34856 2.39157,-2.880576 8.49925,-1.025858 8.49925,-1.025858 0,0 0.50314,-13.27571 0.36095,-17.712347 -2.89965,-1.37034 -6.66239,0.290134 -9.91061,-0.673208 -1.88003,-0.115415 -3.82706,-0.09944 -5.60584,0.598913 z m 7.375,84.65625 c -2.70365,3.62351 -7.33478,5.45681 -11.78125,5.34375 2.76959,3.04078 6.37586,6.89898 10.9375,5.75 4.86775,0.99658 10.69048,-1.01797 12.875,-5.71875 -4.48478,-0.11178 -9.19007,-2.02906 -11.6875,-5.90625 -0.11458,0.17708 -0.22917,0.35417 -0.34375,0.53125 z"
           style="fill:#613b69;fill-opacity:1" />
        <path
           id="path24868"
           d="m 610.97525,150.25111 c -3.22971,3.179 -0.20197,14.0245 -0.20197,14.0245 l 13.29424,0.094 c 0,0 3.27511,-10.87603 0.0725,-14.09974 -3.20261,-3.22371 -9.93506,-3.19776 -13.16477,-0.0188 z"
           style="fill:#f9f4f9;fill-opacity:1"
           inkscape:connector-curvature="0" />
        <path
           sodipodi:nodetypes="cccsccscccc"
           inkscape:connector-curvature="0"
           id="path14787"
           d="m 611.02535,64.93678 -0.0537,15.56917 -49.605,-5.821904 c 0,0 24.49153,14.148291 32.7975,15.837074 8.30597,1.68878 16.7975,26.35767 16.7975,26.35767 l 13.11814,0.0582 c 0,0 6.89187,-24.55672 15.198,-26.26004 8.30613,-1.703319 34.398,-15.880855 34.398,-15.880855 l -49.604,5.734332 -0.0427,-15.406163 z"
           style="fill:#f9f4f9;fill-opacity:1" />
      </g>
    </g>
  </g>
</svg>
