<?xml version="1.0" encoding="UTF-8" standalone="no"?>
<!-- Created with Inkscape (http://www.inkscape.org/) -->

<svg
   xmlns:dc="http://purl.org/dc/elements/1.1/"
   xmlns:cc="http://creativecommons.org/ns#"
   xmlns:rdf="http://www.w3.org/1999/02/22-rdf-syntax-ns#"
   xmlns:svg="http://www.w3.org/2000/svg"
   xmlns="http://www.w3.org/2000/svg"
   xmlns:xlink="http://www.w3.org/1999/xlink"
   xmlns:sodipodi="http://sodipodi.sourceforge.net/DTD/sodipodi-0.dtd"
   xmlns:inkscape="http://www.inkscape.org/namespaces/inkscape"
   width="200.33737"
   height="200.33752"
   id="svg7242"
   version="1.1"
   inkscape:version="0.48.1 "
   sodipodi:docname="New document 11">
  <defs
     id="defs7244">
    <linearGradient
       gradientTransform="matrix(1.25,0,0,1.25,-56.266964,96.118395)"
       inkscape:collect="always"
       xlink:href="#linearGradient7090"
       id="linearGradient7096"
       x1="319.89511"
       y1="195.47891"
       x2="363.45288"
       y2="236.77394"
       gradientUnits="userSpaceOnUse" />
    <linearGradient
       id="linearGradient7090">
      <stop
         style="stop-color:#462655;stop-opacity:1"
         offset="0"
         id="stop7092" />
      <stop
         id="stop7112"
         offset="0.11427223"
         style="stop-color:#897aca;stop-opacity:1" />
      <stop
         id="stop7110"
         offset="0.23369636"
         style="stop-color:#462655;stop-opacity:1" />
      <stop
         id="stop7108"
         offset="0.33855098"
         style="stop-color:#220016;stop-opacity:1" />
      <stop
         id="stop7106"
         offset="0.44797596"
         style="stop-color:#897aca;stop-opacity:1" />
      <stop
         id="stop7104"
         offset="0.55315119"
         style="stop-color:#462655;stop-opacity:1" />
      <stop
         id="stop7102"
         offset="0.6609301"
         style="stop-color:#462655;stop-opacity:1" />
      <stop
         id="stop7100"
         offset="0.76621079"
         style="stop-color:#220016;stop-opacity:1" />
      <stop
         id="stop7098"
         offset="0.88332748"
         style="stop-color:#897aca;stop-opacity:1" />
      <stop
         style="stop-color:#462655;stop-opacity:0;"
         offset="1"
         id="stop7094" />
    </linearGradient>
    <linearGradient
       inkscape:collect="always"
       xlink:href="#linearGradient7090"
       id="linearGradient7116"
       gradientUnits="userSpaceOnUse"
       x1="319.89511"
       y1="195.47891"
       x2="363.45288"
       y2="236.77394"
       gradientTransform="matrix(1.25,0,0,1.25,-58.066644,97.854925)" />
    <linearGradient
       id="linearGradient7145">
      <stop
         style="stop-color:#462655;stop-opacity:1"
         offset="0"
         id="stop7147" />
      <stop
         id="stop7149"
         offset="0.11427223"
         style="stop-color:#897aca;stop-opacity:1" />
      <stop
         id="stop7151"
         offset="0.23369636"
         style="stop-color:#462655;stop-opacity:1" />
      <stop
         id="stop7153"
         offset="0.33855098"
         style="stop-color:#220016;stop-opacity:1" />
      <stop
         id="stop7155"
         offset="0.44797596"
         style="stop-color:#897aca;stop-opacity:1" />
      <stop
         id="stop7157"
         offset="0.55315119"
         style="stop-color:#462655;stop-opacity:1" />
      <stop
         id="stop7159"
         offset="0.6609301"
         style="stop-color:#462655;stop-opacity:1" />
      <stop
         id="stop7161"
         offset="0.76621079"
         style="stop-color:#220016;stop-opacity:1" />
      <stop
         id="stop7163"
         offset="0.88332748"
         style="stop-color:#897aca;stop-opacity:1" />
      <stop
         style="stop-color:#462655;stop-opacity:0;"
         offset="1"
         id="stop7165" />
    </linearGradient>
    <linearGradient
       gradientTransform="matrix(1.25,0,0,1.25,-56.266964,96.118395)"
       inkscape:collect="always"
       xlink:href="#linearGradient6790"
       id="linearGradient6796"
       x1="336.58282"
       y1="329.56647"
       x2="357.7475"
       y2="306.28461"
       gradientUnits="userSpaceOnUse" />
    <linearGradient
       id="linearGradient6790">
      <stop
         style="stop-color:#220016;stop-opacity:1"
         offset="0"
         id="stop6792" />
      <stop
         id="stop6804"
         offset="0.17851481"
         style="stop-color:#715e8a;stop-opacity:1;" />
      <stop
         id="stop6802"
         offset="0.35702962"
         style="stop-color:#c1bcfe;stop-opacity:1" />
      <stop
         id="stop6800"
         offset="0.57039475"
         style="stop-color:#7666a5;stop-opacity:1" />
      <stop
         id="stop6798"
         offset="0.77604949"
         style="stop-color:#c1bcfe;stop-opacity:1" />
      <stop
         style="stop-color:#c1bcfe;stop-opacity:1"
         offset="1"
         id="stop6794" />
    </linearGradient>
    <linearGradient
       inkscape:collect="always"
       xlink:href="#linearGradient6790"
       id="linearGradient7120"
       gradientUnits="userSpaceOnUse"
       x1="336.58282"
       y1="329.56647"
       x2="357.7475"
       y2="306.28461"
       gradientTransform="matrix(1.25,0,0,1.25,-58.266964,94.118395)" />
    <linearGradient
       id="linearGradient7176">
      <stop
         style="stop-color:#220016;stop-opacity:1"
         offset="0"
         id="stop7178" />
      <stop
         id="stop7180"
         offset="0.17851481"
         style="stop-color:#715e8a;stop-opacity:1;" />
      <stop
         id="stop7182"
         offset="0.35702962"
         style="stop-color:#c1bcfe;stop-opacity:1" />
      <stop
         id="stop7184"
         offset="0.57039475"
         style="stop-color:#7666a5;stop-opacity:1" />
      <stop
         id="stop7186"
         offset="0.77604949"
         style="stop-color:#c1bcfe;stop-opacity:1" />
      <stop
         style="stop-color:#c1bcfe;stop-opacity:1"
         offset="1"
         id="stop7188" />
    </linearGradient>
    <radialGradient
       inkscape:collect="always"
       xlink:href="#linearGradient6814"
       id="radialGradient6820"
       cx="356.46442"
       cy="262.81375"
       fx="356.46442"
       fy="262.81375"
       r="17.979317"
       gradientTransform="matrix(-0.68291485,4.2707715,-3.580585,-0.57255108,1578.6949,-949.28533)"
       gradientUnits="userSpaceOnUse" />
    <linearGradient
       inkscape:collect="always"
       id="linearGradient6814">
      <stop
         style="stop-color:#b6a6ff;stop-opacity:1"
         offset="0"
         id="stop6816" />
      <stop
         style="stop-color:#613b69;stop-opacity:1"
         offset="1"
         id="stop6818" />
    </linearGradient>
    <radialGradient
       inkscape:collect="always"
       xlink:href="#linearGradient6806"
       id="radialGradient6812"
       cx="272.08228"
       cy="219.02841"
       fx="272.08228"
       fy="219.02841"
       r="47.264969"
       gradientTransform="matrix(-0.7121251,0.52762309,-0.46938936,-0.63352739,603.79924,378.32202)"
       gradientUnits="userSpaceOnUse" />
    <linearGradient
       inkscape:collect="always"
       id="linearGradient6806">
      <stop
         style="stop-color:#c1bbfe;stop-opacity:1"
         offset="0"
         id="stop6808" />
      <stop
         style="stop-color:#897aca;stop-opacity:1"
         offset="1"
         id="stop6810" />
    </linearGradient>
    <linearGradient
       gradientTransform="matrix(1.25,0,0,1.25,-56.266964,96.118395)"
       gradientUnits="userSpaceOnUse"
       y2="280.39999"
       x2="269.60001"
       y1="278.79999"
       x1="230.8"
       id="linearGradient13209"
       xlink:href="#linearGradient13203"
       inkscape:collect="always" />
    <linearGradient
       id="linearGradient13203">
      <stop
         id="stop13205"
         offset="0"
         style="stop-color:#b6a5ff;stop-opacity:1" />
      <stop
         style="stop-color:#c1bbfe;stop-opacity:1"
         offset="0.36364165"
         id="stop13213" />
      <stop
         style="stop-color:#c1bcfe;stop-opacity:1"
         offset="0.68111658"
         id="stop13211" />
      <stop
         id="stop13207"
         offset="1"
         style="stop-color:#b18ad2;stop-opacity:1" />
    </linearGradient>
    <linearGradient
       gradientTransform="matrix(1.25,0,0,1.25,-56.266964,96.118395)"
       gradientUnits="userSpaceOnUse"
       y2="294.62534"
       x2="217.66583"
       y1="310.31305"
       x1="257.95255"
       id="linearGradient13044"
       xlink:href="#linearGradient13038"
       inkscape:collect="always" />
    <linearGradient
       id="linearGradient13038">
      <stop
         id="stop13040"
         offset="0"
         style="stop-color:#897aca;stop-opacity:1" />
      <stop
         style="stop-color:#b18ad2;stop-opacity:1"
         offset="0.31445497"
         id="stop13048" />
      <stop
         style="stop-color:#c1bcfe;stop-opacity:1"
         offset="0.61671394"
         id="stop13046" />
      <stop
         id="stop13042"
         offset="1"
         style="stop-color:#897aca;stop-opacity:1" />
    </linearGradient>
    <radialGradient
       inkscape:collect="always"
       xlink:href="#linearGradient6941"
       id="radialGradient6947"
       cx="268.12616"
       cy="291.04706"
       fx="268.12616"
       fy="291.04706"
       r="55.632847"
       gradientTransform="matrix(1.4046216,0.15540777,-0.16117575,1.4567542,-50.804454,-6.7454745)"
       gradientUnits="userSpaceOnUse" />
    <linearGradient
       id="linearGradient6941">
      <stop
         style="stop-color:#7157ad;stop-opacity:1;"
         offset="0"
         id="stop6943" />
      <stop
         style="stop-color:#613b62;stop-opacity:1;"
         offset="1"
         id="stop6945" />
    </linearGradient>
    <radialGradient
       inkscape:collect="always"
       xlink:href="#linearGradient6941"
       id="radialGradient7469"
       gradientUnits="userSpaceOnUse"
       gradientTransform="matrix(1.4046216,0.15540777,-0.16117575,1.4567542,-50.804454,-6.7454745)"
       cx="268.12616"
       cy="291.04706"
       fx="268.12616"
       fy="291.04706"
       r="55.632847" />
    <linearGradient
       inkscape:collect="always"
       xlink:href="#linearGradient13038"
       id="linearGradient7471"
       gradientUnits="userSpaceOnUse"
       gradientTransform="matrix(1.25,0,0,1.25,-56.266964,96.118395)"
       x1="257.95255"
       y1="310.31305"
       x2="217.66583"
       y2="294.62534" />
    <linearGradient
       inkscape:collect="always"
       xlink:href="#linearGradient13203"
       id="linearGradient7473"
       gradientUnits="userSpaceOnUse"
       gradientTransform="matrix(1.25,0,0,1.25,-56.266964,96.118395)"
       x1="230.8"
       y1="278.79999"
       x2="269.60001"
       y2="280.39999" />
    <radialGradient
       inkscape:collect="always"
       xlink:href="#linearGradient6806"
       id="radialGradient7475"
       gradientUnits="userSpaceOnUse"
       gradientTransform="matrix(-0.7121251,0.52762309,-0.46938936,-0.63352739,603.79924,378.32202)"
       cx="272.08228"
       cy="219.02841"
       fx="272.08228"
       fy="219.02841"
       r="47.264969" />
    <radialGradient
       inkscape:collect="always"
       xlink:href="#linearGradient6814"
       id="radialGradient7477"
       gradientUnits="userSpaceOnUse"
       gradientTransform="matrix(-0.68291485,4.2707715,-3.580585,-0.57255108,1578.6949,-949.28533)"
       cx="356.46442"
       cy="262.81375"
       fx="356.46442"
       fy="262.81375"
       r="17.979317" />
    <linearGradient
       inkscape:collect="always"
       xlink:href="#linearGradient6790"
       id="linearGradient7479"
       gradientUnits="userSpaceOnUse"
       gradientTransform="matrix(1.25,0,0,1.25,-58.266964,94.118395)"
       x1="336.58282"
       y1="329.56647"
       x2="357.7475"
       y2="306.28461" />
    <linearGradient
       inkscape:collect="always"
       xlink:href="#linearGradient6790"
       id="linearGradient7481"
       gradientUnits="userSpaceOnUse"
       gradientTransform="matrix(1.25,0,0,1.25,-56.266964,96.118395)"
       x1="336.58282"
       y1="329.56647"
       x2="357.7475"
       y2="306.28461" />
    <linearGradient
       inkscape:collect="always"
       xlink:href="#linearGradient7090"
       id="linearGradient7483"
       gradientUnits="userSpaceOnUse"
       gradientTransform="matrix(1.25,0,0,1.25,-58.066644,97.854925)"
       x1="319.89511"
       y1="195.47891"
       x2="363.45288"
       y2="236.77394" />
    <linearGradient
       inkscape:collect="always"
       xlink:href="#linearGradient7090"
       id="linearGradient7485"
       gradientUnits="userSpaceOnUse"
       gradientTransform="matrix(1.25,0,0,1.25,-56.266964,96.118395)"
       x1="319.89511"
       y1="195.47891"
       x2="363.45288"
       y2="236.77394" />
    <linearGradient
       y2="22.401928"
       x2="106.24998"
       y1="22.901928"
       x1="143.49998"
       gradientTransform="matrix(0.93280072,0,0,0.93280064,1222.7963,501.83523)"
       gradientUnits="userSpaceOnUse"
       id="linearGradient133197"
       xlink:href="#linearGradient5507-3-3-6-1"
       inkscape:collect="always" />
    <linearGradient
       id="linearGradient5507-3-3-6-1">
      <stop
         style="stop-color:#ff0000;stop-opacity:1;"
         offset="0"
         id="stop5509-1-5-0-3" />
      <stop
         style="stop-color:#ff6600;stop-opacity:1"
         offset="1"
         id="stop5511-9-8-9-8" />
    </linearGradient>
    <linearGradient
       y2="22.401928"
       x2="106.24998"
       y1="22.901928"
       x1="143.49998"
       gradientTransform="matrix(0.93280072,0,0,0.93280064,1222.7963,501.83523)"
       gradientUnits="userSpaceOnUse"
       id="linearGradient7501"
       xlink:href="#linearGradient5507-3-3-6-1"
       inkscape:collect="always" />
    <linearGradient
       id="linearGradient7503">
      <stop
         style="stop-color:#ff0000;stop-opacity:1;"
         offset="0"
         id="stop7505" />
      <stop
         style="stop-color:#ff6600;stop-opacity:1"
         offset="1"
         id="stop7507" />
    </linearGradient>
    <linearGradient
       y2="22.401928"
       x2="106.24998"
       y1="22.901928"
       x1="143.49998"
       gradientTransform="matrix(1.1660009,0,0,1.1660008,141.03331,433.68012)"
       gradientUnits="userSpaceOnUse"
       id="linearGradient7511"
       xlink:href="#linearGradient5507-3-3-6-1"
       inkscape:collect="always" />
  </defs>
  <sodipodi:namedview
     id="base"
     pagecolor="#ffffff"
     bordercolor="#666666"
     borderopacity="1.0"
     inkscape:pageopacity="0.0"
     inkscape:pageshadow="2"
     inkscape:zoom="0.98994949"
     inkscape:cx="94.158295"
     inkscape:cy="102.62378"
     inkscape:document-units="px"
     inkscape:current-layer="layer1"
     showgrid="false"
     fit-margin-left="0.2"
     fit-margin-bottom="0.2"
     fit-margin-top="0.2"
     fit-margin-right="0.2"
     inkscape:window-width="469"
     inkscape:window-height="455"
     inkscape:window-x="69"
     inkscape:window-y="69"
     inkscape:window-maximized="0" />
  <metadata
     id="metadata7247">
    <rdf:RDF>
      <cc:Work
         rdf:about="">
        <dc:format>image/svg+xml</dc:format>
        <dc:type
           rdf:resource="http://purl.org/dc/dcmitype/StillImage" />
        <dc:title></dc:title>
      </cc:Work>
    </rdf:RDF>
  </metadata>
  <g
     inkscape:label="Layer 1"
     inkscape:groupmode="layer"
     id="layer1"
     transform="translate(-211.25989,-335.05057)">
    <g
       id="g7540">
      <text
         sodipodi:linespacing="125%"
         id="text5503-8"
         y="461.84125"
         x="251.51195"
         style="font-size:46.64002228px;font-style:normal;font-weight:normal;line-height:125%;letter-spacing:0px;word-spacing:0px;fill:url(#linearGradient7511);fill-opacity:1;stroke:none;font-family:StoneSerITCStd Medium;-inkscape-font-specification:StoneSerITCStd Medium"
         xml:space="preserve"><tspan
           style="font-size:6.99600458px;fill:url(#linearGradient7511);fill-opacity:1"
           y="461.84125"
           x="251.51195"
           id="tspan5505-1"
           sodipodi:role="line">Created by Falzar FZ</tspan></text>
      <g
         id="g7439">
        <path
           sodipodi:nodetypes="ccccccccc"
           inkscape:connector-curvature="0"
           id="path1978-1-9-0-4"
           d="m 248.99101,335.25057 -37.53112,37.53125 0,124.87502 37.53112,37.53125 124.875,0 37.53125,-37.53125 0,-124.87502 -37.53125,-37.5 z"
           style="fill:#81ccc0;fill-opacity:1" />
        <path
           sodipodi:nodetypes="ccssccsscccccccc"
           inkscape:connector-curvature="0"
           id="path1948-3-7"
           d="m 348.95989,335.25059 -25,25 c 0,0 -16.85092,-1.83129 -24.9375,0.0937 -18.12735,4.31528 -34.86978,14.12349 -50,25 -14.34188,10.3098 -37.5625,37.375 -37.5625,37.375 l 0,50.00001 c 0,0 22.0156,29.10866 37.625,37.43749 18.74448,10.00166 41.97062,7.02884 62.5,12.5 12.69679,3.38374 37.375,12.53125 37.375,12.53125 l 24.9375,-0.0625 0.0625,-12.375 24.9375,-12.625 -0.0625,-149.8125 -24.75,-12.71875 -0.25,-12.28125 z"
           style="fill:#220016;fill-opacity:1" />
        <path
           sodipodi:nodetypes="cccccccccccccccccc"
           inkscape:connector-curvature="0"
           id="path4196"
           d="m 364.3971,339.71214 c -5.64196,0.74495 -12.37207,-1.311 -16.75781,3.51563 -7.02829,7.15797 -13.86524,15.19923 -21.5625,21.25 -11.57767,1.21103 -23.89064,-1.97069 -34.6875,3.35937 -29.78888,10.27668 -54.24953,31.97935 -74.0625,55.78125 -2.50352,10.38999 0.2467,21.48187 -0.9375,32.10938 0.40998,7.54586 -1.8542,16.4558 5.3125,21.5625 12.93555,16.319 29.08928,33.65633 51.33782,34.79613 21.38129,2.41103 43.21194,4.54875 63.12011,13.24288 8.65382,3.86963 18.19172,5.79205 27.49519,5.24224 4.71322,2.4129 5.95035,-2.96652 5.74219,-6.44531 -0.17412,-8.55058 16.54038,-13.02076 16.54038,-13.02076 l 12.95864,-4.02165 -0.059,-141.34448 c 0,0 -21.68823,-10.895 -29.98693,-15.24593 1.05478,-3.93701 2.0121,-11.77709 -4.45312,-10.78125 z m 4.14063,1.21094 c 0.12955,-0.0406 -0.0536,-0.0721 0,0 z"
           style="fill:#613b69;fill-opacity:1" />
        <g
           transform="matrix(1.25,0,0,1.25,-56.266964,96.118395)"
           id="g5482"
           style="opacity:0.5">
          <path
             inkscape:connector-curvature="0"
             id="path5484"
             d="m 336.34624,198.64408 c -4.24382,0.65752 -9.28139,-0.73249 -12.57792,2.97559 -5.27461,5.49599 -10.38699,11.67747 -16.11374,16.40582 -8.59439,1.16725 -17.70872,-0.89093 -25.68043,3.33599 -18.97686,7.28878 -34.87503,20.85559 -48.01749,35.96221 -2.0604,2.40437 -4.05141,4.85229 -5.97412,7.32595 -1.64487,7.82378 0.61166,16.14581 -0.0125,24.10417 0.46934,5.64576 -1.02517,12.28965 4.45647,16.11559 5.56704,6.76963 11.88978,13.75346 19.33458,18.77189 5.71129,3.77951 12.12526,6.28374 19.42851,6.40309 15.78915,1.31115 31.90995,2.34793 46.611,8.19794 6.39038,2.63108 13.4336,3.81974 20.3037,3.18103 3.48047,1.69215 4.39399,-2.37029 4.24021,-5.02928 -0.1287,-6.49628 12.2142,-9.97974 12.21409,-10.16124 -7e-5,-0.11089 9.56932,-3.19127 9.56925,-3.30118 -4e-4,-0.70528 -0.0136,-32.39033 -0.0253,-61.17811 -0.64767,-23.36932 -1.08386,-44.80277 -1.40873,-44.62059 -0.27003,0.15142 -16.4853,-7.73604 -22.80448,-10.7731 0.69508,-2.83007 1.31983,-8.53896 -3.54033,-7.71848 -1e-5,1e-5 0,3e-5 -2e-5,4e-5 m 3.05501,0.8969 c 0.0957,-0.03 -0.0396,-0.0533 0,0"
             style="fill:#643f70;fill-opacity:1" />
          <path
             inkscape:connector-curvature="0"
             id="path5486"
             d="m 336.16124,202.41316 c -3.97408,0.71907 -8.66513,-0.41617 -11.74959,3.13868 -4.9266,5.2656 -9.68179,11.19556 -14.97749,15.81164 -7.92665,1.36566 -16.30493,-0.2053 -23.61085,3.98448 -17.3917,7.48399 -31.79934,20.71904 -43.51919,35.02151 -1.80517,2.27914 -3.54293,4.59454 -5.21405,6.92981 -1.28693,7.33558 1.02598,15.10614 0.72495,22.52083 0.61069,5.25485 -0.56698,11.41467 4.66295,14.98118 5.38571,6.28736 11.48842,12.75172 18.64642,17.39456 5.23544,3.24247 11.11491,5.28515 17.80949,5.11851 14.47328,0.69347 29.25035,1.05685 42.72593,5.80158 5.85768,2.16645 12.31381,3.00583 18.61124,2.16825 3.19036,1.45398 4.02769,-2.36736 3.88667,-4.9023 -0.11811,-6.15209 11.19609,-9.54288 11.19586,-9.90587 -1.3e-4,-0.22177 8.77174,-3.16521 8.77161,-3.38503 -8.1e-4,-1.41058 -0.0132,-31.19085 -0.0239,-58.20161 -1.28469,-21.22419 -2.1473,-40.68458 -2.79703,-40.32023 -0.54007,0.30286 -15.62003,-6.75607 -21.61942,-9.34944 0.54634,-2.51054 1.02997,-7.65627 -3.51817,-6.81197 -3e-5,3e-5 -3e-5,6e-5 -6e-5,8e-5 m 2.7975,0.82505 c 0.0877,-0.0275 -0.0363,-0.0488 0,0"
             style="fill:#674477;fill-opacity:1" />
          <path
             inkscape:connector-curvature="0"
             id="path5488"
             d="m 335.97623,206.18224 c -3.70433,0.78063 -8.04886,-0.0999 -10.92126,3.30176 -4.57858,5.03522 -8.97659,10.71365 -13.84123,15.21748 -7.2589,1.56407 -14.90114,0.48031 -21.54128,4.63296 -15.80653,7.6792 -28.72364,20.5825 -39.02088,34.08081 -1.54994,2.15391 -3.03444,4.33679 -4.45397,6.53367 -0.92899,6.84737 1.44028,14.06646 1.46242,20.9375 0.75203,4.86392 -0.10878,10.53967 4.86942,13.84677 5.20439,5.80508 11.08707,11.74998 17.95828,16.01721 4.75958,2.70545 10.10455,4.28656 16.19046,3.83394 13.1574,0.0758 26.59075,-0.23422 38.84085,3.40521 5.325,1.70183 11.19402,2.19193 16.91878,1.15549 2.90027,1.21581 3.6614,-2.36443 3.53313,-4.77533 -0.10751,-5.80791 10.17799,-9.10601 10.17765,-9.6505 -2e-4,-0.33266 7.97414,-3.13916 7.97395,-3.46889 -10e-4,-2.11586 -0.0129,-29.99137 -0.0224,-55.22511 -1.9217,-19.07906 -3.21073,-36.56639 -4.18533,-36.01985 -0.8101,0.45428 -14.75475,-5.77612 -20.43436,-7.9258 0.3976,-2.19101 0.74012,-6.77356 -3.496,-5.90545 -4e-5,4e-5 -6e-5,8e-5 -1.1e-4,1.2e-4 m 2.54001,0.7532 c 0.0797,-0.025 -0.033,-0.0444 0,0"
             style="fill:#6a497f;fill-opacity:1" />
          <path
             inkscape:connector-curvature="0"
             id="path5490"
             d="m 335.79122,209.95132 c -3.43458,0.84219 -7.43258,0.21645 -10.09292,3.46485 -4.23057,4.80483 -8.2714,10.23174 -12.70498,14.6233 -6.59116,1.76249 -13.49735,1.16594 -19.4717,5.28145 -14.22137,7.87441 -25.64795,20.44595 -34.52258,33.14011 -1.29471,2.02868 -2.52596,4.07904 -3.69389,6.13753 -0.57105,6.35917 1.85459,13.02679 2.19989,19.35417 0.89338,4.47299 0.34941,9.66468 5.0759,12.71236 5.02306,5.3228 10.68572,10.74823 17.27012,14.63986 4.28372,2.16843 9.0942,3.28797 14.57145,2.54937 11.84151,-0.5419 23.93113,-1.52529 34.95576,1.00884 4.79232,1.23721 10.07424,1.37803 15.22633,0.14272 2.61016,0.97764 3.29511,-2.36149 3.17958,-4.64835 -0.0969,-5.46373 9.15988,-8.66914 9.15944,-9.39513 -2.7e-4,-0.44354 7.17655,-3.11311 7.1763,-3.55275 -0.002,-2.82114 -0.0125,-28.79188 -0.021,-52.2486 -2.55872,-16.93393 -4.27417,-32.4482 -5.57364,-31.71949 -1.08013,0.60572 -13.88948,-4.79615 -19.2493,-6.50215 0.24887,-1.87147 0.45027,-5.89086 -3.47383,-4.99893 -6e-5,5e-5 -9e-5,1.1e-4 -1.5e-4,1.7e-4 m 2.2825,0.68134 c 0.0718,-0.0225 -0.0297,-0.04 0,0"
             style="fill:#6d4e86;fill-opacity:1" />
          <path
             inkscape:connector-curvature="0"
             id="path5492"
             d="m 335.60622,213.7204 c -3.16484,0.90375 -6.81632,0.53277 -9.2646,3.62794 -3.88255,4.57443 -7.5662,9.74982 -11.56872,14.02912 -5.92341,1.96091 -12.09356,1.85156 -17.40213,5.92994 -12.6362,8.06962 -22.57225,20.30941 -30.02428,32.19941 -1.03947,1.90346 -2.01746,3.82129 -2.9338,5.74139 -0.21312,5.87096 2.26889,11.98711 2.93736,17.77083 1.03473,4.08207 0.8076,8.7897 5.28237,11.57795 4.84174,4.84053 10.28437,9.7465 16.58198,13.26253 3.80786,1.6314 8.08383,2.28938 12.95242,1.26479 10.52563,-1.15958 21.27153,-2.81637 31.07068,-1.38753 4.25964,0.77259 8.95446,0.56413 13.53387,-0.87004 2.32006,0.73947 2.92882,-2.35856 2.82604,-4.52139 -0.0863,-5.11954 8.14178,-8.23227 8.14122,-9.13975 -3.4e-4,-0.55443 6.37897,-3.08705 6.37865,-3.6366 -0.002,-3.52643 -0.0121,-27.59241 -0.0196,-49.27211 -3.19575,-14.7888 -5.33761,-28.33 -6.96195,-27.41911 -1.35016,0.75714 -13.0242,-3.81619 -18.06423,-5.0785 0.10012,-1.55194 0.16042,-5.00816 -3.45167,-4.09242 -7e-5,7e-5 -1.3e-4,1.4e-4 -2e-4,2.1e-4 m 2.02501,0.60949 c 0.0638,-0.02 -0.0264,-0.0355 0,0"
             style="fill:#70538e;fill-opacity:1" />
          <path
             inkscape:connector-curvature="0"
             id="path5494"
             d="m 335.42121,217.48948 c -2.89509,0.9653 -6.20005,0.84908 -8.43627,3.79103 -3.53453,4.34404 -6.86099,9.2679 -10.43246,13.43494 -5.25567,2.15932 -10.68977,2.53719 -15.33255,6.57843 -11.05104,8.26483 -19.49656,20.17287 -25.52598,31.2587 -0.78423,1.77824 -1.50898,3.56354 -2.17373,5.34526 0.14483,5.38276 2.6832,10.94744 3.67484,16.1875 1.17608,3.69115 1.26579,7.91471 5.48885,10.44354 4.66041,4.35825 9.88301,8.74475 15.89382,11.88518 3.33201,1.09437 7.07348,1.29079 11.3334,-0.0198 9.20976,-1.77726 18.61193,-4.10744 27.18561,-3.78389 3.72694,0.30796 7.83467,-0.24978 11.84141,-1.88282 2.02995,0.5013 2.56252,-2.35563 2.4725,-4.39441 -0.0757,-4.77535 7.12367,-7.7954 7.123,-8.88438 -4.1e-4,-0.66531 5.58138,-3.061 5.581,-3.72046 -0.002,-4.23172 -0.0117,-26.39293 -0.0181,-46.2956 -3.83277,-12.64367 -6.40105,-24.21181 -8.35025,-23.11874 -1.6202,0.90857 -12.15893,-2.83623 -16.87918,-3.65486 -0.0486,-1.2324 -0.12943,-4.12546 -3.4295,-3.1859 -9e-5,8e-5 -1.6e-4,1.7e-4 -2.4e-4,2.5e-4 m 1.76751,0.53764 c 0.0558,-0.0175 -0.0231,-0.0311 -10e-6,0"
             style="fill:#735895;fill-opacity:1" />
          <path
             inkscape:connector-curvature="0"
             id="path5496"
             d="m 335.2362,221.25855 c -2.62534,1.02687 -5.58378,1.16541 -7.60793,3.95413 -3.18652,4.11365 -6.1558,8.78599 -9.29622,12.84077 -4.58791,2.35773 -9.28597,3.2228 -13.26297,7.22691 -9.46588,8.46004 -16.42086,20.03632 -21.02767,30.318 -0.529,1.65301 -1.00049,3.30579 -1.41365,4.94912 0.50276,4.89455 3.09751,9.90776 4.41231,14.60417 1.31742,3.30022 1.72398,7.03972 5.69532,9.30913 4.47909,3.87597 9.48167,7.74301 15.20568,10.50784 2.85615,0.55734 6.06312,0.2922 9.71437,-1.30436 7.89388,-2.39494 15.95233,-5.39851 23.30053,-6.18026 3.19426,-0.15666 6.71489,-1.06368 10.14895,-2.89558 1.73985,0.26313 2.19623,-2.3527 2.11896,-4.26744 -0.0651,-4.43117 6.10557,-7.35853 6.10479,-8.62901 -4.8e-4,-0.7762 4.78379,-3.03494 4.78334,-3.80432 -0.003,-4.937 -0.0113,-25.19344 -0.0167,-43.3191 -4.46978,-10.49854 -7.46447,-20.09362 -9.73855,-18.81837 -1.89023,1.06 -11.29365,-1.85626 -15.69411,-2.23121 -0.19736,-0.91286 -0.41929,-3.24275 -3.40734,-2.27938 -1e-4,9e-5 -1.9e-4,1.9e-4 -2.9e-4,2.9e-4 m 1.51001,0.46579 c 0.0478,-0.015 -0.0198,-0.0266 0,0"
             style="fill:#765c9d;fill-opacity:1" />
          <path
             inkscape:connector-curvature="0"
             id="path5498"
             d="m 335.05119,225.02763 c -2.35559,1.08843 -4.96751,1.48172 -6.7796,4.11722 -2.8385,3.88326 -5.4506,8.30407 -8.15996,12.24659 -3.92017,2.55615 -7.88218,3.90843 -11.1934,7.8754 -7.88071,8.65525 -13.34516,19.89978 -16.52936,29.3773 -0.27377,1.52778 -0.492,3.04804 -0.65357,4.55298 0.8607,4.40635 3.51181,8.86809 5.14978,13.02083 1.45877,2.9093 2.18218,6.16473 5.90179,8.17472 4.29777,3.3937 9.08032,6.74127 14.51753,9.1305 2.38029,0.0203 5.05277,-0.70639 8.09535,-2.58894 6.578,-3.01262 13.29273,-6.68958 19.41545,-8.57662 2.66158,-0.62128 5.59511,-1.87758 8.45649,-3.90835 1.44975,0.025 1.82994,-2.34976 1.76542,-4.14046 -0.0545,-4.08699 5.08747,-6.92167 5.08658,-8.37364 -5.5e-4,-0.88708 3.98619,-3.00889 3.98569,-3.88817 -0.003,-5.64229 -0.0109,-23.99397 -0.0152,-40.3426 -5.1068,-8.35341 -8.52791,-15.97543 -11.12686,-14.518 -2.16026,1.21142 -10.42837,-0.8763 -14.50905,-0.80756 -0.34609,-0.59334 -0.70914,-2.36005 -3.38517,-1.37288 -1.2e-4,1.2e-4 -2.2e-4,2.3e-4 -3.3e-4,3.4e-4 m 1.25251,0.39394 c 0.0399,-0.0125 -0.0165,-0.0222 -1e-5,0"
             style="fill:#7961a4;fill-opacity:1" />
          <path
             inkscape:connector-curvature="0"
             id="path5500"
             d="m 334.86619,228.79671 c -2.08586,1.14999 -4.35125,1.79803 -5.95128,4.2803 -2.49048,3.65288 -4.74539,7.82216 -7.0237,11.65242 -3.25242,2.75456 -6.47839,4.59405 -9.12382,8.52389 -6.29555,8.85046 -10.26947,19.76323 -12.03106,28.4366 -0.0185,1.40256 0.0165,2.79029 0.1065,4.15684 1.21865,3.91814 3.92613,7.82841 5.88726,11.4375 1.60012,2.51837 2.64037,5.28974 6.10827,7.04031 4.11644,2.91142 8.67897,5.73953 13.82938,7.75315 1.90443,-0.51671 4.04241,-1.70498 6.47632,-3.87351 5.26213,-3.6303 10.63313,-7.98065 15.53038,-10.97298 2.12889,-1.08591 4.47531,-2.69149 6.76403,-4.92112 1.15965,-0.21321 1.46364,-2.34684 1.41187,-4.01349 -0.0439,-3.74281 4.06937,-6.4848 4.06836,-8.11827 -6.1e-4,-0.99797 3.18861,-2.98284 3.18804,-3.97203 -0.004,-6.34758 -0.0105,-22.79449 -0.0138,-37.3661 -5.74382,-6.20828 -9.59135,-11.85723 -12.51516,-10.21763 -2.4303,1.36286 -9.5631,0.10366 -13.324,0.61609 -0.49483,-0.2738 -0.99899,-1.47735 -3.363,-0.46636 -1.3e-4,1.3e-4 -2.5e-4,2.6e-4 -3.8e-4,3.8e-4 m 0.99502,0.32209 c 0.0319,-0.01 -0.0132,-0.0177 -1e-5,0"
             style="fill:#7c66ac;fill-opacity:1" />
          <path
             inkscape:connector-curvature="0"
             id="path5502"
             d="m 334.68118,232.56579 c -1.81611,1.21154 -3.73497,2.11435 -5.12294,4.44339 -2.14247,3.42249 -4.0402,7.34025 -5.88745,11.05824 -2.58468,2.95298 -5.0746,5.27968 -7.05425,9.17238 -4.71038,9.04567 -7.19377,19.62669 -7.53275,27.4959 0.23669,1.27733 0.52497,2.53254 0.86658,3.7607 1.57658,3.42994 4.34043,6.78874 6.62473,9.85417 1.74147,2.12745 3.09856,4.41475 6.31474,5.9059 3.93512,2.42914 8.27762,4.73778 13.14123,6.37581 1.42858,-1.05374 3.03206,-2.70357 4.8573,-5.15809 3.94625,-4.24798 7.97353,-9.27172 11.6453,-13.36935 1.5962,-1.55053 3.35553,-3.50539 5.07157,-5.93388 0.86955,-0.45139 1.09735,-2.34391 1.05834,-3.88652 -0.0333,-3.39862 3.05125,-6.04793 3.05014,-7.8629 -6.8e-4,-1.10886 2.39102,-2.95678 2.39039,-4.05589 -0.004,-7.05286 -0.0101,-21.595 -0.0123,-34.38959 -6.38084,-4.06315 -10.65479,-7.73904 -13.90347,-5.91726 -2.70033,1.51428 -8.69782,1.08362 -12.13893,2.03973 -0.64357,0.0457 -1.28885,-0.59464 -3.34084,0.44016 -1.5e-4,1.4e-4 -2.8e-4,2.9e-4 -4.2e-4,4.3e-4 m 0.73751,0.25023 c 0.0239,-0.008 -0.01,-0.0133 -10e-6,0"
             style="fill:#7f6bb3;fill-opacity:1" />
          <path
             inkscape:connector-curvature="0"
             id="path5504"
             d="m 334.49617,236.33487 c -1.54636,1.2731 -3.1187,2.43066 -4.29461,4.60648 -1.79445,3.1921 -3.335,6.85833 -4.75119,10.46406 -1.91693,3.1514 -3.67082,5.9653 -4.98467,9.82087 -3.12522,9.24088 -4.11808,19.49015 -3.03446,26.55519 0.49193,1.15211 1.03346,2.2748 1.62667,3.36457 1.93452,2.94173 4.75473,5.74906 7.3622,8.27083 1.88282,1.73653 3.55675,3.53977 6.52122,4.77149 3.75379,1.94687 7.87626,3.73605 12.45308,4.99847 0.95271,-1.59076 2.02169,-3.70216 3.23827,-6.44266 2.63037,-4.86566 5.31393,-10.5628 7.76022,-15.76572 1.06352,-2.01515 2.23575,-4.31929 3.37912,-6.94665 0.57944,-0.68955 0.73105,-2.34097 0.70479,-3.75954 -0.0227,-3.05444 2.03315,-5.61107 2.03193,-7.60753 -7.5e-4,-1.21974 1.59343,-2.93073 1.59273,-4.13974 -0.004,-7.75815 -0.01,-20.39553 -0.0109,-31.4131 -7.01785,-1.91802 -11.71822,-3.62085 -15.29177,-1.61688 -2.97036,1.66571 -7.83254,2.06358 -10.95387,3.46338 -0.79231,0.36527 -1.5787,0.28805 -3.31867,1.34667 -1.6e-4,1.6e-4 -3.1e-4,3.1e-4 -4.7e-4,4.7e-4 m 0.48002,0.17838 c 0.0159,-0.005 -0.007,-0.009 -10e-6,0"
             style="fill:#8270bb;fill-opacity:1" />
          <path
             inkscape:connector-curvature="0"
             id="path5506"
             d="m 334.31117,240.10395 c -1.27662,1.33466 -2.50244,2.74697 -3.46628,4.76957 -1.44644,2.96171 -2.62981,6.37642 -3.61494,9.86989 -1.24919,3.3498 -2.26703,6.65091 -2.9151,10.46935 -1.54005,9.43609 -1.04238,19.3536 1.46385,25.61449 0.74717,1.02688 1.54195,2.01705 2.38675,2.96843 2.29246,2.45353 5.16904,4.70939 8.09967,6.6875 2.02416,1.3456 4.01495,2.66477 6.72769,3.63708 3.57247,1.46459 7.47492,2.7343 11.76493,3.62113 0.47686,-2.1278 1.01134,-4.70076 1.61926,-7.72724 1.31448,-5.48334 2.65431,-11.85387 3.87513,-18.16208 0.53084,-2.47978 1.11597,-5.1332 1.68666,-7.95942 0.28934,-0.92773 0.36477,-2.33805 0.35125,-3.63257 -0.0121,-2.71026 1.01505,-5.1742 1.01371,-7.35216 -8.1e-4,-1.33063 0.79585,-2.90468 0.79509,-4.2236 -0.005,-8.46343 -0.009,-19.19604 -0.009,-28.43659 -7.65488,0.22711 -12.78166,0.49734 -16.68007,2.68348 -3.2404,1.81714 -6.96728,3.04355 -9.76882,4.88703 -0.94105,0.68481 -1.86855,1.17076 -3.29651,2.25319 -1.7e-4,1.7e-4 -3.3e-4,3.4e-4 -5.1e-4,5.1e-4 m 0.22252,0.10653 c 0.008,-0.002 -0.003,-0.004 -10e-6,0"
             style="fill:#8575c2;fill-opacity:1" />
        </g>
        <path
           style="fill:url(#radialGradient7469);fill-opacity:1"
           d="m 298.91661,378.46468 c -32.5501,5.3112 -60.40259,27.36362 -80.58594,52.03125 -3.10587,8.80875 0.35187,18.39459 -1.25,27.5 -0.78386,8.01961 3.938,14.63765 9.45313,19.88282 10.53119,12.26027 25.36312,21.56006 41.99219,21.67968 22.44746,3.86053 45.81975,17.4369 68.47656,8.51563 19.5522,-8.82739 23.80484,-35.2461 13.94366,-52.85291 -10.29191,-27.89393 -24.10453,-55.60798 -45.74054,-76.24866 -2.05292,-0.50061 -4.18335,-0.62746 -6.28906,-0.50781 z"
           id="path4196-1"
           inkscape:connector-curvature="0" />
        <path
           sodipodi:nodetypes="sssssssss"
           inkscape:connector-curvature="0"
           id="path2844-9"
           d="m 220.57679,456.02465 c -4.98123,2.36457 -5.56195,9.64766 -2.3437,14.125 4.32643,6.01908 12.79902,8.0822 19.69057,11.14686 6.35983,2.8282 12.68898,3.23821 19.55943,4.35314 4.11286,0.66742 12.04038,10.96547 16.57842,7.03553 3.44971,-2.98745 -0.4746,-9.81445 -3.49264,-13.23743 -4.29935,-4.87623 -12.4256,-5.26273 -18.08578,-7.2981 -6.91587,-2.48692 -12.8932,-7.06152 -19.25,-10.75001 -4.26004,-2.47186 -8.20692,-7.48711 -12.6563,-5.375 z"
           style="fill:url(#linearGradient7471);fill-opacity:1" />
        <path
           sodipodi:nodetypes="ssssscssssss"
           inkscape:connector-curvature="0"
           id="path2844-9-5"
           d="m 224.66311,433.04157 c -3.58939,2.09186 -6.65836,5.85928 -5.5937,9.875 1.39596,5.26535 9.22369,7.6602 14.19058,9.89686 5.85133,2.63495 12.6221,2.38069 18.30942,5.35314 5.35274,2.79759 9.19525,7.87819 13.2771,12.32981 6.98373,7.61638 19.05133,24.45573 19.05133,24.45573 0,0 8.26612,-0.4657 9.50045,-3.6221 2.65886,-6.79921 -6.03734,-13.32518 -9.74309,-19.61534 -4.9428,-8.38993 -8.54831,-18.55072 -16.58579,-24.0481 -4.59362,-3.14189 -11.39702,-1.11921 -16.24579,-3.85094 -3.72797,-2.10028 -5.14002,-7.3114 -9.00421,-9.14906 -5.18762,-2.46704 -12.19327,-4.51742 -17.1563,-1.625 z"
           style="fill:url(#linearGradient7473);fill-opacity:1" />
        <path
           sodipodi:nodetypes="sccccss"
           inkscape:connector-curvature="0"
           id="path2280-5-7"
           d="m 240.41779,410.71132 c -2.84777,3.01328 0.125,12.4375 0.125,12.4375 l 61.875,41.5625 c 0,0 5.87195,-2.451 9.5,-4.5 6.04653,-19.51587 11.90726,-56.00003 41,-68 1.11656,-4.01428 7.12466,-7.40973 3,-8 -58.25438,-8.33664 -85.35344,-5.3988 -115.5,26.5 z"
           style="fill:url(#radialGradient7475);fill-opacity:1" />
        <path
           sodipodi:nodetypes="sccccss"
           inkscape:connector-curvature="0"
           id="path2490-4"
           d="m 258.06437,420.31174 c -2.81655,1.85698 0,10.12084 0,10.12084 l 18.29714,10.47439 22.18621,-0.35355 22.99168,-24.51698 c 0,0 1.24781,-6.56664 -1.75,-8.09554 -13.94028,-7.10957 -47.7452,3.15387 -61.72503,12.37084 z"
           style="fill:#311130" />
        <path
           d="m 278.36129,419.51998 c 4.78008,-4.35204 16.797,-6.55675 22.81548,-4.15574 6.0186,2.40104 7.43693,9.96746 2.63753,14.34924 -4.78544,4.36885 -16.87576,6.57194 -22.84096,4.14537 -5.96472,-2.42623 -7.36315,-10.01323 -2.6118,-14.3391 z"
           id="path13399"
           inkscape:connector-curvature="0"
           style="fill:#a6a6a6;fill-opacity:1"
           sodipodi:nodetypes="sssss" />
        <path
           sodipodi:nodetypes="sssss"
           style="fill:#04fd06"
           inkscape:connector-curvature="0"
           id="path2628-6"
           d="m 291.98714,419.31759 c 2.33502,-2.321 7.53842,-2.33159 9.87695,0 2.33857,2.33163 2.3554,7.54835 0.01,9.88683 -2.33855,2.33156 -7.57259,2.33216 -9.88684,-0.01 -2.31408,-2.34188 -2.32099,-7.5699 0,-9.87695 z" />
        <path
           sodipodi:nodetypes="cccccc"
           inkscape:connector-curvature="0"
           id="path2292-1"
           d="m 361.39074,400.95968 c -9.94245,13.78714 -9.93401,48.70273 0,62.5 9.07564,8.16353 21.14431,13.44078 37.49365,15.52864 0.009,-23.34282 -0.0449,-69.37965 -0.0411,-98.64048 -22.80354,6.5239 -29.0368,12.26765 -37.45251,20.61184 z"
           style="fill:url(#radialGradient7477);fill-opacity:1" />
        <path
           sodipodi:nodetypes="csccsc"
           inkscape:connector-curvature="0"
           id="path7118"
           d="m 348.86304,463.6328 c 0,0 -3.25594,17.22293 -0.0625,24.875 6.15,14.73651 34.13805,33.60772 34.13805,33.60772 l 24.08487,-24.08487 c 0,0 -18.52093,-28.27248 -33.22292,-34.4916 -7.65578,-3.23849 -24.9375,0.0937 -24.9375,0.0937 z"
           style="opacity:0.3;fill:url(#linearGradient7479);fill-opacity:1" />
        <path
           style="fill:url(#linearGradient7481);fill-opacity:1"
           d="m 350.86304,465.63279 c 0,0 -3.25594,17.22294 -0.0625,24.875 6.15,14.73652 34.13805,33.60773 34.13805,33.60773 l 24.08487,-24.08488 c 0,0 -18.52093,-28.27247 -33.22292,-34.49159 -7.65578,-3.23849 -24.9375,0.0937 -24.9375,0.0937 z"
           id="path2984-5-4"
           inkscape:connector-curvature="0"
           sodipodi:nodetypes="csccsc" />
        <path
           sodipodi:nodetypes="ccsscccc"
           inkscape:connector-curvature="0"
           id="path7114"
           d="m 347.12899,336.98712 -24.95379,24.98503 c 0,0 8.69424,8.45695 13.72883,11.77284 11.54189,7.60171 20.89292,11.49189 37.22496,18.25684 7.68938,3.18504 23.91616,3.48522 23.91616,3.48522 l -0.0411,-33.43743 -25,-25 z"
           style="opacity:0.3;fill:url(#linearGradient7483);fill-opacity:1" />
        <path
           style="fill:url(#linearGradient7485);fill-opacity:1"
           d="m 348.92864,335.25059 -24.95379,24.98504 c 0,0 8.69424,8.45695 13.72883,11.77284 11.54189,7.60171 20.89292,11.49188 37.22496,18.25683 7.68937,3.18504 23.91616,3.48523 23.91616,3.48523 l -0.0411,-33.43744 -25,-25 z"
           id="path1948-2"
           inkscape:connector-curvature="0"
           sodipodi:nodetypes="ccsscccc" />
      </g>
    </g>
  </g>
</svg>
