<?xml version="1.0" encoding="UTF-8" standalone="no"?>
<!-- Created with Inkscape (http://www.inkscape.org/) -->

<svg
   xmlns:dc="http://purl.org/dc/elements/1.1/"
   xmlns:cc="http://creativecommons.org/ns#"
   xmlns:rdf="http://www.w3.org/1999/02/22-rdf-syntax-ns#"
   xmlns:svg="http://www.w3.org/2000/svg"
   xmlns="http://www.w3.org/2000/svg"
   xmlns:xlink="http://www.w3.org/1999/xlink"
   xmlns:sodipodi="http://sodipodi.sourceforge.net/DTD/sodipodi-0.dtd"
   xmlns:inkscape="http://www.inkscape.org/namespaces/inkscape"
   width="200.33737"
   height="200.33752"
   id="svg135936"
   version="1.1"
   inkscape:version="0.48.1 "
   sodipodi:docname="New document 82">
  <defs
     id="defs135938">
    <linearGradient
       inkscape:collect="always"
       xlink:href="#linearGradient5507-3-3-6-1"
       id="linearGradient6516"
       gradientUnits="userSpaceOnUse"
       gradientTransform="matrix(0.93280072,0,0,0.93280064,1220.9578,512.2297)"
       x1="143.49998"
       y1="22.901928"
       x2="106.24998"
       y2="22.401928" />
    <linearGradient
       id="linearGradient5507-3-3-6-1">
      <stop
         style="stop-color:#ff0000;stop-opacity:1;"
         offset="0"
         id="stop5509-1-5-0-3" />
      <stop
         style="stop-color:#ff6600;stop-opacity:1"
         offset="1"
         id="stop5511-9-8-9-8" />
    </linearGradient>
    <linearGradient
       inkscape:collect="always"
       xlink:href="#linearGradient5507-3-3-6-1"
       id="linearGradient136067"
       gradientUnits="userSpaceOnUse"
       gradientTransform="matrix(0.93280072,0,0,0.93280064,1220.9578,512.2297)"
       x1="143.49998"
       y1="22.901928"
       x2="106.24998"
       y2="22.401928" />
    <linearGradient
       id="linearGradient136069">
      <stop
         style="stop-color:#ff0000;stop-opacity:1;"
         offset="0"
         id="stop136071" />
      <stop
         style="stop-color:#ff6600;stop-opacity:1"
         offset="1"
         id="stop136073" />
    </linearGradient>
    <linearGradient
       y2="22.401928"
       x2="106.24998"
       y1="22.901928"
       x1="143.49998"
       gradientTransform="matrix(1.1660009,0,0,1.1660008,202.74295,503.21094)"
       gradientUnits="userSpaceOnUse"
       id="linearGradient136077"
       xlink:href="#linearGradient5507-3-3-6-1"
       inkscape:collect="always" />
  </defs>
  <sodipodi:namedview
     id="base"
     pagecolor="#ffffff"
     bordercolor="#666666"
     borderopacity="1.0"
     inkscape:pageopacity="0.0"
     inkscape:pageshadow="2"
     inkscape:zoom="0.7"
     inkscape:cx="69.634948"
     inkscape:cy="97.812633"
     inkscape:document-units="px"
     inkscape:current-layer="layer1"
     showgrid="false"
     fit-margin-left="0.2"
     fit-margin-top="0.2"
     fit-margin-bottom="0.2"
     fit-margin-right="0.2"
     inkscape:window-width="469"
     inkscape:window-height="455"
     inkscape:window-x="184"
     inkscape:window-y="184"
     inkscape:window-maximized="0" />
  <metadata
     id="metadata135941">
    <rdf:RDF>
      <cc:Work
         rdf:about="">
        <dc:format>image/svg+xml</dc:format>
        <dc:type
           rdf:resource="http://purl.org/dc/dcmitype/StillImage" />
        <dc:title></dc:title>
      </cc:Work>
    </rdf:RDF>
  </metadata>
  <g
     inkscape:label="Layer 1"
     inkscape:groupmode="layer"
     id="layer1"
     transform="translate(-274.83132,-432.19342)">
    <g
       id="g136106">
      <text
         sodipodi:linespacing="125%"
         id="text5503-8"
         y="531.37207"
         x="313.2215"
         style="font-size:46.64002228px;font-style:normal;font-weight:normal;line-height:125%;letter-spacing:0px;word-spacing:0px;fill:url(#linearGradient136077);fill-opacity:1;stroke:none;font-family:StoneSerITCStd Medium;-inkscape-font-specification:StoneSerITCStd Medium"
         xml:space="preserve"><tspan
           style="font-size:6.99600458px;fill:url(#linearGradient136077);fill-opacity:1"
           y="531.37207"
           x="313.2215"
           id="tspan5505-1"
           sodipodi:role="line">Created by Falzar FZ</tspan></text>
      <g
         id="g135759"
         transform="matrix(1.25,0,0,1.25,-372.29087,220.17381)">
        <path
           sodipodi:nodetypes="ccccccccc"
           inkscape:connector-curvature="0"
           id="path1978-1-9-0-9-8-1"
           d="m 547.88265,169.77569 -30.0249,30.025 0,99.90002 30.0249,30.025 99.9,0 30.025,-30.025 0,-99.90002 -30.025,-30 z"
           style="fill:#5fbb7d;fill-opacity:1" />
        <path
           sodipodi:nodetypes="ccccccccssccccc"
           inkscape:connector-curvature="0"
           id="path1996-4-7"
           d="m 571.78102,183.09489 c -16.04944,6.65462 -22.38026,14.65744 -27.85434,27.85433 -5.47408,13.19689 -3.89455,33.59855 -0.0464,46.33105 3.84814,12.7325 10.92158,23.76127 18.56956,27.85434 7.64799,4.09308 15.2869,3.28266 18.56956,0 3.28267,-3.28267 -3.28266,-6.00212 0,-9.28478 3.28267,-3.28267 15.2869,-3.28267 18.56956,0 3.28267,3.28266 -3.28266,6.00211 0,9.28478 3.28267,3.28266 11.63195,2.74177 17.8218,2.74177 6.18987,0 13.59916,-0.37182 19.31736,-2.74177 12.12504,-5.02532 22.37439,-14.64484 27.83109,-27.85434 5.45671,-13.20949 5.41071,-33.1748 -0.0696,-46.37747 -5.48034,-13.20267 -11.80014,-21.2112 -27.85434,-27.85434 -16.05419,-6.64314 -48.80474,-6.6082 -64.85418,0.0464 z"
           style="fill:#0a0a08;fill-opacity:1" />
        <path
           style="fill:#0a0a08;fill-opacity:1"
           d="m 580.24195,277.60351 c -5.25719,2.1776 -7.83704,4.75025 -10,10 -2.16296,5.24976 -2.10559,14.67934 0.075,19.925 2.18056,5.24567 4.76316,7.85586 10,10.025 5.23684,2.16915 14.61589,2.15077 19.85,-0.025 5.23412,-2.17572 7.82104,-4.78319 10,-10.025 2.17897,-5.2418 2.23632,-14.65409 0.075,-19.9 -2.16136,-5.2459 -4.7428,-7.82239 -10,-10 -5.25719,-2.1776 -14.74272,-2.17763 -19.99992,-4e-5 z"
           id="path3128-4"
           inkscape:connector-curvature="0"
           sodipodi:nodetypes="zzzzzzzzz" />
        <g
           id="g135343"
           transform="translate(0,-3.1417638)">
          <g
             transform="translate(-289.75146,-113.50361)"
             id="g76288">
            <g
               id="g76195"
               transform="translate(0,-2.9910252)">
              <path
                 style="fill:#484649"
                 d="m 902.32939,303.66981 c -6.33196,3.90386 -6.51201,8.43256 -8.54392,17.06647 -2.03192,8.63392 -3.66269,25.1596 0.0641,34.13295 3.72676,8.97337 10.75533,14.46484 17.08783,17.08784 6.33251,2.62302 11.11317,1.38172 16.95969,0 5.8465,-1.38171 12.84147,-5.5171 17.06647,-8.54391 4.22499,-3.02681 6.19478,-2.70589 8.60796,-8.5012 2.41318,-5.79532 3.89053,-16.05413 -0.0641,-25.56768 -3.95462,-9.51354 -16.11983,-21.68247 -25.63173,-25.63176 -9.5119,-3.94927 -19.21436,-3.94657 -25.54631,-0.0427 z"
                 id="path6100"
                 inkscape:connector-curvature="0"
                 sodipodi:nodetypes="zzzzzzzzzz" />
              <path
                 inkscape:connector-curvature="0"
                 id="path29480"
                 d="m 910.67369,304.00763 c -7.77743,0.0845 -9.4796,8.29163 -11.10374,13.75519 -4.76116,11.89758 -7.94323,28.5436 4.24925,37.87783 11.12569,7.08483 25.26565,1.53268 35.37175,-4.00597 8.96979,-7.93544 5.17271,-22.32015 -1.62536,-30.99813 -6.09038,-8.37907 -15.69544,-15.78137 -26.8919,-16.62892 z"
                 style="fill:#808080" />
              <g
                 id="g31425">
                <path
                   id="path31427"
                   d="m 903.99825,303.73737 c -6.26161,3.13609 -6.88331,7.73253 -8.8134,15.58563 -0.39453,1.57178 -0.76228,3.36045 -1.09236,5.25915 -1.62066,8.45363 -2.44992,19.83171 0.0655,27.11496 3.05803,8.41071 9.12764,13.96628 15.27074,16.92998 0.20695,0.0966 0.41277,0.18912 0.61757,0.27772 5.54883,2.29083 10.07864,1.52028 15.41664,0.45722 5.62478,-1.10164 12.18768,-4.65355 16.47444,-7.42319 3.9812,-2.65232 6.13179,-2.67243 8.58746,-7.58991 0.18425,-0.33526 0.36468,-0.68596 0.54023,-1.05089 2.70233,-5.64225 3.74362,-14.56754 0.53346,-22.94975 -1.92028,-5.13749 -6.06587,-10.88942 -10.8723,-15.64925 -4.00824,-4.01047 -8.50827,-7.44827 -12.65198,-9.42003 -8.64801,-3.97844 -17.65161,-4.56186 -24.076,-1.54163 0,0 10e-6,-10e-6 10e-6,-10e-6 0,0 0,0 0,0"
                   style="fill:#535154;fill-opacity:1"
                   inkscape:connector-curvature="0" />
                <path
                   id="path31429"
                   d="m 905.66711,303.80494 c -6.19127,2.3683 -7.25462,7.03248 -9.08288,14.10477 -0.41031,1.5342 -0.78099,3.22795 -1.12237,4.96761 -1.84995,7.92563 -2.99419,18.38187 -0.99547,25.64768 2.38929,7.84803 7.49995,13.4677 13.45365,16.77212 0.19011,0.10048 0.37991,0.19766 0.56948,0.29165 5.09159,2.31033 9.50316,1.97144 14.53925,1.17822 5.40306,-0.82156 11.5339,-3.78999 15.8824,-6.30247 3.73742,-2.27783 6.06882,-2.63898 8.56698,-6.67862 0.21001,-0.28991 0.41641,-0.59148 0.61838,-0.9037 3.28292,-5.34301 4.3185,-13.65425 1.5931,-21.52991 -1.68972,-5.1007 -5.40127,-10.64482 -9.75357,-15.16888 -3.60485,-3.83148 -7.71437,-7.19572 -11.66328,-9.33791 -7.78411,-4.00762 -16.08885,-5.17716 -22.60568,-3.04056 0,0 10e-6,0 10e-6,0 0,0 0,0 0,0"
                   style="fill:#5e5d5f;fill-opacity:1"
                   inkscape:connector-curvature="0" />
                <path
                   id="path31431"
                   d="m 907.33597,303.8725 c -6.12092,1.60053 -7.62592,6.33245 -9.35236,12.62393 -0.42609,1.49661 -0.7997,3.09545 -1.15239,4.67606 -2.07923,7.39763 -3.53844,16.93204 -2.05642,24.18039 1.72056,7.28537 5.87226,12.96914 11.63655,16.61426 0.17328,0.10437 0.34706,0.20622 0.52139,0.30559 4.63436,2.32982 8.92769,2.42261 13.66188,1.89922 5.18133,-0.54149 10.8801,-2.92644 15.29036,-5.18176 3.49364,-1.90333 6.00583,-2.60551 8.54648,-5.76733 0.23578,-0.24456 0.46816,-0.49698 0.69654,-0.7565 3.86352,-5.04377 4.89338,-12.74095 2.65273,-20.11006 -1.45915,-5.06392 -4.73665,-10.40022 -8.63482,-14.68851 -3.20146,-3.65251 -6.92049,-6.94318 -10.67458,-9.2558 -6.92022,-4.03679 -14.5261,-5.79245 -21.13536,-4.53948 0,0 0,-10e-6 0,-10e-6 0,0 0,0 0,0"
                   style="fill:#69686a;fill-opacity:1"
                   inkscape:connector-curvature="0" />
                <path
                   id="path31433"
                   d="m 909.00483,303.94007 c -6.05057,0.83275 -7.99722,5.6324 -9.62184,11.14307 -2.28359,8.86993 -5.28073,18.82844 -4.29979,27.09762 3.44995,13.13813 9.78896,20.06475 23.07726,19.39615 8.85155,-1.11973 17.4775,-4.41946 23.99902,-9.52639 4.44411,-4.74452 5.46825,-11.82765 3.71236,-18.69022 -1.22859,-5.02713 -4.07204,-10.15561 -7.51609,-14.20813 -2.79806,-3.47353 -6.12659,-6.69064 -9.68588,-9.17369 -6.05632,-4.06597 -12.96334,-6.40774 -19.66504,-6.03841 l 0,0 0,0"
                   style="fill:#747475;fill-opacity:1"
                   inkscape:connector-curvature="0"
                   sodipodi:nodetypes="ccccccccccc" />
                <path
                   style="fill:#d0e4fa;fill-opacity:1"
                   d="m 916.90564,312.42493 c -6.28128,-1.77914 -13.55268,10.33145 -14.28518,16.52481 -0.7325,6.19336 1.82074,13.39521 7.15641,13.83436 5.33567,0.43915 8.55882,-7.77263 9.90303,-13.25583 1.34421,-5.4832 3.50702,-15.3242 -2.77426,-17.10334 z"
                   id="path68372"
                   inkscape:connector-curvature="0"
                   sodipodi:nodetypes="zzzzz" />
                <g
                   id="g74229">
                  <path
                     style="fill:#83868b;fill-opacity:1"
                     d="m 910.32163,305.35421 c -5.39574,0.59381 -7.39038,4.75747 -9.08713,9.65054 -2.37964,7.8098 -5.29685,16.79126 -4.71206,24.28779 0.64254,3.05918 1.47524,5.76423 2.56432,8.07201 3.15002,6.70978 8.29742,10.45377 16.81482,10.49923 4.20572,-0.18022 8.44197,-0.99685 12.45263,-2.49287 3.36652,-1.26228 6.47676,-3.02995 9.18233,-5.20279 4.01292,-4.27236 5.10098,-10.67217 3.80151,-16.86999 -0.44261,-2.29119 -1.23287,-4.60024 -2.26538,-6.79079 -1.03682,-2.19484 -2.30029,-4.31521 -3.69538,-6.22284 -2.26888,-3.21519 -4.99317,-6.24351 -7.95957,-8.63805 -5.04751,-3.97757 -10.96735,-6.44593 -17.09609,-6.29224 0,0 0,0 0,0"
                     id="path74231"
                     inkscape:connector-curvature="0" />
                  <path
                     style="fill:#9299a1;fill-opacity:1"
                     d="m 911.63843,306.76836 c -4.74092,0.35485 -6.78354,3.88252 -8.55243,8.158 -2.47568,6.74967 -5.31296,14.75408 -5.12432,21.47796 0.39944,2.74561 0.98879,5.19233 1.83182,7.27727 2.43432,6.09239 6.6914,9.88118 13.84921,10.46906 3.60856,0.24713 7.3446,-0.13674 10.99603,-1.2971 3.04936,-0.98051 5.84664,-2.55805 8.27486,-4.56783 3.58173,-3.80019 4.73372,-9.5167 3.89067,-15.04977 -0.27199,-2.0731 -0.83693,-4.15668 -1.61015,-6.12443 -0.77745,-1.96805 -1.73007,-3.90914 -2.79529,-5.6947 -1.7397,-2.95684 -3.85975,-5.79637 -6.23325,-8.1024 -4.03872,-3.88917 -8.97137,-6.48412 -14.52715,-6.54606 0,0 0,0 0,0"
                     id="path74233"
                     inkscape:connector-curvature="0" />
                  <path
                     style="fill:#a2acb7;fill-opacity:1"
                     d="m 912.95524,308.1825 c -4.0861,0.11591 -6.17671,3.00759 -8.01773,6.66546 -2.57173,5.68954 -5.32907,12.71691 -5.53658,18.66815 0.15632,2.43204 0.50233,4.62041 1.09931,6.48252 1.71862,5.47501 5.08539,9.30859 10.88359,10.43889 3.01141,0.67447 6.24724,0.72337 9.53944,-0.10134 2.73221,-0.69874 5.21652,-2.08614 7.36739,-3.93287 3.15054,-3.32802 4.36645,-8.36121 3.97982,-13.22953 -0.10136,-1.85501 -0.44098,-3.71313 -0.95492,-5.45807 -0.51806,-1.74126 -1.15985,-3.50309 -1.89519,-5.16656 -1.21051,-2.6985 -2.72633,-5.34924 -4.50694,-7.56676 -3.02991,-3.80077 -6.97538,-6.52231 -11.95819,-6.79989 0,0 0,0 0,0"
                     id="path74235"
                     inkscape:connector-curvature="0" />
                  <path
                     style="fill:#b1becd;fill-opacity:1"
                     d="m 914.27204,309.59664 c -3.43127,-0.12304 -5.56988,2.13265 -7.48302,5.17293 -2.66778,4.62941 -5.34519,10.67973 -5.94885,15.85832 -0.0868,2.11848 0.0159,4.04851 0.36681,5.68778 1.00292,4.85763 3.47937,8.736 7.91797,10.40871 2.41426,1.10183 5.14988,1.58349 8.08285,1.09444 2.41505,-0.41697 4.5864,-1.61424 6.45992,-3.29791 2.71936,-2.85586 3.99919,-7.20573 4.06897,-11.4093 0.0693,-1.63693 -0.045,-3.26958 -0.29968,-4.79171 -0.25868,-1.51448 -0.58963,-3.09704 -0.9951,-4.63842 -0.68133,-2.44016 -1.5929,-4.9021 -2.78062,-7.03112 -2.02112,-3.71236 -4.97939,-6.5605 -9.38925,-7.05372 0,0 0,0 0,0"
                     id="path74237"
                     inkscape:connector-curvature="0" />
                  <path
                     style="fill:#c0d1e3;fill-opacity:1"
                     d="m 915.58884,311.01079 c -2.77645,-0.36199 -4.96304,1.25771 -6.94831,3.68039 -2.76383,3.56928 -5.36131,8.64255 -6.36112,13.04849 -0.32989,1.80492 -0.47057,3.47661 -0.36569,4.89303 0.28722,4.24026 1.87336,8.16342 4.95236,10.37855 1.81709,1.52918 4.05252,2.4436 6.62626,2.29021 2.09788,-0.1352 3.95628,-1.14234 5.55244,-2.66295 2.28817,-2.38369 3.63192,-6.05026 4.15813,-9.58907 0.2399,-1.41885 0.35092,-2.82602 0.35554,-4.12536 7e-4,-1.28768 -0.0194,-2.69098 -0.095,-4.11028 -0.15214,-2.18181 -0.45947,-4.45496 -1.0543,-6.49547 -1.01231,-3.62396 -2.9834,-6.59869 -6.8203,-7.30754 0,0 0,0 0,0"
                     id="path74239"
                     inkscape:connector-curvature="0" />
                </g>
              </g>
            </g>
          </g>
          <g
             transform="translate(-289.04647,-111.92627)"
             id="g76305">
            <path
               sodipodi:nodetypes="cccccccc"
               inkscape:connector-curvature="0"
               id="path6102"
               d="m 857.18789,299.92142 c -7.74409,3.21908 -14.58435,10.04096 -17.79048,17.79041 -3.38361,8.17842 -3.36822,18.37659 0.0222,26.55218 1.60631,3.87338 5.02049,7.29215 8.89521,8.89521 8.17843,3.3836 19.57386,5.42187 26.55218,-0.0222 9.62482,-7.50877 7.43834,-23.39945 8.93969,-35.5141 0.72841,-5.87777 4.19324,-13.58543 0,-17.76818 -6.282,-6.26627 -18.42553,-3.33909 -26.61883,0.0667 z"
               style="fill:#484649" />
            <g
               id="g11930">
              <path
                 inkscape:connector-curvature="0"
                 id="path11932"
                 d="m 858.33074,300.53746 c -7.24034,3.08712 -13.66298,9.60008 -16.69539,16.94207 -1.20989,2.92967 -1.96484,6.11785 -2.25907,9.35489 -0.49057,5.38864 0.23976,10.95201 2.22318,15.75355 1.11196,2.69354 3.13388,5.14441 5.59345,6.85164 0.89461,0.62105 1.84343,1.14174 2.82292,1.5393 6.36045,2.58479 14.73442,4.13418 21.19194,1.70013 1.37554,-0.51358 2.66408,-1.21534 3.82645,-2.13467 7.52223,-5.94284 7.58831,-17.33517 8.15186,-27.51043 0.11539,-2.06849 0.25544,-4.09251 0.48521,-6.01759 0.66417,-5.59796 3.76178,-12.83517 -0.21972,-16.76246 -0.36361,-0.35868 -0.74799,-0.68541 -1.15118,-0.98194 -6.20741,-4.56565 -16.69008,-1.87078 -23.96968,1.26553 0,0 3e-5,-2e-5 3e-5,-2e-5 0,0 0,0 0,0"
                 style="fill:#545459;fill-opacity:1" />
              <path
                 inkscape:connector-curvature="0"
                 id="path11934"
                 d="m 859.47359,301.1535 c -6.73659,2.95516 -12.74161,9.15921 -15.6003,16.09372 -1.14391,2.77547 -1.86121,5.78077 -2.13909,8.81334 -0.46807,5.09195 0.19024,10.34106 2.04512,14.85138 1.04624,2.54728 2.94065,4.8536 5.26955,6.45337 0.84646,0.58162 1.74294,1.06595 2.66797,1.43329 5.98858,2.38427 13.82425,3.60935 19.90549,1.2025 1.2832,-0.4985 2.48827,-1.17333 3.57912,-2.04939 7.0357,-5.63769 7.33701,-16.37091 7.88174,-25.871 0.11326,-1.94747 0.24526,-3.85491 0.45269,-5.67094 0.59994,-5.31815 3.33033,-12.0849 -0.43943,-15.75673 -0.34417,-0.33527 -0.70811,-0.64084 -1.09009,-0.91821 -5.87889,-4.26945 -15.66732,-1.6558 -22.53279,1.41869 0,0 2e-5,-2e-5 2e-5,-2e-5 0,0 0,0 0,0"
                 style="fill:#606269;fill-opacity:1" />
              <path
                 inkscape:connector-curvature="0"
                 id="path11936"
                 d="m 860.61644,301.76955 c -6.23284,2.82319 -11.82024,8.71832 -14.50521,15.24537 -1.07793,2.62126 -1.75758,5.44369 -2.01911,8.27177 -0.44556,4.79526 0.14072,9.73013 1.86705,13.94921 0.98052,2.40104 2.74743,4.56279 4.94566,6.05512 0.79831,0.54218 1.64245,0.99014 2.51302,1.32727 5.6167,2.18375 12.91408,3.08453 18.61904,0.70486 1.19085,-0.48341 2.31246,-1.13131 3.33178,-1.96409 6.54919,-5.33254 7.08571,-15.40666 7.61163,-24.23158 0.11113,-1.82645 0.23507,-3.61732 0.42018,-5.32428 0.5357,-5.03834 2.89888,-11.33463 -0.65915,-14.75101 -0.32474,-0.31187 -0.66823,-0.59628 -1.029,-0.85447 -5.55037,-3.97325 -14.64456,-1.44083 -21.09591,1.57184 0,0 2e-5,-1e-5 2e-5,-1e-5 0,0 0,0 0,0"
                 style="fill:#6d7179;fill-opacity:1" />
              <path
                 inkscape:connector-curvature="0"
                 id="path11938"
                 d="m 861.75929,302.38559 c -5.72909,2.69123 -10.89887,8.27745 -13.41012,14.39703 -1.01195,2.46706 -1.65396,5.1066 -1.89914,7.73021 -0.42305,4.49856 0.0912,9.11918 1.689,13.04703 0.9148,2.25479 2.55419,4.27199 4.62176,5.65686 0.75016,0.50275 1.54196,0.91434 2.35807,1.22125 5.24482,1.98324 12.00391,2.55972 17.33259,0.20724 1.0985,-0.46833 2.13665,-1.0893 3.08445,-1.8788 6.06267,-5.02739 6.83441,-14.4424 7.34151,-22.59215 0.109,-1.70545 0.22488,-3.37973 0.38767,-4.97764 0.47146,-4.75853 2.46742,-10.58436 -0.87887,-13.74527 -0.30531,-0.28848 -0.62835,-0.55172 -0.96791,-0.79075 -5.22185,-3.67705 -13.6218,-1.22586 -19.65903,1.725 0,0 2e-5,-1e-5 2e-5,-1e-5 0,0 0,0 0,0"
                 style="fill:#797f89;fill-opacity:1" />
              <path
                 inkscape:connector-curvature="0"
                 id="path11940"
                 d="m 862.90214,303.00163 c -5.22534,2.55926 -9.9775,7.83657 -12.31503,13.54869 -0.94597,2.31285 -1.55033,4.76951 -1.77916,7.18865 -0.40055,4.20187 0.0417,8.50824 1.51093,12.14485 0.84909,2.10855 2.36097,3.98119 4.29788,5.25861 0.70199,0.46331 1.44146,0.83853 2.20311,1.11523 4.87294,1.78271 11.09374,2.0349 16.04614,-0.2904 1.00616,-0.45324 1.96083,-1.04728 2.83711,-1.79351 5.57616,-4.72224 6.58312,-13.47814 7.07139,-20.95272 0.10688,-1.58443 0.21471,-3.14214 0.35516,-4.63098 0.40723,-4.47872 2.03597,-9.8341 -1.09858,-12.73955 -0.28587,-0.26507 -0.58847,-0.50715 -0.90682,-0.72701 -4.89334,-3.38086 -12.59904,-1.01089 -18.22215,1.87815 0,0 2e-5,-1e-5 2e-5,-1e-5 0,0 0,0 0,0"
                 style="fill:#858d99;fill-opacity:1" />
              <path
                 inkscape:connector-curvature="0"
                 id="path11942"
                 d="m 864.04499,303.61767 c -4.72159,2.4273 -9.05613,7.39569 -11.21994,12.70034 -0.87998,2.15865 -1.44671,4.43243 -1.65918,6.6471 -0.37804,3.90517 -0.008,7.89729 1.33286,11.24268 0.78337,1.96229 2.16775,3.69038 3.97399,4.86034 0.65384,0.42387 1.34097,0.76273 2.04816,1.00922 4.50107,1.58219 10.18357,1.51008 14.75969,-0.78803 0.91381,-0.43816 1.78502,-1.00527 2.58978,-1.70822 5.08963,-4.41709 6.33182,-12.51389 6.80127,-19.3133 0.10475,-1.46341 0.20452,-2.90454 0.32265,-4.28433 0.34299,-4.19891 1.60451,-9.08383 -1.3183,-11.73382 -0.26644,-0.24167 -0.54859,-0.46258 -0.84572,-0.66328 -4.56483,-3.08465 -11.57629,-0.79591 -16.78527,2.03131 0,0 10e-6,-1e-5 10e-6,-1e-5 0,0 0,0 0,0"
                 style="fill:#929ca9;fill-opacity:1" />
              <path
                 inkscape:connector-curvature="0"
                 id="path11944"
                 d="m 865.18784,304.23371 c -4.21784,2.29534 -8.13476,6.95482 -10.12485,11.852 -0.814,2.00444 -1.34308,4.09534 -1.53921,6.10554 -0.35553,3.60847 -0.0573,7.28634 1.15481,10.3405 0.71765,1.81604 1.97452,3.39958 3.65009,4.46209 0.60569,0.38443 1.24048,0.68693 1.89321,0.9032 4.12919,1.38167 9.2734,0.98525 13.47324,-1.28567 0.82146,-0.42307 1.60921,-0.96325 2.34244,-1.62292 4.60312,-4.11194 6.08053,-11.54963 6.53116,-17.67388 0.10262,-1.3424 0.19433,-2.66694 0.29014,-3.93767 0.27875,-3.9191 1.17306,-8.33356 -1.53802,-10.7281 -0.24701,-0.21826 -0.50871,-0.41801 -0.78463,-0.59954 -4.23631,-2.78846 -10.55353,-0.58095 -15.34839,2.18446 0,0 1e-5,-1e-5 1e-5,-1e-5 0,0 0,0 0,0"
                 style="fill:#9eaab9;fill-opacity:1" />
              <path
                 inkscape:connector-curvature="0"
                 id="path11946"
                 d="m 866.33069,304.84975 c -3.71409,2.16338 -7.21339,6.51394 -9.02976,11.00366 -0.74802,1.85023 -1.23945,3.75826 -1.41923,5.56398 -0.33302,3.31177 -0.10684,6.6754 0.97674,9.43832 0.65194,1.6698 1.78129,3.10877 3.3262,4.06383 0.55754,0.345 1.13999,0.61113 1.73826,0.79719 3.75731,1.18115 8.36323,0.46043 12.1868,-1.7833 0.7291,-0.40798 1.43339,-0.92124 2.0951,-1.53764 4.1166,-3.80679 5.82923,-10.58537 6.26104,-16.03445 0.10049,-1.22138 0.18414,-2.42935 0.25762,-3.59102 0.21452,-3.63929 0.74161,-7.58329 -1.75772,-9.72237 -0.22759,-0.19486 -0.46885,-0.37345 -0.72355,-0.53581 -3.90779,-2.49225 -9.53077,-0.36597 -13.91151,2.33762 0,0 10e-6,-1e-5 10e-6,-1e-5 0,0 0,0 0,0"
                 style="fill:#aab8c9;fill-opacity:1" />
              <path
                 inkscape:connector-curvature="0"
                 id="path11948"
                 d="m 867.47354,305.4658 c -3.21034,2.03141 -6.29202,6.07306 -7.93467,10.15531 -0.68204,1.69602 -1.13583,3.42117 -1.29925,5.02241 -0.31052,3.01509 -0.15636,6.06446 0.79868,8.53616 0.58621,1.52354 1.58806,2.81796 3.00231,3.66557 0.50938,0.30556 1.03949,0.53532 1.5833,0.69117 3.38544,0.98063 7.45306,-0.0644 10.90035,-2.28094 0.63676,-0.39289 1.25758,-0.87922 1.84776,-1.45234 3.63009,-3.50164 5.57794,-9.62112 5.99093,-14.39502 0.0984,-1.10037 0.17396,-2.19176 0.22511,-3.24437 0.15028,-3.35948 0.31015,-6.83303 -1.97744,-8.71665 -0.20815,-0.17146 -0.42897,-0.32888 -0.66246,-0.47207 -3.57928,-2.19606 -8.50801,-0.151 -12.47463,2.49077 0,0 10e-6,0 10e-6,0 0,0 0,0 0,0"
                 style="fill:#b7c7d9;fill-opacity:1" />
              <path
                 inkscape:connector-curvature="0"
                 id="path11950"
                 d="m 868.61639,306.08184 c -2.70659,1.89945 -5.37065,5.63218 -6.83958,9.30696 -0.61606,1.54182 -1.0322,3.08409 -1.17928,4.48086 -0.28801,2.71839 -0.20587,5.45352 0.62062,7.63398 0.5205,1.3773 1.39484,2.52716 2.67842,3.26731 0.46123,0.26613 0.939,0.45952 1.42835,0.58515 3.01356,0.78011 6.54289,-0.5892 9.6139,-2.77856 0.54441,-0.37781 1.08177,-0.83721 1.60043,-1.36706 3.14356,-3.19648 5.32664,-8.65685 5.72081,-12.75559 0.0962,-0.97935 0.16377,-1.95417 0.1926,-2.89772 0.086,-3.07967 -0.12131,-6.08276 -2.19716,-7.71091 -0.18872,-0.14806 -0.38909,-0.28432 -0.60137,-0.40835 -3.25076,-1.89985 -7.48525,0.064 -11.03774,2.64393 0,0 0,0 0,0 0,0 0,0 0,0"
                 style="fill:#c3d5e9;fill-opacity:1" />
            </g>
            <path
               inkscape:transform-center-y="0.64576538"
               inkscape:transform-center-x="6.1977523"
               inkscape:connector-curvature="0"
               id="path6134"
               d="m 869.75924,306.69788 c -3.13837,2.51813 -6.36526,8.39821 -6.80379,12.39792 -0.43851,3.9997 -0.12516,7.99718 2.79708,9.60086 2.92223,1.60366 6.46249,-0.27894 9.60085,-2.79707 3.13837,-2.51814 6.36527,-8.39823 6.80379,-12.39793 0.43851,-3.99971 0.12516,-7.99719 -2.79707,-9.60086 -2.92224,-1.60366 -6.46249,0.27894 -9.60086,2.79708 z"
               style="fill:#d0e4fa" />
          </g>
          <g
             transform="matrix(1.0043162,0,0,1.0043162,-155.14864,-108.14176)"
             id="g76320">
            <g
               transform="matrix(1.0770574,0,0,1.0770574,-200.93322,-26.316699)"
               id="g135337">
              <path
                 style="fill:#484649"
                 d="m 857.64418,368.02933 c 0.0297,6.50801 0.0593,13.01601 0.089,19.52402 5.16537,-1.963 10.42578,-3.87033 15.9209,-4.65103 4.03539,-0.46246 7.99228,0.82177 11.82391,1.92069 2.59985,0.80672 5.16949,1.71132 7.70251,2.70814 0.0149,-6.5006 0.0297,-13.00119 0.0446,-19.50179 -5.45519,-5.63093 -13.76962,-7.8899 -21.42896,-6.85882 -5.26401,0.70405 -10.44503,3.00111 -14.15196,6.85879 z"
                 id="path1996-4-7-8"
                 inkscape:connector-curvature="0" />
              <path
                 style="fill:#565559;fill-opacity:1"
                 d="m 874.40625,362.08751 c -4.40046,0.38426 -9.05399,1.25639 -12.56492,4.12275 -1.01325,1.01181 -2.54283,2.22746 -2.02842,3.81584 0.28188,3.75429 -0.73811,7.52143 -0.14567,11.26035 0.10242,1.45516 1.53061,2.45469 2.78039,1.4584 6.52039,-2.43754 13.81332,-3.70998 20.6302,-1.74767 1.41978,0.37328 2.75872,0.96247 4.02874,1.68876 1.20888,0.6744 3.25741,1.01771 3.85801,-0.6272 0.85228,-2.39981 0.26785,-4.99947 0.26132,-7.47393 0.25007,-2.59358 0.50597,-5.56589 -1.21026,-7.74726 -1.01675,-1.34696 -2.73603,-1.68416 -4.12901,-2.47989 -3.56177,-1.69026 -7.54581,-2.45518 -11.48038,-2.27015 z"
                 id="path135269"
                 inkscape:connector-curvature="0" />
              <path
                 style="fill:#707276;fill-opacity:1"
                 d="m 874.9267,363.2578 c -4.26968,0.11099 -9.34985,0.86555 -11.94926,4.65601 -0.87762,2.89109 -1.5281,6.1614 -0.68753,9.15733 1.40682,3.20862 4.61247,0.53976 6.91249,0.24103 6.44754,-1.42055 13.09121,-0.087 19.35243,1.59386 0.83842,-4.18296 1.27911,-9.24751 -1.74325,-12.6886 -2.41645,-2.09425 -5.87552,-2.24437 -8.89152,-2.89437 -0.99385,-0.10193 -1.99603,-0.12692 -2.99336,-0.0653 z"
                 id="path135273"
                 inkscape:connector-curvature="0" />
              <path
                 style="fill:#7d8185;fill-opacity:1"
                 d="m 875.09375,364.32943 c -2.69426,0.28711 -5.57127,0.27538 -7.96901,1.71189 -1.20734,1.14055 -2.20056,4.31672 -1.09207,5.2872 1.75031,0.10212 3.38407,-0.90481 5.00632,-0.86803 2.92233,-0.214 5.86416,-0.22842 8.77655,0.12602 1.90777,0.20929 3.80306,0.52215 5.6845,0.89919 0.56346,-2.02786 0.009,-4.52641 -1.83459,-5.72158 -1.11765,-0.70493 -2.50914,-0.54222 -3.71854,-0.98615 -1.5848,-0.3808 -3.22479,-0.54864 -4.85316,-0.44854 z"
                 id="path135277"
                 inkscape:connector-curvature="0"
                 sodipodi:nodetypes="ccccccccc" />
            </g>
          </g>
        </g>
        <path
           style="fill:#484649;fill-opacity:1"
           d="m 587.59375,279.50748 c -12.18874,-0.0612 -16.95258,16.41884 -10.59375,25.28125 7.49286,11.35822 29.15943,6.5461 29.125,-7.8125 1.02897,-8.31753 -4.68813,-18.36767 -14,-17.4375 -1.50816,-0.0805 -3.02247,-0.0988 -4.53125,-0.0312 z"
           id="path135435"
           inkscape:connector-curvature="0" />
        <path
           style="fill:#757c97;fill-opacity:1"
           d="m 588.84375,281.26197 c -10.71716,-0.17198 -11.77611,17.65593 -1.625,19.71875 7.8013,2.27958 16.27085,-6.0826 12.4375,-13.8125 -1.61503,-4.99616 -5.94314,-6.39711 -10.8125,-5.90625 z"
           id="path135458"
           inkscape:connector-curvature="0" />
        <path
           style="fill:#c4c5da;fill-opacity:1"
           d="m 590.27676,281.16822 c -6.90013,0.63408 -5.73239,13.3274 1.53125,12.25 6.70342,0.0638 8.74722,-11.40728 1.5,-12.1875 -1.00502,-0.11239 -2.02568,-0.009 -3.03125,-0.0625 z"
           id="path135479"
           inkscape:connector-curvature="0" />
        <path
           id="path135663"
           style="fill:#0a0a08"
           d="m 551.43113,262.59369 0,-9.22695 c -5.73335,-1.88073 -23.80584,0.3984 -31.82168,10.52552 -1.87305,3.32043 0,10.52551 0,10.52551 0,0 5.27783,-5.42704 10.84008,-8.02954 13.61453,-6.86925 20.9816,-3.79454 20.9816,-3.79454 z m -9.93118,-27.95691 c -8.2538,0.78955 -17.75472,-0.99596 -21.8905,8.20445 -1.64114,3.89725 0,10.52551 0,10.52551 0,0 5.26369,-6.14049 8.88645,-7.79141 3.62276,-1.65093 9.48584,-1.40598 13.9103,-0.1341 4.42445,1.27188 9.02493,7.92551 9.02493,7.92551 0,7.01702 -1,18.85103 -1,18.85103 0,0 -16.06695,6.07847 -20.22326,12.75179 -3.70544,5.94939 -2.7005,14.51352 0,20.97208 1.91672,4.58408 6.67931,8.90648 10.62493,10.52551 3.94562,1.61904 10.59837,0 10.59837,0 0,0 -2.10197,-2.91545 -5.66764,-7.27204 -3.56569,-4.35661 -3.69866,-2.05575 -4.76452,-14.03372 -1.06585,-11.97797 19.6571,-14.01815 19.6571,-14.01815 l 1.4,-6.72551 -0.0797,-25.49806 c 0,0 -12.22267,-15.07244 -20.47647,-14.28289 z"
           inkscape:connector-curvature="0"
           sodipodi:nodetypes="cccccccccssccssscssccccc" />
        <g
           id="g135749"
           transform="translate(-1.1313708,-19.233304)">
          <path
             inkscape:connector-curvature="0"
             id="path135673"
             d="m 660.22499,318.97364 c -6.18254,-4.77475 -19.88455,-13.41664 -27.28019,-20.15965 -7.39564,-6.74299 -9.71747,-12.4278 -9.71747,-12.4278 0,0 -13.22657,-7.19627 -10.26881,1.65866 0.84102,2.51782 3.18952,7.61946 4.9318,11.68501 3.77225,8.80242 22.43,20.72674 30.48701,23.75614 8.05701,3.0294 15.29742,10.73517 15.29742,10.73517 0,0 2.73279,-10.47277 -3.44976,-15.24753 z"
             style="fill:#0a0a08" />
          <path
             sodipodi:nodetypes="scscss"
             inkscape:connector-curvature="0"
             id="path135671"
             d="m 644.6741,286.69287 c -7.04411,-3.31647 -13.66565,-1.35152 -13.66565,-1.35152 0,0 23.21169,25.11424 32.8861,28.80203 9.67441,3.68782 14.17987,1.56921 14.17987,1.56921 0,0 -5.58284,-4.33679 -10.90257,-10.08651 -5.31972,-5.74973 -15.45363,-15.61675 -22.49775,-18.93321 z"
             style="fill:#0a0a08" />
          <path
             inkscape:connector-curvature="0"
             id="path2650-8"
             d="m 647.80298,274.2201 c 0,0 -4.74343,5.11975 -5.22356,7.39947 -0.48013,2.27972 4.57167,1.18804 17.66505,7.36417 10.35337,6.7812 18.25499,13.27745 18.25499,13.27745 0,0 0.83135,-7.34184 -2.11497,-12.11496 -2.94633,-4.77313 -6.26496,-8.48242 -9.97496,-10 -3.71001,-1.51761 -18.60655,-5.92613 -18.60655,-5.92613 z"
             style="fill:#0a0a08" />
        </g>
        <g
           transform="translate(181.58478,-4.1012779)"
           id="g135721">
          <path
             d="m 382.2942,290.73792 c 1.76377,-1.76377 5.72674,-1.76553 7.49051,0 1.76377,1.76553 1.75804,5.72102 -0.007,7.48302 -1.76553,1.76201 -5.72102,1.75628 -7.48302,-0.007 -1.762,-1.76377 -1.76377,-5.71176 0,-7.47553 z"
             id="path3228-7"
             inkscape:connector-curvature="0"
             style="fill:#b90100"
             sodipodi:nodetypes="zzzzz" />
          <path
             d="m 427.52497,290.73792 c 1.76465,-1.76642 5.74484,-1.77662 7.498,-0.007 1.75317,1.76912 1.68096,5.69673 -0.0749,7.44557 -1.75586,1.74884 -5.66107,1.79634 -7.4231,0.0449 -1.76203,-1.75139 -1.76466,-5.71661 0,-7.48302 z"
             id="path3236-5"
             inkscape:connector-curvature="0"
             style="fill:#b90100"
             sodipodi:nodetypes="zzzzz" />
        </g>
      </g>
    </g>
  </g>
</svg>
