<?xml version="1.0" encoding="UTF-8" standalone="no"?>
<!-- Created with Inkscape (http://www.inkscape.org/) -->

<svg
   xmlns:dc="http://purl.org/dc/elements/1.1/"
   xmlns:cc="http://creativecommons.org/ns#"
   xmlns:rdf="http://www.w3.org/1999/02/22-rdf-syntax-ns#"
   xmlns:svg="http://www.w3.org/2000/svg"
   xmlns="http://www.w3.org/2000/svg"
   xmlns:xlink="http://www.w3.org/1999/xlink"
   xmlns:sodipodi="http://sodipodi.sourceforge.net/DTD/sodipodi-0.dtd"
   xmlns:inkscape="http://www.inkscape.org/namespaces/inkscape"
   width="200.07851"
   height="200.35072"
   id="svg7343"
   version="1.1"
   inkscape:version="0.48.1 "
   sodipodi:docname="New document 28">
  <defs
     id="defs7345">
    <linearGradient
       gradientTransform="matrix(1.25,0,0,1.25,-2116.0384,469.78539)"
       y2="25.21118"
       x2="1992.6268"
       y1="14.458639"
       x1="1992.6268"
       gradientUnits="userSpaceOnUse"
       id="linearGradient7803"
       xlink:href="#linearGradient7780-3"
       inkscape:collect="always" />
    <linearGradient
       inkscape:collect="always"
       id="linearGradient7780-3">
      <stop
         style="stop-color:#8b9095;stop-opacity:1"
         offset="0"
         id="stop7782-3" />
      <stop
         style="stop-color:#484649;stop-opacity:1"
         offset="1"
         id="stop7784-6" />
    </linearGradient>
    <radialGradient
       inkscape:collect="always"
       xlink:href="#linearGradient7666"
       id="radialGradient7672"
       cx="2253.2456"
       cy="48.94949"
       fx="2253.2456"
       fy="48.94949"
       r="87.899971"
       gradientTransform="matrix(2.2098023,0,2.33512e-6,0.58264354,-4604.7637,489.36416)"
       gradientUnits="userSpaceOnUse" />
    <linearGradient
       id="linearGradient7666">
      <stop
         style="stop-color:#f0f0ef;stop-opacity:1"
         offset="0"
         id="stop7668" />
      <stop
         id="stop7676"
         offset="0.21171091"
         style="stop-color:#f0f0ef;stop-opacity:1" />
      <stop
         id="stop7674"
         offset="0.53207099"
         style="stop-color:#b8b8b8;stop-opacity:1" />
      <stop
         style="stop-color:#8b9095;stop-opacity:1"
         offset="1"
         id="stop7670" />
    </linearGradient>
    <linearGradient
       inkscape:collect="always"
       xlink:href="#linearGradient7750"
       id="linearGradient7756"
       x1="1913.89"
       y1="94.221214"
       x2="2027.8885"
       y2="94.221214"
       gradientUnits="userSpaceOnUse" />
    <linearGradient
       id="linearGradient7750">
      <stop
         style="stop-color:#6d7277;stop-opacity:1"
         offset="0"
         id="stop7752" />
      <stop
         id="stop7760"
         offset="0.22175841"
         style="stop-color:#b8b8b8;stop-opacity:1" />
      <stop
         id="stop7758"
         offset="0.78224522"
         style="stop-color:#b8b8b8;stop-opacity:1" />
      <stop
         style="stop-color:#6d7277;stop-opacity:1"
         offset="1"
         id="stop7754" />
    </linearGradient>
    <linearGradient
       inkscape:collect="always"
       xlink:href="#linearGradient7750"
       id="linearGradient7316"
       x1="1913.89"
       y1="94.221214"
       x2="2027.8885"
       y2="94.221214"
       gradientUnits="userSpaceOnUse" />
    <linearGradient
       id="linearGradient7318">
      <stop
         style="stop-color:#6d7277;stop-opacity:1"
         offset="0"
         id="stop7320" />
      <stop
         id="stop7322"
         offset="0.22175841"
         style="stop-color:#b8b8b8;stop-opacity:1" />
      <stop
         id="stop7324"
         offset="0.78224522"
         style="stop-color:#b8b8b8;stop-opacity:1" />
      <stop
         style="stop-color:#6d7277;stop-opacity:1"
         offset="1"
         id="stop7326" />
    </linearGradient>
    <linearGradient
       y2="94.221214"
       x2="2027.8885"
       y1="94.221214"
       x1="1913.89"
       gradientUnits="userSpaceOnUse"
       id="linearGradient7341"
       xlink:href="#linearGradient7750"
       inkscape:collect="always" />
    <linearGradient
       inkscape:collect="always"
       xlink:href="#linearGradient7750"
       id="linearGradient7428"
       gradientUnits="userSpaceOnUse"
       x1="1913.89"
       y1="94.221214"
       x2="2027.8885"
       y2="94.221214" />
    <linearGradient
       inkscape:collect="always"
       xlink:href="#linearGradient7750"
       id="linearGradient7430"
       gradientUnits="userSpaceOnUse"
       x1="1913.89"
       y1="94.221214"
       x2="2027.8885"
       y2="94.221214" />
    <radialGradient
       inkscape:collect="always"
       xlink:href="#linearGradient7666"
       id="radialGradient7432"
       gradientUnits="userSpaceOnUse"
       gradientTransform="matrix(2.2098023,0,2.33512e-6,0.58264354,-4604.7637,489.36416)"
       cx="2253.2456"
       cy="48.94949"
       fx="2253.2456"
       fy="48.94949"
       r="87.899971" />
    <linearGradient
       inkscape:collect="always"
       xlink:href="#linearGradient7780-3"
       id="linearGradient7434"
       gradientUnits="userSpaceOnUse"
       gradientTransform="matrix(1.25,0,0,1.25,-2116.0384,469.78539)"
       x1="1992.6268"
       y1="14.458639"
       x2="1992.6268"
       y2="25.21118" />
    <linearGradient
       y2="22.401928"
       x2="106.24998"
       y1="22.901928"
       x1="143.49998"
       gradientTransform="matrix(0.93280072,0,0,0.93280064,1251.0679,502.31794)"
       gradientUnits="userSpaceOnUse"
       id="linearGradient6774"
       xlink:href="#linearGradient5507-3-3-6-5"
       inkscape:collect="always" />
    <linearGradient
       id="linearGradient5507-3-3-6-5">
      <stop
         style="stop-color:#ff0000;stop-opacity:1;"
         offset="0"
         id="stop5509-1-5-0-9" />
      <stop
         style="stop-color:#ff6600;stop-opacity:1"
         offset="1"
         id="stop5511-9-8-9-9" />
    </linearGradient>
    <linearGradient
       y2="22.401928"
       x2="106.24998"
       y1="22.901928"
       x1="143.49998"
       gradientTransform="matrix(0.93280072,0,0,0.93280064,1251.0679,502.31794)"
       gradientUnits="userSpaceOnUse"
       id="linearGradient7450"
       xlink:href="#linearGradient5507-3-3-6-5"
       inkscape:collect="always" />
    <linearGradient
       id="linearGradient7452">
      <stop
         style="stop-color:#ff0000;stop-opacity:1;"
         offset="0"
         id="stop7454" />
      <stop
         style="stop-color:#ff6600;stop-opacity:1"
         offset="1"
         id="stop7456" />
    </linearGradient>
    <linearGradient
       y2="22.401928"
       x2="106.24998"
       y1="22.901928"
       x1="143.49998"
       gradientTransform="matrix(1.1660009,0,0,1.1660008,222.48498,511.34142)"
       gradientUnits="userSpaceOnUse"
       id="linearGradient7460"
       xlink:href="#linearGradient5507-3-3-6-5"
       inkscape:collect="always" />
  </defs>
  <sodipodi:namedview
     id="base"
     pagecolor="#ffffff"
     bordercolor="#666666"
     borderopacity="1.0"
     inkscape:pageopacity="0.0"
     inkscape:pageshadow="2"
     inkscape:zoom="3.1773437"
     inkscape:cx="141.36628"
     inkscape:cy="76.163497"
     inkscape:document-units="px"
     inkscape:current-layer="layer1"
     showgrid="false"
     fit-margin-top="0"
     fit-margin-left="0"
     fit-margin-right="0"
     fit-margin-bottom="0"
     inkscape:window-width="1280"
     inkscape:window-height="780"
     inkscape:window-x="-8"
     inkscape:window-y="-8"
     inkscape:window-maximized="1" />
  <metadata
     id="metadata7348">
    <rdf:RDF>
      <cc:Work
         rdf:about="">
        <dc:format>image/svg+xml</dc:format>
        <dc:type
           rdf:resource="http://purl.org/dc/dcmitype/StillImage" />
        <dc:title></dc:title>
      </cc:Work>
    </rdf:RDF>
  </metadata>
  <g
     inkscape:label="Layer 1"
     inkscape:groupmode="layer"
     id="layer1"
     transform="translate(-274.96078,-432.18682)">
    <g
       id="g7489">
      <text
         xml:space="preserve"
         style="font-size:46.64002228px;font-style:normal;font-weight:normal;line-height:125%;letter-spacing:0px;word-spacing:0px;fill:url(#linearGradient7460);fill-opacity:1;stroke:none;font-family:StoneSerITCStd Medium;-inkscape-font-specification:StoneSerITCStd Medium"
         x="332.96371"
         y="539.50256"
         id="text5503-8-3"
         sodipodi:linespacing="125%"><tspan
           sodipodi:role="line"
           id="tspan5505-1-2"
           x="332.96371"
           y="539.50256"
           style="font-size:6.99600458px;fill:url(#linearGradient7460);fill-opacity:1">Created by Falzar FZ</tspan></text>
      <path
         style="fill:#dddddd;fill-opacity:1;stroke:none"
         d="m 427.46622,593.40408 -103.78212,-0.68469 6.10787,39.58673 90.61037,0.17214 z"
         id="path7638-8"
         inkscape:connector-curvature="0"
         sodipodi:nodetypes="ccccc" />
      <path
         style="fill:#cd9bc4;fill-opacity:1"
         d="m 312.56247,432.49439 -37.53112,37.53125 0,124.87502 199.93737,0 0,-124.87502 -37.53125,-37.5 z"
         id="path1978-1-4"
         inkscape:connector-curvature="0"
         sodipodi:nodetypes="ccccccc" />
      <g
         id="g7718"
         transform="matrix(1.25,0,0,1.25,-2088.5961,482.36221)"
         style="fill:url(#linearGradient7430);fill-opacity:1">
        <path
           id="path1936-4-3-8"
           style="fill:url(#linearGradient7428);fill-opacity:1"
           d="m 2041.131,89.802929 -30.3337,0.262842 c 0,0 -1.124,10.178069 -9.8996,29.071889 14.3424,5.51892 41.9504,-12.79226 40.2333,-29.334731 z m -140.5081,-0.09664 30.3337,0.262842 c 0,0 1.124,10.178069 9.8996,29.071889 -14.3424,5.51892 -41.9504,-12.79226 -40.2333,-29.334731 z"
           inkscape:connector-curvature="0" />
      </g>
      <g
         id="g6812"
         transform="matrix(1.25,0,0,1.25,-1835.1541,470.41087)">
        <g
           style="fill:#202020;fill-opacity:1"
           transform="translate(175.03309,0)"
           id="g6562">
          <g
             id="g7589" />
        </g>
        <path
           sodipodi:nodetypes="cscsccscscccsccscccsccsccccccccccccccsccccccccscccccccccccccccccccccccccccccccccccc"
           id="path5661-7-0-2-2-6"
           style="fill:#202020;fill-opacity:1;stroke:none"
           d="m 1731.5417,10.43337 c 5.7136,9.134748 5.4797,13.79471 1.375,17.85 -8.6557,8.551581 -1.8695,22.736214 9.775,23.025 -12.3684,-4.999379 -6.1012,-18.467464 1.05,-23.35 8.639,-5.898237 -2.45,-14.539218 -12.2,-17.525 z m 72.975,0.225 c -9.7498,2.985782 -20.8139,11.626763 -12.175,17.525 7.1512,4.882536 13.3934,18.350621 1.0251,23.35 11.6445,-0.288786 18.4306,-14.473419 9.7749,-23.025 -4.1047,-4.05529 -4.3384,-8.715252 1.375,-17.85 z m 3.4584,49.082208 0.058,19.767432 c 0,0 -0.2818,9.84322 -39.9484,9.80454 -39.6665,-0.0387 -40.0242,-9.90601 -40.0242,-9.90601 l 0.078,-19.589722 c 0,0 -2.4772,-10.24106 38.7633,-10.24106 41.2405,0 41.0733,10.16482 41.0733,10.16482 z m -69.9966,3.771304 c 0.014,6.712944 0.028,6.43664 0.043,13.149576 0,0 -1.415,-3.389968 29.0087,-3.389968 30.4236,0 31.1279,3.114208 31.1279,3.114208 l -0.054,-12.850936 c 0,0 -0.2123,-3.89452 -30.5172,-3.89452 -30.305,0 -29.6083,3.87164 -29.6083,3.87164 z m -29.811,55.963038 -0.1274,-9.88246 119.9692,0.0625 -0.01,9.82185 z m -20.0756,-19.901832 0.1222,-10.167228 19.9336,0.0817 -0.1014,-19.859374 -19.8042,-0.03056 -0.1352,-49.892202 19.7064,-0.315478 c 0,0 0.1692,-10.5486142 4.8146,-15.1851209 4.727,-4.71799402 15.3762,-4.62359602 15.3762,-4.62359602 l 0.175,-30.02387008 29.8782,-0.136596 0.092,30.24650208 19.7524,-0.390978 0.1461,-29.59054108 29.6963,-0.201492 0.2354,29.84877408 c 0,0 9.5047,2.95368602 14.2119,7.57867872 4.7071,4.6249932 6.1355,12.5488082 6.1355,12.5488082 l 19.4066,0.18397 0.3378,50.076909 -19.8734,0.024 -0.1281,19.580266 20.0849,0.55771 -0.3216,9.710168 z m 116.3222,-6.481482 c 16.3098,-6.507056 13.4725,-13.318876 13.4725,-13.318876 l -0.099,-50.161285 c 0,0 -0.1607,-12.032623 -3.3655,-15.596707 -3.2047,-3.564084 -16.0185,-4.7005822 -16.0185,-4.7005822 l -0.5168,-29.5553098 -9.9728,-0.277089 0.086,29.9507768 -39.9239,-0.06642 -0.3113,-29.5999218 -9.7878,-0.217859 -0.07,29.9817418 c 0,0 -12.5829,0.6458432 -15.8297,3.9017432 -3.2467,3.2559 -3.6505,15.633658 -3.6505,15.633658 l 0.1641,51.22682 c 0,0 -2.9351,7.14275 12.7441,13.57187 23.2842,7.303854 54.3655,7.361304 73.079,-0.77256 z m 23.5993,-33.549364 10.0663,0.05456 -0.093,-29.95599 -9.8303,0.04124 z m -129.8536,0.03792 9.9284,-0.02808 -0.048,-29.807787 -10.0623,-0.085 z"
           inkscape:connector-curvature="0" />
        <g
           id="g7607"
           transform="translate(-206.8643,-22.127417)">
          <path
             inkscape:connector-curvature="0"
             id="path7599"
             d="m 1935.0536,61.418955 c -0.037,-0.03666 -0.066,-2.286667 -0.066,-5 l 0,-4.933334 10,0 10,0 0,5 0,5 -9.9334,0 c -5.4633,0 -9.9633,-0.03 -10,-0.06666 z"
             style="fill:#f60200;fill-opacity:1;stroke:none" />
          <path
             inkscape:connector-curvature="0"
             id="path7601"
             d="m 1995.0536,61.418955 c -0.037,-0.03666 -0.066,-2.286667 -0.066,-5 l 0,-4.933334 10,0 10,0 0,5 0,5 -9.9334,0 c -5.4633,0 -9.9633,-0.03 -10,-0.06666 z"
             style="fill:#f60200;fill-opacity:1;stroke:none" />
        </g>
      </g>
      <path
         style="fill:url(#radialGradient7432);fill-opacity:1;stroke:none"
         d="m 399.8074,444.57178 -0.18761,0.15625 -0.031,0.0312 0,37.22948 c -16.4425,-0.14269 -32.90409,0.0858 -49.34379,-0.26073 -0.3895,-12.19354 -0.2916,-24.39767 -0.5624,-36.59375 -1.2065,-0.56525 -2.8689,-0.10186 -4.2188,-0.3125 -2.7265,-0.0559 -5.4609,-0.10591 -8.1875,-0.15625 -0.4856,1.64461 -0.043,3.65133 -0.1875,5.4375 l 0,31.96875 c -6.2919,0.81592 -12.9702,1.1032 -18.6562,4.15625 -3.1555,2.17345 -3.7574,6.38473 -4.5313,9.875 -1.5698,8.13511 -0.8914,16.45319 -1.0937,24.6875 -0.01,17.98073 4e-4,35.96201 0.062,53.9375 2.3968,6.12139 8.3946,9.67278 14.0938,12.25 6.5415,2.70627 13.5956,3.99235 20.5312,5.3125 18.6535,3.12626 37.87409,3.34794 56.4688,-0.3125 9.6015,-2.12524 19.25219,-5.21986 27.375,-10.875 3.3328,-2.44431 6.64919,-6.11634 6.15619,-10.5625 -0.056,-22.5549 -0.13749,-45.10512 -0.53119,-67.65625 -0.5751,-5.03593 -0.8691,-10.5366 -3.84381,-14.84375 -2.7797,-2.88756 -6.9845,-3.66087 -10.71869,-4.65625 -3.067,-0.72246 -6.20531,-1.06822 -9.3125,-1.5625 -0.363,-12.20461 -0.31121,-24.43143 -0.8125,-36.625 -1.3442,-0.56073 -3.0908,-0.21153 -4.5625,-0.40625 -2.6429,-0.0913 -5.263,-0.14352 -7.9062,-0.21875 z m -70.0313,39.25 0.2187,0.0625 0.031,0.0312 c 6.3655,2.32299 13.0013,5.58873 16.8125,11.34375 1.7352,2.50309 1.8335,6.17529 -0.5938,8.28125 -1.0452,1.15389 -2.4998,1.95123 -3.4062,3.21875 0.347,0.70478 1.6502,0.28506 2.3438,0.46875 1.5545,0.0253 3.1015,-0.003 4.6562,0 l 0,12.09375 -15,0 c -0.8264,1.85897 -0.4785,4.16818 -0.2812,6.1875 0.9322,4.42109 4.8034,7.98062 9.0312,9.15625 14.5038,-2.30285 29.2899,-2.33006 43.93749,-1.65625 6.4771,0.32255 12.9027,0.99997 19.2813,2.1875 0.46951,-0.0987 0.3786,-0.78458 1,-0.8125 3.63501,-1.70999 6.88381,-5.06143 7.5,-9.125 -0.041,-1.82132 0.29281,-3.79199 -0.25,-5.53125 -1.63189,-0.73296 -3.625,-0.19931 -5.375,-0.40625 l -9.4376,0 0,-12.09375 c 2.2713,-0.0714 4.6079,0.11145 6.8438,-0.0937 -1.0001,-1.34993 -2.79889,-2.32241 -3.9062,-3.75 -2.55839,-2.62096 -1.52469,-6.85621 0.75,-9.28125 4.17881,-4.88535 10.0537,-7.9165 16.0312,-9.9375 -2.6514,4.85824 -5.9576,10.26274 -4.8438,16.0625 0.6155,2.77361 2.5839,5.0182 4.5,7 l 5.2188,0 0,12.09375 c -1.09319,-0.3384 -1.7386,0.6129 -1.7812,1.59375 -1.43289,6.60647 -7.0158,12.09489 -13.6563,13.375 -0.54779,0.0244 -1.76,0.7282 -0.7813,1.15625 4.3167,1.45572 8.982,2.49863 12.6876,5.28125 1.68961,1.33622 3.70111,3.07801 3.2812,5.46875 -0.1124,7.923 0.2397,15.88454 -0.2188,23.78125 -0.139,2.54838 -2.762,3.8188 -4.5937,5.0625 -7.351,3.94862 -15.9193,4.96461 -24.125,5.90625 -11.2772,1.09154 -22.64599,1.00542 -33.96869,0.5625 -9.8495,-0.68605 -20.0135,-1.59022 -29.2188,-5.40625 -2.578,-1.23695 -5.3847,-2.66209 -6.875,-5.21875 -0.7679,-4.10201 -0.2287,-8.39415 -0.375,-12.5625 0.1606,-5.03327 -0.2735,-10.14486 0.4375,-15.125 0.9512,-2.53235 3.7318,-3.76433 5.9687,-4.96875 3.1787,-1.60867 6.6308,-2.37007 10.0313,-3.28125 0.6147,-0.68701 -0.9011,-0.83127 -1.3437,-0.96875 -6.6355,-1.29844 -12.1522,-6.67883 -13.5938,-13.3125 -0.1112,-0.73511 -0.5718,-1.60158 -1.4688,-1.34375 l 0,-12.09375 c 1.6081,-0.0539 3.2666,0.12227 4.8438,-0.0625 2.2202,-2.56914 4.7842,-5.35118 4.7812,-8.96875 0.1033,-5.24386 -2.6414,-9.96255 -5.0937,-14.375 z m -32.4687,23.46875 c -0.9345,0.0279 -1.8882,0.10317 -2.7813,0.0312 l -7.3125,0 -0.1875,0.1875 -0.031,0.0312 c 0.2479,12.41508 0.3856,24.83243 0.3438,37.25 1.6446,0.48562 3.6513,0.0437 5.4375,0.1875 l 7.3437,0 c 0.4736,-1.56093 0,-3.48494 0.125,-5.1875 -0.1156,-10.74982 -0.2674,-21.4993 -0.25,-32.25 -0.8222,-0.24281 -1.753,-0.2779 -2.6874,-0.25 z m 162.5,0 c -0.9345,0.0279 -1.8882,0.10317 -2.7813,0.0312 l -7,0 -0.15631,0.1875 -0.031,0.0312 c -0.041,12.41401 0.12241,24.81054 -0.3438,37.21875 1.5501,0.50398 3.5179,0.0696 5.2188,0.21875 l 7.9062,0 c 0.441,-1.51701 -0.1035,-3.37394 0,-5.03125 -0.1864,-10.80093 -0.1064,-21.6042 -0.125,-32.40625 -0.8222,-0.24281 -1.753,-0.2779 -2.68739,-0.25 z m -91.2188,37.6875 c -9.1818,0.0881 -18.4833,0.18169 -27.4375,2.40625 -1.4716,0.44201 -3.0033,1.02503 -4.0625,2.15625 0.1054,5.37062 -0.2299,10.77186 0.1562,16.125 0.1454,2.03799 2.7629,1.95226 4.2188,2.46875 10.5945,1.93235 22.07,-4.96041 32.8019,-4.7731 11.46759,-0.0919 22.37089,6.6545 33.6981,4.7106 1.6278,-0.38985 3.4931,-0.66752 4.65619,-1.96875 -0.076,-5.39455 0.3141,-10.85146 -0.094,-16.21875 -0.7737,-1.70174 -3.00779,-1.96788 -4.5937,-2.53125 -12.87649,-2.92443 -26.2301,-2.28352 -39.34379,-2.375 z"
         id="path7638"
         inkscape:connector-curvature="0"
         sodipodi:nodetypes="ccccccccccccccccccccccccccccccccccccccccccccccccccccccccccccccccccccccccccccscccccccccsscccccccccscccccccccccccccc" />
      <path
         inkscape:connector-curvature="0"
         id="path7599-8"
         d="m 387.39822,481.98908 c 0,4.16666 0,25.05114 0,25.05114 l -24.91675,-0.0833 -7.5e-4,-12.55116 c -0.125,-4.37719 -0.0825,-7.71412 -0.0825,-12.41666"
         style="fill:url(#linearGradient7434);fill-opacity:1;stroke:none"
         sodipodi:nodetypes="ccccc" />
    </g>
  </g>
</svg>
