<?xml version="1.0" encoding="UTF-8" standalone="no"?>
<!-- Created with Inkscape (http://www.inkscape.org/) -->

<svg
   xmlns:dc="http://purl.org/dc/elements/1.1/"
   xmlns:cc="http://creativecommons.org/ns#"
   xmlns:rdf="http://www.w3.org/1999/02/22-rdf-syntax-ns#"
   xmlns:svg="http://www.w3.org/2000/svg"
   xmlns="http://www.w3.org/2000/svg"
   xmlns:xlink="http://www.w3.org/1999/xlink"
   xmlns:sodipodi="http://sodipodi.sourceforge.net/DTD/sodipodi-0.dtd"
   xmlns:inkscape="http://www.inkscape.org/namespaces/inkscape"
   width="199.93738"
   height="199.93753"
   id="svg6409"
   version="1.1"
   inkscape:version="0.48.1 "
   sodipodi:docname="New document 12">
  <defs
     id="defs6411">
    <linearGradient
       inkscape:collect="always"
       xlink:href="#linearGradient6500"
       id="linearGradient6174"
       gradientUnits="userSpaceOnUse"
       x1="1759.9928"
       y1="714.29175"
       x2="1862.8016"
       y2="588.28973" />
    <linearGradient
       id="linearGradient6500">
      <stop
         id="stop6502"
         offset="0"
         style="stop-color:#23540b;stop-opacity:1" />
      <stop
         style="stop-color:#78b401;stop-opacity:1"
         offset="0.3810375"
         id="stop6512" />
      <stop
         style="stop-color:#78b401;stop-opacity:1"
         offset="0.66503775"
         id="stop6510" />
      <stop
         id="stop6504"
         offset="1"
         style="stop-color:#78b401;stop-opacity:1" />
    </linearGradient>
    <linearGradient
       inkscape:collect="always"
       xlink:href="#linearGradient6362"
       id="linearGradient6176"
       gradientUnits="userSpaceOnUse"
       x1="1722.8271"
       y1="629.40387"
       x2="1764.4479"
       y2="673.75385" />
    <linearGradient
       inkscape:collect="always"
       id="linearGradient6362">
      <stop
         style="stop-color:#548301;stop-opacity:1"
         offset="0"
         id="stop6364" />
      <stop
         style="stop-color:#a8d800;stop-opacity:1"
         offset="1"
         id="stop6366" />
    </linearGradient>
    <linearGradient
       inkscape:collect="always"
       xlink:href="#linearGradient6473"
       id="linearGradient6178"
       gradientUnits="userSpaceOnUse"
       x1="1824.491"
       y1="682.28271"
       x2="1837.1136"
       y2="675.45966" />
    <linearGradient
       inkscape:collect="always"
       id="linearGradient6473">
      <stop
         style="stop-color:#a8d800;stop-opacity:1"
         offset="0"
         id="stop6475" />
      <stop
         style="stop-color:#78b401;stop-opacity:1"
         offset="1"
         id="stop6477" />
    </linearGradient>
    <linearGradient
       inkscape:collect="always"
       xlink:href="#linearGradient8348"
       id="linearGradient6188"
       gradientUnits="userSpaceOnUse"
       x1="1471.1381"
       y1="441.5036"
       x2="1521.2329"
       y2="428.63773" />
    <linearGradient
       id="linearGradient8348">
      <stop
         style="stop-color:#fefe43;stop-opacity:0.76576579;"
         offset="0"
         id="stop8350" />
      <stop
         style="stop-color:#ccff01;stop-opacity:0.91891891;"
         offset="1"
         id="stop8352" />
    </linearGradient>
    <linearGradient
       inkscape:collect="always"
       xlink:href="#linearGradient6550"
       id="linearGradient6180"
       gradientUnits="userSpaceOnUse"
       x1="1569.0841"
       y1="500.94043"
       x2="1581.1458"
       y2="492.0148" />
    <linearGradient
       inkscape:collect="always"
       id="linearGradient6550">
      <stop
         style="stop-color:#a8d800;stop-opacity:1"
         offset="0"
         id="stop6552" />
      <stop
         style="stop-color:#fefe01;stop-opacity:1"
         offset="1"
         id="stop6554" />
    </linearGradient>
    <linearGradient
       inkscape:collect="always"
       xlink:href="#linearGradient8348"
       id="linearGradient6182"
       gradientUnits="userSpaceOnUse"
       x1="1471.1381"
       y1="441.5036"
       x2="1517.6743"
       y2="430.00644" />
    <linearGradient
       id="linearGradient6371">
      <stop
         style="stop-color:#fefe43;stop-opacity:0.76576579;"
         offset="0"
         id="stop6373" />
      <stop
         style="stop-color:#ccff01;stop-opacity:0.91891891;"
         offset="1"
         id="stop6375" />
    </linearGradient>
    <radialGradient
       inkscape:collect="always"
       xlink:href="#linearGradient6394"
       id="radialGradient6184"
       gradientUnits="userSpaceOnUse"
       gradientTransform="matrix(1.4088284,1.0253911,-1.4456613,1.9862513,102.18542,-1985.3075)"
       cx="1468.4042"
       cy="485.89569"
       fx="1468.4042"
       fy="485.89569"
       r="6.0322061" />
    <linearGradient
       inkscape:collect="always"
       id="linearGradient6394">
      <stop
         style="stop-color:#fefe01;stop-opacity:1"
         offset="0"
         id="stop6396" />
      <stop
         style="stop-color:#89b900;stop-opacity:1"
         offset="1"
         id="stop6398" />
    </linearGradient>
    <radialGradient
       inkscape:collect="always"
       xlink:href="#linearGradient6394-3"
       id="radialGradient6186"
       gradientUnits="userSpaceOnUse"
       gradientTransform="matrix(1.4088284,1.0253911,-1.4456613,1.9862513,117.04537,-2001.9372)"
       cx="1468.4042"
       cy="485.89569"
       fx="1468.4042"
       fy="485.89569"
       r="6.0322061" />
    <linearGradient
       inkscape:collect="always"
       id="linearGradient6394-3">
      <stop
         style="stop-color:#fefe01;stop-opacity:1"
         offset="0"
         id="stop6396-9" />
      <stop
         style="stop-color:#89b900;stop-opacity:1"
         offset="1"
         id="stop6398-9" />
    </linearGradient>
    <linearGradient
       inkscape:collect="always"
       xlink:href="#linearGradient8356"
       id="linearGradient6190"
       gradientUnits="userSpaceOnUse"
       gradientTransform="translate(-44.907044,7.7425938)"
       x1="1603.0818"
       y1="504.46426"
       x2="1530.8138"
       y2="554.28534" />
    <linearGradient
       inkscape:collect="always"
       id="linearGradient8356">
      <stop
         style="stop-color:#a8d800;stop-opacity:1"
         offset="0"
         id="stop8358" />
      <stop
         style="stop-color:#fefe01;stop-opacity:0;"
         offset="1"
         id="stop8360" />
    </linearGradient>
    <linearGradient
       y2="22.401928"
       x2="106.24998"
       y1="22.901928"
       x1="143.49998"
       gradientTransform="matrix(2.1231312,0,0,2.1231309,1085.311,486.1885)"
       gradientUnits="userSpaceOnUse"
       id="linearGradient3053"
       xlink:href="#linearGradient5507-3-3"
       inkscape:collect="always" />
    <linearGradient
       id="linearGradient5507-3-3">
      <stop
         style="stop-color:#ff0000;stop-opacity:1;"
         offset="0"
         id="stop5509-1-5" />
      <stop
         style="stop-color:#ff6600;stop-opacity:1"
         offset="1"
         id="stop5511-9-8" />
    </linearGradient>
    <linearGradient
       y2="22.401928"
       x2="106.24998"
       y1="22.901928"
       x1="143.49998"
       gradientTransform="matrix(2.1231312,0,0,2.1231309,1085.311,486.1885)"
       gradientUnits="userSpaceOnUse"
       id="linearGradient6579"
       xlink:href="#linearGradient5507-3-3"
       inkscape:collect="always" />
    <linearGradient
       id="linearGradient6581">
      <stop
         style="stop-color:#ff0000;stop-opacity:1;"
         offset="0"
         id="stop6583" />
      <stop
         style="stop-color:#ff6600;stop-opacity:1"
         offset="1"
         id="stop6585" />
    </linearGradient>
    <linearGradient
       y2="22.401928"
       x2="106.24998"
       y1="22.901928"
       x1="143.49998"
       gradientTransform="matrix(1.5904493,0,0,1.590449,178.72958,627.70779)"
       gradientUnits="userSpaceOnUse"
       id="linearGradient6589"
       xlink:href="#linearGradient5507-3-3"
       inkscape:collect="always" />
    <linearGradient
       y2="22.401928"
       x2="106.24998"
       y1="22.901928"
       x1="143.49998"
       gradientTransform="matrix(1.2723594,0,0,1.2723592,1186.2517,511.09708)"
       gradientUnits="userSpaceOnUse"
       id="linearGradient6642"
       xlink:href="#linearGradient5507-3-3-6"
       inkscape:collect="always" />
    <linearGradient
       id="linearGradient5507-3-3-6">
      <stop
         style="stop-color:#ff0000;stop-opacity:1;"
         offset="0"
         id="stop5509-1-5-0" />
      <stop
         style="stop-color:#ff6600;stop-opacity:1"
         offset="1"
         id="stop5511-9-8-9" />
    </linearGradient>
    <linearGradient
       y2="22.401928"
       x2="106.24998"
       y1="22.901928"
       x1="143.49998"
       gradientTransform="matrix(1.2723594,0,0,1.2723592,1186.2517,511.09708)"
       gradientUnits="userSpaceOnUse"
       id="linearGradient6711"
       xlink:href="#linearGradient5507-3-3-6"
       inkscape:collect="always" />
    <linearGradient
       id="linearGradient6713">
      <stop
         style="stop-color:#ff0000;stop-opacity:1;"
         offset="0"
         id="stop6715" />
      <stop
         style="stop-color:#ff6600;stop-opacity:1"
         offset="1"
         id="stop6717" />
    </linearGradient>
    <linearGradient
       y2="22.401928"
       x2="106.24998"
       y1="22.901928"
       x1="143.49998"
       gradientTransform="matrix(1.1660009,0,0,1.1660008,220.66715,504.52551)"
       gradientUnits="userSpaceOnUse"
       id="linearGradient6721"
       xlink:href="#linearGradient5507-3-3-6"
       inkscape:collect="always" />
  </defs>
  <sodipodi:namedview
     id="base"
     pagecolor="#ffffff"
     bordercolor="#666666"
     borderopacity="1.0"
     inkscape:pageopacity="0.0"
     inkscape:pageshadow="2"
     inkscape:zoom="2.2467213"
     inkscape:cx="151.46828"
     inkscape:cy="114.83692"
     inkscape:document-units="px"
     inkscape:current-layer="layer1"
     showgrid="false"
     fit-margin-left="0"
     fit-margin-top="0"
     fit-margin-right="0"
     fit-margin-bottom="0"
     inkscape:window-width="1280"
     inkscape:window-height="780"
     inkscape:window-x="-8"
     inkscape:window-y="-8"
     inkscape:window-maximized="1" />
  <metadata
     id="metadata6414">
    <rdf:RDF>
      <cc:Work
         rdf:about="">
        <dc:format>image/svg+xml</dc:format>
        <dc:type
           rdf:resource="http://purl.org/dc/dcmitype/StillImage" />
        <dc:title></dc:title>
      </cc:Work>
    </rdf:RDF>
  </metadata>
  <g
     inkscape:label="Layer 1"
     inkscape:groupmode="layer"
     id="layer1"
     transform="translate(-275.03128,-432.39342)">
    <g
       id="g6829">
      <text
         xml:space="preserve"
         style="font-size:46.64002609px;font-style:normal;font-weight:normal;line-height:125%;letter-spacing:0px;word-spacing:0px;fill:url(#linearGradient6721);fill-opacity:1;stroke:none;font-family:StoneSerITCStd Medium;-inkscape-font-specification:StoneSerITCStd Medium"
         x="331.14584"
         y="532.68665"
         id="text5503-8"
         sodipodi:linespacing="125%"><tspan
           sodipodi:role="line"
           id="tspan5505-1"
           x="331.14584"
           y="532.68665"
           style="font-size:6.99600458px;fill:url(#linearGradient6721);fill-opacity:1">Created by Falzar FZ</tspan></text>
      <g
         transform="matrix(1.25,0,0,1.25,-1835.5106,-35.454467)"
         id="g6153">
        <path
           style="fill:#358468;fill-opacity:1"
           d="m 1718.4584,374.27831 -30.0249,30.025 0,99.90002 30.0249,30.025 99.9,0 30.025,-30.025 0,-99.90002 -30.025,-30 z"
           id="path1978-1-0-2"
           inkscape:connector-curvature="0"
           sodipodi:nodetypes="ccccccccc" />
        <g
           id="g6123"
           transform="translate(8.8700009,131.00309)">
          <g
             id="g6607"
             transform="translate(-32.325118,-202.63507)">
            <g
               id="g6558"
               transform="translate(-8.8700009,-131.00309)">
              <path
                 style="fill:#0a0a08"
                 d="m 1737.0952,635.8032 c -41.876,20.87897 30.2001,74.72352 35.9728,25.58927 5.4259,-20.25954 -19.3201,-33.8754 -35.9728,-25.58927 z"
                 id="path5658"
                 inkscape:connector-curvature="0" />
              <path
                 style="fill:#0a0a08"
                 d="m 1830.9402,667.45243 c -23.9216,23.23199 6.5515,47.04062 17.2636,9.38425 9.8592,-16.83499 -4.7375,-15.85421 -17.2636,-9.38425 z"
                 id="path2468-3-1"
                 inkscape:connector-curvature="0"
                 sodipodi:nodetypes="ccc" />
              <path
                 style="fill:#0a0a08;fill-opacity:1"
                 d="m 1811.1328,580.65848 c -22.119,7.31183 -38.6014,23.55197 -52.487,22.92382 -13.8856,-0.62815 -18.6597,-8.98613 -27.0025,-1.69397 -8.3428,7.29216 -5.8116,22.13652 7.2892,29.92805 13.1008,7.79153 38.9686,3.43471 49.4977,-7.22017 10.5291,-10.65488 16.7412,-13.57108 32.94,-8.40188 16.1988,5.1692 16.2573,11.2132 -5.5328,21.03755 -21.7901,9.82435 -46.7246,22.29726 -60.3971,41.46555 -13.6725,19.16829 2.9707,48.23613 25.72,49.33329 22.7493,1.09716 41.1005,0.8122 57.1324,-0.91612 16.0319,-1.72832 22.4096,-17.13221 27.9681,-28.17775 5.5585,-11.04554 11.9217,-18.75732 11.6906,-30.12139 -0.2311,-11.36407 -12.1409,-14.44605 -20.9987,-3.12557 -8.8578,11.32048 -26.1379,31.03534 -41.1146,34.97184 -14.9767,3.9365 -23.9331,-19.98953 -9.8008,-27.2691 14.1323,-7.27957 41.5779,-7.37799 55.1586,-18.43705 13.5807,-11.05906 17.5576,-22.24657 10.1253,-43.6267 -7.4323,-21.38013 -38.0694,-37.98223 -60.1884,-30.6704 z"
                 id="path1970-7-7-6"
                 inkscape:connector-curvature="0"
                 sodipodi:nodetypes="zzzzzzzzzzzzzzzzzz" />
              <path
                 style="fill:url(#linearGradient6174);fill-opacity:1"
                 d="m 1820.076,583.36792 c -24.1776,1.81649 -41.057,26.22019 -65.974,24.34516 -6.4298,-2.10508 -15.1631,-7.33018 -20.862,-0.82526 -6.1322,10.61109 4.549,23.6136 15.5602,24.34517 17.3087,4.32631 34.5478,-5.41728 46.2414,-17.61613 12.6213,-6.89368 29.8743,-3.53932 39.7477,6.76079 3.5408,6.33487 -1.7578,13.25408 -7.7903,15.4152 -18.3731,10.47233 -38.807,17.52516 -55.1409,31.43416 -9.3349,7.75668 -19.5252,19.7516 -15.1837,32.9469 4.5757,15.99785 21.7482,25.67244 37.8018,24.13266 16.4144,0.30068 33.7799,2.53844 49.4421,-3.2155 12.858,-6.99798 16.6866,-22.48726 23.256,-34.58542 3.5704,-6.26955 8.8102,-15.29112 3.4097,-21.91313 -6.8471,-3.75844 -12.5369,4.42152 -15.9367,9.2683 -10.6471,13.32939 -23.4147,27.84335 -40.7201,31.16943 -12.9993,2.75781 -21.7303,-12.74605 -18.5091,-24.24994 2.1755,-11.04963 14.8104,-13.35386 23.811,-15.90212 16.331,-3.7478 36.0615,-5.90068 46.3355,-20.98064 10.0051,-16.85237 1.1273,-39.00669 -13.5211,-49.83299 -9.0742,-7.02254 -20.4617,-11.04973 -31.9675,-10.69664 z"
                 id="path1970-7-7-6-8"
                 inkscape:connector-curvature="0" />
              <path
                 style="fill:url(#linearGradient6176);fill-opacity:1"
                 d="m 1745.0625,636.625 c -10.5658,0.48791 -21.1076,12.35931 -15.375,22.78125 5.1834,11.77436 20.1903,20.48248 32.5625,14.19269 11.9269,-9.59878 9.0381,-31.99312 -6.75,-35.75519 -3.3167,-1.19801 -6.9092,-1.4547 -10.4375,-1.21875 z"
                 id="path5658-5"
                 inkscape:connector-curvature="0"
                 sodipodi:nodetypes="ccccc" />
              <path
                 style="fill:url(#linearGradient6178);fill-opacity:1"
                 d="m 1844.8697,666.85413 c -10.8223,-0.22989 -21.9374,10.78252 -18.4062,21.625 1.7846,6.05849 9.3697,3.5849 11.75,-0.40625 4.0191,-5.98948 6.4118,-13.20965 8.9688,-19.875 0.048,-1.61784 -0.9578,-1.4581 -2.3126,-1.34375 z"
                 id="path2468-3-1-1"
                 inkscape:connector-curvature="0" />
              <g
                 transform="translate(312.56497,167.04352)"
                 id="g7998"
                 style="fill:#fefe01;fill-opacity:1">
                <g
                   id="g8342"
                   style="fill:url(#linearGradient6188);fill-opacity:1"
                   transform="translate(-44.907044,7.7425938)">
                  <path
                     inkscape:connector-curvature="0"
                     id="path7783"
                     d="m 1570.8439,492.72885 c -4.4976,5.09722 -1.1272,7.97701 4.8709,4.75987 5.3213,-2.63615 6.325,-6.15246 0.4023,-5.55076 -1.7798,0.0913 -3.5231,0.48361 -5.2732,0.79089 z"
                     style="fill:url(#linearGradient6180);fill-opacity:1;stroke:none"
                     sodipodi:nodetypes="cccc" />
                  <path
                     style="fill:url(#linearGradient6182);fill-opacity:1;stroke:none"
                     d="m 1485.9323,433.5989 c -10.7154,-4.53993 -16.3101,-3.82902 -18.3222,-1.52122 -3.5595,4.63936 -3.87,9.47024 -0.2913,14.51962 11.5989,12.43704 21.4626,5.27277 38.4171,-5.39601 47.569,-32.88108 69.361,-27.33985 69.361,-27.33985 0,0 -18.0053,-10.79341 -38.3592,-0.20614 -36.0709,20.57825 -39.1664,20.88027 -50.8054,19.9436 z"
                     id="path7594"
                     inkscape:connector-curvature="0"
                     sodipodi:nodetypes="ccccccc" />
                  <path
                     style="fill:url(#radialGradient6184);fill-opacity:1;stroke:none"
                     d="m 1464.2086,479.68103 c -4.3089,4.57603 2.4069,12.77655 8.1209,9.89252 3.1697,-2.95909 -0.014,-8.33094 -4.1663,-9.83135 -1.3105,-0.47354 -3.9546,-1.45244 -3.9546,-0.0612 z"
                     id="path7996"
                     inkscape:connector-curvature="0"
                     sodipodi:nodetypes="ccssc" />
                  <path
                     style="fill:url(#radialGradient6186);fill-opacity:1;stroke:none"
                     d="m 1478.2089,469.0442 c 1.0726,2.5501 3.2619,5.12049 6.09,5.18184 2.0913,0.0425 4.2742,-1.23266 4.8778,-3.30809 0.8712,-2.92659 -1.9179,-5.57921 -4.7647,-6.73893 -4.5319,-1.26853 -8.4412,-0.26829 -6.2031,4.86518 z"
                     id="path7996-6"
                     inkscape:connector-curvature="0"
                     sodipodi:nodetypes="ccccc" />
                </g>
                <path
                   sodipodi:nodetypes="cccc"
                   inkscape:connector-curvature="0"
                   id="path7992"
                   d="m 1554.8394,508.95946 c -16.4426,29.45967 -35.5201,42.0225 -64.8337,45.53829 8.7359,6.27268 33.659,1.49621 40.6765,-0.90235 12.1403,-6.38892 28.5978,-38.28535 24.1572,-44.63594 z"
                   style="fill:url(#linearGradient6190);fill-opacity:1;stroke:none" />
              </g>
              <path
                 style="fill:#8cc200;fill-opacity:0.75686275;stroke:none"
                 d="m 1799.7522,649.04761 c -8.6493,3.19755 -21.3646,13.98677 -23.2921,15.84375 17.0782,-5.24179 58.6633,-25.06697 64.2205,-31.64638 -12.1267,-0.37912 -31.4193,11.74187 -40.9284,15.80263 z"
                 id="path8452"
                 inkscape:connector-curvature="0"
                 sodipodi:nodetypes="cccc" />
            </g>
            <path
               sodipodi:nodetypes="ccc"
               inkscape:connector-curvature="0"
               id="path2584-0-3"
               d="m 1725.5272,508.55084 c -8.2854,14.17311 45.8903,45.94073 30.2753,26.35186 -3.2209,-3.94771 -24.7729,-28.06356 -30.2753,-26.35186 z"
               style="fill:#012f00;fill-opacity:1" />
          </g>
        </g>
      </g>
    </g>
  </g>
</svg>
