<?xml version="1.0" encoding="UTF-8" standalone="no"?>
<!-- Created with Inkscape (http://www.inkscape.org/) -->

<svg
   xmlns:dc="http://purl.org/dc/elements/1.1/"
   xmlns:cc="http://creativecommons.org/ns#"
   xmlns:rdf="http://www.w3.org/1999/02/22-rdf-syntax-ns#"
   xmlns:svg="http://www.w3.org/2000/svg"
   xmlns="http://www.w3.org/2000/svg"
   xmlns:xlink="http://www.w3.org/1999/xlink"
   xmlns:sodipodi="http://sodipodi.sourceforge.net/DTD/sodipodi-0.dtd"
   xmlns:inkscape="http://www.inkscape.org/namespaces/inkscape"
   width="200.33737"
   height="200.36874"
   id="svg75897"
   version="1.1"
   inkscape:version="0.48.1 "
   sodipodi:docname="New document 64">
  <defs
     id="defs75899">
    <linearGradient
       inkscape:collect="always"
       xlink:href="#linearGradient45653"
       id="linearGradient45659"
       x1="627.86084"
       y1="279.96216"
       x2="602.28235"
       y2="248.35529"
       gradientUnits="userSpaceOnUse" />
    <linearGradient
       inkscape:collect="always"
       id="linearGradient45653">
      <stop
         style="stop-color:#ff9f0f;stop-opacity:1"
         offset="0"
         id="stop45655" />
      <stop
         id="stop45661"
         offset="0.5280261"
         style="stop-color:#ffff9a;stop-opacity:1" />
      <stop
         style="stop-color:#ffd20a;stop-opacity:1"
         offset="1"
         id="stop45657" />
    </linearGradient>
    <linearGradient
       y2="313.19998"
       x2="973.59998"
       y1="389.20001"
       x1="962.40002"
       gradientUnits="userSpaceOnUse"
       id="linearGradient7728"
       xlink:href="#linearGradient7715"
       inkscape:collect="always" />
    <linearGradient
       id="linearGradient7715"
       inkscape:collect="always">
      <stop
         id="stop7717"
         offset="0"
         style="stop-color:#100000;stop-opacity:1" />
      <stop
         id="stop7719"
         offset="1"
         style="stop-color:#380000;stop-opacity:1" />
    </linearGradient>
    <linearGradient
       inkscape:collect="always"
       xlink:href="#linearGradient5507-3-3-6-1"
       id="linearGradient6516"
       gradientUnits="userSpaceOnUse"
       gradientTransform="matrix(0.93280072,0,0,0.93280064,1220.9578,512.2297)"
       x1="143.49998"
       y1="22.901928"
       x2="106.24998"
       y2="22.401928" />
    <linearGradient
       id="linearGradient5507-3-3-6-1">
      <stop
         style="stop-color:#ff0000;stop-opacity:1;"
         offset="0"
         id="stop5509-1-5-0-3" />
      <stop
         style="stop-color:#ff6600;stop-opacity:1"
         offset="1"
         id="stop5511-9-8-9-8" />
    </linearGradient>
    <linearGradient
       inkscape:collect="always"
       xlink:href="#linearGradient5507-3-3-6-1"
       id="linearGradient75986"
       gradientUnits="userSpaceOnUse"
       gradientTransform="matrix(0.93280072,0,0,0.93280064,1220.9578,512.2297)"
       x1="143.49998"
       y1="22.901928"
       x2="106.24998"
       y2="22.401928" />
    <linearGradient
       id="linearGradient75988">
      <stop
         style="stop-color:#ff0000;stop-opacity:1;"
         offset="0"
         id="stop75990" />
      <stop
         style="stop-color:#ff6600;stop-opacity:1"
         offset="1"
         id="stop75992" />
    </linearGradient>
    <linearGradient
       y2="22.401928"
       x2="106.24998"
       y1="22.901928"
       x1="143.49998"
       gradientTransform="matrix(1.1660009,0,0,1.1660008,100.24294,341.6194)"
       gradientUnits="userSpaceOnUse"
       id="linearGradient75996"
       xlink:href="#linearGradient5507-3-3-6-1"
       inkscape:collect="always" />
  </defs>
  <sodipodi:namedview
     id="base"
     pagecolor="#ffffff"
     bordercolor="#666666"
     borderopacity="1.0"
     inkscape:pageopacity="0.0"
     inkscape:pageshadow="2"
     inkscape:zoom="0.7"
     inkscape:cx="169.33717"
     inkscape:cy="88.583523"
     inkscape:document-units="px"
     inkscape:current-layer="layer1"
     showgrid="false"
     fit-margin-left="0.2"
     fit-margin-top="0.2"
     fit-margin-bottom="0.2"
     fit-margin-right="0.2"
     inkscape:window-width="469"
     inkscape:window-height="455"
     inkscape:window-x="161"
     inkscape:window-y="161"
     inkscape:window-maximized="0" />
  <metadata
     id="metadata75902">
    <rdf:RDF>
      <cc:Work
         rdf:about="">
        <dc:format>image/svg+xml</dc:format>
        <dc:type
           rdf:resource="http://purl.org/dc/dcmitype/StillImage" />
        <dc:title></dc:title>
      </cc:Work>
    </rdf:RDF>
  </metadata>
  <g
     inkscape:label="Layer 1"
     inkscape:groupmode="layer"
     id="layer1"
     transform="translate(-154.11703,-280.74924)">
    <g
       id="g76025">
      <text
         sodipodi:linespacing="125%"
         id="text5503-8"
         y="369.78052"
         x="210.72151"
         style="font-size:46.64002228px;font-style:normal;font-weight:normal;line-height:125%;letter-spacing:0px;word-spacing:0px;fill:url(#linearGradient75996);fill-opacity:1;stroke:none;font-family:StoneSerITCStd Medium;-inkscape-font-specification:StoneSerITCStd Medium"
         xml:space="preserve"><tspan
           style="font-size:6.99600458px;fill:url(#linearGradient75996);fill-opacity:1"
           y="369.78052"
           x="210.72151"
           id="tspan5505-1"
           sodipodi:role="line">Created by Falzar FZ</tspan></text>
      <g
         id="g75833"
         transform="matrix(1.25,0,0,1.25,-503.73275,55.974811)">
        <path
           sodipodi:nodetypes="ccccccccc"
           inkscape:connector-curvature="0"
           id="path1978-1-9-0-9-3"
           d="m 556.46472,179.99203 -30.0249,30.025 0,99.90002 30.0249,30.025 99.9,0 30.025,-30.025 0,-99.90002 -30.025,-30 z"
           style="fill:#ffff9a;fill-opacity:1" />
        <path
           sodipodi:nodetypes="csccsccsccsccc"
           inkscape:connector-curvature="0"
           id="path36-2-7"
           d="m 576.40624,179.97954 c 0,0 -21.68941,18.5889 -29.94996,30.075 -4.35187,6.05118 -10,20 -10,20 l 0.025,69.85 c 0,0 18.54182,21.71085 30,30 6.02696,4.36006 19.92504,10.05 19.92504,10.05 l 50.00002,0 c 0,0 13.9551,-5.62077 20,-9.975 11.4703,-8.26226 29.975,-30 29.975,-30 l 0,-70 c 0,0 -4.5419,-20.98727 -10.075,-29.95 -4.9465,-8.01252 -19.9,-20.05 -19.9,-20.05 l -80.00002,0 z"
           style="fill:#380000;fill-opacity:1" />
        <path
           sodipodi:nodetypes="cscscccccccccc"
           inkscape:connector-curvature="0"
           id="path36-2-7-4"
           d="m 652.1875,185.75 c -7.92753,0.23475 -17.25677,0.2843 -25.18655,0.2713 -1.99998,-0.003 -15.92721,19.31667 -17.92724,19.3074 -2.86578,-0.0133 13.39562,-19.35791 10.52983,-19.37366 -11.8111,-0.0649 -29.42188,-0.10169 -41.22854,0.29496 -14.64065,13.61973 -32.76306,27.42468 -35.95249,48.40612 0.39676,21.10256 -0.4273,42.21449 0.32749,63.31263 13.23795,14.47659 27.0915,31.99358 47.34375,36.09375 15.56088,-0.91914 31.43915,1.15761 46.8125,-1 17.76955,-5.48599 30.06247,-20.52031 42.09375,-33.75 3.46322,-5.54685 0.18449,-12.39167 1.2729,-18.59366 -0.34068,-19.41532 1.80841,-39.21161 -1.88045,-58.37047 -2.86959,-12.21686 -8.65185,-24.527 -19.1737,-31.94212 -1.98538,-1.82632 -3.96546,-4.90246 -7.03125,-4.65625 z"
           style="fill:#680000;fill-opacity:1" />
        <path
           sodipodi:nodetypes="czcscccccccccc"
           inkscape:connector-curvature="0"
           id="path36-2-7-4-8"
           d="m 650.90625,191.78125 c -7.56947,0.20604 -17.70021,0.24872 -22.71133,0.24182 -5.01113,-0.007 -27.24681,26.29168 -29.69797,26.27993 -3.01639,-0.0145 16.31177,-26.33696 13.29538,-26.35226 -10.33798,-0.0524 -20.67569,-0.0715 -31.01108,0.20551 -13.24928,12.45191 -30.34675,25.15563 -32.32709,44.62486 0.28769,19.60325 -0.37131,39.21186 0.20209,58.81264 12.44533,13.14588 24.8342,29.98828 43.87246,32.30375 18.82606,-1.47137 40.23321,4.95268 56.40879,-7.61625 9.97725,-6.95137 18.04586,-15.98314 25.34375,-25.6875 -0.89899,-20.9294 1.46596,-42.00964 -0.50621,-62.8351 -1.48733,-15.75444 -8.72313,-31.84528 -22.74379,-40.00865 l -0.125,0.0312 z"
           style="fill:#ce0101;fill-opacity:1" />
        <path
           inkscape:connector-curvature="0"
           id="path36-2-7-4-8-8"
           d="m 633.59375,197.78125 c -9.83777,0.3053 -14.64678,10.85557 -21.41909,16.46381 -4.22769,3.77168 -8.45725,9.25104 -14.33091,9.94244 -6.83909,-0.87048 -6.69786,-10.14237 -2.73448,-14.10688 1.5495,-3.7406 7.38371,-9.72568 6.32823,-12.04937 -6.36241,0.37969 -13.80792,-1.42312 -19.54774,1.27155 -12.13076,11.16417 -28.03402,23.582 -27.40232,41.88461 0.20236,17.32256 -0.35922,34.64832 0.10631,51.96884 10.97846,11.57034 21.94069,26.75304 38.96543,28.66864 17.84393,-1.19862 38.62037,4.89961 53.51643,-7.58859 8.11745,-6.07585 15.11208,-13.62334 21.11189,-21.6113 -1.62089,-26.08413 4.84382,-53.79995 -5.28125,-78.59375 -3.29802,-6.36666 -7.72848,-14.43778 -15.25,-16.09375 -4.68309,0.56441 -9.3743,-0.35394 -14.0625,-0.15625 z"
           style="fill:#ef5a00;fill-opacity:1" />
        <path
           sodipodi:nodetypes="ccccccccccc"
           inkscape:connector-curvature="0"
           id="path36-2-7-4-8-8-5"
           d="m 618.25,225.71875 c -7.13527,7.02706 -18.25051,13.52638 -28.21875,8.375 -6.36391,-3.19113 -9.86472,-10.29574 -9.625,-17.28125 -8.21089,7.40664 -15.58548,17.35229 -14.09375,29 0.71712,13.76316 -0.46106,6.07643 0.46875,19.74375 1.88021,5.78364 18.17656,13.36533 21.9625,17.78125 6.3678,6.33539 4.78561,11.69155 13.8169,10.43594 14.46089,0.77066 15.59112,0.0371 25.80505,-12.47755 5.3861,-4.67789 5.95244,-2.00836 10.47805,-12.19589 -0.0363,-23.27625 5.2374,-33.3514 -8.25,-53.96875 -7.43296,2.97135 -5.88703,4.33646 -12.34375,10.5875 z"
           style="fill:#ffd20a;fill-opacity:1" />
        <g
           id="g43696">
          <g
             id="g45643">
            <path
               style="fill:#f06701;fill-opacity:1"
               d="m 631.88889,200.88542 c -9.16451,0.68483 -13.98301,10.45986 -20.58609,15.64202 -4.13961,3.48156 -8.29777,8.39542 -13.91052,8.91627 -2.45616,-0.32832 -4.01084,-1.7581 -4.81821,-3.61787 -1.31251,-3.01869 -0.62544,-7.16358 1.39841,-9.53006 1.17787,-3.56018 6.2208,-9.16284 5.20233,-11.52918 -2.81765,-0.0458 -5.83408,-0.56302 -8.75854,-0.85051 -3.23623,0.0752 -6.40462,0.41065 -9.16788,1.80146 -10.23166,9.5301 -22.91439,20.11013 -25.07853,34.53393 -0.29291,1.91308 -0.41902,3.86309 -0.34973,5.8621 0.12782,8.84591 -0.0529,16.19209 -0.0108,25.43347 0.0638,7.85814 0.6174,15.77311 1.3893,23.65983 4.80048,4.86126 9.59877,10.32652 14.55651,15.05294 6.68144,6.34369 13.36569,11.5323 22.56909,12.46836 1.1034,-0.0709 2.22533,-0.11932 3.36496,-0.1521 16.4954,-0.20742 33.28757,3.64789 46.74915,-7.5439 0.20123,-0.16103 0.40116,-0.32478 0.59978,-0.49133 6.86193,-5.18794 12.47391,-10.6457 17.81985,-17.85268 0.7039,-0.9715 1.39404,-1.94948 2.07056,-2.9322 -1.41209,-25.38542 4.75318,-51.14647 -5.27934,-75.0518 -1.32147,-2.53905 -2.83135,-5.3488 -4.65788,-7.90561 -2.80383,-3.12896 -5.92571,-5.79791 -9.97566,-6.47856 -4.30591,0.66464 -8.61542,0.0566 -13.12679,0.56542 0,0 0,0 0,0"
               id="path43698"
               inkscape:connector-curvature="0" />
            <path
               style="fill:#f27402;fill-opacity:1"
               d="m 630.18403,203.98958 c -8.49125,1.06437 -13.31925,10.06417 -19.75309,14.82024 -4.05154,3.19143 -8.13829,7.5398 -13.49014,7.89009 -2.30674,-0.32498 -3.82371,-1.63348 -4.68458,-3.34058 -1.40015,-2.76757 -1.01483,-6.56953 0.57948,-8.8484 0.80623,-3.37974 5.05788,-8.59998 4.07642,-11.00898 -2.52865,-0.27694 -5.19663,-0.97648 -7.7471,-1.47381 -3.01569,0.23176 -5.96866,0.70144 -8.55799,2.10417 -9.73785,9.18933 -21.42876,19.4985 -23.16934,33.31429 -0.24678,1.85666 -0.35028,3.71538 -0.28487,5.59316 0.15203,8.82277 -0.11269,14.64525 0.028,24.25844 0.18139,7.26224 1.30611,14.63839 2.62272,21.95932 4.75902,4.61953 9.51683,9.7444 14.07518,14.13701 6.57344,6.27421 12.31994,11.43556 21.2106,12.23693 1.04472,-0.0637 2.11406,-0.11347 3.20881,-0.15571 16.24109,-0.0852 31.07551,3.19654 44.13114,-8.1606 0.19193,-0.15469 0.3824,-0.31123 0.5714,-0.46975 6.63446,-5.06952 11.62546,-9.5562 16.85553,-17.10575 0.61576,-0.94755 1.22023,-1.89893 1.81341,-2.85271 -1.20329,-24.68671 4.66254,-48.49299 -5.27743,-71.50985 -1.26609,-2.42015 -2.71162,-5.08462 -4.45056,-7.53694 -2.93685,-2.54456 -5.84806,-4.74098 -9.56652,-5.13766 -3.92875,0.76488 -7.85655,0.46709 -12.19109,1.28709 0,0 0,0 0,0"
               id="path43700"
               inkscape:connector-curvature="0" />
            <path
               style="fill:#f48203;fill-opacity:1"
               d="m 628.47917,207.09375 c -7.81799,1.44391 -12.65548,9.66846 -18.92008,13.99845 -3.96347,2.90131 -7.97882,6.68418 -13.06976,6.86392 -2.15733,-0.32166 -3.63659,-1.50887 -4.55096,-3.06331 -1.48778,-2.51644 -1.40422,-5.97547 -0.23946,-8.16672 0.4346,-3.19932 3.89496,-8.03714 2.95051,-10.48878 -2.23964,-0.50812 -4.55918,-1.38996 -6.73565,-2.09711 -2.79515,0.38832 -5.5327,0.99223 -7.94811,2.40686 -9.24403,8.84856 -19.94311,18.88689 -21.26014,32.09467 -0.20065,1.80023 -0.28153,3.56767 -0.22001,5.3242 0.17624,8.79964 -0.17252,13.09842 0.0668,23.08342 0.29903,6.66634 1.99481,13.50367 3.85614,20.2588 4.71755,4.3778 9.43488,9.16229 13.59384,13.22109 6.46545,6.20473 11.2742,11.33883 19.85211,12.00551 0.98604,-0.0565 2.0028,-0.10762 3.05266,-0.15933 15.98677,0.0371 28.86345,2.74519 41.51312,-8.77731 0.18265,-0.14833 0.36365,-0.29767 0.54303,-0.44817 6.407,-4.95109 10.777,-8.4667 15.89121,-16.35882 0.52762,-0.9236 1.04641,-1.84837 1.55625,-2.77321 -0.99449,-23.988 4.5719,-45.8395 -5.27552,-67.9679 -1.2107,-2.30125 -2.59188,-4.82043 -4.24323,-7.16828 -3.06987,-1.96015 -5.77041,-3.68405 -9.15739,-3.79674 -3.55157,0.86511 -7.09767,0.8776 -11.25538,2.00876 0,0 0,0 0,0"
               id="path43702"
               inkscape:connector-curvature="0" />
            <path
               style="fill:#f68f04;fill-opacity:1"
               d="m 626.77431,210.19792 c -7.14473,1.82344 -11.99172,9.27276 -18.08708,13.17666 -3.8754,2.61118 -7.81934,5.82856 -12.64937,5.83774 -2.00792,-0.31833 -3.44947,-1.38425 -4.41735,-2.78602 -1.57541,-2.26531 -1.7936,-5.38142 -1.05838,-7.48505 0.063,-3.0189 2.73204,-7.47429 1.8246,-9.96859 -1.95064,-0.73928 -3.92173,-1.80342 -5.72421,-2.72041 -2.57461,0.54488 -5.09673,1.28303 -7.33822,2.70957 -8.75022,8.50779 -18.45748,18.27527 -19.35095,30.87504 -0.15451,1.7438 -0.21279,3.41996 -0.15515,5.05525 0.20045,8.77651 -0.23234,11.55159 0.10562,21.90839 0.41666,6.07043 2.68351,12.36895 5.08955,18.55828 4.6761,4.13608 9.35294,8.58018 13.11251,12.30517 6.35745,6.13525 10.22845,11.24209 18.49361,11.77409 0.92737,-0.0493 1.89154,-0.10177 2.89652,-0.16295 15.73246,0.15936 26.6514,2.29384 38.89511,-9.39402 0.17335,-0.14197 0.34489,-0.28411 0.51465,-0.42658 6.17953,-4.83268 9.92855,-7.3772 14.92689,-15.61189 0.43948,-0.89966 0.8726,-1.79782 1.2991,-2.69372 -0.78569,-23.2893 4.48126,-43.18602 -5.27361,-64.42594 -1.15531,-2.18236 -2.47215,-4.55626 -4.03591,-6.79962 -3.20289,-1.37576 -5.69276,-2.62712 -8.74825,-2.45584 -3.1744,0.96535 -6.3388,1.28813 -10.31968,2.73044 0,0 0,0 0,0"
               id="path43704"
               inkscape:connector-curvature="0" />
            <path
               style="fill:#f79c05;fill-opacity:1"
               d="m 625.06944,213.30208 c -6.47146,2.20298 -11.32794,8.87706 -17.25407,12.35488 -3.78732,2.32106 -7.65986,4.97294 -12.22899,4.81157 -1.8585,-0.31501 -3.26234,-1.25964 -4.28372,-2.50874 -1.66305,-2.01419 -2.18299,-4.78737 -1.87732,-6.80338 -0.30867,-2.83848 1.56913,-6.91145 0.6987,-9.4484 -1.66164,-0.97045 -3.28428,-2.21688 -4.71278,-3.34371 -2.35406,0.70145 -4.66076,1.57383 -6.72833,3.01227 -8.2564,8.16703 -16.97184,17.66365 -17.44175,29.65542 -0.10838,1.68737 -0.14404,3.27224 -0.0903,4.78629 0.22466,8.75338 -0.29217,10.00476 0.14441,20.73337 0.5343,5.47453 3.37222,11.23424 6.32298,16.85777 4.63463,3.89434 9.27099,7.99806 12.63118,11.38924 6.24945,6.06577 9.1827,11.14536 17.13511,11.54266 0.86869,-0.0421 1.78028,-0.0959 2.74036,-0.16656 15.47815,0.28162 24.43935,1.84249 36.27711,-10.01072 0.16406,-0.13563 0.32613,-0.27056 0.48627,-0.405 5.95207,-4.71426 9.0801,-6.28771 13.96256,-14.86496 0.35134,-0.87572 0.69879,-1.74727 1.04195,-2.61423 -0.57689,-22.59059 4.39062,-40.53254 -5.2717,-60.88399 -1.09992,-2.06346 -2.35241,-4.29208 -3.82857,-6.43095 -3.33592,-0.79136 -5.61512,-1.5702 -8.33913,-1.11493 -2.79723,1.06558 -5.57992,1.69864 -9.38398,3.4521 0,0 0,0 0,0"
               id="path43706"
               inkscape:connector-curvature="0" />
            <path
               style="fill:#f9aa06;fill-opacity:1"
               d="m 623.36458,216.40625 c -5.7982,2.58251 -10.66417,8.48135 -16.42107,11.5331 -3.69924,2.03093 -7.50038,4.11731 -11.8086,3.78538 -1.70909,-0.31168 -3.07522,-1.13502 -4.1501,-2.23145 -1.75068,-1.76306 -2.57237,-4.19332 -2.69625,-6.12172 -0.68031,-2.65804 0.40621,-6.34859 -0.42721,-8.9282 -1.37264,-1.20162 -2.64684,-2.63034 -3.70134,-3.96701 -2.13352,0.85802 -4.2248,1.86463 -6.11844,3.31498 -7.76259,7.82626 -15.48621,17.05203 -15.53256,28.43579 -0.0622,1.63094 -0.0753,3.12453 -0.0254,4.51734 0.24887,8.73024 -0.35199,8.45792 0.18321,19.55834 0.65193,4.87863 4.06092,10.09952 7.55639,15.15725 4.59318,3.65262 9.18905,7.41595 12.14985,10.47332 6.14145,5.99629 8.13696,11.04862 15.77662,11.31124 0.81001,-0.0349 1.66902,-0.0901 2.58421,-0.17018 15.22384,0.40388 22.22729,1.39115 33.65909,-10.62743 0.15477,-0.12927 0.30738,-0.25701 0.4579,-0.38341 5.72461,-4.59584 8.23165,-5.19821 12.99824,-14.11803 0.2632,-0.85177 0.52498,-1.69672 0.7848,-2.53474 -0.36809,-21.89188 4.29997,-37.87906 -5.2698,-57.34204 -1.04453,-1.94455 -2.23267,-4.02789 -3.62124,-6.06229 -3.46894,-0.20695 -5.53747,-0.51326 -7.92999,0.22599 -2.42006,1.16581 -4.82105,2.10915 -8.44828,4.17377 0,0 0,0 0,0"
               id="path43708"
               inkscape:connector-curvature="0" />
            <path
               style="fill:#fbb707;fill-opacity:1"
               d="m 621.65972,219.51042 c -5.12494,2.96204 -10.00041,8.08565 -15.58807,10.71131 -3.61117,1.7408 -7.3409,3.2617 -11.38821,2.75921 -1.55968,-0.30836 -2.88811,-1.01041 -4.01648,-1.95417 -1.83832,-1.51194 -2.96176,-3.59927 -3.51519,-5.44005 -1.05194,-2.47762 -0.7567,-5.78575 -1.55312,-8.40801 -1.08363,-1.43279 -2.00938,-3.04381 -2.68989,-4.59031 -1.91298,1.01458 -3.78883,2.15542 -5.50856,3.61768 -7.26877,7.4855 -14.00057,16.44041 -13.62336,27.21616 -0.0161,1.57452 -0.007,2.97683 0.0394,4.24839 0.27309,8.70711 -0.4118,6.9111 0.22202,18.38332 0.76956,4.28272 4.74962,8.9648 8.78981,13.45674 4.55171,3.41089 9.1071,6.83382 11.66851,9.55739 6.03346,5.92681 7.09121,10.95189 14.41813,11.07982 0.75132,-0.0278 1.55775,-0.0842 2.42806,-0.1738 14.96952,0.52614 20.01523,0.9398 31.04108,-11.24414 0.14548,-0.12291 0.28862,-0.24345 0.42952,-0.36182 5.49714,-4.47742 7.3832,-4.10872 12.03392,-13.3711 0.17506,-0.82783 0.35116,-1.64617 0.52764,-2.45525 -0.15929,-21.19317 4.20934,-35.22558 -5.26788,-53.80009 -0.98915,-1.82565 -2.11294,-3.76371 -3.41392,-5.69362 -3.60197,0.37744 -5.45982,0.54366 -7.52086,1.56689 -2.04288,1.26605 -4.06217,2.51967 -7.51257,4.89545 0,0 0,0 0,0"
               id="path43710"
               inkscape:connector-curvature="0" />
            <path
               style="fill:#fdc408;fill-opacity:1"
               d="m 619.95486,222.61458 c -4.45168,3.34158 -9.33664,7.68995 -14.75506,9.88953 -3.5231,1.45068 -7.18143,2.40608 -10.96784,1.73303 -1.41027,-0.30502 -2.70098,-0.88579 -3.88286,-1.67688 -1.92594,-1.26082 -3.35114,-3.00523 -4.33411,-4.75838 -1.42358,-2.2972 -1.91962,-5.2229 -2.67903,-7.88781 -0.79463,-1.66396 -1.37194,-3.45728 -1.67846,-5.21362 -1.69243,1.17115 -3.35286,2.44622 -4.89867,3.92039 -6.77495,7.14473 -12.51492,15.82879 -11.71416,25.99653 0.03,1.51809 0.0622,2.82911 0.10428,3.97944 0.2973,8.68397 -0.47163,5.36426 0.26081,17.20829 0.8872,3.68682 5.43833,7.83009 10.02324,11.75622 4.51025,3.16916 9.02515,6.25171 11.18718,8.64147 5.92545,5.85733 6.04546,10.85515 13.05963,10.84839 0.69264,-0.0206 1.44649,-0.0784 2.27191,-0.17741 14.71521,0.6484 17.80318,0.48845 28.42306,-11.86084 0.13619,-0.11657 0.26987,-0.2299 0.40115,-0.34024 5.26968,-4.35901 6.53474,-3.01922 11.0696,-12.62417 0.0869,-0.80389 0.17734,-1.59562 0.27049,-2.37576 0.0495,-20.49446 4.11869,-32.5721 -5.26598,-50.25814 -0.93376,-1.70675 -1.9932,-3.49953 -3.20659,-5.32496 -3.73499,0.96185 -5.38217,1.6006 -7.11173,2.90781 -1.66571,1.36628 -3.30329,2.93018 -6.57686,5.61711 0,0 0,0 0,0"
               id="path43712"
               inkscape:connector-curvature="0" />
          </g>
        </g>
        <path
           sodipodi:nodetypes="czccccccccc"
           inkscape:connector-curvature="0"
           id="path36-2-7-4-8-8-5-0"
           d="m 608.57922,244.75053 c -4.90193,5.34593 -7.53501,22.08659 -10.4608,21.97897 -2.92579,-0.10762 -0.87207,-21.17818 -0.87207,-21.17818 0,0 -15.41455,-3.40315 -19.7776,-8.67632 -2.95664,12.77361 0.49702,9.54786 -1.3125,22.475 -0.60283,7.16426 2.80936,13.66414 8.53125,17.75 6.97605,6.70842 16.93367,7.2977 25.99658,6.72788 10.494,0.74986 9.10141,4.033 16.09092,-4.91538 4.07848,-2.90953 7.32507,-7.76549 5.46875,-12.84375 -0.0187,-19.56539 6.57437,-17.3586 -3.34375,-35.2125 -8.84816,3.84777 -11.33546,9.77085 -20.32078,13.89428 z"
           style="fill:url(#linearGradient45659);fill-opacity:1" />
        <g
           transform="translate(-362.21421,-68.428427)"
           id="g7723">
          <path
             style="fill:url(#linearGradient7728);fill-opacity:1"
             d="m 931.2,297 c 0,0 -1.40932,10.21379 1.67028,17.64859 3.0796,7.43481 10.73471,18.30962 16.62972,20.75141 5.89501,2.44179 11.7,1.6 11.7,1.6 0,0 0.99841,-15.10435 -2.82842,-24.34315 -1.80399,-4.35521 -4.23058,-7.91317 -8.58579,-9.71715 C 943.62659,300.38847 931.2,297 931.2,297 z m 90,9.975 c 0,0 -12.5094,0.10655 -19.925,3.2 -7.41551,3.09345 -14.52726,8.99732 -18.23219,16.9 -1.40085,2.98802 -1.84277,9.9 -1.84277,9.9 0,0 13.12875,0.22208 19.99996,-1.4 6.8713,-1.62208 13.654,-5.42274 17.3657,-11.42843 3.7118,-6.00569 2.6343,-17.17157 2.6343,-17.17157 z m -99.97504,11.15637 c -4.36404,1.79804 -6.916,4.50911 -8.72496,8.86863 -2.55506,6.15761 -1.53169,13.51167 0,20 1.71248,7.25417 4.33994,13.95472 8.7,20 5.51853,7.65152 6.43032,12.67683 18.3279,18.30294 13.59464,5.62612 48.31657,4.84987 61.6721,1.69706 13.3555,-3.15281 13.9534,-5.64183 20,-10 3.8242,-2.75635 4.5191,-4.08916 6.323,-8.44437 C 1032.6255,356.23724 1031.2,327 1031.2,327 c 0,0 -6.2826,0.8602 -10,2.4 -3.7174,1.5398 -5.9205,5.67482 -8.0201,9.29706 -3.3547,5.78755 -4.2097,10.85709 -7.6868,16.50588 -3.8899,6.3188 -5.2941,11.96903 -11.08183,13.18627 C 990.60345,364.51529 991.2,347 991.2,347 c 0,0 -28.36236,-1.50026 -38.86863,2.82843 -10.50627,4.32869 -7.53186,20.78306 -15.75736,17.02157 -7.62906,-3.48875 -5.39891,-49.825 -5.39891,-49.825 0,0 -6.88351,-0.15712 -9.95014,1.10637 z"
             id="path682-4-1"
             inkscape:connector-curvature="0"
             sodipodi:nodetypes="czzcsscczsczzcssssczsscssccczscs" />
          <path
             style="fill:#100000;fill-opacity:1"
             d="m 941.6,309.1 c 1.3531,10.72736 8.11894,21.81107 18.53125,25.53125 -0.63721,-8.62165 -1.01019,-21.30481 -11.21875,-23.78125 -1.98917,-0.2055 -6.35623,-2.94496 -7.3125,-1.75 z"
             id="path7713"
             inkscape:connector-curvature="0" />
          <path
             style="fill:#100000;fill-opacity:1"
             d="m 1010.5307,317.86347 c -10.89158,0.76111 -22.92427,6.90895 -26.56243,17.90625 9.8245,-0.3165 23.26453,-2.41781 26.50003,-13.25 0.028,-1.22096 1.7045,-4.53127 0.062,-4.65625 z"
             id="path682-4-1-5"
             inkscape:connector-curvature="0" />
        </g>
      </g>
    </g>
  </g>
</svg>
