<?xml version="1.0" encoding="UTF-8" standalone="no"?>
<!-- Created with Inkscape (http://www.inkscape.org/) -->

<svg
   xmlns:dc="http://purl.org/dc/elements/1.1/"
   xmlns:cc="http://creativecommons.org/ns#"
   xmlns:rdf="http://www.w3.org/1999/02/22-rdf-syntax-ns#"
   xmlns:svg="http://www.w3.org/2000/svg"
   xmlns="http://www.w3.org/2000/svg"
   xmlns:xlink="http://www.w3.org/1999/xlink"
   xmlns:sodipodi="http://sodipodi.sourceforge.net/DTD/sodipodi-0.dtd"
   xmlns:inkscape="http://www.inkscape.org/namespaces/inkscape"
   width="200.03574"
   height="199.98276"
   id="svg17192"
   version="1.1"
   inkscape:version="0.48.1 "
   sodipodi:docname="New document 255">
  <defs
     id="defs17194">
    <linearGradient
       inkscape:collect="always"
       xlink:href="#linearGradient16923"
       id="linearGradient16929"
       x1="1145.4"
       y1="230.60001"
       x2="1207"
       y2="233.2"
       gradientUnits="userSpaceOnUse" />
    <linearGradient
       id="linearGradient16923">
      <stop
         style="stop-color:#97b856;stop-opacity:1;"
         offset="0"
         id="stop16925" />
      <stop
         id="stop16933"
         offset="0.25"
         style="stop-color:#bddd69;stop-opacity:1" />
      <stop
         id="stop16931"
         offset="0.5"
         style="stop-color:#97b856;stop-opacity:1" />
      <stop
         style="stop-color:#4a7b26;stop-opacity:1"
         offset="1"
         id="stop16927" />
    </linearGradient>
    <linearGradient
       y2="22.401928"
       x2="106.24998"
       y1="22.901928"
       x1="143.49998"
       gradientTransform="matrix(0.93280072,0,0,0.93280064,1251.0679,502.31794)"
       gradientUnits="userSpaceOnUse"
       id="linearGradient6774"
       xlink:href="#linearGradient5507-3-3-6-5"
       inkscape:collect="always" />
    <linearGradient
       id="linearGradient5507-3-3-6-5">
      <stop
         style="stop-color:#ff0000;stop-opacity:1;"
         offset="0"
         id="stop5509-1-5-0-9" />
      <stop
         style="stop-color:#ff6600;stop-opacity:1"
         offset="1"
         id="stop5511-9-8-9-9" />
    </linearGradient>
    <linearGradient
       y2="22.401928"
       x2="106.24998"
       y1="22.901928"
       x1="143.49998"
       gradientTransform="matrix(0.93280072,0,0,0.93280064,1251.0679,502.31794)"
       gradientUnits="userSpaceOnUse"
       id="linearGradient17263"
       xlink:href="#linearGradient5507-3-3-6-5"
       inkscape:collect="always" />
    <linearGradient
       id="linearGradient17265">
      <stop
         style="stop-color:#ff0000;stop-opacity:1;"
         offset="0"
         id="stop17267" />
      <stop
         style="stop-color:#ff6600;stop-opacity:1"
         offset="1"
         id="stop17269" />
    </linearGradient>
    <linearGradient
       y2="22.401928"
       x2="106.24998"
       y1="22.901928"
       x1="143.49998"
       gradientTransform="matrix(1.1660009,0,0,1.1660008,210.23189,500.14196)"
       gradientUnits="userSpaceOnUse"
       id="linearGradient17273"
       xlink:href="#linearGradient5507-3-3-6-5"
       inkscape:collect="always" />
  </defs>
  <sodipodi:namedview
     id="base"
     pagecolor="#ffffff"
     bordercolor="#666666"
     borderopacity="1.0"
     inkscape:pageopacity="0.0"
     inkscape:pageshadow="2"
     inkscape:zoom="1.5886719"
     inkscape:cx="171.50888"
     inkscape:cy="90.148027"
     inkscape:document-units="px"
     inkscape:current-layer="layer1"
     showgrid="false"
     fit-margin-top="0"
     fit-margin-left="0"
     fit-margin-right="0"
     fit-margin-bottom="0"
     inkscape:window-width="1280"
     inkscape:window-height="780"
     inkscape:window-x="-8"
     inkscape:window-y="-8"
     inkscape:window-maximized="1" />
  <metadata
     id="metadata17197">
    <rdf:RDF>
      <cc:Work
         rdf:about="">
        <dc:format>image/svg+xml</dc:format>
        <dc:type
           rdf:resource="http://purl.org/dc/dcmitype/StillImage" />
        <dc:title></dc:title>
      </cc:Work>
    </rdf:RDF>
  </metadata>
  <g
     inkscape:label="Layer 1"
     inkscape:groupmode="layer"
     id="layer1"
     transform="translate(-274.9821,-432.37081)">
    <g
       id="g17302">
      <text
         xml:space="preserve"
         style="font-size:46.64002228px;font-style:normal;font-weight:normal;line-height:125%;letter-spacing:0px;word-spacing:0px;fill:url(#linearGradient17273);fill-opacity:1;stroke:none;font-family:StoneSerITCStd Medium;-inkscape-font-specification:StoneSerITCStd Medium"
         x="320.71063"
         y="528.3031"
         id="text5503-8-3"
         sodipodi:linespacing="125%"><tspan
           sodipodi:role="line"
           id="tspan5505-1-2"
           x="320.71063"
           y="528.3031"
           style="font-size:6.99600458px;fill:url(#linearGradient17273);fill-opacity:1">Created by Falzar FZ</tspan></text>
      <g
         id="g17143"
         transform="matrix(1.25,0,0,1.25,-1121.3219,246.56685)">
        <path
           style="fill:#ffff8e;fill-opacity:1"
           d="m 1147.0681,148.64317 -30.0249,30.025 0,99.9 30.0249,30.025 99.9,0 30.025,-30.025 0,-99.9 -30.025,-30 z"
           id="path1978-1-9-9-3"
           inkscape:connector-curvature="0"
           sodipodi:nodetypes="ccccccccc" />
        <path
           style="fill:#011300;fill-opacity:1"
           d="m 1185.294,158.77937 c -15.847,3.72367 -25.5672,14.40241 -33.3294,21.97166 -8.7621,3.96924 -10.8584,4.2207 -14.4363,7.08276 -8.3574,13.0736 -16.1894,34.11884 -6.7348,50.79558 9.2339,19.23288 29.948,30.14863 42.5711,36.37305 4.3186,9.00091 3.677,33.62695 3.677,33.62695 l 69.95,-0.002 29.9484,-30.08282 c 0,0 1.2346,-75.19046 -3.8538,-78.73429 -5.2679,-15.80521 -12.0369,-28.00917 -26.9432,-35.44952 -20.8473,-10.40577 -32.1753,-9.55071 -60.849,-5.58185 z"
           id="path3598-7-1-2"
           inkscape:connector-curvature="0"
           sodipodi:nodetypes="cccccccccccc" />
        <path
           style="fill:#70913e;fill-opacity:1"
           d="m 1211.3648,161.6278 c -33.6298,0.0937 -43.3835,5.21885 -57.5451,19.89598 -6.2735,4.85158 -14.0413,5.18677 -15.1249,8.59152 -16.2446,16.73229 -7.164,51.97074 10.0965,62.725 8.9656,10.32545 27.6444,14.78348 39.3565,21.04817 3.5694,10.24136 4.0268,23.86832 3.9413,34.70184 18.4228,-0.0833 30.0574,-0.16667 48.48,-0.25 18.8369,-21.16352 35.3051,-49.55131 30.5828,-79.81251 -2.2342,-17.67176 -6.1398,-36.53799 -17.4732,-50.30086 -10.8027,-10.5774 -27.8677,-16.92115 -42.3139,-16.59914 z"
           id="path3598-7-1-26"
           inkscape:connector-curvature="0"
           sodipodi:nodetypes="cccccccccc" />
        <path
           style="fill:#bddd69;fill-opacity:1"
           d="m 1210.3473,170.47827 c -14.9791,0.13154 -30.0769,8.21311 -41.2142,24.55048 -54.4675,14.20243 -6.5864,36.98682 8.2881,48.03972 25.865,-4.58974 71.4439,12.05353 69.193,-10.94517 -1.4022,-16.88956 -3.8532,-34.92071 -10.966,-48.07439 -6.7798,-10.10921 -16.2346,-13.8784 -25.3009,-13.57064 z"
           id="path3598-7-1-6-7"
           inkscape:connector-curvature="0"
           sodipodi:nodetypes="cccccc" />
        <path
           style="fill:#4a7b26;fill-opacity:1"
           d="m 1216.7066,170.3518 c -14.9791,0.13154 -33.4769,10.21311 -44.6142,26.55048 -9.1757,4.6438 -14.7295,4.60098 -21.6979,12.04935 -7.5283,31.88318 13.687,37.25356 23.586,45.19037 9.0268,7.46841 15.2893,7.47086 22.6397,13.45826 2.2402,9.78804 2.5273,30.56125 2.4736,40.91525 11.5621,-0.0796 23.1242,-0.1593 34.6861,-0.23894 11.822,-20.22674 22.1573,-47.35801 19.1936,-76.27974 -1.4022,-16.88956 -3.8533,-34.92071 -10.9661,-48.07439 -6.7797,-10.10921 -16.2345,-13.8784 -25.3008,-13.57064 z"
           id="path3598-7-1-6"
           inkscape:connector-curvature="0"
           sodipodi:nodetypes="cccccccccc" />
        <path
           style="fill:#012f00;fill-opacity:1"
           d="m 1234.3505,184.23787 c -20.7672,1.49117 -33.0385,27.31678 -24.5938,45.28125 3.2058,7.81596 -37.8114,-2.33621 -33.6635,2.72768 1.3255,1.61818 12.866,5.5769 25.4448,11.07676 12.5788,5.49986 14.8822,18.48056 19.2295,22.58635 5.0277,5.83105 20.0905,9.56113 22.7434,-17.14337 0,-19.55989 4.9073,-45.65033 -4.5042,-62.96617 -1.2651,-1.20355 -2.9048,-1.8865 -4.6562,-1.5625 z"
           id="path3598-7-1-3"
           inkscape:connector-curvature="0"
           sodipodi:nodetypes="ccsscccc" />
        <path
           style="fill:#011300;fill-opacity:1"
           d="m 1219.5,161.8 c -6.6007,-1.46973 -5.6408,6.26971 -13.4256,8.37959 -3.8543,5.80147 -10.5828,11.94922 -12.8311,18.991 3.0172,7.28357 9.4204,1.89057 15.0473,-3.032 4.7692,-4.90299 3.6304,-10.79506 8.2636,-15.66525 5.5756,-4.10533 21.3247,4.01485 10.1639,10.55091 -5.3826,2.32926 -5.3555,7.06646 -1.7537,9.70545 2.5982,-4.33753 11.9406,-13.8661 16.0289,-8.75875 6.6989,9.85188 -6.7454,13.59324 -10.8137,13.57337 0.1772,9.73691 23.6241,0.59408 21.0834,8.8402 -0.4794,7.89557 -8.7327,5.6656 -14.3365,6.1254 -5.6038,0.4598 -14.048,-1.70679 -16.3263,-8.21671 -4.4476,-3.62331 -10.7835,-0.71735 -8.3851,6.25073 0.9914,3.80549 5.9784,4.85369 11.1034,10.23671 5.125,5.38302 9.2117,12.30281 19.2081,11.75549 9.6046,-0.2153 10.8651,-8.25936 16.0716,-12.21977 2.977,-8.97211 1.783,-13.46944 1.5771,-21.02748 -1.4852,-7.33311 -8.4656,-9.60969 -12.3436,-15.38652 -6.9991,-8.23737 -7.6963,-16.45801 -18.5189,-19.96839 -0.969,-0.17648 -8.8978,-0.52133 -9.8128,-0.13398 z"
           id="path16474"
           inkscape:connector-curvature="0"
           sodipodi:nodetypes="cccccccccczcczcccccc" />
        <path
           style="fill:#012f00;fill-opacity:1"
           d="m 1200.7734,216.20518 c -20,0.008 -40,0.0166 -60,0.025 -14.3452,3.36413 -9.3947,9.28513 -4.7456,22.77437 3.5073,4.93771 14.2923,19.98151 14.2404,10.33033 -4.6724,-26.39776 37.459,-25.68835 44.4033,-25.60189 14.0115,0.17444 12.3753,7.76336 23.7999,18.08947 16.2332,-9.15887 -10.6806,-27.46683 -17.698,-25.61724 z"
           id="path3602-8-8-2"
           inkscape:connector-curvature="0"
           sodipodi:nodetypes="ccccsccc" />
        <path
           style="fill:url(#linearGradient16929);fill-opacity:1"
           d="m 1199.865,225.00518 c -19.6972,0.008 -29.7944,0.0166 -49.4916,0.025 0,3.33333 1.3214,4.51104 4.6641,6.00589 4.5428,2.73952 28.5927,1.36766 38.818,1.49692 13.7993,0.17445 28.8522,13.04498 42.5039,32.17109 4.3592,-12.05593 -29.5833,-41.54845 -36.4944,-39.69886 z"
           id="path3602-8-8-4"
           inkscape:connector-curvature="0"
           sodipodi:nodetypes="cccsccc" />
        <path
           style="fill:#011300;fill-opacity:1"
           d="m 1200.3886,221.6199 c -20,0.008 -40,0.0166 -60,0.025 0,3.33333 -0.2829,5.11104 3.1112,6.60589 4.6126,2.73952 40.4044,0.76766 50.7869,0.89692 14.0115,0.17445 14.6581,1.52072 26.0827,11.84683 6.0509,-10.85593 -12.9634,-21.22419 -19.9808,-19.3746 z"
           id="path3602-8-8"
           inkscape:connector-curvature="0"
           sodipodi:nodetypes="cccsccc" />
        <path
           sodipodi:type="arc"
           style="fill:#ffffff;fill-opacity:1;stroke:#011300;stroke-width:8.13700008;stroke-miterlimit:4.0999999;stroke-opacity:1;stroke-dasharray:none"
           id="path16498"
           sodipodi:cx="1336"
           sodipodi:cy="234"
           sodipodi:rx="12.25"
           sodipodi:ry="12.25"
           d="m 1348.25,234 c 0,6.76549 -5.4845,12.25 -12.25,12.25 -6.7655,0 -12.25,-5.48451 -12.25,-12.25 0,-6.76549 5.4845,-12.25 12.25,-12.25 6.7655,0 12.25,5.48451 12.25,12.25 z"
           transform="matrix(0.72646383,0,0,0.72646383,263.24432,18.407464)" />
        <g
           id="g16748"
           transform="translate(3.4,-2.9)">
          <path
             inkscape:connector-curvature="0"
             id="path4030-4-8"
             d="m 1133.0212,209.00514 c 2.1792,-2.19413 6.4864,-1.21652 7.4967,1.70885 1.1164,2.76305 -1.3344,6.22166 -4.3156,6.06264 -2.9556,0.067 -5.2986,-3.42344 -4.105,-6.13143 0.1984,-0.59923 0.5087,-1.16355 0.9239,-1.64006 z"
             style="fill:#000000" />
          <path
             inkscape:connector-curvature="0"
             id="path4034-8-9"
             d="m 1152.3465,209.30514 c 2.1918,-2.19384 6.5083,-1.19961 7.5116,1.73729 1.1016,2.79927 -1.4336,6.26198 -4.4386,6.0369 -2.9515,-0.019 -5.2035,-3.54993 -3.9595,-6.23114 0.1978,-0.56263 0.4952,-1.09201 0.8865,-1.54305 z"
             style="fill:#000000" />
        </g>
        <path
           style="fill:#011300"
           d="m 1261.5263,230.68198 c -0.1799,6.64082 0.25,13.28714 -0.1,19.925 -6.1653,15.79968 -10.428,17.34916 -23.081,18.97347 -7.0074,3.20596 -14.7484,0.23965 -22.0612,1.32481 -9.0836,4.04139 -15.1299,15.55539 15.7422,9.88868 5.4949,0.39961 14.3292,-4.07748 19.3822,-0.99452 1.4518,4.56841 1.0755,14.02964 4.7523,9.96907 3.1705,-4.31402 7.8346,-12.80641 9.8358,-18.30513 4.9744,-6.99205 7.3743,-12.09727 5.5416,-18.60817 -1.4805,-6.066 0.8539,-12.28802 0.1418,-18.14045 -1.6166,-3.67627 -6.4325,-5.9235 -10.1537,-4.03276 z"
           id="path4366-2-1"
           inkscape:connector-curvature="0"
           sodipodi:nodetypes="ccccccccccc" />
      </g>
    </g>
  </g>
</svg>
