<?xml version="1.0" encoding="UTF-8" standalone="no"?>
<!-- Created with Inkscape (http://www.inkscape.org/) -->

<svg
   xmlns:dc="http://purl.org/dc/elements/1.1/"
   xmlns:cc="http://creativecommons.org/ns#"
   xmlns:rdf="http://www.w3.org/1999/02/22-rdf-syntax-ns#"
   xmlns:svg="http://www.w3.org/2000/svg"
   xmlns="http://www.w3.org/2000/svg"
   xmlns:xlink="http://www.w3.org/1999/xlink"
   xmlns:sodipodi="http://sodipodi.sourceforge.net/DTD/sodipodi-0.dtd"
   xmlns:inkscape="http://www.inkscape.org/namespaces/inkscape"
   width="200.33737"
   height="200.36092"
   id="svg16740"
   version="1.1"
   inkscape:version="0.48.1 "
   sodipodi:docname="New document 63">
  <defs
     id="defs16742">
    <radialGradient
       inkscape:collect="always"
       xlink:href="#linearGradient15088"
       id="radialGradient15094"
       cx="313.89999"
       cy="476.26041"
       fx="313.89999"
       fy="476.26041"
       r="5.8695369"
       gradientTransform="matrix(-1.3741563,-1.2713567,0.46808922,-0.50593787,522.31529,1116.337)"
       gradientUnits="userSpaceOnUse" />
    <linearGradient
       inkscape:collect="always"
       id="linearGradient15088">
      <stop
         style="stop-color:#d29d08;stop-opacity:1"
         offset="0"
         id="stop15090" />
      <stop
         style="stop-color:#c88f05;stop-opacity:1"
         offset="1"
         id="stop15092" />
    </linearGradient>
    <linearGradient
       inkscape:collect="always"
       xlink:href="#linearGradient15762"
       id="linearGradient16556"
       x1="229.74994"
       y1="351.90317"
       x2="229.74994"
       y2="441.86597"
       gradientUnits="userSpaceOnUse" />
    <linearGradient
       id="linearGradient15762">
      <stop
         style="stop-color:#c4c5da;stop-opacity:1"
         offset="0"
         id="stop15764" />
      <stop
         id="stop15786"
         offset="0.37139061"
         style="stop-color:#c4c5da;stop-opacity:1" />
      <stop
         id="stop15784"
         offset="0.49378937"
         style="stop-color:#8686c9;stop-opacity:1" />
      <stop
         id="stop15782"
         offset="0.64521497"
         style="stop-color:#c4c5da;stop-opacity:1" />
      <stop
         id="stop15780"
         offset="0.78641057"
         style="stop-color:#8686c9;stop-opacity:1" />
      <stop
         id="stop15778"
         offset="0.91175282"
         style="stop-color:#8686c9;stop-opacity:1" />
      <stop
         style="stop-color:#8686c9;stop-opacity:1"
         offset="1"
         id="stop15766" />
    </linearGradient>
    <linearGradient
       inkscape:collect="always"
       xlink:href="#linearGradient15770"
       id="linearGradient16558"
       x1="188.825"
       y1="392.08749"
       x2="278.82501"
       y2="392.08749"
       gradientUnits="userSpaceOnUse" />
    <linearGradient
       id="linearGradient15770">
      <stop
         style="stop-color:#f0f0ef;stop-opacity:1"
         offset="0"
         id="stop15772" />
      <stop
         id="stop16566"
         offset="0.45361105"
         style="stop-color:#f0f0ef;stop-opacity:1" />
      <stop
         id="stop16564"
         offset="0.6049999"
         style="stop-color:#acadc0;stop-opacity:1;" />
      <stop
         id="stop16562"
         offset="0.72555548"
         style="stop-color:#c4c5da;stop-opacity:1" />
      <stop
         id="stop16560"
         offset="0.83777773"
         style="stop-color:#c4c5da;stop-opacity:1" />
      <stop
         style="stop-color:#8686c9;stop-opacity:1"
         offset="1"
         id="stop15774" />
    </linearGradient>
    <linearGradient
       y2="392.08749"
       x2="278.82501"
       y1="392.08749"
       x1="188.825"
       gradientUnits="userSpaceOnUse"
       id="linearGradient16738"
       xlink:href="#linearGradient15770"
       inkscape:collect="always" />
    <linearGradient
       inkscape:collect="always"
       xlink:href="#linearGradient5507-3-3-6-1"
       id="linearGradient6516"
       gradientUnits="userSpaceOnUse"
       gradientTransform="matrix(0.93280072,0,0,0.93280064,1220.9578,512.2297)"
       x1="143.49998"
       y1="22.901928"
       x2="106.24998"
       y2="22.401928" />
    <linearGradient
       id="linearGradient5507-3-3-6-1">
      <stop
         style="stop-color:#ff0000;stop-opacity:1;"
         offset="0"
         id="stop5509-1-5-0-3" />
      <stop
         style="stop-color:#ff6600;stop-opacity:1"
         offset="1"
         id="stop5511-9-8-9-8" />
    </linearGradient>
    <linearGradient
       inkscape:collect="always"
       xlink:href="#linearGradient5507-3-3-6-1"
       id="linearGradient16881"
       gradientUnits="userSpaceOnUse"
       gradientTransform="matrix(0.93280072,0,0,0.93280064,1220.9578,512.2297)"
       x1="143.49998"
       y1="22.901928"
       x2="106.24998"
       y2="22.401928" />
    <linearGradient
       id="linearGradient16883">
      <stop
         style="stop-color:#ff0000;stop-opacity:1;"
         offset="0"
         id="stop16885" />
      <stop
         style="stop-color:#ff6600;stop-opacity:1"
         offset="1"
         id="stop16887" />
    </linearGradient>
    <linearGradient
       y2="22.401928"
       x2="106.24998"
       y1="22.901928"
       x1="143.49998"
       gradientTransform="matrix(1.1660009,0,0,1.1660008,195.64722,444.46534)"
       gradientUnits="userSpaceOnUse"
       id="linearGradient16891"
       xlink:href="#linearGradient5507-3-3-6-1"
       inkscape:collect="always" />
  </defs>
  <sodipodi:namedview
     id="base"
     pagecolor="#ffffff"
     bordercolor="#666666"
     borderopacity="1.0"
     inkscape:pageopacity="0.0"
     inkscape:pageshadow="2"
     inkscape:zoom="0.98994949"
     inkscape:cx="169.2928"
     inkscape:cy="119.41543"
     inkscape:document-units="px"
     inkscape:current-layer="layer1"
     showgrid="false"
     fit-margin-top="0.2"
     fit-margin-left="0.2"
     fit-margin-bottom="0.2"
     fit-margin-right="0.2"
     inkscape:window-width="469"
     inkscape:window-height="455"
     inkscape:window-x="115"
     inkscape:window-y="115"
     inkscape:window-maximized="0" />
  <metadata
     id="metadata16745">
    <rdf:RDF>
      <cc:Work
         rdf:about="">
        <dc:format>image/svg+xml</dc:format>
        <dc:type
           rdf:resource="http://purl.org/dc/dcmitype/StillImage" />
        <dc:title></dc:title>
      </cc:Work>
    </rdf:RDF>
  </metadata>
  <g
     inkscape:label="Layer 1"
     inkscape:groupmode="layer"
     id="layer1"
     transform="translate(-262.68845,-377.89601)">
    <g
       id="g16920">
      <text
         sodipodi:linespacing="125%"
         id="text5503-8"
         y="472.62646"
         x="306.12582"
         style="font-size:46.64002228px;font-style:normal;font-weight:normal;line-height:125%;letter-spacing:0px;word-spacing:0px;fill:url(#linearGradient16891);fill-opacity:1;stroke:none;font-family:StoneSerITCStd Medium;-inkscape-font-specification:StoneSerITCStd Medium"
         xml:space="preserve"><tspan
           style="font-size:6.99600458px;fill:url(#linearGradient16891);fill-opacity:1"
           y="472.62646"
           x="306.12582"
           id="tspan5505-1"
           sodipodi:role="line">Created by Falzar FZ</tspan></text>
      <g
         id="g16568"
         transform="matrix(1.25,0,0,1.25,42.146305,-47.0108)">
        <path
           sodipodi:nodetypes="ccccccccc"
           inkscape:connector-curvature="0"
           id="path1978-1-9-0-9-1"
           d="m 206.61862,340.10416 -30.0249,30.025 0,99.90002 30.0249,30.025 114.89066,0 15.03434,-15.31718 0,-114.60784 -30.025,-30 z"
           style="fill:#b767d9;fill-opacity:1" />
        <path
           style="fill:#5c2f01;fill-opacity:1"
           d="m 302.2147,455.80413 c -5.23273,2.17134 -7.83854,4.76316 -9.99999,10 -2.16145,5.23684 2.29727,17.41587 4.45,22.65 2.15273,5.23413 9.9,10.05001 9.9,10.05001 0,0 20.5601,4.44041 26.72187,-1.73726 6.16177,-6.17767 1.67813,-26.66274 1.67813,-26.66274 0,0 -4.85231,-7.78201 -10.1,-9.92501 -5.24769,-2.143 -17.41727,-6.54634 -22.65001,-4.375 z"
           id="path4740-8-7"
           inkscape:connector-curvature="0"
           sodipodi:nodetypes="zzzczczz" />
        <g
           id="g13530">
          <path
             id="path13532"
             d="m 302.69179,456.96296 c -4.75329,1.92747 -7.06341,4.29788 -8.9606,9.1458 -1.67393,4.39738 1.67069,14.11851 3.87208,19.5905 0.22658,0.56687 0.44103,1.08775 0.63643,1.55189 2.05252,4.90253 9.25956,9.43186 9.29283,9.51804 0.0518,0.13418 10.84658,2.60583 18.48852,1.41007 2.48605,-0.386 4.64392,-1.17084 5.99668,-2.55853 5.52585,-5.65353 1.19142,-24.65733 1.04917,-24.79029 -0.007,-0.007 -0.28719,-0.45124 -0.77802,-1.14716 -1.53706,-2.16286 -5.03243,-6.67747 -8.71923,-8.2431 -4.92077,-2.12951 -16.1686,-6.36069 -20.87786,-4.47722 0,0 0,0 0,0 0,0 0,0 0,0"
             style="fill:#ba7c01;fill-opacity:1"
             inkscape:connector-curvature="0" />
          <path
             id="path13534"
             d="m 303.16889,458.12179 c -4.27385,1.6836 -6.2883,3.83259 -7.92121,8.2916 -1.3901,4.05142 1.82568,13.05496 3.95673,18.18418 0.21681,0.52874 0.42236,1.01557 0.61028,1.4506 1.95231,4.57093 8.61912,8.81371 8.68566,8.98608 0.10358,0.26835 9.99596,2.68538 16.88702,1.70332 2.23788,-0.31284 4.17011,-1.00564 5.3615,-2.26299 4.88994,-5.12939 0.70472,-22.65192 0.42022,-22.91784 -0.0145,-0.0135 -0.27876,-0.42838 -0.73621,-1.07382 -1.4745,-2.04816 -4.73712,-6.26448 -8.15828,-7.78168 -4.59385,-2.11603 -14.91994,-6.17505 -19.10571,-4.57945 0,0 0,0 0,0 0,0 0,0 0,0"
             style="fill:#bc7f02;fill-opacity:1"
             inkscape:connector-curvature="0" />
          <path
             id="path13536"
             d="m 303.64598,459.28062 c -3.79441,1.43973 -5.51317,3.36731 -6.88182,7.4374 -1.10627,3.70547 1.98067,11.99141 4.04139,16.77786 0.20703,0.49061 0.40368,0.94339 0.58413,1.34931 1.85209,4.23933 7.97868,8.19556 8.07848,8.45411 0.15537,0.40253 9.14535,2.76494 15.28554,1.99658 1.9897,-0.23967 3.69629,-0.84043 4.72632,-1.96745 4.25402,-4.60525 0.21801,-20.64651 -0.20873,-21.04539 -0.0217,-0.0203 -0.27034,-0.40552 -0.6944,-1.00048 -1.41196,-1.93346 -4.44181,-5.85149 -7.59735,-7.32027 -4.26693,-2.10254 -13.67126,-5.9894 -17.33356,-4.68167 0,0 0,0 0,0 0,0 0,0 0,0"
             style="fill:#be8202;fill-opacity:1"
             inkscape:connector-curvature="0" />
          <path
             id="path13538"
             d="m 304.12308,460.43946 c -3.31498,1.19586 -4.73806,2.90201 -5.84243,6.58319 -0.82245,3.35952 2.13565,10.92785 4.12604,15.37153 0.19725,0.4525 0.385,0.87122 0.55798,1.24803 1.75188,3.90773 7.33825,7.57741 7.47131,7.92215 0.20716,0.5367 8.29473,2.84449 13.68404,2.28982 1.74154,-0.1665 3.22248,-0.67522 4.09115,-1.6719 3.61809,-4.08111 -0.2687,-18.6411 -0.83769,-19.17294 -0.0289,-0.027 -0.26191,-0.38266 -0.65259,-0.92714 -1.3494,-1.81876 -4.1465,-5.43849 -7.0364,-6.85886 -3.94002,-2.08905 -12.4226,-5.80375 -15.56141,-4.78388 0,0 0,0 0,0 0,0 0,0 0,0"
             style="fill:#c08403;fill-opacity:1"
             inkscape:connector-curvature="0" />
          <path
             id="path13540"
             d="m 304.60017,461.59829 c -2.83553,0.95199 -3.96293,2.43673 -4.80304,5.72898 -0.53861,3.01357 2.29064,9.86431 4.21069,13.96522 0.18749,0.41437 0.36634,0.79904 0.53184,1.14675 1.65167,3.57612 6.69781,6.95925 6.86414,7.39017 0.25895,0.67088 7.44411,2.92405 12.08254,2.58308 1.49337,-0.0933 2.74866,-0.51002 3.45598,-1.37636 2.98217,-3.55697 -0.7554,-16.63569 -1.46665,-17.30049 -0.0361,-0.0338 -0.25349,-0.3598 -0.61077,-0.85381 -1.28686,-1.70405 -3.85119,-5.02549 -6.47547,-6.39743 -3.61309,-2.07558 -11.17393,-5.6181 -13.78926,-4.88611 0,0 0,0 0,0 0,0 0,0 0,0"
             style="fill:#c28703;fill-opacity:1"
             inkscape:connector-curvature="0" />
          <path
             id="path13542"
             d="m 305.07727,462.75712 c -2.3561,0.70812 -3.18782,1.97144 -3.76365,4.87478 -0.25479,2.66762 2.44563,8.80076 4.29534,12.55889 0.17771,0.37625 0.34766,0.72687 0.50569,1.04547 1.55146,3.24452 6.05737,6.34109 6.25697,6.85821 0.31074,0.80505 6.59349,3.00361 10.48105,2.87633 1.24519,-0.0202 2.27484,-0.34481 2.82079,-1.08082 2.34626,-3.03283 -1.2421,-14.63028 -2.0956,-15.42805 -0.0433,-0.0405 -0.24506,-0.33692 -0.56896,-0.78046 -1.2243,-1.58936 -3.55588,-4.6125 -5.91452,-5.93602 -3.28618,-2.06209 -9.92527,-5.43245 -12.01711,-4.98833 0,0 0,0 0,0 0,0 0,0 0,0"
             style="fill:#c48a04;fill-opacity:1"
             inkscape:connector-curvature="0" />
          <path
             id="path13544"
             d="m 305.55436,463.91595 c -1.87666,0.46425 -2.41269,1.50616 -2.72426,4.02058 0.029,2.32167 2.60062,7.73721 4.38,11.15257 0.16793,0.33813 0.32898,0.65469 0.47954,0.94418 1.45125,2.91292 5.41693,5.72294 5.6498,6.32624 0.36252,0.93922 5.74287,3.08317 8.87955,3.16958 0.99702,0.053 1.80103,-0.1796 2.18562,-0.78527 1.71034,-2.50869 -1.72881,-12.62487 -2.72456,-13.5556 -0.0506,-0.0473 -0.23663,-0.31406 -0.52714,-0.70712 -1.16176,-1.47466 -3.26057,-4.19951 -5.35359,-5.47461 -2.95925,-2.0486 -8.6766,-5.2468 -10.24496,-5.09055 0,0 0,0 0,0 0,0 0,0 0,0"
             style="fill:#c68c04;fill-opacity:1"
             inkscape:connector-curvature="0" />
          <path
             id="path13546"
             d="m 306.03146,465.07478 c -1.39722,0.22038 -1.63758,1.04087 -1.68487,3.16638 0.31286,1.97571 2.7556,6.67366 4.46465,9.74625 0.15816,0.3 0.31031,0.58251 0.45339,0.84289 1.35103,2.58132 4.77649,5.10479 5.04263,5.79428 0.41431,1.07339 4.89225,3.16272 7.27805,3.46283 0.74885,0.12617 1.32722,-0.0144 1.55045,-0.48973 1.07442,-1.98455 -2.21552,-10.61947 -3.35352,-11.68315 -0.0578,-0.054 -0.2282,-0.2912 -0.48533,-0.63378 -1.0992,-1.35996 -2.96526,-3.78652 -4.79264,-5.01319 -2.63234,-2.03512 -7.42794,-5.06116 -8.47281,-5.19278 0,0 0,0 0,0 0,0 0,0 0,0"
             style="fill:#c88f05;fill-opacity:1"
             inkscape:connector-curvature="0" />
          <path
             id="path13548"
             d="m 306.50855,466.23361 c -0.91778,-0.0235 -0.86245,0.57559 -0.64548,2.31218 0.5967,1.62976 2.9106,5.61011 4.54931,8.33992 0.14838,0.26188 0.29163,0.51034 0.42724,0.74161 1.25082,2.24972 4.13605,4.48664 4.43545,5.26231 0.46611,1.20757 4.04164,3.24228 5.67657,3.75608 0.50068,0.19934 0.85339,0.15082 0.91527,-0.19418 0.4385,-1.46041 -2.70223,-8.61406 -3.98247,-9.8107 -0.065,-0.0608 -0.21978,-0.26834 -0.44353,-0.56044 -1.03665,-1.24526 -2.66994,-3.37353 -4.2317,-4.55178 -2.30542,-2.02163 -6.17926,-4.87551 -6.70066,-5.295 0,0 0,0 0,0 0,0 0,0 0,0"
             style="fill:#ca9205;fill-opacity:1"
             inkscape:connector-curvature="0" />
          <path
             id="path13550"
             d="m 306.98565,467.39245 c -0.43835,-0.26737 -0.0873,0.1103 0.39391,1.45797 0.88052,1.28381 3.06558,4.54656 4.63396,6.9336 0.1386,0.22376 0.27296,0.43816 0.40109,0.64032 1.15061,1.91812 3.49562,3.86849 3.82828,4.73035 0.5179,1.34174 3.19102,3.32183 4.07507,4.04933 0.25251,0.2725 0.37958,0.31602 0.28009,0.10136 -0.19741,-0.93627 -3.18893,-6.60865 -4.61142,-7.93825 -0.0723,-0.0675 -0.21136,-0.24548 -0.40171,-0.4871 -0.9741,-1.13056 -2.37464,-2.96054 -3.67076,-4.09037 -1.9785,-2.00814 -4.9306,-4.68986 -4.92851,-5.39721 0,0 0,0 0,0 0,0 0,0 0,0"
             style="fill:#cc9406;fill-opacity:1"
             inkscape:connector-curvature="0" />
          <path
             id="path13552"
             d="m 307.46274,468.55128 c 0.0411,-0.51123 0.68779,-0.35499 1.4333,0.60377 1.16435,0.93785 3.22057,3.483 4.71861,5.52728 0.12883,0.18563 0.25429,0.36598 0.37495,0.53903 1.0504,1.58652 2.85518,3.25034 3.22111,4.19838 0.56969,1.47592 2.3404,3.40139 2.47357,4.34259 0.004,0.34567 -0.0942,0.48123 -0.35508,0.3969 -0.83334,-0.41213 -3.67564,-4.60324 -5.24038,-6.0658 -0.0795,-0.0743 -0.20293,-0.22261 -0.3599,-0.41377 -0.91155,-1.01585 -2.07932,-2.54754 -3.10982,-3.62894 -1.65158,-1.99466 -3.68193,-4.50422 -3.15636,-5.49944 0,0 0,0 0,0 0,0 0,0 0,0"
             style="fill:#ce9706;fill-opacity:1"
             inkscape:connector-curvature="0" />
          <path
             id="path13554"
             d="m 307.93984,469.71011 c 0.52053,-0.7551 1.4629,-0.82027 2.47268,-0.25043 1.44819,0.5919 3.37557,2.41945 4.80327,4.12095 0.11906,0.14752 0.23561,0.29381 0.3488,0.43775 0.95019,1.25492 2.21474,2.63219 2.61394,3.66642 0.62147,1.61009 1.48979,3.48094 0.87208,4.63583 -0.24384,0.41884 -0.56805,0.64644 -0.99026,0.69245 -1.46926,0.11201 -4.16235,-2.59783 -5.86934,-4.19335 -0.0867,-0.0811 -0.1945,-0.19975 -0.31808,-0.34043 -0.84901,-0.90115 -1.78402,-2.13455 -2.54889,-3.16753 -1.32466,-1.98117 -2.43326,-4.31857 -1.3842,-5.60166 0,0 0,0 0,0 0,0 0,0 0,0"
             style="fill:url(#radialGradient15094);fill-opacity:1"
             inkscape:connector-curvature="0" />
        </g>
        <path
           style="fill:#5c2f01"
           d="m 308.61024,402.16404 -20.05,19.9 -29.99999,30 -19.95001,20.1 c -5.09001,26.89032 35.82648,15.77647 35.82648,15.77647 0,0 13.18712,-5.00258 20.05,-9.925 6.86288,-4.92242 15.09782,-13.13595 20.025,-20 4.92718,-6.86405 9.925,-20.075 9.925,-20.075 0,0 11.80029,-35.81126 -15.82648,-35.77647 z"
           id="path4076-6-9"
           inkscape:connector-curvature="0"
           sodipodi:nodetypes="ccccczzcc" />
        <g
           id="g10505">
          <path
             style="fill:#673d08;fill-opacity:1"
             d="m 307.10197,405.23359 c -0.15105,0.0626 -18.80079,18.53004 -18.92036,18.65048 -0.11727,0.11811 -10.29626,10.34091 -18.35523,18.48666 -5.28767,5.33229 -9.67716,9.77245 -9.70052,9.85751 -0.0415,0.15114 -10.69249,11.02657 -15.69265,16.27231 -1.59155,1.63947 -2.63071,2.72054 -2.6102,2.73227 -2.71167,15.29135 10.57209,17.24516 21.30706,16.47006 6.75302,-0.47195 12.50299,-2.05324 12.5705,-2.09895 0.10918,-0.0739 12.38144,-4.78365 18.79988,-9.43082 4.48473,-3.25615 9.56975,-7.99326 13.79391,-12.76225 1.84389,-2.08005 3.52788,-4.16823 4.92796,-6.14253 4.59587,-6.46797 9.24421,-18.80408 9.21251,-18.92083 -0.0124,-0.0457 0.97047,-3.13929 1.61912,-7.42336 1.4071,-9.89515 1.01297,-25.80053 -16.95198,-25.69055 0,0 0,0 0,0"
             id="path10507"
             inkscape:connector-curvature="0" />
          <path
             style="fill:#724c10;fill-opacity:1"
             d="m 305.5937,408.30315 c -0.3021,0.12513 -17.55157,17.16006 -17.79072,17.40094 -0.23453,0.23622 -9.6689,9.75822 -17.12277,17.38563 -4.88121,4.97046 -8.94201,9.1326 -8.98874,9.30271 -0.083,0.30228 -9.85416,10.43563 -14.32554,15.35661 -1.43954,1.52226 -2.37117,2.5291 -2.33015,2.55257 -2.30701,14.11927 10.13165,15.80902 20.17593,15.01421 6.26975,-0.46548 11.61769,-1.95704 11.75272,-2.04846 0.21835,-0.14784 11.57575,-4.56473 17.54975,-8.93664 4.19301,-3.08639 8.92197,-7.5405 12.84232,-12.02864 1.70989,-1.95425 3.2742,-3.91911 4.57643,-5.78093 4.26455,-6.07189 8.5634,-17.53316 8.5,-17.76666 -0.0248,-0.0915 0.85161,-2.97269 1.40707,-6.93889 1.11443,-9.24596 0.45075,-23.7082 -16.2463,-23.51245 0,0 0,0 0,0"
             id="path10509"
             inkscape:connector-curvature="0" />
          <path
             style="fill:#7e5b18;fill-opacity:1"
             d="m 304.08543,411.3727 c -0.45315,0.18771 -16.30236,15.7901 -16.66109,16.15142 -0.35179,0.35433 -9.04154,9.17552 -15.89029,16.28459 -4.47475,4.60863 -8.20688,8.49275 -8.27697,8.74792 -0.12455,0.45342 -9.01583,9.84467 -12.95842,14.44089 -1.28754,1.40507 -2.11164,2.33768 -2.05011,2.37287 -1.90235,12.94719 9.69121,14.37289 19.04479,13.55837 5.7865,-0.45902 10.7324,-1.86085 10.93494,-1.99798 0.32754,-0.22176 10.77007,-4.34581 16.29962,-8.44246 3.9013,-2.91662 8.2742,-7.08772 11.89074,-11.29502 1.5759,-1.82846 3.02051,-3.66999 4.22489,-5.41934 3.93324,-5.6758 7.88261,-16.26223 7.78751,-16.61248 -0.0373,-0.13722 0.73274,-2.80609 1.19501,-6.45442 0.82177,-8.59677 -0.11146,-21.61587 -15.54062,-21.33436 0,0 0,0 0,0"
             id="path10511"
             inkscape:connector-curvature="0" />
          <path
             style="fill:#896a20;fill-opacity:1"
             d="m 302.57716,414.44226 c -0.6042,0.25027 -15.05314,14.42013 -15.53145,14.90189 -0.46905,0.47244 -8.41418,8.59281 -14.65782,15.18354 -4.0683,4.24681 -7.47174,7.85292 -7.5652,8.19314 -0.16607,0.60455 -8.17749,9.25372 -11.5913,13.52518 -1.13554,1.28787 -1.85211,2.14624 -1.77007,2.19316 -1.49769,11.77512 9.25077,12.93676 17.91366,12.10253 5.30323,-0.45256 9.84711,-1.76465 10.11715,-1.94749 0.43672,-0.29568 9.96439,-4.12689 15.0495,-7.94828 3.60957,-2.74685 7.62642,-6.63495 10.93915,-10.56141 1.4419,-1.70267 2.76683,-3.42087 3.87336,-5.05774 3.60192,-5.27972 7.2018,-14.99131 7.07501,-15.45831 -0.0497,-0.18295 0.61387,-2.63948 0.98295,-5.96994 0.5291,-7.94759 -0.67368,-19.52355 -14.83494,-19.15627 0,0 0,0 0,0"
             id="path10513"
             inkscape:connector-curvature="0" />
          <path
             style="fill:#947928;fill-opacity:1"
             d="m 301.06889,417.51181 c -0.75525,0.31284 -13.80393,13.05016 -14.40181,13.65236 -0.58632,0.59056 -7.78682,8.01012 -13.42536,14.08251 -3.66184,3.88498 -6.7366,7.21307 -6.85342,7.63834 -0.20759,0.7557 -7.33916,8.66278 -10.22419,12.60948 -0.98353,1.17067 -1.59257,1.9548 -1.49002,2.01345 -1.09303,10.60305 8.81033,11.50064 16.78253,10.64669 4.81996,-0.4461 8.96181,-1.66846 9.29937,-1.89701 0.54589,-0.3696 9.1587,-3.90796 13.79937,-7.4541 3.31785,-2.57708 6.97865,-6.18217 9.98756,-9.82779 1.3079,-1.57687 2.51315,-3.17175 3.52182,-4.69614 3.27062,-4.88365 6.52101,-13.72039 6.36251,-14.30414 -0.0621,-0.22869 0.49501,-2.47288 0.7709,-5.48547 0.23644,-7.2984 -1.2359,-17.43122 -14.12926,-16.97818 0,0 0,0 0,0"
             id="path10515"
             inkscape:connector-curvature="0" />
          <path
             style="fill:#a08830;fill-opacity:1"
             d="m 299.56062,420.58137 c -0.9063,0.3754 -12.55471,11.68019 -13.27217,12.40283 -0.70358,0.70866 -7.15947,7.42741 -12.19289,12.98147 -3.25539,3.52315 -6.00147,6.57322 -6.14165,7.08355 -0.24911,0.90683 -6.50083,8.07183 -8.85707,11.69376 -0.83153,1.05347 -1.33304,1.76337 -1.20998,1.83376 -0.68837,9.43096 8.36989,10.0645 15.6514,9.19084 4.33669,-0.43964 8.07651,-1.57226 8.48158,-1.84652 0.65507,-0.44352 8.35302,-3.68904 12.54925,-6.95992 3.02613,-2.40732 6.33087,-5.72941 9.03597,-9.09418 1.1739,-1.45108 2.25947,-2.92262 3.17028,-4.33454 2.93931,-4.48757 5.84021,-12.44948 5.65002,-13.14997 -0.0745,-0.27443 0.37614,-2.30628 0.55884,-5.001 -0.0562,-6.64921 -1.79811,-15.33889 -13.42358,-14.80008 0,0 0,0 0,0"
             id="path10517"
             inkscape:connector-curvature="0" />
          <path
             style="fill:#ab9638;fill-opacity:1"
             d="m 298.05236,423.65092 c -1.05736,0.43797 -11.30551,10.31022 -12.14254,11.15331 -0.82085,0.82677 -6.53211,6.84471 -10.96042,11.88042 -2.84894,3.16133 -5.26633,5.93338 -5.42988,6.52877 -0.29062,1.05797 -5.66249,7.48088 -7.48996,10.77805 -0.67952,0.93627 -1.0735,1.57193 -0.92993,1.65405 -0.28371,8.25889 7.92945,8.62837 14.52026,7.735 3.85343,-0.43317 7.19122,-1.47607 7.66381,-1.79604 0.76424,-0.51744 7.54734,-3.47011 11.29911,-6.46574 2.73441,-2.23755 5.6831,-5.27663 8.08439,-8.36056 1.0399,-1.32529 2.00579,-2.6735 2.81875,-3.97294 2.60799,-4.09149 5.15941,-11.17856 4.93751,-11.9958 -0.0869,-0.32017 0.25728,-2.13967 0.34679,-4.51652 -0.34889,-6.00003 -2.36033,-13.24658 -12.71789,-12.622 0,0 0,0 0,0"
             id="path10519"
             inkscape:connector-curvature="0" />
          <path
             style="fill:#b7a540;fill-opacity:1"
             d="m 296.54409,426.72048 c -1.20841,0.50054 -10.05629,8.94025 -11.0129,9.90377 -0.93811,0.94489 -5.90476,6.26201 -9.72795,10.77939 -2.44249,2.7995 -4.5312,5.29353 -4.71811,5.97397 -0.33214,1.20911 -4.82416,6.88994 -6.12284,9.86234 -0.52752,0.81908 -0.81397,1.38051 -0.64989,1.47435 0.12095,7.08681 7.48901,7.19224 13.38913,6.27916 3.37016,-0.42671 6.30592,-1.37987 6.84602,-1.74555 0.87343,-0.59136 6.74166,-3.25119 10.04899,-5.97156 2.44269,-2.06778 5.03532,-4.82386 7.1328,-7.62695 0.9059,-1.19949 1.75211,-2.42438 2.46721,-3.61134 2.27668,-3.69541 4.47862,-9.90764 4.22502,-10.84162 -0.0993,-0.36592 0.13842,-1.97308 0.13474,-4.03206 -0.64157,-5.35084 -2.92256,-11.15425 -12.01222,-10.4439 0,0 0,0 0,0"
             id="path10521"
             inkscape:connector-curvature="0" />
          <path
             style="fill:#c2b448;fill-opacity:1"
             d="m 295.03582,429.79003 c -1.35946,0.56311 -8.80708,7.57029 -9.88327,8.65425 -1.05537,1.063 -5.27739,5.67931 -8.49548,9.67834 -2.03603,2.43768 -3.79605,4.65369 -4.00633,5.41919 -0.37366,1.36025 -3.98583,6.29898 -4.75572,8.94663 -0.37552,0.70187 -0.55444,1.18907 -0.36985,1.29465 0.52561,5.91473 7.04857,5.7561 12.258,4.8233 2.8869,-0.42024 5.42062,-1.28367 6.02823,-1.69506 0.98261,-0.66528 5.93598,-3.03227 8.79887,-5.47738 2.15097,-1.89801 4.38755,-4.37108 6.18121,-6.89333 0.7719,-1.0737 1.49843,-2.17526 2.11568,-3.24975 1.94536,-3.29932 3.79781,-8.63671 3.51252,-9.68744 -0.11178,-0.41166 0.0195,-1.80648 -0.0773,-3.54758 -0.93424,-4.70165 -3.48477,-9.06193 -11.30654,-8.26582 0,0 0,0 0,0"
             id="path10523"
             inkscape:connector-curvature="0" />
          <path
             style="fill:#cdc350;fill-opacity:1"
             d="m 293.52755,432.85959 c -1.51051,0.62567 -7.55787,6.20031 -8.75363,7.40472 -1.17263,1.1811 -4.65003,5.0966 -7.26301,8.5773 -1.62958,2.07584 -3.06092,4.01384 -3.29456,4.86439 -0.41518,1.51139 -3.14749,5.70804 -3.38861,8.03092 -0.22351,0.58468 -0.2949,0.99764 -0.0898,1.11495 0.93027,4.74266 6.60813,4.31998 11.12687,3.36746 2.40363,-0.41378 4.53532,-1.18747 5.21045,-1.64457 1.09178,-0.7392 5.13029,-2.81335 7.54874,-4.9832 1.85925,-1.72825 3.73977,-3.91832 5.22962,-6.15972 0.6379,-0.94791 1.24474,-1.92614 1.76414,-2.88815 1.61405,-2.90324 3.11702,-7.36579 2.80002,-8.53327 -0.12419,-0.4574 -0.0993,-1.63987 -0.28937,-3.06311 -1.2269,-4.05246 -4.04699,-6.9696 -10.60086,-6.08772 0,0 0,0 0,0"
             id="path10525"
             inkscape:connector-curvature="0" />
          <path
             style="fill:#d9d258;fill-opacity:1"
             d="m 292.01928,435.92914 c -1.66156,0.68824 -6.30865,4.83035 -7.62399,6.15519 -1.2899,1.29922 -4.02268,4.51391 -6.03054,7.47627 -1.22313,1.71401 -2.32579,3.37399 -2.58279,4.3096 -0.4567,1.66253 -2.30916,5.11709 -2.02149,7.11521 -0.0715,0.46748 -0.0354,0.8062 0.19024,0.93524 1.33493,3.57058 6.16769,2.88385 9.99573,1.91162 1.92037,-0.40732 3.65004,-1.09128 4.39267,-1.59409 1.20096,-0.81312 4.32461,-2.59442 6.29862,-4.48902 1.56752,-1.55848 3.09199,-3.46554 4.27803,-5.4261 0.5039,-0.82211 0.99106,-1.67702 1.4126,-2.52655 1.28274,-2.50716 2.43622,-6.09487 2.08753,-7.3791 -0.13661,-0.50314 -0.21818,-1.47327 -0.50143,-2.57864 -1.51957,-3.40327 -4.60921,-4.87727 -9.89518,-3.90963 0,0 0,0 0,0"
             id="path10527"
             inkscape:connector-curvature="0" />
          <path
             style="fill:#e4e160;fill-opacity:1"
             d="m 290.51101,438.9987 c -1.81261,0.7508 -5.05944,3.46038 -6.49435,4.90566 -1.40716,1.41733 -3.39532,3.93121 -4.79808,6.37522 -0.81667,1.35219 -1.59064,2.73416 -1.87101,3.75482 -0.49821,1.81366 -1.47083,4.52614 -0.65438,6.19949 0.0805,0.35029 0.22417,0.61477 0.47029,0.75555 1.73958,2.3985 5.72725,1.44771 8.8646,0.45577 1.4371,-0.40085 2.76474,-0.99509 3.57488,-1.5436 1.31014,-0.88704 3.51893,-2.3755 5.04849,-3.99485 1.27581,-1.3887 2.44422,-3.01276 3.32645,-4.69248 0.3699,-0.69632 0.73738,-1.4279 1.06107,-2.16495 0.95142,-2.11108 1.75542,-4.82395 1.37503,-6.22493 -0.14903,-0.54887 -0.33705,-1.30667 -0.71349,-2.09416 -1.81223,-2.75409 -5.17142,-2.78495 -9.1895,-1.73154 0,0 0,0 0,0"
             id="path10529"
             inkscape:connector-curvature="0" />
        </g>
        <path
           style="fill:#f0f068"
           d="m 289.00274,442.06825 c -3.88934,1.61102 -7.3193,5.04098 -8.93032,8.93032 -1.13915,2.75018 -2.54878,6.37628 -0.4465,8.48381 2.10227,2.10753 5.7329,0.71322 8.4838,-0.42423 3.89521,-1.6106 7.31971,-5.05744 8.93032,-8.95265 1.13744,-2.75088 2.55142,-6.37891 0.44652,-8.4838 -2.1049,-2.1049 -5.73364,-0.69262 -8.48382,0.44655 z"
           id="path4502-2"
           inkscape:connector-curvature="0"
           sodipodi:nodetypes="sssssss" />
        <path
           style="fill:#1b3175"
           d="m 176.5945,340.08545 0,49.96875 30.05312,29.95 9.95,0.07 30.05,29.93 19.925,0.05 0,10 c 0,0 2.92925,1.26605 8.82426,-1.17574 5.89501,-2.44179 17.69963,-14.10499 20.14142,-20 2.44179,-5.89501 1.03432,-8.82426 1.03432,-8.82426 l -10,0 -0.1,-19.925 -29.9,-30.075 -0.1,-9.89375 -29.9,-30.05 z"
           id="path3516-7-1"
           inkscape:connector-curvature="0"
           sodipodi:nodetypes="ccccccczzccccccc" />
        <path
           style="fill:#5054b7;fill-opacity:1"
           d="m 180.58349,388.45622 c 9.31556,9.08636 18.44034,18.7308 27.875,27.46875 6.52098,-1.01052 13.46141,1.32731 16.86429,7.20617 7.6494,7.62919 15.29881,15.25839 22.94821,22.88758 7.21875,0.0211 14.43748,0.0508 21.65625,0.0625 2.32808,3.29592 -0.52105,7.96897 0.625,11.03125 6.24558,-0.44504 10.86891,-4.41404 14.90687,-8.9761 2.29184,-2.5893 4.3951,-5.36964 6.49938,-7.80515 1.33091,-2.1141 3.49007,-7.56169 -1.09375,-5.9375 -2.95269,0.50228 -8.11764,-0.3143 -8.11764,-0.3143 0,0 -1.33361,-6.47936 -0.53861,-8.8732 -0.0443,-5.18867 2.21368,-12.03902 -1.96875,-16.15625 -9.55116,-9.09538 -19.41672,-18.10998 -27.75,-28.375 1.78488,-6.09954 -1.27835,-12.17513 -6.45559,-15.39612 -7.45726,-6.81836 -14.12744,-15.52925 -22.07566,-21.16708 -14.45833,-0.0102 -28.91667,-0.0204 -43.375,-0.0306 0,14.79167 0,29.58333 0,44.375 z"
           id="path15136"
           inkscape:connector-curvature="0"
           sodipodi:nodetypes="ccccccscccccccccsc" />
        <path
           style="fill:url(#linearGradient16556);fill-opacity:1"
           d="m 184.43432,351.87818 -0.025,30 30.50005,29.95 9.5,0.05 30.025,30 20,0 -90,-90 z"
           id="path3628-9"
           inkscape:connector-curvature="0"
           sodipodi:nodetypes="cccccccc" />
        <path
           style="fill:url(#linearGradient16738);fill-opacity:1"
           d="m 188.825,347.1125 90,89.975 0,-20 -30,-30 0,-10 -30,-30 z"
           id="path3560-1"
           inkscape:connector-curvature="0"
           sodipodi:nodetypes="ccccccc" />
      </g>
    </g>
  </g>
</svg>
