<?xml version="1.0" encoding="UTF-8" standalone="no"?>
<!-- Created with Inkscape (http://www.inkscape.org/) -->

<svg
   xmlns:dc="http://purl.org/dc/elements/1.1/"
   xmlns:cc="http://creativecommons.org/ns#"
   xmlns:rdf="http://www.w3.org/1999/02/22-rdf-syntax-ns#"
   xmlns:svg="http://www.w3.org/2000/svg"
   xmlns="http://www.w3.org/2000/svg"
   xmlns:xlink="http://www.w3.org/1999/xlink"
   xmlns:sodipodi="http://sodipodi.sourceforge.net/DTD/sodipodi-0.dtd"
   xmlns:inkscape="http://www.inkscape.org/namespaces/inkscape"
   width="200.33749"
   height="200.33751"
   id="svg10670"
   version="1.1"
   inkscape:version="0.48.1 "
   sodipodi:docname="New document 14">
  <defs
     id="defs10672">
    <radialGradient
       inkscape:collect="always"
       xlink:href="#linearGradient4826"
       id="radialGradient4832"
       cx="320.03293"
       cy="44.628525"
       fx="320.03293"
       fy="44.628525"
       r="32.283951"
       gradientTransform="matrix(0.86810624,-0.90700189,1.3686771,1.3099828,18.911477,595.23275)"
       gradientUnits="userSpaceOnUse" />
    <linearGradient
       id="linearGradient4826">
      <stop
         style="stop-color:#ffffff;stop-opacity:1"
         offset="0"
         id="stop4828" />
      <stop
         id="stop4834"
         offset="0.73804939"
         style="stop-color:#ffffff;stop-opacity:1" />
      <stop
         style="stop-color:#b2b1b5;stop-opacity:1"
         offset="1"
         id="stop4830" />
    </linearGradient>
    <linearGradient
       gradientTransform="matrix(1.25,0,0,1.25,-224.8399,281.00369)"
       inkscape:collect="always"
       xlink:href="#linearGradient4718"
       id="linearGradient4724"
       x1="526.08746"
       y1="114.86873"
       x2="500.63159"
       y2="129.57655"
       gradientUnits="userSpaceOnUse" />
    <linearGradient
       inkscape:collect="always"
       id="linearGradient4718">
      <stop
         style="stop-color:#ededee;stop-opacity:1;"
         offset="0"
         id="stop4720" />
      <stop
         style="stop-color:#535253;stop-opacity:1"
         offset="1"
         id="stop4722" />
    </linearGradient>
    <radialGradient
       inkscape:collect="always"
       xlink:href="#linearGradient4738"
       id="radialGradient4744"
       cx="454.01941"
       cy="51.283512"
       fx="454.01941"
       fy="51.283512"
       r="57.895714"
       gradientTransform="matrix(-1.6188593,1.6488148,-1.7017644,-1.6708386,1178.1686,-317.11079)"
       gradientUnits="userSpaceOnUse" />
    <linearGradient
       id="linearGradient4738">
      <stop
         style="stop-color:#ffffff;stop-opacity:1"
         offset="0"
         id="stop4740" />
      <stop
         id="stop4774"
         offset="0.1674282"
         style="stop-color:#ffffff;stop-opacity:1" />
      <stop
         id="stop4772"
         offset="0.33300486"
         style="stop-color:#ededee;stop-opacity:1" />
      <stop
         id="stop4770"
         offset="0.51220447"
         style="stop-color:#b2b1b5;stop-opacity:1" />
      <stop
         id="stop4768"
         offset="0.68912941"
         style="stop-color:#ededee;stop-opacity:1" />
      <stop
         style="stop-color:#5a5857;stop-opacity:1"
         offset="1"
         id="stop4742" />
    </linearGradient>
    <linearGradient
       gradientTransform="matrix(1.25,0,0,1.25,-224.8399,281.00369)"
       inkscape:collect="always"
       xlink:href="#linearGradient4685"
       id="linearGradient4691"
       x1="506.28845"
       y1="177.94266"
       x2="506.28845"
       y2="123.05951"
       gradientUnits="userSpaceOnUse" />
    <linearGradient
       inkscape:collect="always"
       id="linearGradient4685">
      <stop
         style="stop-color:#b2b1b5;stop-opacity:1;"
         offset="0"
         id="stop4687" />
      <stop
         style="stop-color:#b2b1b5;stop-opacity:0;"
         offset="1"
         id="stop4689" />
    </linearGradient>
    <linearGradient
       gradientTransform="matrix(1.25,0,0,1.25,-224.8399,281.00369)"
       inkscape:collect="always"
       xlink:href="#linearGradient4726"
       id="linearGradient4732"
       x1="504.40002"
       y1="110"
       x2="493.19998"
       y2="137.59999"
       gradientUnits="userSpaceOnUse" />
    <linearGradient
       id="linearGradient4726">
      <stop
         id="stop4736"
         offset="0"
         style="stop-color:#5a5857;stop-opacity:1" />
      <stop
         id="stop4734"
         offset="0.34690771"
         style="stop-color:#b2b1b5;stop-opacity:1" />
      <stop
         style="stop-color:#5a5857;stop-opacity:1"
         offset="1"
         id="stop4730" />
    </linearGradient>
    <linearGradient
       gradientTransform="matrix(1.25,0,0,1.25,-224.8399,281.00369)"
       inkscape:collect="always"
       xlink:href="#linearGradient4671"
       id="linearGradient4677"
       x1="427.70383"
       y1="140.34354"
       x2="480.08896"
       y2="139.54353"
       gradientUnits="userSpaceOnUse" />
    <linearGradient
       id="linearGradient4671">
      <stop
         style="stop-color:#5a5857;stop-opacity:1"
         offset="0"
         id="stop4673" />
      <stop
         id="stop4683"
         offset="0.1650441"
         style="stop-color:#ffffff;stop-opacity:1" />
      <stop
         id="stop4681"
         offset="0.49674973"
         style="stop-color:#b2b1b5;stop-opacity:1" />
      <stop
         id="stop4679"
         offset="0.75173056"
         style="stop-color:#5a5857;stop-opacity:1" />
      <stop
         style="stop-color:#b2b1b5;stop-opacity:1"
         offset="1"
         id="stop4675" />
    </linearGradient>
    <linearGradient
       inkscape:collect="always"
       xlink:href="#linearGradient5507-3-3-6-1"
       id="linearGradient133197"
       gradientUnits="userSpaceOnUse"
       gradientTransform="matrix(0.93280072,0,0,0.93280064,1222.7963,501.83523)"
       x1="143.49998"
       y1="22.901928"
       x2="106.24998"
       y2="22.401928" />
    <linearGradient
       id="linearGradient5507-3-3-6-1">
      <stop
         id="stop5509-1-5-0-3"
         offset="0"
         style="stop-color:#ff0000;stop-opacity:1;" />
      <stop
         id="stop5511-9-8-9-8"
         offset="1"
         style="stop-color:#ff6600;stop-opacity:1" />
    </linearGradient>
    <linearGradient
       inkscape:collect="always"
       xlink:href="#linearGradient5507-3-3-6-1"
       id="linearGradient10845"
       gradientUnits="userSpaceOnUse"
       gradientTransform="matrix(0.93280072,0,0,0.93280064,1222.7963,501.83523)"
       x1="143.49998"
       y1="22.901928"
       x2="106.24998"
       y2="22.401928" />
    <linearGradient
       id="linearGradient10847">
      <stop
         id="stop10849"
         offset="0"
         style="stop-color:#ff0000;stop-opacity:1;" />
      <stop
         id="stop10851"
         offset="1"
         style="stop-color:#ff6600;stop-opacity:1" />
    </linearGradient>
    <linearGradient
       y2="22.401928"
       x2="106.24998"
       y1="22.901928"
       x1="143.49998"
       gradientTransform="matrix(1.1660009,0,0,1.1660008,177.57439,420.5308)"
       gradientUnits="userSpaceOnUse"
       id="linearGradient10855"
       xlink:href="#linearGradient5507-3-3-6-1"
       inkscape:collect="always" />
  </defs>
  <sodipodi:namedview
     id="base"
     pagecolor="#ffffff"
     bordercolor="#666666"
     borderopacity="1.0"
     inkscape:pageopacity="0.0"
     inkscape:pageshadow="2"
     inkscape:zoom="0.79433594"
     inkscape:cx="399.83764"
     inkscape:cy="-92.088608"
     inkscape:document-units="px"
     inkscape:current-layer="layer1"
     showgrid="false"
     fit-margin-left="0.2"
     fit-margin-bottom="0.2"
     fit-margin-top="0.2"
     fit-margin-right="0.2"
     inkscape:window-width="1280"
     inkscape:window-height="780"
     inkscape:window-x="-8"
     inkscape:window-y="-8"
     inkscape:window-maximized="1" />
  <metadata
     id="metadata10675">
    <rdf:RDF>
      <cc:Work
         rdf:about="">
        <dc:format>image/svg+xml</dc:format>
        <dc:type
           rdf:resource="http://purl.org/dc/dcmitype/StillImage" />
        <dc:title></dc:title>
      </cc:Work>
    </rdf:RDF>
  </metadata>
  <g
     inkscape:label="Layer 1"
     inkscape:groupmode="layer"
     id="layer1"
     transform="translate(-236.97411,-303.622)">
    <g
       id="g10927">
      <text
         xml:space="preserve"
         style="font-size:46.64002228px;font-style:normal;font-weight:normal;line-height:125%;letter-spacing:0px;word-spacing:0px;fill:url(#linearGradient10855);fill-opacity:1;stroke:none;font-family:StoneSerITCStd Medium;-inkscape-font-specification:StoneSerITCStd Medium"
         x="288.05304"
         y="448.69196"
         id="text5503-8"
         sodipodi:linespacing="125%"><tspan
           sodipodi:role="line"
           id="tspan5505-1"
           x="288.05304"
           y="448.69196"
           style="font-size:6.99600458px;fill:url(#linearGradient10855);fill-opacity:1">Created by Falzar FZ</tspan></text>
      <g
         id="g10857">
        <path
           style="fill:#8cb5fb;fill-opacity:1"
           d="m 274.70536,303.822 -37.53125,37.53125 0,124.87502 37.53125,37.53124 124.875,0 37.53125,-37.53124 0,-124.87502 -37.53125,-37.5 z"
           id="path1978-1-9-0-3-8"
           inkscape:connector-curvature="0"
           sodipodi:nodetypes="ccccccccc" />
        <path
           sodipodi:nodetypes="cccccccccccsczccc"
           inkscape:connector-curvature="0"
           id="path16-8-5-3"
           d="m 332.98938,308.12612 c -17.42589,-0.54386 -37.26404,7.17029 -49.6233,20.02239 -20.57616,17.67658 -37.84574,29.77104 -40.11887,58.63352 -0.27523,15.17846 8.95985,29.54138 18.68259,38.72538 10.75763,8.25289 18.66468,19.22168 25.97832,29.44533 3.04851,4.43503 6.35374,10.1307 9.71716,13.95937 17.57694,9.51048 32.97903,6.84181 52.20164,6.49218 8.16018,12.96733 -9.94701,28.35522 -9.94701,28.35522 l 59.70045,0 37.53125,-37.53515 -0.0958,-62.08381 c 0,0 -28.32396,20.78461 -27.84345,15.03592 1.68459,-20.1535 0.96815,-45.10308 -2.20328,-64.81288 -2.4635,-12.24782 -9.06902,-21.99249 -19.59629,-30.18914 -10.52728,-8.19664 -24.97057,-15.68136 -39.07087,-15.65771 -5.09253,-0.42018 -10.20555,-0.49548 -15.3125,-0.39062 z"
           style="fill:#2a2a2a" />
        <path
           style="fill:#2a2a2a;fill-opacity:1"
           d="m 320.98938,313.37612 c -16.67589,3.95614 -27.26404,10.92029 -39.3733,22.52239 -20.57616,17.67658 -31.84574,26.27104 -32.86887,51.13352 1.22477,14.92846 6.59893,22.21296 16.82167,32.64696 11.00764,10.00288 23.50048,30.42877 30.83924,37.77375 5.79851,3.93503 18.35374,10.8807 24.21716,11.95937 24.82694,3.26048 38.10482,2.55636 53.70164,-5.75782 15.45473,-10.05458 32.84549,-40.47782 32.84549,-40.47782 0,0 1.21815,-47.35308 -1.95328,-67.06288 -2.46355,-12.24782 -10.31907,-21.49249 -20.84635,-29.68914 -10.52727,-8.19664 -22.47056,-13.18136 -36.57086,-13.15771 -5.09254,-0.42018 -10.20555,-0.49548 -15.3125,-0.39062 z"
           id="path4838"
           inkscape:connector-curvature="0"
           sodipodi:nodetypes="ccccccccczccc" />
        <g
           transform="matrix(1.25,0,0,1.25,-224.8399,281.00369)"
           id="g6202">
          <path
             inkscape:connector-curvature="0"
             style="fill:#282828;fill-opacity:1"
             d="m 436.33655,29.591849 c -12.3145,2.921458 -21.12706,8.318927 -30.91178,17.102601 -7.12907,5.75073 -12.91514,10.249744 -16.84732,14.851635 -4.88969,5.722491 -8.02363,13.080669 -8.73942,22.377601 -0.0523,0.679551 -0.0705,1.413951 -0.0624,2.191231 0.97743,10.028074 4.67987,16.220643 10.60737,22.636433 0.78823,0.85316 1.6723,1.78399 2.64035,2.78622 8.3817,7.6887 18.18992,23.44897 24.14873,29.36175 4.65933,3.24782 14.28703,8.62699 18.8242,9.38926 0.10164,0.0117 0.20293,0.0232 0.3039,0.0344 18.51043,2.27513 29.28765,1.67445 41.60324,-4.57177 6.79233,-4.10306 13.91085,-12.61655 18.78139,-19.73307 4.12329,-5.99649 6.88988,-11.03352 6.90514,-11.36176 0.0364,-0.78194 0.87787,-36.959315 -1.51107,-52.289204 -0.93418,-4.953149 -2.85533,-9.213445 -5.49464,-12.800383 -2.65223,-3.604494 -6.3784,-6.8768 -10.72695,-9.971834 -8.25023,-6.117371 -17.68678,-9.881894 -28.62463,-9.93553 -3.99419,-0.341903 -7.98541,-0.426673 -11.93365,-0.373188 -0.28499,-0.03858 -8.96245,0.305598 -8.96245,0.305598"
             id="path6204" />
          <path
             inkscape:connector-curvature="0"
             style="fill:#262626;fill-opacity:1"
             d="m 436.00967,33.285752 c -11.28829,2.678003 -20.44289,7.90162 -30.32492,16.187288 -7.20669,5.443693 -13.09362,9.717247 -16.69812,13.935646 -4.48222,5.245618 -7.65697,13.359163 -8.31311,21.881351 -0.048,0.622921 -0.0401,1.337009 0.008,2.117125 1.09003,9.515108 5.04409,16.123138 10.47762,22.004278 0.72255,0.78206 1.58425,1.69872 2.56047,2.72347 7.95729,7.37507 17.57945,22.55491 23.62608,28.5045 4.67984,3.34759 13.89107,8.54941 18.27467,9.211 0.099,0.01 0.19761,0.0191 0.29578,0.028 17.35975,1.98878 28.33797,1.37955 40.55718,-4.49645 6.92623,-3.87428 14.05563,-11.84337 18.65482,-18.63924 3.84073,-5.62035 6.41133,-10.51171 6.44186,-11.16818 0.0727,-1.56388 0.78121,-36.036166 -1.45953,-50.928097 -0.88534,-5.019132 -2.6715,-9.250259 -5.09087,-12.538285 -2.43121,-3.30412 -6.19931,-6.35144 -10.67523,-9.254844 -8.07864,-5.677424 -17.3971,-9.218694 -27.99257,-9.344891 -3.91436,-0.347658 -7.80638,-0.456957 -11.6173,-0.433877 -0.56998,-0.07715 -8.72487,0.211196 -8.72487,0.211196"
             id="path6206" />
          <path
             inkscape:connector-curvature="0"
             style="fill:#252525;fill-opacity:1"
             d="m 435.6828,36.979655 c -10.26209,2.434549 -19.75874,7.484312 -29.73807,15.271974 -7.28431,5.136657 -13.2721,9.184751 -16.54891,13.019659 -4.07475,4.768743 -7.29032,13.637656 -7.88681,21.385099 -0.0436,0.566292 -0.01,1.260067 0.0785,2.04302 1.20264,9.002143 5.40831,16.025633 10.34789,21.372123 0.65685,0.71097 1.49619,1.61344 2.48058,2.66071 7.53289,7.06146 16.96899,21.66085 23.10342,27.64725 4.70036,3.44738 13.49511,8.47184 17.72514,9.03276 0.0964,0.008 0.19229,0.0151 0.28768,0.0216 16.20906,1.70242 27.38827,1.08463 39.5111,-4.42115 7.06014,-3.64548 14.20041,-11.07019 18.52827,-17.54539 3.55816,-5.24422 5.93277,-9.9899 5.97856,-10.97461 0.10909,-2.34583 0.68456,-35.113018 -1.40797,-49.566991 -0.83651,-5.085113 -2.48768,-9.287071 -4.6871,-12.276186 -2.21019,-3.003745 -6.02024,-5.82608 -10.62353,-8.537854 -7.90705,-5.237478 -17.10742,-8.555494 -27.3605,-8.754253 -3.83452,-0.353413 -7.62735,-0.487241 -11.30094,-0.494565 -0.85499,-0.115727 -8.48729,0.116794 -8.48729,0.116794"
             id="path6208" />
          <path
             inkscape:connector-curvature="0"
             style="fill:#232323;fill-opacity:1"
             d="m 435.35592,40.673558 c -9.23588,2.191094 -19.07457,7.067005 -29.1512,14.356661 -7.36194,4.829619 -13.45059,8.652253 -16.39972,12.103671 -3.66727,4.291869 -6.92366,13.916148 -7.4605,20.888847 -0.0392,0.509663 0.0209,1.183125 0.14893,1.968915 1.31523,8.489177 5.77252,15.928128 10.21814,20.739968 0.59117,0.63987 1.40814,1.52817 2.4007,2.59795 7.10848,6.74784 16.35852,20.7668 22.58077,26.79001 4.72087,3.54715 13.09915,8.39426 17.1756,8.85451 0.0938,0.006 0.18697,0.011 0.27957,0.0152 15.05839,1.41607 26.43859,0.78973 38.46504,-4.34584 7.19403,-3.41668 14.34519,-10.29701 18.40171,-16.45154 3.27558,-4.86809 5.45421,-9.4681 5.51526,-10.78104 0.14546,-3.12777 0.58791,-34.18987 -1.35642,-48.205885 -0.78767,-5.151095 -2.30385,-9.323884 -4.28333,-12.014087 -1.98917,-2.703371 -5.84116,-5.30072 -10.57181,-7.820864 -7.73546,-4.797531 -16.81774,-7.892295 -26.72844,-8.163615 -3.75468,-0.359168 -7.44832,-0.517524 -10.98459,-0.555253 -1.13998,-0.154302 -8.24971,0.02239 -8.24971,0.02239"
             id="path6210" />
          <path
             inkscape:connector-curvature="0"
             style="fill:#222222;fill-opacity:1"
             d="m 435.02904,44.367461 c -8.20967,1.947639 -18.3904,6.649698 -28.56434,13.441348 -7.43956,4.522582 -13.62907,8.119756 -16.25052,11.187683 -3.2598,3.814994 -6.557,14.194641 -7.03419,20.392596 -0.0349,0.453033 0.0513,1.106183 0.21937,1.894809 1.42784,7.976211 6.13674,15.830623 10.08841,20.107813 0.52548,0.56877 1.32008,1.4429 2.32081,2.53519 6.68407,6.43423 15.74806,19.87275 22.05811,25.93276 4.74139,3.64694 12.70319,8.31669 16.62608,8.67626 0.0911,0.004 0.18164,0.007 0.27146,0.009 13.9077,1.12972 25.48889,0.49482 37.41897,-4.27052 7.32793,-3.18789 14.48996,-9.52383 18.27514,-15.35771 2.99302,-4.49195 4.97566,-8.94628 5.05198,-10.58746 0.18182,-3.90971 0.49125,-33.266722 -1.30488,-46.844778 -0.73883,-5.217078 -2.12002,-9.360697 -3.87956,-11.751989 -1.76815,-2.402996 -5.66208,-4.77536 -10.52009,-7.103875 -7.56387,-4.357583 -16.52807,-7.229094 -26.09638,-7.572976 -3.67485,-0.364922 -7.26929,-0.547808 -10.66824,-0.615941 -1.42497,-0.192878 -8.01213,-0.07201 -8.01213,-0.07201"
             id="path6212" />
          <path
             inkscape:connector-curvature="0"
             style="fill:#202020;fill-opacity:1"
             d="m 434.70216,48.061364 c -7.18346,1.704184 -17.70623,6.232391 -27.97748,12.526035 -7.51718,4.215545 -13.80755,7.587259 -16.10132,10.271695 -2.85232,3.33812 -6.19033,14.473134 -6.60788,19.896344 -0.0305,0.396404 0.0818,1.029241 0.28982,1.820704 1.54044,7.463248 6.50096,15.733118 9.95866,19.475658 0.4598,0.49768 1.23203,1.35763 2.24093,2.47244 6.25966,6.12061 15.13759,18.97869 21.53546,25.07551 4.7619,3.74672 12.30722,8.23911 16.07654,8.49801 0.0885,0.002 0.17632,0.003 0.26336,0.002 12.75701,0.84336 24.5392,0.19991 36.3729,-4.19522 7.46183,-2.95909 14.63473,-8.75065 18.14858,-14.26386 2.71045,-4.11582 4.49709,-8.42448 4.58868,-10.39389 0.21819,-4.69165 0.3946,-32.343573 -1.25333,-45.483672 -0.68999,-5.28306 -1.93619,-9.39751 -3.47578,-11.48989 -1.54714,-2.102622 -5.483,-4.25 -10.46838,-6.386885 -7.39228,-3.917636 -16.23839,-6.565894 -25.46432,-6.982337 -3.59501,-0.370678 -7.09026,-0.578093 -10.35189,-0.67663 -1.70996,-0.231453 -7.77455,-0.166412 -7.77455,-0.166412"
             id="path6214" />
          <path
             inkscape:connector-curvature="0"
             style="fill:#1f1f1f;fill-opacity:1"
             d="m 434.37529,51.755268 c -6.15725,1.460729 -17.02207,5.815083 -27.39063,11.61072 -7.5948,3.908508 -13.98603,7.054763 -15.95212,9.355708 -2.44485,2.861246 -5.82367,14.751626 -6.18157,19.400092 -0.0262,0.339775 0.11227,0.9523 0.36026,1.746599 1.65305,6.950283 6.86518,15.635613 9.82893,18.843503 0.39411,0.42658 1.14397,1.27235 2.16105,2.40968 5.83524,5.80699 14.52712,18.08464 21.01279,24.21826 4.78242,3.8465 11.91127,8.16154 15.52701,8.31977 0.0859,6e-5 0.171,-0.001 0.25525,-0.004 11.60634,0.557 23.58952,-0.095 35.32683,-4.11991 7.59574,-2.73029 14.77952,-7.97747 18.02203,-13.17001 2.42788,-3.73969 4.01853,-7.90267 4.12538,-10.20032 0.25455,-5.47359 0.29795,-31.420425 -1.20177,-44.122566 -0.64116,-5.349041 -1.75237,-9.434322 -3.07202,-11.227791 -1.32611,-1.802247 -5.30392,-3.72464 -10.41666,-5.669895 -7.22069,-3.477689 -15.94872,-5.902694 -24.83226,-6.391699 -3.51518,-0.376433 -6.91123,-0.608376 -10.03553,-0.737318 -1.99496,-0.270029 -7.53697,-0.260813 -7.53697,-0.260813"
             id="path6216" />
          <path
             inkscape:connector-curvature="0"
             style="fill:#1d1d1d;fill-opacity:1"
             d="m 434.04841,55.449171 c -5.13104,1.217274 -16.33791,5.397775 -26.80377,10.695407 -7.67242,3.601471 -14.16451,6.522265 -15.80292,8.43972 -2.03737,2.384371 -5.45701,15.030119 -5.75526,18.903841 -0.0218,0.283146 0.14273,0.875357 0.43071,1.672493 1.76565,6.437318 7.22939,15.538098 9.69918,18.211348 0.32843,0.35548 1.05592,1.18708 2.08117,2.34692 5.41083,5.49338 13.91666,17.19058 20.49013,23.36102 4.80294,3.94628 11.51531,8.08396 14.97749,8.14151 0.0833,-0.002 0.16568,-0.005 0.24714,-0.0104 10.45565,0.27064 22.63982,-0.38991 34.28076,-4.0446 7.72963,-2.50151 14.92429,-7.20429 17.89547,-12.07617 2.1453,-3.36356 3.53997,-7.38087 3.66209,-10.00675 0.29091,-6.25553 0.20129,-30.497277 -1.15023,-42.76146 -0.59232,-5.415023 -1.56854,-9.471135 -2.66825,-10.965692 -1.10509,-1.501873 -5.12484,-3.19928 -10.36494,-4.952905 -7.0491,-3.037742 -15.65905,-5.239494 -24.2002,-5.801061 -3.43534,-0.382187 -6.7322,-0.63866 -9.71918,-0.798006 -2.27995,-0.308604 -7.29939,-0.355215 -7.29939,-0.355215"
             id="path6218" />
          <path
             inkscape:connector-curvature="0"
             style="fill:#1c1c1c;fill-opacity:1"
             d="m 433.72153,59.143074 c -4.10483,0.973819 -15.65374,4.980468 -26.21691,9.780094 -7.75004,3.294433 -14.34299,5.989768 -15.65372,7.523732 -1.62989,1.907497 -5.09035,15.308611 -5.32894,18.407589 -0.0174,0.226517 0.17319,0.798415 0.50114,1.598388 1.87826,5.924353 7.59362,15.440593 9.56945,17.579193 0.26274,0.28439 0.96786,1.10181 2.00128,2.28417 4.98643,5.17976 13.30619,16.29652 19.96748,22.50376 4.82345,4.04606 11.11935,8.00639 14.42795,7.96327 0.0807,-0.004 0.16036,-0.009 0.23904,-0.0168 9.30496,-0.0157 21.69013,-0.68481 33.23469,-3.96929 7.86353,-2.27271 15.06907,-6.43111 17.7689,-10.98233 1.86274,-2.98742 3.06142,-6.85905 3.1988,-9.81317 0.32728,-7.03748 0.10464,-29.574128 -1.09868,-41.400353 -0.54349,-5.481006 -1.3847,-9.507948 -2.26447,-10.703594 -0.88408,-1.201498 -4.94577,-2.67392 -10.31324,-4.235915 -6.87751,-2.597796 -15.36936,-4.576294 -23.56813,-5.210422 -3.3555,-0.387943 -6.55317,-0.668944 -9.40283,-0.858695 -2.56495,-0.34718 -7.06181,-0.449617 -7.06181,-0.449617"
             id="path6220" />
          <path
             inkscape:connector-curvature="0"
             style="fill:#1a1a1a;fill-opacity:1"
             d="m 433.39465,62.836977 c -3.07862,0.730364 -14.96957,4.563161 -25.63004,8.864781 -7.82767,2.987396 -14.52148,5.457271 -15.50452,6.607743 -1.22243,1.430623 -4.7237,15.587105 -4.90264,17.911338 -0.0131,0.169888 0.20365,0.721474 0.57159,1.524283 1.99086,5.411388 7.95783,15.343088 9.4397,16.947038 0.19706,0.21329 0.87981,1.01653 1.9214,2.22141 4.56202,4.86614 12.69573,15.40247 19.44482,21.64652 4.84397,4.14584 10.72339,7.92881 13.87842,7.78502 0.0781,-0.006 0.15504,-0.0135 0.23093,-0.0232 8.15429,-0.30207 20.74044,-0.97973 32.18863,-3.89399 7.99743,-2.04391 15.21384,-5.65792 17.64234,-9.88848 1.58017,-2.61129 2.58286,-6.33725 2.73551,-9.6196 0.36364,-7.81942 0.008,-28.65098 -1.04714,-40.039247 -0.49465,-5.546988 -1.20087,-9.544761 -1.8607,-10.441495 -0.66306,-0.901124 -4.76668,-2.14856 -10.26152,-3.518925 -6.70592,-2.157849 -15.07969,-3.913095 -22.93607,-4.619784 -3.27567,-0.393697 -6.37414,-0.699228 -9.08648,-0.919383 -2.84994,-0.385756 -6.82423,-0.544019 -6.82423,-0.544019"
             id="path6222" />
          <path
             inkscape:connector-curvature="0"
             style="fill:#191919;fill-opacity:1"
             d="m 433.06778,66.53088 c -2.05242,0.48691 -14.28541,4.145854 -25.04319,7.949467 -7.90529,2.68036 -14.69996,4.924775 -15.35532,5.691756 -0.81495,0.953749 -4.35703,15.865598 -4.47633,17.415086 -0.009,0.113259 0.23412,0.644532 0.64203,1.450177 2.10347,4.898414 8.32205,15.245584 9.30997,16.314884 0.13137,0.14219 0.79175,0.93126 1.84151,2.15865 4.13761,4.55253 12.08526,14.50842 18.92217,20.78927 4.86448,4.24563 10.32743,7.85124 13.32889,7.60677 0.0754,-0.008 0.14971,-0.0176 0.22282,-0.0296 7.0036,-0.58842 19.79075,-1.27463 31.14255,-3.81867 8.13133,-1.81512 15.35863,-4.88475 17.51579,-8.79464 1.2976,-2.23516 2.1043,-5.81544 2.27221,-9.42603 0.4,-8.60136 -0.0887,-27.727832 -0.99558,-38.678141 -0.44582,-5.612969 -1.01705,-9.581573 -1.45694,-10.179396 -0.44203,-0.600749 -4.5876,-1.6232 -10.2098,-2.801935 -6.53433,-1.717902 -14.79001,-3.249895 -22.304,-4.029146 -3.19584,-0.399452 -6.19512,-0.729512 -8.77013,-0.980071 -3.13494,-0.424331 -6.58665,-0.638421 -6.58665,-0.638421"
             id="path6224" />
          <path
             inkscape:connector-curvature="0"
             style="fill:#171717;fill-opacity:1"
             d="m 432.7409,70.224783 c -1.02621,0.243455 -13.60124,3.728547 -24.45633,7.034154 -7.98291,2.373322 -14.87844,4.392277 -15.20612,4.775768 -0.40748,0.476874 -3.99037,16.14409 -4.05002,16.918835 -0.004,0.05663 0.26458,0.56759 0.71248,1.37607 2.21607,4.38545 8.68627,15.14808 9.18022,15.68273 0.0657,0.0711 0.7037,0.84599 1.76163,2.09589 3.7132,4.23891 11.4748,13.61436 18.39951,19.93203 4.885,4.3454 9.93147,7.77366 12.77936,7.42852 0.0728,-0.01 0.14439,-0.0217 0.21471,-0.036 5.85292,-0.87478 18.84106,-1.56955 30.09649,-3.74337 8.26523,-1.58632 15.5034,-4.11157 17.38922,-7.7008 1.01504,-1.85902 1.62575,-5.29363 1.80892,-9.23245 0.43637,-9.3833 -0.18532,-26.804684 -0.94403,-37.317034 -0.39698,-5.678952 -0.83322,-9.618387 -1.05316,-9.917298 -0.22102,-0.300375 -4.40853,-1.09784 -10.15809,-2.084945 -6.36274,-1.277955 -14.50034,-2.586695 -21.67194,-3.438508 -3.116,-0.405207 -6.01609,-0.759795 -8.45378,-1.040759 -3.41993,-0.462907 -6.34907,-0.732823 -6.34907,-0.732823"
             id="path6226" />
        </g>
        <path
           style="fill:#161616;fill-opacity:1"
           d="m 315.67762,373.40204 -48.65799,12.47328 -4.52964,20.52823 12.29177,20.44067 c 0,0 30.53512,37.73035 39.99378,35.39472 10.30187,-2.54385 53.19201,-3.3298 57.89136,-12.84377 4.34052,-8.78751 -0.24532,-68.31251 -0.24532,-68.31251 z"
           id="path4836"
           inkscape:connector-curvature="0"
           sodipodi:nodetypes="ccccsscc" />
        <g
           transform="matrix(1.25,0,0,1.25,-224.8399,281.00369)"
           id="g8976">
          <path
             inkscape:connector-curvature="0"
             id="path8978"
             d="m 432.41402,73.918686 c 0,0 -37.56118,9.628654 -38.41611,9.847813 -0.30412,0.07796 -1.32623,3.828675 -2.15214,7.571681 -0.84632,3.835518 -1.75906,7.972046 -1.82084,8.252003 -0.0761,0.344864 2.85423,5.743927 5.40902,9.992427 1.87787,3.12282 3.63498,5.97466 3.82104,6.18209 0.49468,0.55151 13.1248,16.04848 22.28415,23.48319 3.54256,2.87552 6.92439,4.91596 9.16968,4.65577 3.38177,-0.49691 10.7047,-0.78543 18.40686,-1.69257 11.52404,-1.35117 24.56752,-3.41441 27.22283,-7.90488 1.14309,-1.86463 1.76226,-6.40758 1.96722,-12.10116 0.51339,-15.60361 -1.38481,-40.916247 -1.42046,-41.517552 -0.008,-0.140155 -1.22617,-0.388316 -3.23737,-0.660543 -9.81632,-1.328696 -41.23388,-6.108269 -41.23388,-6.108269"
             style="fill:#141414;fill-opacity:1" />
          <path
             inkscape:connector-curvature="0"
             id="path8980"
             d="m 432.41402,73.918686 c 0,0 -36.19596,9.278687 -37.90583,9.717004 -0.60825,0.155923 -1.76851,3.651328 -2.5256,7.082417 -0.77579,3.515892 -1.6731,7.582454 -1.79664,8.142368 -0.1522,0.68973 2.44194,6.055785 4.78383,9.950235 1.72138,2.86259 3.47075,5.63139 3.84287,6.04626 0.98937,1.10302 13.54736,16.40159 21.94343,23.21674 3.24735,2.63589 6.58904,4.74467 8.96921,4.7454 3.46999,-0.18053 10.6588,-0.16889 18.0563,-1.0837 11.01919,-1.35105 23.83645,-3.42477 26.89,-7.83618 1.36242,-1.85912 2.18239,-6.20244 2.47578,-11.63517 0.70528,-14.7784 -1.11471,-39.749638 -1.18601,-40.952247 -0.0166,-0.280311 -1.13975,-0.598964 -2.98335,-0.848506 -8.9983,-1.217971 -40.56399,-6.544621 -40.56399,-6.544621"
             style="fill:#121212;fill-opacity:1" />
          <path
             inkscape:connector-curvature="0"
             id="path8982"
             d="m 432.41402,73.918686 c 0,0 -34.83075,8.92872 -37.39555,9.586196 -0.91237,0.233883 -2.2108,3.47398 -2.89906,6.593152 -0.70526,3.196265 -1.58713,7.192863 -1.77245,8.032734 -0.22829,1.034594 2.02966,6.367642 4.15865,9.908052 1.56489,2.60235 3.30653,5.28812 3.8647,5.91041 1.48405,1.65454 13.96992,16.75471 21.6027,22.95029 2.95214,2.39627 6.2537,4.57339 8.76874,4.83505 3.55823,0.13584 10.6129,0.44763 17.70575,-0.47484 10.51433,-1.35093 23.10538,-3.43514 26.55716,-7.76747 1.58177,-1.85362 2.60253,-5.99731 2.98435,-11.16919 0.89717,-13.9532 -0.84462,-38.583028 -0.95157,-40.386942 -0.0249,-0.420466 -1.05333,-0.809613 -2.72932,-1.036469 -8.18028,-1.107246 -39.8941,-6.980973 -39.8941,-6.980973"
             style="fill:#101010;fill-opacity:1" />
          <path
             inkscape:connector-curvature="0"
             id="path8984"
             d="m 432.41402,73.918686 c 0,0 -33.46554,8.578753 -36.88527,9.455387 -1.2165,0.311845 -2.65308,3.296634 -3.27251,6.103889 -0.63475,2.876638 -1.50117,6.803271 -1.74827,7.923099 -0.30438,1.379458 1.61738,6.679489 3.53347,9.865869 1.4084,2.34211 3.1423,4.94485 3.88653,5.77457 1.97873,2.20606 14.39248,17.10781 21.26198,22.68384 2.65693,2.15665 5.91835,4.4021 8.56826,4.92468 3.64647,0.45221 10.56701,1.06417 17.3552,0.13403 10.00948,-1.3508 22.37432,-3.4455 26.22433,-7.69877 1.80111,-1.84811 3.02266,-5.79217 3.49292,-10.7032 1.08905,-13.12799 -0.57453,-37.416419 -0.71714,-39.821638 -0.0332,-0.56062 -0.9669,-1.02026 -2.4753,-1.22443 -7.36224,-0.996522 -39.2242,-7.417326 -39.2242,-7.417326"
             style="fill:#0f0f0f;fill-opacity:1" />
          <path
             inkscape:connector-curvature="0"
             id="path8986"
             d="m 432.41402,73.918686 c 0,0 -32.10032,8.228787 -36.37498,9.324579 -1.52063,0.389806 -3.09538,3.119286 -3.64598,5.614624 -0.56422,2.557012 -1.41521,6.41368 -1.72408,7.813464 -0.38047,1.724323 1.2051,6.991347 2.90829,9.823677 1.25192,2.08189 2.97807,4.60158 3.90836,5.63874 2.47342,2.75757 14.81504,17.46092 20.92126,22.41739 2.36171,1.91702 5.583,4.2308 8.36779,5.01432 3.7347,0.76858 10.5211,1.6807 17.00463,0.74289 9.50463,-1.35068 21.64326,-3.45586 25.8915,-7.63007 2.02046,-1.8426 3.4428,-5.58703 4.00149,-10.2372 1.28094,-12.3028 -0.30444,-36.249819 -0.48269,-39.256343 -0.0416,-0.700775 -0.88048,-1.230908 -2.22128,-1.412393 -6.54422,-0.885797 -38.55431,-7.853678 -38.55431,-7.853678"
             style="fill:#0d0d0d;fill-opacity:1" />
          <path
             inkscape:connector-curvature="0"
             id="path8988"
             d="m 432.41402,73.918686 c 0,0 -30.73511,7.87882 -35.8647,9.19377 -1.82475,0.467768 -3.53766,2.94194 -4.01944,5.12536 -0.49369,2.237386 -1.32924,6.024088 -1.69988,7.70383 -0.45658,2.069188 0.79281,7.303204 2.2831,9.781494 1.09543,1.82165 2.81384,4.25831 3.93018,5.5029 2.96811,3.30908 15.2376,17.81403 20.58055,22.15094 2.0665,1.67739 5.24765,4.05951 8.16731,5.10396 3.82294,1.08495 10.47521,2.29722 16.65408,1.35175 8.99978,-1.35056 20.91219,-3.46623 25.55867,-7.56137 2.2398,-1.83709 3.86292,-5.38188 4.51005,-9.77121 1.47283,-11.47759 -0.0344,-35.083209 -0.24825,-38.691038 -0.0499,-0.840931 -0.79405,-1.441556 -1.96725,-1.600356 -5.72619,-0.775072 -37.88442,-8.29003 -37.88442,-8.29003"
             style="fill:#0b0b0b;fill-opacity:1" />
          <path
             inkscape:connector-curvature="0"
             id="path8990"
             d="m 432.41402,73.918686 c 0,0 -29.3699,7.528853 -35.35442,9.062962 -2.12888,0.545728 -3.97994,2.764592 -4.3929,4.636095 -0.42316,1.917759 -1.24327,5.634497 -1.67569,7.594196 -0.53267,2.414052 0.38053,7.615061 1.65792,9.739311 0.93894,1.56141 2.64961,3.91504 3.95201,5.36706 3.4628,3.86059 15.66016,18.16714 20.23983,21.88449 1.77128,1.43776 4.9123,3.88822 7.96683,5.19359 3.91118,1.40132 10.42932,2.91376 16.30353,1.96062 8.49493,-1.35043 20.18113,-3.47659 25.22583,-7.49267 2.45914,-1.83158 4.28306,-5.17674 5.01862,-9.30522 1.66472,-10.65238 0.23575,-33.9166 -0.0138,-38.125733 -0.0582,-0.981086 -0.70763,-1.652205 -1.71322,-1.788318 -4.90817,-0.664348 -37.21453,-8.726383 -37.21453,-8.726383"
             style="fill:#0a0a0a;fill-opacity:1" />
          <path
             inkscape:connector-curvature="0"
             id="path8992"
             d="m 432.41402,73.918686 c 0,0 -28.00468,7.178886 -34.84414,8.932153 -2.433,0.62369 -4.42223,2.587246 -4.76636,4.146832 -0.35263,1.598132 -1.15731,5.244905 -1.6515,7.484561 -0.60876,2.758916 -0.0317,7.926918 1.03274,9.697118 0.78245,1.30118 2.48538,3.57177 3.97384,5.23122 3.95748,4.41211 16.08272,18.52025 19.89911,21.61805 1.47607,1.19813 4.57695,3.71692 7.76636,5.28323 3.99941,1.71769 10.38341,3.53028 15.95296,2.56948 7.99008,-1.35031 19.45007,-3.48695 24.89301,-7.42396 2.67848,-1.82608 4.70319,-4.97161 5.52719,-8.83924 1.8566,-9.82718 0.50583,-32.74999 0.22063,-37.560428 -0.0665,-1.121241 -0.62121,-1.862853 -1.45921,-1.976281 -4.09013,-0.553623 -36.54463,-9.162735 -36.54463,-9.162735"
             style="fill:#080808;fill-opacity:1" />
          <path
             inkscape:connector-curvature="0"
             id="path8994"
             d="m 432.41402,73.918686 c 0,0 -26.63947,6.828919 -34.33386,8.801345 -2.73713,0.701651 -4.86451,2.409898 -5.13982,3.657567 -0.2821,1.278506 -1.07134,4.855314 -1.6273,7.374926 -0.68487,3.103781 -0.44404,8.238776 0.40756,9.654936 0.62595,1.04094 2.32115,3.2285 3.99566,5.09538 4.45216,4.96362 16.50528,18.87336 19.55839,21.3516 1.18086,0.9585 4.2416,3.54563 7.56588,5.37287 4.08764,2.03406 10.33752,4.14681 15.60241,3.17833 7.48523,-1.35018 18.719,-3.49731 24.56017,-7.35525 2.89783,-1.82058 5.12333,-4.76647 6.03576,-8.37325 2.04849,-9.00197 0.77593,-31.58338 0.45507,-36.995123 -0.0748,-1.261396 -0.53478,-2.073501 -1.20518,-2.164243 -3.27211,-0.442899 -35.87474,-9.599088 -35.87474,-9.599088"
             style="fill:#060606;fill-opacity:1" />
          <path
             inkscape:connector-curvature="0"
             id="path8996"
             d="m 432.41402,73.918686 c 0,0 -25.27426,6.478952 -33.82358,8.670536 -3.04125,0.779613 -5.3068,2.232552 -5.51327,3.168303 -0.21159,0.95888 -0.98538,4.465722 -1.60312,7.265292 -0.76096,3.448646 -0.85632,8.550623 -0.21762,9.612753 0.46946,0.7807 2.15692,2.88523 4.01749,4.95954 4.94685,5.51514 16.92784,19.22647 19.21767,21.08514 0.88564,0.71889 3.90625,3.37435 7.3654,5.46251 4.17588,2.35043 10.29162,4.76335 15.25186,3.7872 6.98037,-1.35005 17.98794,-3.50767 24.22734,-7.28655 3.11717,-1.81507 5.54346,-4.56132 6.54432,-7.90726 2.24038,-8.17676 1.04602,-30.416771 0.68952,-36.429819 -0.0831,-1.401551 -0.44836,-2.284148 -0.95116,-2.352205 -2.45408,-0.332174 -35.20485,-10.03544 -35.20485,-10.03544"
             style="fill:#050505;fill-opacity:1" />
          <path
             inkscape:connector-curvature="0"
             id="path8998"
             d="m 432.41402,73.918686 c 0,0 -23.90904,6.128985 -33.3133,8.539728 -3.34537,0.857574 -5.74908,2.055204 -5.88673,2.679038 -0.14106,0.639253 -0.89942,4.076131 -1.57893,7.155658 -0.83705,3.79351 -1.2686,8.86248 -0.8428,9.57057 0.31298,0.52047 1.99269,2.54195 4.03932,4.8237 5.44153,6.06665 17.35039,19.57958 18.87695,20.81869 0.59043,0.47926 3.57089,3.20305 7.16493,5.55215 4.26411,2.6668 10.24572,5.37987 14.9013,4.39606 6.47552,-1.34993 17.25687,-3.51804 23.8945,-7.21785 3.33651,-1.80956 5.9636,-4.35618 7.05289,-7.44126 2.43227,-7.35157 1.31611,-29.250171 0.92396,-35.864524 -0.0914,-1.541706 -0.36194,-2.494797 -0.69713,-2.540168 -1.63606,-0.221449 -34.53496,-10.471792 -34.53496,-10.471792"
             style="fill:#030303;fill-opacity:1" />
          <path
             inkscape:connector-curvature="0"
             id="path9000"
             d="m 432.41402,73.918686 c 0,0 -22.54383,5.779018 -32.80302,8.408919 -3.6495,0.935535 -6.19137,1.877858 -6.26019,2.189775 -0.0705,0.319626 -0.81345,3.686539 -1.55474,7.046022 -0.91314,4.138375 -1.68088,9.174338 -1.46798,9.528378 0.15649,0.26024 1.82846,2.19869 4.06115,4.68787 5.93621,6.61816 17.77295,19.93268 18.53623,20.55224 0.29521,0.23963 3.23554,3.03176 6.96445,5.64178 4.35235,2.98318 10.19983,5.99641 14.55074,5.00493 5.97068,-1.3498 16.52582,-3.5284 23.56168,-7.14915 3.55585,-1.80405 6.38373,-4.15104 7.56146,-6.97527 2.62415,-6.52636 1.5862,-28.083562 1.15839,-35.299219 -0.0997,-1.681861 -0.27551,-2.705445 -0.44311,-2.72813 -0.81802,-0.110725 -33.86506,-10.908145 -33.86506,-10.908145"
             style="fill:#010101;fill-opacity:1" />
        </g>
        <path
           sodipodi:nodetypes="ccccsscc"
           inkscape:connector-curvature="0"
           id="path4307"
           d="m 315.67762,373.40204 -48.65799,12.47328 -4.52964,20.52823 27.84812,31.04727 c 0,0 16.74653,16.51715 26.2052,14.18152 10.30186,-2.54385 34.42424,-7.4732 39.12359,-16.98717 4.34052,-8.78751 1.50468,-47.06251 1.50468,-47.06251 z"
           style="fill:#000000;fill-opacity:1" />
        <path
           sodipodi:nodetypes="czsccssccscc"
           inkscape:connector-curvature="0"
           id="path1208-2-8-0"
           d="m 367.88342,417.86382 c 0,0 -2.86009,24.11673 -8.50642,30.8865 -5.64634,6.76979 -11.286,6.15454 -19.75994,6.81605 -10.89165,0.85025 -32.76025,-0.962 -32.76025,-0.962 l 2.93751,9.7891 c 0,0 10.81282,1.4789 16.25169,1.87212 7.93142,0.57341 15.92025,1.35588 23.84589,0.70731 5.90455,-0.48319 17.44302,-3.40811 17.44302,-3.40811 l 9.98424,-8.96593 c 0,0 3.15547,-16.50834 3.05646,-25.14126 -0.055,-4.79884 -1.2422,-14.34376 -1.2422,-14.34376 z"
           style="fill:url(#linearGradient4677);fill-opacity:1" />
        <path
           inkscape:connector-curvature="0"
           id="path6333"
           d="m 384.75615,406.42539 c 0,0 2.48122,19.44745 4.29202,26.4571 1.41694,5.48495 10.77513,27.7071 10.77513,27.7071 l 8.7737,-6.05013 -8.5111,-22.64414 4.5422,0.31678 -2.35809,-13.92454 -3.90222,2.61428 -3.76328,-16.95133 z"
           style="fill:url(#linearGradient4732);fill-opacity:1"
           sodipodi:nodetypes="cscccccccc" />
        <path
           sodipodi:nodetypes="ssssccssccs"
           inkscape:connector-curvature="0"
           id="path1210-1-8"
           d="m 413.74506,453.7443 c -7.04889,3.49276 -13.42441,8.20762 -20.05005,12.44875 -7.33798,4.69709 -15.06614,8.88634 -21.81803,14.39275 -4.76898,3.88929 -9.46231,8.05657 -13.05761,13.05092 -2.20249,3.05957 -5.0434,10.12279 -5.0434,10.12279 l 29.9999,0 c 0,0 6.51471,-10.0386 10.42343,-14.54372 6.15898,-7.09875 12.28248,-14.70662 20.37071,-19.49265 6.78,-4.01193 22.5416,-7.10298 22.5416,-7.10298 l -0.033,-17.77766 c 0,0 -15.87441,5.20575 -23.33355,8.9018 z"
           style="fill:url(#linearGradient4691);fill-opacity:1" />
        <path
           inkscape:connector-curvature="0"
           id="path4337"
           d="m 282.15293,399.98989 c -7.96541,-0.5073 -7.48591,14.23296 0.84141,12.78958 8.96808,0.84693 8.18477,-14.82058 -0.84141,-12.78958 z"
           style="fill:#f60200"
           sodipodi:nodetypes="ccc" />
        <path
           style="fill:#f60200"
           d="m 321.12238,392.4417 c -7.96541,-0.5073 -7.48591,14.23295 0.84141,12.78957 8.96808,0.84693 8.18477,-14.82058 -0.84141,-12.78957 z"
           id="path940-34"
           inkscape:connector-curvature="0"
           sodipodi:nodetypes="ccc" />
        <path
           sodipodi:nodetypes="ssssccssssssscsscccsssssscccccccccccccccccccccccccc"
           inkscape:connector-curvature="0"
           id="path108-8-0-5"
           d="m 344.03562,321.00085 c -8.36604,0.03 -16.83573,0.39227 -25,2.21875 -8.78496,1.96534 -17.87198,4.2963 -25.35355,9.30269 -7.2052,4.82146 -14.40061,11.0942 -17.59499,19.15381 -2.01477,5.08342 -4.43447,14.28196 -4.43447,14.28196 l -5.6219,9.68739 c 0,0 -10.19838,10.16334 -8.74877,21.22611 1.49177,11.38458 9.50184,23.75023 17.94118,31.53555 5.39536,4.97725 11.72784,9.67013 18.875,11.34375 5.38297,1.26051 5.76294,3.76816 10.8744,1.66145 5.72041,-2.3577 5.7795,-3.49232 10.65196,-3.30669 3.82281,0.14565 6.34008,2.60717 9.90301,2.3824 2.17318,-0.13708 4.2264,-0.52833 5.82187,-2.96296 2.68302,-4.09421 2.7541,-12.90267 2.7541,-12.90267 0,0 5.21357,-4.13639 6.47885,-7.07253 1.93959,-4.50089 -0.57061,-10.04297 1.05995,-14.6648 1.3844,-3.92407 7.11213,-10.25921 7.11213,-10.25921 l 17.98223,-1.57351 11.58394,11.6783 c 0,0 9.07995,2.93146 12.88665,0.91789 4.18245,-2.21232 5.7152,-7.75772 7.1342,-12.27145 3.07524,-9.7821 4.7271,-20.63991 2.53738,-30.65748 -2.01358,-9.21167 -7.44868,-17.75375 -13.88297,-24.64645 -5.46707,-5.85657 -12.50607,-10.59921 -20.08151,-13.2071 -7.23482,-2.49064 -15.2272,-1.89264 -22.87869,-1.8652 z m -30.30783,58.38996 12.09375,7.875 2.34375,19.125 -7.75,11.5 -10.09375,-8.40625 -4.27628,-13.00005 -7.82865,-6.54825 -4.57029,-7.88432 z m -42.5138,9.90325 4.56057,8.26317 2.45971,9.23176 9.63466,5.61156 -0.23992,12.6446 -5.14505,1.41086 -11.18183,-9.84055 -5.82994,-9.37082 z m 22.70935,27.03708 4.96876,2.25 3.41239,4.92121 -1.47849,6.03271 -5.33161,0.2584 -2.78832,-3.15625 -2.47023,-5.64982 z"
           style="fill:url(#radialGradient4744);fill-opacity:1" />
        <path
           style="fill:#5a5857"
           d="m 313.95579,328.75419 2.08478,15.84027 -3.25434,11.55188 -13.63019,2.70486 -9.9139,7.07149 -13.6767,3.87349 16.68588,0.17678 7.92469,-7.19748 10.72867,-2.35006 6.323,-3.95641 9.04576,0.70467 5.42155,13.62255 17.08532,-1.12121 -14.19565,-3.97876 -4.05923,-9.46141 -10.97671,-2.07222 1.72825,-11.6856 z"
           id="path216-7"
           inkscape:connector-curvature="0"
           sodipodi:nodetypes="cccccccccccccccccc" />
        <path
           style="fill:url(#linearGradient4724);fill-opacity:1"
           d="m 420.27866,422.98376 c -4.18131,2.74278 -8.8639,7.25583 -11.06741,11.02453 -2.20352,3.7687 -2.82843,10.18688 -2.82843,10.18688 0,0 8.51755,-2.73408 13.01531,-5.3033 4.49777,-2.56921 11.34124,-6.21343 13.54229,-10.31741 2.20105,-4.10397 0.70711,-10.894 0.70711,-10.894 0,0 -9.18756,2.56053 -13.36887,5.3033 z"
           id="path1216-1"
           inkscape:connector-curvature="0"
           sodipodi:nodetypes="sscsscs" />
        <path
           sodipodi:nodetypes="ccccccc"
           inkscape:connector-curvature="0"
           id="path108-8-0-5-0"
           d="m 321.51784,322.70223 c 47.35021,-0.66593 67.22312,20.30548 74.17313,41.47311 3.59695,6.9575 5.62153,11.29822 5.62153,11.29822 0,0 1.46615,-6.37668 -0.51648,-14.74 -1.58313,-7.98131 -6.74156,-18.1515 -13.17583,-25.0442 -5.46709,-5.85656 -12.43958,-10.8011 -20.08153,-13.2071 -22.45386,-4.6959 -46.02081,0.21997 -46.02081,0.21997 z"
           style="fill:url(#radialGradient4832);fill-opacity:1" />
        <path
           inkscape:connector-curvature="0"
           style="fill:#5a5857;fill-opacity:1"
           d="m 415.18992,470.73209 -7.625,5.84375 c 0,0 3.59091,6.84183 6.5,12.69378 l 7.9375,-7.9375 z"
           id="path16-8-5-3-2"
           sodipodi:nodetypes="ccccc" />
      </g>
    </g>
  </g>
</svg>
