<?xml version="1.0" encoding="UTF-8" standalone="no"?>
<!-- Created with Inkscape (http://www.inkscape.org/) -->
<svg
   xmlns:svg="http://www.w3.org/2000/svg"
   xmlns="http://www.w3.org/2000/svg"
   version="1.0"
   width="34"
   height="34"
   id="svg2211">
  <defs
     id="defs2214" />
  <path
     d="M 33.248707,16.910053 C 33.248849,25.931816 25.936749,33.246239 16.914986,33.248963 C 7.8932229,33.251687 0.57670761,25.941681 0.57140183,16.919919 C 0.56609604,7.898157 7.8740081,0.5795499 16.895768,0.57166216 C 25.917528,0.56377441 33.238226,7.8695917 33.248696,16.891349 L 16.910053,16.910053 L 33.248707,16.910053 z "
     transform="translate(0.2285598,0.1142799)"
     style="opacity:1;color:#000000;fill:#000000;fill-opacity:1;fill-rule:evenodd;stroke:#000000;stroke-width:0.5;stroke-linecap:butt;stroke-linejoin:miter;marker:none;marker-start:none;marker-mid:none;marker-end:none;stroke-miterlimit:4;stroke-dasharray:none;stroke-dashoffset:0;stroke-opacity:1;visibility:visible;display:inline;overflow:visible;enable-background:accumulate"
     id="path2220" />
  <path
     d="M 28.271267,28.624471 C 27.184221,30.375041 18.245484,28.719532 15.423731,26.160573 L 15.423731,18.171697 L 13.931496,18.594638 L 13.205914,16.844133 L 15.423731,16.291961 L 15.423731,11.428146 L 17.559406,11.428146 L 17.559406,15.739789 L 20.530185,14.940902 L 20.530185,7.4337073 L 22.652171,7.4337073 L 22.652171,14.529709 L 29.747239,12.622233 C 29.352016,16.039862 30.068478,22.090397 24.455481,21.055349 L 24.099536,18.975892 C 27.495223,20.681235 27.161809,17.400088 27.447281,15.018896 L 22.652171,16.362452 L 22.652171,24.057619 L 20.530185,24.057619 L 20.530185,16.914624 L 17.559406,17.713511 L 17.559406,25.725884 C 19.911647,27.119119 26.666538,27.737791 29.610303,26.798899 L 28.271267,28.624471 z M 11.876903,22.412589 L 3.9776423,24.821 L 2.745522,23.305463 L 6.9762167,21.935637 L 6.9762167,16.410607 L 3.4437235,16.410607 L 3.4437235,14.660104 L 6.9762167,14.660104 L 6.9762167,9.5378244 L 8.68708,9.5378244 L 8.68708,14.660104 L 11.630479,14.660104 L 11.630479,16.410607 L 8.68708,16.410607 L 8.68708,21.496218 L 11.876903,20.591595 L 11.876903,22.412589 z "
     style="font-size:28px;font-style:normal;font-variant:normal;font-weight:normal;font-stretch:normal;text-align:start;line-height:125%;writing-mode:lr-tb;text-anchor:start;fill:#ffffff;fill-opacity:1;stroke:#cccccc;stroke-width:0.4638052;stroke-linecap:butt;stroke-linejoin:miter;stroke-miterlimit:4;stroke-dasharray:none;stroke-opacity:1;font-family:Arial Unicode MS"
     id="text3194" />
  <path
     d="M 2.9173512,2.0051932 L 7.6595387,2.0051932 L 7.6595387,3.2278495 L 4.6907887,3.2278495 L 4.6907887,4.1380057 L 7.444695,4.1380057 L 7.444695,5.3059745 L 4.6907887,5.3059745 L 4.6907887,6.4348807 L 7.7454762,6.4348807 L 7.7454762,7.7317557 L 2.9173512,7.7317557 L 2.9173512,2.0051932 z M 12.225945,6.7864432 L 10.21032,6.7864432 L 9.9329762,7.7317557 L 8.1243825,7.7317557 L 10.276726,2.0051932 L 12.206414,2.0051932 L 14.358757,7.7317557 L 12.507195,7.7317557 L 12.225945,6.7864432 z M 11.854851,5.548162 L 11.222039,3.4895682 L 10.593132,5.548162 L 11.854851,5.548162 z M 14.944695,7.7317557 L 14.944695,2.0051932 L 17.893914,2.0051932 C 18.440785,2.005199 18.858753,2.0520739 19.14782,2.1458182 C 19.436877,2.2395737 19.66995,2.4134017 19.847039,2.6673026 C 20.024116,2.9212137 20.112658,3.2304582 20.112664,3.595037 C 20.112658,3.9127491 20.04495,4.1868374 19.909539,4.4173026 C 19.774117,4.6477744 19.587919,4.8346232 19.350945,4.9778495 C 19.199898,5.068998 18.992867,5.1445187 18.729851,5.204412 C 18.940784,5.2747269 19.09443,5.3450394 19.190789,5.4153495 C 19.255888,5.4622268 19.350289,5.5624871 19.473992,5.7161307 C 19.597685,5.8697784 19.680367,5.9882679 19.722039,6.0715995 L 20.577507,7.7317557 L 18.577507,7.7317557 L 17.632195,5.9817557 C 17.5124,5.7551952 17.405629,5.6080599 17.311882,5.5403495 C 17.184275,5.4518101 17.039744,5.4075393 16.878289,5.407537 L 16.722039,5.407537 L 16.722039,7.7317557 L 14.944695,7.7317557 z M 16.722039,4.3255057 L 17.468132,4.3255057 C 17.548858,4.3255091 17.705108,4.2994675 17.936882,4.2473807 C 18.054066,4.2239467 18.149769,4.164051 18.223992,4.0676932 C 18.298207,3.9713428 18.335316,3.8606659 18.33532,3.735662 C 18.335316,3.5507703 18.276722,3.4088434 18.159539,3.3098807 C 18.042348,3.2109269 17.822296,3.1614478 17.499382,3.1614432 L 16.722039,3.1614432 L 16.722039,4.3255057 z M 20.737664,2.0051932 L 26.11657,2.0051932 L 26.11657,3.4192557 L 24.311882,3.4192557 L 24.311882,7.7317557 L 22.542351,7.7317557 L 22.542351,3.4192557 L 20.737664,3.4192557 L 20.737664,2.0051932 z M 26.92907,2.0051932 L 28.698601,2.0051932 L 28.698601,4.0090995 L 30.632195,4.0090995 L 30.632195,2.0051932 L 32.409539,2.0051932 L 32.409539,7.7317557 L 30.632195,7.7317557 L 30.632195,5.4153495 L 28.698601,5.4153495 L 28.698601,7.7317557 L 26.92907,7.7317557 L 26.92907,2.0051932 z "
     style="font-size:8px;font-style:normal;font-weight:normal;fill:#999999;fill-opacity:1;stroke:#b3b3b3;stroke-width:0.40000001;stroke-linecap:butt;stroke-linejoin:miter;stroke-miterlimit:4;stroke-opacity:1;font-family:Arial Black"
     id="text2497" />
</svg>
