<?xml version="1.0" encoding="UTF-8" standalone="no"?>
<!-- Created with Inkscape (http://www.inkscape.org/) -->

<svg
   xmlns:svg="http://www.w3.org/2000/svg"
   xmlns="http://www.w3.org/2000/svg"
   xmlns:xlink="http://www.w3.org/1999/xlink"
   version="1.0"
   width="34"
   height="34"
   id="svg2211">
  <defs
     id="defs2214">
    <linearGradient
       id="linearGradient3276">
      <stop
         id="stop3278"
         style="stop-color:#ff0330;stop-opacity:1"
         offset="0" />
      <stop
         id="stop3280"
         style="stop-color:#ff0330;stop-opacity:0"
         offset="1" />
    </linearGradient>
    <linearGradient
       id="linearGradient3264">
      <stop
         id="stop3266"
         style="stop-color:#2b156c;stop-opacity:1"
         offset="0" />
      <stop
         id="stop3268"
         style="stop-color:#6ee1ee;stop-opacity:1"
         offset="1" />
    </linearGradient>
    <radialGradient
       cx="16.910053"
       cy="16.910053"
       r="16.338654"
       fx="16.910053"
       fy="16.910053"
       id="radialGradient3270"
       xlink:href="#linearGradient3264"
       gradientUnits="userSpaceOnUse" />
    <radialGradient
       cx="16.910053"
       cy="16.910053"
       r="16.338654"
       fx="16.910053"
       fy="16.910053"
       id="radialGradient3274"
       xlink:href="#linearGradient3276"
       gradientUnits="userSpaceOnUse"
       gradientTransform="matrix(0.675931,1.31771e-7,-5.57684e-8,0.28607,5.48003,12.0726)" />
    <radialGradient
       cx="16.910053"
       cy="16.910053"
       r="16.338654"
       fx="16.910053"
       fy="16.910053"
       id="radialGradient3288"
       xlink:href="#linearGradient3264"
       gradientUnits="userSpaceOnUse" />
    <linearGradient
       x1="28.5714"
       y1="28.160311"
       x2="5.0713987"
       y2="8.0716553"
       id="linearGradient4345"
       xlink:href="#linearGradient3264"
       gradientUnits="userSpaceOnUse" />
  </defs>
  <path
     d="m 33.248707,16.910053 c 1.42e-4,9.021763 -7.311958,16.336186 -16.333721,16.33891 C 7.8932229,33.251687 0.57670761,25.941681 0.57140183,16.919919 0.56609604,7.898157 7.8740081,0.5795499 16.895768,0.57166216 25.917528,0.56377441 33.238226,7.8695917 33.248696,16.891349 l -16.338643,0.0187 16.338654,0 z"
     transform="translate(0.22856,0.11428)"
     id="path2220"
     style="color:#000000;fill:url(#linearGradient4345) #000000;fill-opacity:1;fill-rule:evenodd;stroke:none;stroke-width:0.5;marker:none;visibility:visible;display:inline;overflow:visible" />
  <path
     d="M 16.479966,29.723922 C 16.352006,29.54114 16.21492,29.43604 16.068705,29.408623 15.922468,29.381206 15.757964,29.34008 15.575193,29.285245 15.3924,28.919681 15.195909,28.572394 14.98572,28.243385 c -0.21021,-0.329006 -0.31531,-0.70371 -0.3153,-1.124111 l 0.08225,0 0,0.164504 0.466095,0 c 0.182772,-1.023578 0.274163,-2.079145 0.274174,-3.166705 -1.1e-5,-1.087548 0.05482,-2.170533 0.164504,-3.248956 l -0.08225,-0.10967 0,-4.962541 -0.08225,-0.740268 0.08225,-0.356426 c -0.05485,-0.292436 -0.100541,-0.594027 -0.137087,-0.904773 -0.03657,-0.310713 -0.10968,-0.584887 -0.219339,-0.82252 l -0.109669,0 -0.08225,-3.6190909 0.08225,0 c 0.182772,0.2376371 0.424958,0.3747237 0.72656,0.4112603 0.301579,0.036576 0.607739,0.054854 0.918481,0.054835 l 0.822521,0.7951029 0,0.6306 -0.274174,3.180413 0.08225,0.274173 -0.191921,1.096694 1.178946,0.164504 c 0.365551,-0.420385 0.744824,-0.854493 1.13782,-1.302324 0.392967,-0.447801 0.653432,-0.945883 0.781395,-1.494246 l -0.630599,-0.466095 0.712851,-0.164504 0.08225,-0.191921 0.904773,-0.274174 0,-0.164504 0.191921,0 c 0.292435,0.1828 0.607734,0.2879 0.945899,0.3153 0.338129,0.02743 0.653428,0.09598 0.945899,0.20563 l 0.109669,0.82252 c -0.493531,0.603198 -0.982473,1.224657 -1.466828,1.86438 -0.484391,0.639753 -1.055585,1.169821 -1.713585,1.590207 -0.237633,0.05485 -0.461541,0.114252 -0.671725,0.178213 -0.210215,0.06399 -0.406706,0.187364 -0.589473,0.370134 l -0.10967,0.246756 c 0.548332,0.913923 1.096679,1.823265 1.645042,2.728027 0.54833,0.904781 1.215485,1.750149 2.001466,2.536105 1.206345,0.785971 2.458403,1.434847 3.756178,1.946632 1.297732,0.511795 2.577207,1.041864 3.83843,1.590207 l 0,0.274174 0.08225,0 -2.878823,0 0,0.164504 -1.014442,0 c -0.968767,-0.420396 -1.932943,-0.7951 -2.892531,-1.124112 -0.959625,-0.329004 -1.804993,-0.950463 -2.536105,-1.86438 -0.658032,-0.785957 -1.261213,-1.613047 -1.809545,-2.481271 -0.548361,-0.868206 -1.087569,-1.731852 -1.617624,-2.590939 l -0.466095,0 -0.191922,1.727293 0.10967,0.548347 -0.191922,0.822521 0.08225,0.356425 -0.08225,0.630599 0.08225,0.987025 -0.08225,0.383843 0.08225,0.356426 -0.08225,1.891797 0.08225,1.919215 c -0.109681,0.237618 -0.137099,0.52093 -0.08225,0.849938 0.05482,0.329008 -0.06399,0.52093 -0.356425,0.575764 l 0,0 z m -8.6090495,-3.344917 0,-0.08225 0.466095,-0.274174 c 0.7859595,-1.151524 1.4348363,-2.376164 1.9466325,-3.673925 0.511784,-1.297746 0.795096,-2.668613 0.849938,-4.112603 l -0.274174,0 -1.0966941,0.82252 -0.5209297,0.08225 -0.1919215,-0.274174 -0.5483471,-0.08225 -0.082252,-0.383843 -0.2741735,0 -0.5483471,-0.904773 3.4545871,-1.535372 0.08225,-0.164504 0.548347,-0.191921 0.08225,-0.191922 0.191921,0 c 0.420392,0.07313 0.872778,0.123393 1.357159,0.150796 0.484364,0.02743 0.872776,0.251339 1.165238,0.671725 l 0.109669,0.466095 -0.82252,0.630599 c -0.05484,0.658028 -0.20564,1.306905 -0.452387,1.946632 -0.246764,0.639748 -0.488951,1.261208 -0.72656,1.86438 l -0.191921,0 -1.178946,2.248223 -0.904773,0.6306 -0.08225,0.274173 -1.8917975,1.919215 -0.466095,0.164504 z"
     id="text2470"
     style="font-size:9.35846043px;font-style:normal;font-weight:normal;fill:#ffffff;fill-opacity:1;stroke:none;font-family:AoyagiKouzanFont2" />
  <path
     d="m 4.7775505,4.5268814 1.3041484,0 0.4701001,2.4839479 0.6854362,-2.4839479 1.3011155,0 0.6884691,2.4839479 0.4701,-2.4839479 1.2980822,0 -0.979627,4.4462364 -1.3466094,0 -0.7794562,-2.7993698 -0.7764233,2.7993698 -1.3466091,0 -0.9887265,-4.4462364 z m 9.4050335,3.7122738 -1.564978,0 -0.215336,0.7339626 -1.404235,0 1.67113,-4.4462364 1.498254,0 1.67113,4.4462364 -1.437596,0 -0.218369,-0.7339626 z m -0.288126,-0.9614304 -0.49133,-1.5983401 -0.488298,1.5983401 0.979628,0 z m 2.06844,-2.7508434 4.176308,0 0,1.0979111 -1.401201,0 0,3.3483253 -1.373906,0 0,-3.3483253 -1.401201,0 0,-1.0979111 z m 4.798053,0 3.681945,0 0,0.9492988 -2.305007,0 0,0.7066665 2.138197,0 0,0.9068381 -2.138197,0 0,0.8765091 2.371731,0 0,1.0069239 -3.748669,0 0,-4.4462364 z m 4.509928,4.4462364 0,-4.4462364 2.289842,0 c 0.424603,4.5e-6 0.749123,0.036399 0.973562,0.1091845 0.224431,0.072794 0.405394,0.2077581 0.542889,0.4048926 0.137488,0.1971425 0.206233,0.4372471 0.206238,0.7203146 -5e-6,0.2466791 -0.05258,0.4594876 -0.157711,0.6384262 -0.105145,0.1789437 -0.249713,0.3240174 -0.433705,0.4352216 -0.117276,0.07077 -0.27802,0.1294059 -0.482232,0.1759084 0.163773,0.054594 0.283067,0.1091864 0.357883,0.1637768 0.05054,0.036397 0.123839,0.114241 0.219885,0.2335336 0.09604,0.1192956 0.160234,0.2112936 0.19259,0.2759942 l 0.664205,1.2889839 -1.552846,0 -0.733963,-1.3587407 C 27.264505,7.4384702 27.181605,7.324231 27.108818,7.271659 27.009741,7.202915 26.897524,7.1685421 26.772166,7.1685403 l -0.121316,0 0,1.8045775 -1.379971,0 z m 1.379971,-2.6446918 0.579284,0 c 0.06268,2.7e-6 0.183994,-0.020217 0.363949,-0.060658 0.09098,-0.018195 0.16529,-0.064699 0.222918,-0.1395136 0.05762,-0.074809 0.08643,-0.1607409 0.08644,-0.2577968 -3e-6,-0.1435542 -0.0455,-0.2537495 -0.136481,-0.3305864 -0.09099,-0.07683 -0.261843,-0.1152468 -0.512561,-0.1152504 l -0.603547,0 0,0.9038052 z"
     id="text2497"
     style="font-size:6.21139002px;font-style:normal;font-weight:normal;fill:#ffffff;fill-opacity:1;stroke:#000000;stroke-width:0.15000001;stroke-linecap:butt;stroke-linejoin:miter;stroke-miterlimit:4;stroke-opacity:1;stroke-dasharray:none;font-family:Arial Black" />
</svg>
