<?xml version="1.0" encoding="UTF-8" standalone="no"?>
<!-- Created with Inkscape (http://www.inkscape.org/) -->
<svg
   xmlns:svg="http://www.w3.org/2000/svg"
   xmlns="http://www.w3.org/2000/svg"
   xmlns:xlink="http://www.w3.org/1999/xlink"
   version="1.0"
   width="34"
   height="34"
   id="svg4376">
  <defs
     id="defs4378">
    <linearGradient
       id="linearGradient3264">
      <stop
         style="stop-color:#1b2400;stop-opacity:1"
         offset="0"
         id="stop3266" />
      <stop
         style="stop-color:#99f076;stop-opacity:1"
         offset="1"
         id="stop3268" />
    </linearGradient>
    <linearGradient
       x1="28.5714"
       y1="28.160311"
       x2="5.0713987"
       y2="8.0716553"
       id="linearGradient4345"
       xlink:href="#linearGradient3264"
       gradientUnits="userSpaceOnUse"
       gradientTransform="translate(-3.1194387e-2,0.232301)" />
  </defs>
  <g
     id="layer1">
    <path
       d="M 33.217513,17.142361 C 33.217655,26.164121 25.905555,33.478542 16.883792,33.481272 C 7.8620286,33.483992 0.54551261,26.173991 0.54020761,17.152221 C 0.53490161,8.130461 7.8428136,0.811851 16.864574,0.803971 C 25.886334,0.796081 33.207032,8.101901 33.217502,17.123651 L 33.217513,17.142361 z "
       style="opacity:1;color:#000000;fill:url(#linearGradient4345);fill-opacity:1;fill-rule:evenodd;stroke:none;stroke-width:0.5;stroke-linecap:butt;stroke-linejoin:miter;marker:none;marker-start:none;marker-mid:none;marker-end:none;stroke-miterlimit:4;stroke-dasharray:none;stroke-dashoffset:0;stroke-opacity:1;visibility:visible;display:inline;overflow:visible;enable-background:accumulate"
       id="path2220" />
    <path
       d="M 4.9139104,4.9776907 L 6.5935979,4.9776907 L 7.1990666,8.1769094 L 8.0818791,4.9776907 L 9.7576604,4.9776907 L 10.644379,8.1769094 L 11.249848,4.9776907 L 12.921723,4.9776907 L 11.660004,10.704253 L 9.9256291,10.704253 L 8.9217229,7.0987844 L 7.9217229,10.704253 L 6.1873479,10.704253 L 4.9139104,4.9776907 z M 13.574067,4.9776907 L 15.347504,4.9776907 L 15.347504,10.704253 L 13.574067,10.704253 L 13.574067,4.9776907 z M 16.624848,4.9776907 L 18.277192,4.9776907 L 20.433442,8.1456594 L 20.433442,4.9776907 L 22.10141,4.9776907 L 22.10141,10.704253 L 20.433442,10.704253 L 18.28891,7.5597219 L 18.28891,10.704253 L 16.624848,10.704253 L 16.624848,4.9776907 z M 23.308442,4.9776907 L 25.937348,4.9776907 C 26.455573,4.9776964 26.874193,5.0480089 27.193207,5.1886282 C 27.512213,5.3292586 27.775884,5.5310813 27.984223,5.7940969 C 28.192551,6.0571224 28.343592,6.3631117 28.437348,6.7120657 C 28.531092,7.0610277 28.577967,7.430819 28.577973,7.8214407 C 28.577967,8.4334221 28.508306,8.908031 28.368989,9.2452688 C 28.22966,9.5825095 28.036301,9.8650613 27.78891,10.092925 C 27.54151,10.32079 27.275885,10.472483 26.992035,10.548003 C 26.604011,10.65217 26.252449,10.704253 25.937348,10.704253 L 23.308442,10.704253 L 23.308442,4.9776907 z M 25.077973,6.2745657 L 25.077973,9.4034719 L 25.511567,9.4034719 C 25.881355,9.4034732 26.144376,9.3624577 26.300629,9.2804251 C 26.456875,9.1983953 26.579271,9.0551663 26.667817,8.8507376 C 26.756354,8.6463125 26.800625,8.3149327 26.800629,7.8565969 C 26.800625,7.2498296 26.701667,6.8344654 26.503754,6.6105032 C 26.305834,6.3865492 25.977709,6.2745701 25.519379,6.2745657 L 25.077973,6.2745657 z "
       style="font-size:8px;font-style:normal;font-weight:normal;fill:#ffffff;fill-opacity:1;stroke:none;stroke-width:0.40000001;stroke-linecap:butt;stroke-linejoin:miter;stroke-miterlimit:4;stroke-opacity:1;font-family:Arial Black"
       id="text2497" />
    <path
       d="M 5.2408139,32.74162 C 5.0122631,32.741618 4.8551354,32.698765 4.7694305,32.613061 C 4.6837235,32.527353 4.6408705,32.413078 4.6408715,32.270237 C 5.4407929,31.384607 6.0621612,30.398988 6.5049782,29.313378 C 6.9477895,28.22777 7.2691869,27.049313 7.4691713,25.778003 C 7.6691481,24.506703 7.7691384,23.099696 7.7691425,21.55698 L 7.7691425,13.457757 C 7.7691384,13.3435 7.7977071,13.250652 7.8548485,13.179213 C 7.9119817,13.107809 8.011972,13.072098 8.1548197,13.07208 C 8.2405212,13.072098 8.3547959,13.086382 8.4976439,13.114933 C 8.6404824,13.143519 8.8261787,13.214941 9.0547333,13.329198 L 9.3118515,13.457757 L 20.282227,13.457757 C 20.332205,13.379211 20.401841,13.316717 20.491135,13.270275 C 20.580395,13.223869 20.667887,13.200657 20.75361,13.200639 C 20.867867,13.200657 20.962501,13.225654 21.037511,13.275632 C 21.112487,13.325645 21.182123,13.407779 21.24642,13.522037 L 21.824936,14.507657 L 21.567817,14.871907 L 21.567817,26.65649 C 21.539231,28.056358 21.703501,29.191962 22.060627,30.063306 C 22.417717,30.93465 22.796252,31.456028 23.196232,31.627441 C 23.510468,30.941792 23.710449,29.770477 23.796175,28.113493 L 24.224705,28.113493 C 24.53894,28.570594 24.696067,29.18482 24.696088,29.956173 L 24.696088,30.813234 C 24.696067,31.384607 24.353243,32.027401 23.667616,32.74162 L 22.853408,32.74162 C 22.053467,32.598774 21.382103,32.013117 20.839316,30.984646 C 20.296494,29.956174 20.025092,28.513457 20.025108,26.65649 L 20.025108,14.571936 L 9.3118515,14.571936 L 9.3118515,21.55698 C 9.3118459,23.299677 9.1690026,24.878095 8.8833212,26.292239 C 8.5976294,27.706392 8.1548153,28.949129 7.5548773,30.020453 C 6.9549317,31.091778 6.183578,31.998833 5.2408139,32.74162 L 5.2408139,32.74162 z M 11.240238,32.74162 C 10.668857,32.627343 10.254612,32.398794 9.9974999,32.055971 C 9.7403757,31.713146 9.5975324,31.384607 9.5689696,31.070352 L 13.640007,30.598969 L 13.640007,26.742196 L 11.283091,26.742196 L 10.340324,27.213579 L 9.7403817,27.213579 L 9.7403817,20.314242 C 9.7403757,20.199978 9.7689444,20.107129 9.8260878,20.035697 C 9.883219,19.964286 9.9832093,19.928575 10.126059,19.928565 C 10.211759,19.928575 10.326033,19.94286 10.468883,19.971418 C 10.61172,19.999997 10.797416,20.071419 11.025973,20.185683 L 11.283091,20.314242 L 13.640007,20.314242 L 13.640007,18.557268 L 10.168912,18.557268 C 9.8260817,18.185887 9.8260817,17.828779 10.168912,17.485942 L 12.954359,17.485942 C 15.125567,17.257406 16.554,16.800307 17.239662,16.114645 C 18.096708,16.286072 18.653797,16.84316 18.91093,17.785913 C 17.911011,18.157319 16.668275,18.357299 15.182716,18.385856 L 15.182716,20.314242 L 17.839604,20.314242 C 17.889585,20.235688 17.959221,20.173194 18.048512,20.12676 C 18.137775,20.080346 18.225267,20.057134 18.310987,20.057124 C 18.425247,20.057134 18.519881,20.082132 18.594889,20.132117 C 18.669866,20.182122 18.739502,20.264257 18.803797,20.378521 L 19.382313,21.364141 L 19.125195,21.728392 L 19.125195,26.742196 L 18.182428,27.213579 L 17.582486,27.213579 L 17.582486,26.742196 L 15.182716,26.742196 L 15.182716,30.470409 L 18.011016,30.170438 L 17.753898,28.713435 C 17.982433,28.256339 18.382394,28.256339 18.953783,28.713435 L 20.32508,32.055971 C 19.896533,32.513068 19.296591,32.741618 18.525252,32.74162 L 18.268134,31.241764 L 11.240238,32.74162 z M 11.283091,25.199487 L 13.640007,25.199487 L 13.640007,21.856951 L 11.283091,21.856951 L 11.283091,25.199487 z M 15.182716,25.199487 L 17.582486,25.199487 L 17.582486,21.856951 L 15.182716,21.856951 L 15.182716,25.199487 z "
       transform="scale(1.143478,0.8745249)"
       style="font-size:21.94075012px;font-style:normal;font-weight:normal;fill:#ffffff;fill-opacity:1;stroke:none;stroke-width:1px;stroke-linecap:butt;stroke-linejoin:miter;stroke-opacity:1;font-family:Code2000"
       id="text4372" />
  </g>
</svg>
